<svg xmlns="http://www.w3.org/2000/svg" xmlns:xlink="http://www.w3.org/1999/xlink" width="667.4107" height="541.46275" viewBox="0 0 667.4107 541.46275">
  <defs>
    <linearGradient id="f9138ebb-f2ca-4cf6-bfcc-62cb9bb937c2" x1="538.48471" y1="307.03687" x2="1078.94744" y2="307.03687" gradientTransform="translate(-412.03675 -36.30549)" gradientUnits="userSpaceOnUse">
      <stop offset="0" stop-color="#151218" stop-opacity="0.1"/>
      <stop offset="1" stop-color="#fff" stop-opacity="0.4"/>
    </linearGradient>
    <linearGradient id="abd78c42-9a76-4341-9a6a-f4e7036b497f" x1="-127.38655" y1="448.09285" x2="-105.54644" y2="448.09285" gradientTransform="translate(109.55358 -294.67707) rotate(-3.2827)" gradientUnits="userSpaceOnUse">
      <stop offset="0" stop-color="#fc907e"/>
      <stop offset="0.99" stop-color="#9f6eed"/>
    </linearGradient>
    <linearGradient id="bc07290d-4ab2-4a49-be3c-6740dac94919" x1="4254.64321" y1="479.04916" x2="4328.27487" y2="479.04916" gradientTransform="matrix(-1, 0, 0, 1, 4716.96495, 0)" gradientUnits="userSpaceOnUse">
      <stop offset="0.00062" stop-color="#fff" stop-opacity="0.2"/>
      <stop offset="0.98869" stop-color="#fff" stop-opacity="0.4"/>
    </linearGradient>
    <linearGradient id="b300251f-bedf-4184-9491-13616dbe1268" x1="4220.32738" y1="432.2845" x2="4293.95904" y2="432.2845" xlink:href="#bc07290d-4ab2-4a49-be3c-6740dac94919"/>
    <linearGradient id="b89df587-787b-4826-aa69-a5f9b3922d05" x1="4313.95365" y1="398.8228" x2="4353.26949" y2="398.8228" xlink:href="#bc07290d-4ab2-4a49-be3c-6740dac94919"/>
  </defs>
  <g id="b5c9b1d3-2b74-4f14-9912-7d8edd0df8f8" data-name="Layer 2">
    <g id="a6815a11-ce17-4248-a96b-207fe615cefb" data-name="Layer 1">
      <g>
        <g>
          <rect x="126.44797" y="0.5" width="540.46273" height="540.46275" fill="none" stroke-miterlimit="10" stroke="url(#f9138ebb-f2ca-4cf6-bfcc-62cb9bb937c2)"/>
          <line x1="126.44797" y1="491.82977" x2="666.9107" y2="491.82977" fill="none" stroke-miterlimit="10" stroke="url(#f9138ebb-f2ca-4cf6-bfcc-62cb9bb937c2)"/>
          <line x1="126.44797" y1="442.69679" x2="666.9107" y2="442.69679" fill="none" stroke-miterlimit="10" stroke="url(#f9138ebb-f2ca-4cf6-bfcc-62cb9bb937c2)"/>
          <line x1="126.44797" y1="393.56382" x2="666.9107" y2="393.56382" fill="none" stroke-miterlimit="10" stroke="url(#f9138ebb-f2ca-4cf6-bfcc-62cb9bb937c2)"/>
          <line x1="126.44797" y1="344.43084" x2="666.9107" y2="344.43084" fill="none" stroke-miterlimit="10" stroke="url(#f9138ebb-f2ca-4cf6-bfcc-62cb9bb937c2)"/>
          <line x1="126.44797" y1="295.29786" x2="666.9107" y2="295.29786" fill="none" stroke-miterlimit="10" stroke="url(#f9138ebb-f2ca-4cf6-bfcc-62cb9bb937c2)"/>
          <line x1="126.44797" y1="246.16489" x2="666.9107" y2="246.16489" fill="none" stroke-miterlimit="10" stroke="url(#f9138ebb-f2ca-4cf6-bfcc-62cb9bb937c2)"/>
          <line x1="126.44797" y1="197.03191" x2="666.9107" y2="197.03191" fill="none" stroke-miterlimit="10" stroke="url(#f9138ebb-f2ca-4cf6-bfcc-62cb9bb937c2)"/>
          <line x1="126.44797" y1="147.89893" x2="666.9107" y2="147.89893" fill="none" stroke-miterlimit="10" stroke="url(#f9138ebb-f2ca-4cf6-bfcc-62cb9bb937c2)"/>
          <line x1="126.44797" y1="98.76595" x2="666.9107" y2="98.76595" fill="none" stroke-miterlimit="10" stroke="url(#f9138ebb-f2ca-4cf6-bfcc-62cb9bb937c2)"/>
          <line x1="126.44797" y1="49.63298" x2="666.9107" y2="49.63298" fill="none" stroke-miterlimit="10" stroke="url(#f9138ebb-f2ca-4cf6-bfcc-62cb9bb937c2)"/>
          <line x1="617.77772" y1="0.5" x2="617.77772" y2="540.96275" fill="none" stroke-miterlimit="10" stroke="url(#f9138ebb-f2ca-4cf6-bfcc-62cb9bb937c2)"/>
          <line x1="568.64475" y1="0.5" x2="568.64475" y2="540.96275" fill="none" stroke-miterlimit="10" stroke="url(#f9138ebb-f2ca-4cf6-bfcc-62cb9bb937c2)"/>
          <line x1="519.51177" y1="0.5" x2="519.51177" y2="540.96275" fill="none" stroke-miterlimit="10" stroke="url(#f9138ebb-f2ca-4cf6-bfcc-62cb9bb937c2)"/>
          <line x1="470.3788" y1="0.5" x2="470.3788" y2="540.96275" fill="none" stroke-miterlimit="10" stroke="url(#f9138ebb-f2ca-4cf6-bfcc-62cb9bb937c2)"/>
          <line x1="421.24582" y1="0.5" x2="421.24582" y2="540.96275" fill="none" stroke-miterlimit="10" stroke="url(#f9138ebb-f2ca-4cf6-bfcc-62cb9bb937c2)"/>
          <line x1="372.11284" y1="0.5" x2="372.11284" y2="540.96275" fill="none" stroke-miterlimit="10" stroke="url(#f9138ebb-f2ca-4cf6-bfcc-62cb9bb937c2)"/>
          <line x1="322.97987" y1="0.5" x2="322.97987" y2="540.96275" fill="none" stroke-miterlimit="10" stroke="url(#f9138ebb-f2ca-4cf6-bfcc-62cb9bb937c2)"/>
          <line x1="273.84689" y1="0.5" x2="273.84689" y2="540.96275" fill="none" stroke-miterlimit="10" stroke="url(#f9138ebb-f2ca-4cf6-bfcc-62cb9bb937c2)"/>
          <line x1="224.71392" y1="0.5" x2="224.71392" y2="540.96275" fill="none" stroke-miterlimit="10" stroke="url(#f9138ebb-f2ca-4cf6-bfcc-62cb9bb937c2)"/>
          <line x1="175.58094" y1="0.5" x2="175.58094" y2="540.96275" fill="none" stroke-miterlimit="10" stroke="url(#f9138ebb-f2ca-4cf6-bfcc-62cb9bb937c2)"/>
        </g>
        <g>
          <g>
            <path d="M560.78944,410.39422c-44.92568-.71428-74.77066,5.43632-106.49214-22.64826-17.92932-15.87371-29.32135-37.6396-40.82451-58.64237-15.19046-27.73514-33.36437-71.88805-72.3297-69.33545-49.87572,3.26733-50.56464,35.40607-63.83316,68.77847C259.37716,373.65146,244.80728,435.926,181.50678,424.253c-56.966-10.52846-69.4261-77.39094-76.23544-125.32871C85.20391,157.64953,17.94349,154.55811,17.94349,154.55811" fill="none" stroke="#cfb8f5" stroke-linecap="round" stroke-miterlimit="10" stroke-dasharray="5"/>
            <path d="M25.58434,231.90249s-4.01971.59688-18.43367-2.88547c0,0-3.99483-.74213-4.345-4.47827-.25715-2.74391.99755-5.98166,2.172-7.07087,1.0747-.99673,2.07728-.41,3.04593-.25833,3.254.50935,6.5203.92259,9.79964,1.26613q2.31035.24213,4.6263.44634,1.26588.11173,2.5334.21236a11.13015,11.13015,0,0,1,2.545.14536c.0264.02262.03334.05512.05812.0795.34589.34026,3.26362,3.30961,2.86407,6.33115C30.15606,227.91452,28.30571,231.65758,25.58434,231.90249Z" fill="#ffd9d2"/>
            <g>
              <path d="M129.20709,386.40827a429.54014,429.54014,0,0,1,8.19468-49.781c3.38136-14.87043,6.96234-27.68614,13.8607-40.99632,2.67294-5.15735,10.07918-11.324,15.571-13.21691,9.49222-3.2717,21.27133.30631,28.21414,5.94511,11.28371,9.16439,18.64131,21.12106,29.24765,32.96074,34.27266,38.258,73.65105,71.52417,122.64989,86.93213,2.52708.79466,5.19684,1.61371,7.005,3.54977,3.72676,3.99046,2.0643,10.38566.174,15.50809-2.23695,6.06187-5.20619,12.84761-11.34776,14.8554-4.31771,1.41153-8.95846-1.82658-13.27416-3.24422C259.02824,415.77157,222.409,386.8502,179.64448,336.17216c-8.61335,25.03768-12.78954,40.92558-13.70273,65.197-1.00846,26.80354,2.19275,52.58774,11.83325,77.61787-10.76246-2.09246-23.70876,4.76232-31.96518-2.45158-2.62731-2.29556-4.099-5.61125-5.3895-8.85268A169.77618,169.77618,0,0,1,129.20709,386.40827Z" fill="#9f6eed"/>
              <path d="M148.693,331.43523c-7.18709-21.06792.83386-42.87067,17.91529-48.69781s36.755,6.52792,43.94207,27.59585Z" fill="#9f6eed"/>
            </g>
            <g>
              <path d="M375.5441,477.72349l2.53083.9425s4.79341,1.91172,6.6616-2.80506,16.61685-43.57643,16.61685-43.57643" fill="none" stroke="#ffd9d2" stroke-miterlimit="10" stroke-width="3"/>
              <path d="M384.4869,454.33362l2.53083.9425s4.79342,1.91172,6.6616-2.80506" fill="none" stroke="#ffd9d2" stroke-miterlimit="10" stroke-width="3"/>
            </g>
            <g>
              <path d="M134.579,530.52989l.43042,2.6661s.70513,5.11217,5.72916,4.407,46.09768-7.07315,46.09768-7.07315" fill="none" stroke="#ffd9d2" stroke-miterlimit="10" stroke-width="3"/>
              <path d="M159.33379,526.75388l.43042,2.66611s.70513,5.11217,5.72916,4.407" fill="none" stroke="#ffd9d2" stroke-miterlimit="10" stroke-width="3"/>
            </g>
            <path d="M178.87919,459.514a.9544.9544,0,0,1,1.16256.90961c.0609,2.39305.0424,7.71974.03222,8.18365-.188,8.57176.84721,17.07932,1.98832,25.55755q1.46835,10.90954,2.93687,21.81906c.27424,2.03629.54855,4.07257.82553,6.12812a1.9592,1.9592,0,0,1-1.64164,2.19441l-53.18263,8.25317a2.59924,2.59924,0,0,1-2.977-2.24c-.70012-5.4949-1.678-10.30993.14962-15.62795a22.21491,22.21491,0,0,1,9.80725-11.96232,23.87018,23.87018,0,0,1,6.66179-2.77527c.00026-.00005,8.66895-1.928,12.84549.41923-.552-.353-5.1781-3.185-9.575-2.98641a152.5744,152.5744,0,0,1-8.46835-28.02645,1.05556,1.05556,0,0,1,.80871-1.22926Z" fill="#fc907e"/>
            <g>
              <path d="M176.78858,209.84428a23.12864,23.12864,0,0,0-5.58-5.99012,34.81,34.81,0,0,0-6.58415-4.40811c-1.90932-.94406-3.88264-2.80623-5.83647-1.47374-3.81955,2.60533-5.11409,9.96353-5.97156,14.16875-.60666,2.97516-1.15834,6.26481-.31368,9.07752a4.81243,4.81243,0,0,0,2.15794,2.95832,6.77308,6.77308,0,0,0,2.83418.69758,28.3116,28.3116,0,0,0,11.62426-2.15711c2.83195-1.05225,6.88376-2.25589,8.33717-6.03648A7.55117,7.55117,0,0,0,176.78858,209.84428Z" fill="#ffd9d2"/>
              <path d="M158.83805,205.3933c-.13882-.04836-1.17169-.46932-1.30756-.52761-2.07466-.89009-3.19093-2.93217-2.19223-5.09788a6.96538,6.96538,0,0,1,5.93854-3.61886,16.03969,16.03969,0,0,1,7.37635,1.74463c4.72728,2.09224,9.24047,4.9806,12.11034,9.17681C182.786,210.02767,183.894,213.914,182.391,217.2a9.06583,9.06583,0,0,1-6.79713,4.876c-2.25482.362-4.78747-.13517-6.23032-1.827a5.94486,5.94486,0,0,1-1.23544-4.34073,5.09829,5.09829,0,0,1,1.67887-3.60688,15.49958,15.49958,0,0,0,2.09-1.49756,2.03485,2.03485,0,0,0,.23-2.46123,1.66473,1.66473,0,0,0-2.38225-.26773,14.97855,14.97855,0,0,1-3.199-.64373c-1.22636-.33053-2.85684-.64545-3.84813-.94786C161.15494,206.01267,160.73764,206.055,158.83805,205.3933Z" fill="#402d5f"/>
            </g>
            <path d="M202.4032,226.21765c3.28222,24.52815-10.17854,46.56941-30.06544,49.23057s-38.66921-15.06552-41.95143-39.59366Z" fill="#9f6eed"/>
            <g>
              <rect x="0.00001" y="183.74278" width="35.56456" height="35.56456" transform="translate(35.56442 403.05014) rotate(-179.99995)" fill="#e6715f"/>
              <rect x="13.49539" y="195.17922" width="29.75802" height="24.12812" transform="translate(56.74863 414.4866) rotate(-179.99995)" fill="#ff8c79"/>
              <rect x="26.93067" y="195.17922" width="2.88747" height="12.86192" transform="translate(56.74865 403.22039) rotate(-179.99995)" fill="#fff"/>
              <rect x="15.79636" y="183.63172" width="2.88747" height="11.5475" transform="translate(34.48004 378.81094) rotate(-179.99995)" fill="#fff"/>
            </g>
            <path d="M335.36132,399.50515a.98435.98435,0,0,1,1.41678-.55729c2.15879,1.1981,6.88342,4.00188,7.29041,4.25368,7.5201,4.65252,15.62325,8.18424,23.75573,11.6065q10.46465,4.40367,20.92935,8.80717c1.95334.82181,3.9067,1.64354,5.87859,2.473a2.0207,2.0207,0,0,1,1.09134,2.60736l-20.494,51.58686a2.68083,2.68083,0,0,1-3.54869,1.47376c-5.77267-2.47752-10.72646-4.23735-14.611-9.296-4.7232-6.15078-5.64046-13.97557-3.6814-21.36411,0,0,2.82266-8.7137,7.09436-11.19757-.60256.30592-5.5404,2.93559-7.66467,6.94745a157.36464,157.36464,0,0,1-29.34092-7.139,1.08871,1.08871,0,0,1-.66937-1.362C324.61966,432.7393,333.47715,405.33464,335.36132,399.50515Z" fill="#fc907e"/>
            <g>
              <path d="M18.38008,174.74074c-3.16794-5.08445-6.40441-10.12859-9.44612-15.28756a9.6247,9.6247,0,0,1-1.17659-4.34174A10.89277,10.89277,0,1,1,28.24012,159.697c-1.53789,2.69433-3.19937,5.3191-4.83923,7.954-1.54011,2.4746-3.12583,4.92082-4.71593,7.41793A2.75711,2.75711,0,0,1,18.38008,174.74074Z" fill="url(#abd78c42-9a76-4341-9a6a-f4e7036b497f)"/>
              <path d="M13.84955,154.53128a4.81706,4.81706,0,1,0,4.80234-4.80527A4.84386,4.84386,0,0,0,13.84955,154.53128Z" fill="#151218"/>
            </g>
            <path d="M180.003,336.14974s-1.05282,2.36813-4.399,9.85635c0,0-13.48913-32.32784-15.57568-37.45747" fill="#7e59be"/>
            <path d="M74.05536,253.11228c14.45758,3.61439,42.29471,9.14489,62.8649,7.93192-5.91624-8.863-8.29859-15.21888-9.90267-24.44234-9.7672.52861-30.6772,1.00633-51.40246-2.38745-17.46573-2.86-32.27667-7.99676-47.82828-14.591a7.82269,7.82269,0,0,1-3.24608,12.55949A177.28171,177.28171,0,0,0,74.05536,253.11228Z" fill="#ffd9d2"/>
            <circle cx="173.44655" cy="197.50766" r="6.47913" fill="#402d5f"/>
            <g>
              <path d="M221.48927,146.829l-4.12263-3.77408c-3.36895-3.08413-6.65707-6.20906-9.95471-9.36623-2.45747-2.35278-2.45747-2.35278-7.56493,1.79021-4.23838,3.438-2.99559,4.32961-2.16481,5.45908a13.61988,13.61988,0,0,0,2.7887,3.09619q3.46209,3.1694,6.9083,6.35507c-.88106.16687-1.76041.30609-2.63312.40921a5.18,5.18,0,0,0-2.28507.569,3.432,3.432,0,0,0-.81143.76874,3.523,3.523,0,0,0-.52723.83216c-.93016,2.23324,2.81446,2.192,4.09944,2.11735q3.008-.17472,6.016-.34978l1.47675-.08586,8.77473-7.821" fill="#ffd9d2"/>
              <path d="M235.81477,211.37453c-4.60615,15.8655-20.16053,36.08371-33.11934,42.58148,4.243-11.34343,4.786-18.73968,3.4247-29.21049,6.31619-7.58328,11.09057-12.16609,14.21152-21.154,5.72111-16.476,2.05333-36.13745-8.59636-49.03924a32.77408,32.77408,0,0,1,7.96461-9.06141C234.4084,159.445,244.06561,182.95516,235.81477,211.37453Z" fill="#ffd9d2"/>
            </g>
            <line x1="391.19007" y1="479.04916" x2="459.82173" y2="479.04916" fill="none" stroke-linecap="round" stroke-miterlimit="10" stroke-width="5" opacity="0.51" stroke="url(#bc07290d-4ab2-4a49-be3c-6740dac94919)"/>
            <line x1="425.5059" y1="432.2845" x2="494.13756" y2="432.2845" fill="none" stroke-linecap="round" stroke-miterlimit="10" stroke-width="5" opacity="0.51" stroke="url(#b300251f-bedf-4184-9491-13616dbe1268)"/>
            <line x1="366.19546" y1="398.8228" x2="400.51129" y2="398.8228" fill="none" stroke-linecap="round" stroke-miterlimit="10" stroke-width="5" opacity="0.51" stroke="url(#b89df587-787b-4826-aa69-a5f9b3922d05)"/>
          </g>
          <path d="M202.896,253.59908s5.43058-10.69089,3.4247-29.21048c0,0,6.35338,17.36334,6.69,21.93574A50.34761,50.34761,0,0,1,202.896,253.59908Z" fill="#efc4bf"/>
          <path d="M185.88455,228.42809l16.51865-2.21044s3.1129,19.67912-7.06567,33.95088c0,0-5.57126,8.71477-11.89,11.47358C183.44748,271.64211,193.51294,254.32727,185.88455,228.42809Z" fill="#8e63d5"/>
          <path d="M329.45261,417.85634l57.68994,5.19421s-32.24833-13.56953-37.7529-16.75444c-5.50451-3.185-10.69787-6.26547-10.69787-6.26547-.36213-.21487-.71316-.443-1.085-.64209a5.27314,5.27314,0,0,0-1.117-.54425c-.32185-.08166-.5793.07345-.90728.39375-.11537.11266-.08606.18182-.14516.34168-.18066.48864-.31948.9369-.46956,1.40641q-.03755.11748-.07583.23471Z" fill="#ff7e69"/>
          <path d="M160.13649,463.73361,185.10726,515.998s-4.78564-34.65811-4.85544-41.01728c-.06969-6.35917-.0705-12.39741-.0705-12.39742,0-.42106.01709-.83937-.00148-1.26077a5.27258,5.27258,0,0,0-.10191-1.23834c-.094-.31846-.35877-.46072-.80159-.57936-.15576-.04173-.20028.01878-.36793.04952-.51242.094-.96876.20332-1.44913.31383q-.12018.02766-.24054.05455Z" fill="#ff7e69"/>
          <circle cx="338.88417" cy="259.70866" r="21.05264" fill="#151218" stroke="#b28af0" stroke-miterlimit="10"/>
          <g>
            <path d="M338.34925,251.34919c1.12883,0,2.25927-.03407,3.38556.01942a1.80065,1.80065,0,0,1,1.0755.41912c1.14846,1.08477,2.23535,2.23452,3.36085,3.34416a.65423.65423,0,0,1-.00463,1.09015c-1.03132,1.01239-2.05073,2.037-3.06886,3.06275a1.58691,1.58691,0,0,0-.139,2.13828c1.52935,2.03031,1.59787,3.4631.239,5.57775a5.85694,5.85694,0,0,0-.43168,5.02941c.1409.49831.37339.9708.51183,1.4696a1.56771,1.56771,0,0,1-.08835.60157c-.19888-.092-.51336-.13323-.57939-.28369-1.075-2.44933-1.58811-4.91084.00168-7.36442a3.42253,3.42253,0,0,0-.08463-4.27166,1.38841,1.38841,0,0,0-.93047-.52162c-2.16637-.04374-4.33429-.03374-6.50112-.00172a1.24272,1.24272,0,0,0-.80645.37542,3.38561,3.38561,0,0,0-.3224,4.19825c1.689,2.46569,1.26638,4.96246.19209,7.47768-.08034.1881-.38854.27869-.59081.41461-.029-.25827-.15326-.55257-.07162-.769a7.755,7.755,0,0,0,.63033-4.88332,6.17221,6.17221,0,0,0-.75559-1.64517,4.11177,4.11177,0,0,1,.18142-5.14412,1.62118,1.62118,0,0,0-.15281-2.54064c-.96819-.97941-1.9212-1.974-2.897-2.94564-.35767-.35615-.40421-.66116-.0295-1.0328,1.17035-1.16078,2.31385-2.34924,3.50515-3.48777a1.48706,1.48706,0,0,1,.91729-.31485c1.15024-.0364,2.30232-.01444,3.4537-.01444Zm7.08655,4.34289a2.03152,2.03152,0,0,0-.22791-.37836c-.87242-.87737-1.737-1.764-2.64635-2.60159a.745.745,0,0,0-.72266.03932c-.86.79255-1.66483,1.64474-2.5071,2.45725-.36581.35288-.31761.639.01781.96864.78668.773,1.57041,1.54954,2.33566,2.34365a.63526.63526,0,0,0,1.07582.00316c.76406-.79561,1.5594-1.561,2.33283-2.34775A3.58239,3.58239,0,0,0,345.4358,255.69208Zm-7.77972-.03522a4.64268,4.64268,0,0,0-.37326-.49759c-.77807-.787-1.58055-1.55041-2.34207-2.35291-.379-.39934-.66843-.335-1.01452.01685q-1.18786,1.20758-2.40109,2.39a.54475.54475,0,0,0-.00952.91434q1.2151,1.17906,2.39936,2.3898a.61935.61935,0,0,0,1.03263.01533c.78754-.80892,1.59327-1.6,2.3839-2.406A3.51166,3.51166,0,0,0,337.65608,255.65686Zm3.36516,3.62612.11748-.20348c-.8564-.85086-1.70192-1.71346-2.58609-2.53434-.08809-.08179-.47029.02515-.61526.15618-.56786.51324-1.09874,1.0679-1.63628,1.61415-.2574.26157-.499.53873-.74774.80883l.08755.15866Zm-5.2531-7.02237-.10067.20017c.80311.7789,1.60051,1.56394,2.418,2.32745a.44.44,0,0,0,.426.02609c.82954-.77521,1.63783-1.5732,2.45185-2.365l-.115-.18867Zm2.53725,8.59821v.00439c.96951,0,1.93969.0188,2.908-.01573.19555-.007.38392-.2159.5756-.33171-.19156-.11836-.38189-.33715-.57489-.33954q-2.87418-.03564-5.7489.0056c-.19422.00278-.38536.2206-.57792.33862.19245.11279.38165.316.57791.323C336.41086,260.87758,337.35846,260.85882,338.30539,260.85882Z" fill="#b28af0"/>
            <path d="M338.70928,244.43237a1.7701,1.7701,0,0,0,.73534,1.70852c.95389.82687,1.85086,1.71989,2.765,2.59223a1.71459,1.71459,0,0,1,.3497,1.74272.48009.48009,0,0,1-.33963.25117.41827.41827,0,0,1-.29951-.28292c-.02435-.74349-.49527-.78385-1.07189-.77733-1.69187.01913-3.38412.01143-5.07615.00247-.51166-.00271-.96173.017-.98021.71081-.00326.12272-.21694.23981-.33345.35951-.12751-.13377-.34705-.25538-.36656-.40341a1.73029,1.73029,0,0,1,.47884-1.72869c.87051-.75085,1.65124-1.60794,2.53749-2.33791a2.00242,2.00242,0,0,0,.86028-1.92114,2.60331,2.60331,0,0,1,.04668-.8743c.02941-.13116.2276-.31657.34181-.31141a.48429.48429,0,0,1,.33629.325A5.94078,5.94078,0,0,1,338.70928,244.43237Zm-3.00278,4.22388c.23935.12967.31379.20236.39219.20692.35834.02086.71775.028,1.07685.03032,1.99857.01284,1.88.22166,1.17015-1.895-.02137-.06374-.03723-.15706-.08333-.17941-.12512-.06067-.33319-.16911-.38891-.12073C337.15784,247.31965,336.46315,247.96513,335.7065,248.65625Zm5.27064.05072-1.3653-1.27409C339.43955,248.581,339.86972,249.00759,340.97714,248.707Z" fill="#b28af0"/>
            <path d="M338.61484,272.46242c-.22881-1.11721-.43244-2.34082-.73555-3.53922a10.83655,10.83655,0,0,1-.14694-5.81446,1.2581,1.2581,0,0,1,.254-.54332c.12077-.118.34338-.13142.52107-.191.05372.1769.19968.38933.14738.52539-.83645,2.17633-.4309,4.30609.1758,6.4421a11.34383,11.34383,0,0,1,.13351,5.9598c-.09653.38254-.06975,1.10873-.70668.92318-.57981-.16891-.13336-.71849-.07609-1.09793C338.30889,274.28173,338.45465,273.43922,338.61484,272.46242Z" fill="#b28af0"/>
            <path d="M339.7224,270.5965c.2366-1.00057.455-2.197.809-3.35168a7.88474,7.88474,0,0,0,.28189-4.26809c-.043-.17711.12678-.406.19794-.61083.18573.156.47795.27819.54.47358a6.77957,6.77957,0,0,1-.06265,3.93957c-.2411.868-.52134,1.728-.70718,2.60792a7.98593,7.98593,0,0,0,.57674,4.76868,1.49177,1.49177,0,0,1,.19691.49778,1.53228,1.53228,0,0,1-.19961.5105c-.15072-.06672-.38245-.09344-.43841-.207a9.07848,9.07848,0,0,1-.70894-1.67416C339.9986,272.48038,339.90559,271.6475,339.7224,270.5965Z" fill="#b28af0"/>
            <path d="M336.36179,270.36949c-.31786-1.21849-.77255-2.65561-1.04757-4.1264a14.95964,14.95964,0,0,1-.0971-2.88754,1.87389,1.87389,0,0,1,.30056-.81441.42916.42916,0,0,1,.38052-.16419c.10766.03265.17746.21945.24256.34943a.29975.29975,0,0,1-.0123.199c-.6127,1.89556.08785,3.63671.59746,5.41328a9.074,9.074,0,0,1-.46949,6.2146.50951.50951,0,0,1-.13808.22931c-.20226.13122-.42049.23777-.63249.35394a2.00193,2.00193,0,0,1-.0581-.67874c.14814-.54144.41015-1.054.53424-1.59911C336.12607,272.13793,336.202,271.39708,336.36179,270.36949Z" fill="#b28af0"/>
            <path d="M344.24406,255.655a2.27774,2.27774,0,0,1-.2525.40823c-.47132.48581-.93651.98126-1.44854,1.42119a.64224.64224,0,0,1-.62237.00749c-.50917-.44318-.96947-.94332-1.44-1.43a.51869.51869,0,0,1,.00894-.82671c.43671-.42451.87464-.84832,1.29614-1.28771.284-.29607.54288-.3667.85505-.04082.437.45614.89395.893,1.333,1.34729A2.80957,2.80957,0,0,1,344.24406,255.655Zm-2.00107,1.4923c.497-.59823,1.18143-1.07418,1.13066-1.45084a1.683,1.683,0,0,0-1.17771-1.12865c-.34559-.03737-1.09282.71761-1.08544,1.10914C341.119,256.12733,341.76157,256.56571,342.243,257.14732Z" fill="#b28af0"/>
            <path d="M336.42935,255.70443a2.75242,2.75242,0,0,1-.21876.356,3.07053,3.07053,0,0,1-.38293.37865c-.48793.40423-.982.80106-1.4737,1.2007-.59684-.57318-1.2124-1.12909-1.77179-1.73681-.09162-.09953-.00818-.48911.11895-.63812a10.67,10.67,0,0,1,1.33017-1.33213.75534.75534,0,0,1,.72213-.03828,19.296,19.296,0,0,1,1.48979,1.46072A1.4518,1.4518,0,0,1,336.42935,255.70443Zm-1.98187-1.49368c-.48495.56683-1.16979,1.02471-1.13231,1.41266.04407.45617.71486.85167,1.11387,1.27348.40719-.41682,1.08636-.80283,1.138-1.25993C335.61071,255.251,334.92665,254.78253,334.44748,254.21075Z" fill="#b28af0"/>
          </g>
          <ellipse cx="581.84208" cy="409.55211" rx="21.05264" ry="21.00593" fill="#4a303f" stroke="#b28af0" stroke-miterlimit="10"/>
          <path d="M581.65078,421.79429a.98018.98018,0,0,1-.64846-1.06915c.02179-.78031.0057-1.56167.00569-2.34258v-.29389c-.50655.28516-.96917.54569-1.43188.806-.24969.1405-.4949.28991-.75036.419a.83262.83262,0,0,1-1.13731-.32167.82161.82161,0,0,1,.33364-1.13255q1.37464-.7947,2.76533-1.56148a.38213.38213,0,0,0,.22494-.39119c-.00778-1.53788-.00436-3.07582-.00436-4.61375v-.27081c-.09058.043-.15254.06726-.20957.10012q-2.0484,1.18034-4.09733,2.35972a.29332.29332,0,0,0-.17065.29928q.0251,1.52969.03045,3.05968a1.6193,1.6193,0,0,1-.05311.47132.81955.81955,0,0,1-.87641.55473.80652.80652,0,0,1-.72581-.76417c-.0255-.73245-.02661-1.46576-.03741-2.19871-.00151-.10282-.0002-.20569-.0002-.35174-.10333.05609-.17766.09428-.24994.136-.72386.41784-1.44446.84143-2.17195,1.25284a.83781.83781,0,1,1-.82618-1.45069c.72223-.42066,1.44726-.83652,2.17085-1.25485.06731-.03891.13267-.0812.23172-.14206-.17025-.10193-.31714-.191-.46507-.27827-.55535-.32766-1.11409-.64973-1.66545-.984a.8215.8215,0,0,1-.40955-.87245.75788.75788,0,0,1,.66653-.658,1.21837,1.21837,0,0,1,.67341.15422c.91588.51462,1.81658,1.05634,2.72,1.593a.25305.25305,0,0,0,.29932.00907q2.09479-1.2193,4.19669-2.42639c.02732-.01577.0523-.03558.10172-.06958a1.67,1.67,0,0,0-.14806-.10963c-1.37823-.79684-2.75853-1.59011-4.13359-2.39236a.289.289,0,0,0-.34184.01278q-1.34387.80051-2.694,1.59044a.84635.84635,0,0,1-1.08069-.0496.82637.82637,0,0,1,.15827-1.34084c.61778-.37811,1.24672-.738,1.87055-1.10623.074-.04364.14617-.09022.24484-.15132-.08316-.054-.14443-.09794-.20937-.13547-.73057-.42216-1.46308-.841-2.19211-1.26576a.84518.84518,0,0,1-.46376-.935.83509.83509,0,0,1,1.27852-.52262c.72783.4108,1.44839.83449,2.17237,1.25213.07423.04282.15049.08212.25194.13725.00565-.10742.01265-.19056.014-.27379.01215-.75684.0129-1.514.039-2.27039a.80388.80388,0,0,1,.72888-.76076.82.82,0,0,1,.87423.55825,1.64437,1.64437,0,0,1,.05174.47161c-.005,1.01994-.02041,2.03984-.021,3.05975a.35055.35055,0,0,0,.12913.26292c1.4013.82043,2.80864,1.63052,4.21508,2.44217a1.07282,1.07282,0,0,0,.11036.04523c.00514-.0933.01295-.16931.013-.24531.00071-1.55386-.00253-3.10773.00477-4.66156a.34871.34871,0,0,0-.20706-.35381q-1.36747-.759-2.72525-1.53552a.84485.84485,0,0,1-.47571-.94934.83074.83074,0,0,1,1.24415-.53009c.63634.34577,1.26275.70982,1.89372,1.0655.07408.04177.14983.08059.26592.14282,0-.12065,0-.20482,0-.289.00029-.84466-.00915-1.68947.00407-2.53393a.82679.82679,0,0,1,1.14449-.81121.84327.84327,0,0,1,.52027.8609c-.00345.82871-.00088,1.65745-.00079,2.48617,0,.084,0,.16791,0,.29369.56248-.31709,1.08063-.60909,1.59867-.9013.17331-.09776.345-.19854.51973-.29361a.83676.83676,0,1,1,.82916,1.44825c-.59295.342-1.1914.6744-1.78741,1.01106-.33959.19183-.68244.37831-1.01571.58056a.30859.30859,0,0,0-.13818.21472c-.00687,1.64145-.00414,3.28294-.0025,4.92442a.30964.30964,0,0,0,.02434.06833c.06129-.029.12293-.05308.17961-.08574q2.04846-1.18023,4.09737-2.35966a.29344.29344,0,0,0,.17262-.2982c-.01573-.92417-.02009-1.84854-.02848-2.77284-.00108-.11952-.00532-.239-.00529-.35853a.85481.85481,0,0,1,.83513-.96132.8403.8403,0,0,1,.83407.933c.00639.78044.0016,1.561.0016,2.39923.127-.06839.201-.10585.27272-.14727.73068-.42193,1.45783-.85012,2.19246-1.26505a.83483.83483,0,0,1,1.27806.52358.84585.84585,0,0,1-.46461.93466c-.722.42106-1.44727.8365-2.171,1.25453-.06855.03959-.136.081-.23618.14078.08986.05678.15921.10319.231.14554.63073.37223,1.26451.73938,1.89183,1.11725a.82991.82991,0,0,1,.41818.869.7783.7783,0,0,1-.68631.66676,1.30547,1.30547,0,0,1-.67276-.16508c-.90858-.51142-1.80237-1.04917-2.69932-1.58109a.25318.25318,0,0,0-.29933-.01329q-2.084,1.21407-4.17558,2.4152c-.03925.02267-.07526.051-.133.09044.07785.05082.13356.091.19274.12526,1.35762.78478,2.71707,1.56642,4.07144,2.35676a.32666.32666,0,0,0,.38392-.0105q1.35287-.8087,2.71473-1.60229a.83583.83583,0,1,1,.84953,1.43445c-.60774.36409-1.21938.72169-1.82917,1.08237-.07453.04408-.14781.09027-.2528.15453.08858.056.15627.10207.22693.143.737.42687,1.479.84549,2.21049,1.28155a.82526.82526,0,0,1,.057,1.438.856.856,0,0,1-.94675-.02638q-1.06329-.618-2.13021-1.22966c-.07429-.04281-.15036-.08253-.25309-.13871-.0059.10625-.01341.189-.01462.27188-.01069.733-.01494,1.46617-.03218,2.199a.8251.8251,0,0,1-.68622.82836.81472.81472,0,0,1-.90422-.50587,1.45474,1.45474,0,0,1-.07081-.49115c.00337-1.0279.01612-2.05577.02688-3.08364.00119-.113-.00077-.20241-.127-.27456-1.40971-.80591-2.81451-1.62042-4.22091-2.43211-.02648-.01528-.05645-.0245-.1265-.05428v.25c0,1.55386.00294,3.10773-.0041,4.66156a.34858.34858,0,0,0,.20434.35536q1.37835.764,2.74623,1.54687a.82945.82945,0,0,1,.276,1.29484.843.843,0,0,1-1.10452.15323c-.62633-.34765-1.24779-.704-1.87171-1.05605-.06733-.038-.1372-.07147-.24629-.128v.28522c0,.78091-.01607,1.56228.00569,2.34258a.98.98,0,0,1-.64845,1.06888Z" fill="#9f6eed"/>
          <g>
            <circle cx="209.03031" cy="130.80399" r="20.11292" fill="#dac5f8"/>
            <circle cx="209.03031" cy="130.80399" r="16.59995" fill="#ffa596"/>
            <g>
              <line x1="194.45304" y1="125.96963" x2="188.22555" y2="125.96963" fill="#fff" stroke="#fff" stroke-linecap="round" stroke-miterlimit="10"/>
              <line x1="202.75366" y1="129.26813" x2="191.44669" y2="129.26813" fill="#fff" stroke="#fff" stroke-linecap="round" stroke-miterlimit="10"/>
              <line x1="199.10637" y1="132.76552" x2="186.76339" y2="132.76552" fill="#fff" stroke="#fff" stroke-linecap="round" stroke-miterlimit="10"/>
            </g>
            <polyline points="205.464 128.041 209.03 131.272 218.993 124.204" fill="none" stroke="#8e63d5" stroke-linecap="round" stroke-miterlimit="10" stroke-width="2"/>
          </g>
        </g>
      </g>
    </g>
  </g>
</svg>
