<svg width="20" height="20" viewBox="0 0 20 20" fill="none" xmlns="http://www.w3.org/2000/svg">
<path fill-rule="evenodd" clip-rule="evenodd" d="M6.47296 13.5206C7.40701 14.4533 8.67327 14.9768 9.9932 14.9761C11.3131 14.9728 12.578 14.4464 13.5104 13.5123C14.4429 12.5781 14.967 11.3124 14.9677 9.99246C14.9661 8.67249 14.4403 7.40726 13.5058 6.47494C12.5715 5.54262 11.3051 5.01956 9.98515 5.021C8.66518 5.02229 7.39981 5.54791 6.46734 6.48211C5.53487 7.4163 5.01155 8.68256 5.0127 10.0025C5.01373 11.3224 5.53906 12.5879 6.47296 13.5206ZM9.69092 12.3006C9.45318 12.2447 9.23342 12.1236 9.0579 11.9481C8.80988 11.7001 8.67044 11.3635 8.67044 11.0126C8.67044 10.8453 8.80601 10.7099 8.97318 10.7099C9.14049 10.7099 9.27591 10.8453 9.27591 11.0126C9.27677 11.2018 9.3526 11.3828 9.48674 11.5163C9.62087 11.6495 9.8024 11.7244 9.99152 11.7241C10.1807 11.7238 10.362 11.6485 10.4957 11.5148C10.6295 11.381 10.7047 11.1997 10.705 11.0106C10.7053 10.8215 10.6306 10.6398 10.4972 10.5057C10.3638 10.3715 10.1827 10.2958 9.99355 10.295C9.64313 10.2958 9.30663 10.1573 9.05847 9.9098C8.8103 9.66235 8.67071 9.32645 8.67041 8.9759C8.67013 8.62548 8.80929 8.28928 9.05703 8.04155C9.23275 7.86584 9.45284 7.74484 9.69092 7.68932V7.16748C9.69092 7.00032 9.82649 6.86475 9.99366 6.86475C10.1608 6.86475 10.2964 7.00032 10.2964 7.16748V7.69072C10.5328 7.74704 10.7511 7.86802 10.9254 8.04299C11.1727 8.29115 11.3113 8.62748 11.3106 8.97792C11.3106 9.14523 11.175 9.2808 11.0079 9.2808C10.8406 9.2808 10.705 9.14523 10.705 8.97792C10.7059 8.78806 10.631 8.60582 10.4972 8.47111C10.3722 8.34545 10.2053 8.27101 10.0291 8.26148C10.0175 8.26283 10.0056 8.26353 9.99366 8.26353C9.981 8.26353 9.96853 8.26276 9.95628 8.26125C9.77925 8.26971 9.61124 8.34373 9.48527 8.46968C9.35099 8.60395 9.27574 8.78606 9.27603 8.97593C9.27617 9.16579 9.352 9.34773 9.48671 9.48159C9.62127 9.61558 9.80366 9.69026 9.99351 9.68954C10.4661 9.68954 10.903 9.94173 11.1394 10.351C11.3756 10.7605 11.3756 11.2648 11.1394 11.6741C10.9546 11.9941 10.6474 12.2181 10.2964 12.3006V12.826C10.2964 12.9063 10.2645 12.9833 10.2078 13.0402C10.1509 13.0969 10.0739 13.1288 9.99366 13.1288C9.82649 13.1288 9.69092 12.9932 9.69092 12.826V12.3006Z" fill="#F2F2F2"/>
<path d="M0.496549 6.38015C0.367442 6.37914 0.253125 6.29657 0.211908 6.17421C0.0720288 5.76593 0.00151372 5.33722 0.00295123 4.90567C7.89729e-05 3.91217 0.372879 2.95427 1.04674 2.22426C1.72072 1.49415 2.64572 1.04606 3.63624 0.96966V0.303444C3.6361 0.179506 3.71178 0.0677735 3.82696 0.0219644C3.94242 -0.0245652 4.07455 0.00429998 4.16 0.0946339L6.16743 2.22917C6.27701 2.34564 6.27701 2.52745 6.16743 2.64391L4.15698 4.78447C4.07182 4.87294 3.94185 4.90109 3.82768 4.85599C3.71351 4.8109 3.63797 4.70132 3.63624 4.57867V3.93672C2.99529 3.99546 2.38525 4.2386 1.87958 4.63669C1.37392 5.03493 0.994504 5.57103 0.78726 6.18023C0.743172 6.3023 0.626271 6.38258 0.49659 6.38014L0.496549 6.38015ZM4.24179 1.0724V1.27231C4.24179 1.35259 4.20976 1.42957 4.15303 1.48644C4.09631 1.54317 4.01919 1.57505 3.93891 1.57505C3.05571 1.57505 2.20853 1.9259 1.58393 2.55046C0.959371 3.17517 0.608524 4.02219 0.608524 4.90558V5.13565C1.33434 3.99969 2.59096 3.31435 3.93891 3.31895C4.01919 3.31895 4.09631 3.35097 4.15303 3.4077C4.20976 3.46443 4.24179 3.54155 4.24179 3.62183V3.81858L5.53157 2.45008L4.24179 1.0724Z" fill="#F2F2F2"/>
<path d="M4.90694 19.984C3.91345 19.9868 2.95554 19.614 2.22554 18.9402C1.49542 18.2662 1.04733 17.3412 0.970933 16.3507H0.304717C0.180205 16.3515 0.0677561 16.2759 0.0215132 16.1601C-0.0245863 16.0444 0.00485427 15.9121 0.0959032 15.8269L2.23044 13.8195C2.34691 13.7099 2.52872 13.7099 2.64518 13.8195L4.77971 15.8269C4.86961 15.9109 4.89963 16.0409 4.85583 16.1559C4.81188 16.2708 4.70288 16.3478 4.57995 16.3507H3.938C3.99673 16.9916 4.23987 17.6017 4.63796 18.1073C5.0362 18.613 5.57231 18.9924 6.1815 19.1997C6.30257 19.242 6.38385 19.3561 6.38442 19.4843C6.39189 19.6192 6.30917 19.7427 6.1815 19.787C5.77062 19.9235 5.33977 19.99 4.90693 19.9839L4.90694 19.984ZM1.07384 15.745H1.27375C1.35403 15.745 1.431 15.777 1.48787 15.8337C1.5446 15.8905 1.57648 15.9676 1.57648 16.0479C1.57648 16.9311 1.92733 17.7782 2.55189 18.4028C3.1766 19.0274 4.02363 19.3782 4.90701 19.3782H5.13708C4.00112 18.6524 3.31579 17.3958 3.32038 16.0479C3.32038 15.8806 3.45595 15.745 3.62326 15.745H3.82001L2.44247 14.4582L1.07384 15.745Z" fill="#F2F2F2"/>
<path d="M16.0489 19.9839C15.9655 19.9843 15.8855 19.9504 15.8279 19.89L13.8205 17.7554C13.7109 17.639 13.7109 17.4571 13.8205 17.3407L15.8279 15.2213C15.9133 15.1309 16.0455 15.1021 16.1609 15.1486C16.2761 15.1946 16.3518 15.3061 16.3517 15.4302V16.0479C16.9926 15.9892 17.6027 15.746 18.1083 15.3479C18.614 14.9497 18.9934 14.4136 19.2006 13.8044C19.243 13.6833 19.357 13.6021 19.4853 13.6015C19.6226 13.5845 19.7515 13.671 19.788 13.8044C19.9292 14.2134 20.0009 14.6432 20 15.076C20.003 16.0695 19.6301 17.0274 18.9562 17.7574C18.2823 18.4874 17.3574 18.9356 16.3667 19.012V19.6812C16.3668 19.8051 16.2913 19.9169 16.176 19.9627C16.1356 19.9788 16.0923 19.9861 16.0489 19.9839L16.0489 19.9839ZM14.4564 17.5617L15.746 18.9121V18.7152C15.746 18.548 15.8816 18.4124 16.0489 18.4124C16.9321 18.4124 17.7793 18.0616 18.4039 17.437C19.0285 16.8125 19.3793 15.9653 19.3793 15.0819V14.8488C18.6535 15.9848 17.3969 16.6701 16.0489 16.6655C15.8816 16.6655 15.746 16.53 15.746 16.3627V16.1659L14.4564 17.5617Z" fill="#F2F2F2"/>
<path d="M17.541 6.24426C17.4646 6.24397 17.3911 6.21482 17.3352 6.16254L15.2158 4.1551C15.1291 4.07195 15.0996 3.94529 15.141 3.83241C15.1824 3.71953 15.2866 3.64183 15.4065 3.63437H16.0485C15.9898 2.99341 15.7466 2.38337 15.3485 1.8777C14.9503 1.37204 14.4142 0.992624 13.805 0.785381C13.6826 0.74402 13.6001 0.629704 13.599 0.50074C13.592 0.365026 13.6762 0.241231 13.805 0.198003C14.2159 0.0615721 14.6467 -0.00492087 15.0796 0.00110857C16.073 -0.00176369 17.031 0.371037 17.761 1.0449C18.4911 1.71887 18.9392 2.64388 19.0156 3.6344H19.6818C19.8057 3.63425 19.9174 3.70994 19.9633 3.82512C20.0098 3.94058 19.9809 4.07271 19.8906 4.15815L17.7561 6.16559C17.6975 6.21887 17.6203 6.24716 17.5411 6.24429L17.541 6.24426ZM16.1725 4.23998L17.541 5.52977L18.9127 4.23998H18.7128C18.5456 4.23998 18.4101 4.10441 18.4101 3.9371C18.4101 3.0539 18.0592 2.20673 17.4346 1.58213C16.8099 0.957565 15.9629 0.606718 15.0795 0.606718H14.8495C15.9854 1.33253 16.6708 2.58915 16.6662 3.9371C16.6662 4.01738 16.6341 4.0945 16.5774 4.15123C16.5207 4.20796 16.4436 4.23998 16.3633 4.23998H16.1725Z" fill="#F2F2F2"/>
</svg>
