<svg width="20" height="19" viewBox="0 0 20 19" fill="none" xmlns="http://www.w3.org/2000/svg">
<path d="M19.2141 14.4524H3.48731V5.00274C3.48731 4.84702 3.42224 4.71364 3.33539 4.6026L2.94501 4.22448L1.16618 2.40118C0.949196 2.17877 0.602223 2.17877 0.406878 2.40118C0.189895 2.62359 0.189895 2.97923 0.406878 3.17946L2.42416 5.24718V15.0303C2.42416 15.3416 2.66279 15.5862 2.96647 15.5862H5.54786C5.2876 15.8753 5.13568 16.2754 5.13568 16.6979C5.13568 17.6095 5.87317 18.3655 6.76258 18.3655C7.652 18.3655 8.38949 17.6095 8.38949 16.6979C8.38949 16.2754 8.23757 15.8753 7.9773 15.5862H14.7886C14.5284 15.8753 14.3764 16.2754 14.3764 16.6979C14.3764 17.6095 15.1139 18.3655 16.0033 18.3655C16.8929 18.3656 17.5871 17.5875 17.5871 16.6759C17.5871 16.2534 17.4352 15.8532 17.1749 15.5641H19.214C19.5177 15.5641 19.7563 15.3196 19.7563 15.0083C19.7563 14.697 19.5177 14.4524 19.214 14.4524L19.2141 14.4524ZM6.74112 17.2317C6.43744 17.2317 6.19882 16.9871 6.19882 16.6758C6.19882 16.3645 6.43744 16.1199 6.74112 16.1199C7.0448 16.1199 7.28342 16.3645 7.28342 16.6758C7.28342 16.9871 7.0448 17.2317 6.74112 17.2317ZM15.9603 17.2317C15.6566 17.2317 15.418 16.9871 15.418 16.6758C15.418 16.3645 15.6566 16.1199 15.9603 16.1199C16.2639 16.1199 16.5026 16.3645 16.5026 16.6758C16.5026 16.9871 16.2639 17.2317 15.9603 17.2317Z" fill="white"/>
<path fill-rule="evenodd" clip-rule="evenodd" d="M18.1297 13.3406H16.698H5.11457C4.81089 13.3406 4.57227 13.096 4.57227 12.7848V5.00274C4.57227 4.69146 4.81089 4.44688 5.11457 4.44688H6.76313C7.04513 1.95667 9.10587 0 11.6222 0C14.1384 0 16.1991 1.95667 16.4812 4.44688H18.1297C18.4334 4.44688 18.672 4.69146 18.672 5.00274V12.7848C18.672 13.096 18.4334 13.3406 18.1297 13.3406ZM6.76301 5.5586H5.65675L5.65668 12.2289H17.5873V5.5586H16.4811C16.1991 8.04881 14.1383 10.0055 11.622 10.0055C9.10576 10.0055 7.02327 8.04881 6.76301 5.5586ZM11.0792 7.22629C10.9274 7.22629 10.7973 7.18178 10.6888 7.07058L9.08333 5.403C8.86634 5.20277 8.86634 4.84712 9.08333 4.62472C9.27867 4.40231 9.62565 4.40231 9.84263 4.62472L11.0792 5.89216L13.4218 3.513C13.6171 3.29059 13.9641 3.29059 14.1811 3.513C14.3981 3.71323 14.3981 4.06887 14.1811 4.29128L11.4696 7.07058C11.3612 7.18178 11.2311 7.22629 11.0792 7.22629Z" fill="white"/>
</svg>
