<svg width="18" height="20" viewBox="0 0 18 20" fill="none" xmlns="http://www.w3.org/2000/svg">
<path fill-rule="evenodd" clip-rule="evenodd" d="M8.5349 8.39434C11.7398 8.39434 14.3375 10.9925 14.3375 14.197C14.3375 17.4015 11.7397 20 8.5349 20C5.33011 20 2.73227 17.4019 2.73227 14.1974C2.73227 10.9928 5.33011 8.39434 8.5349 8.39434ZM14.5678 0.0629789C14.5327 0.0215458 14.4858 0 14.4318 0C14.3775 0 14.3307 0.0215454 14.2957 0.0629789L11.8373 2.95867C11.7912 3.01291 11.7815 3.08462 11.8113 3.14926C11.8413 3.2139 11.9022 3.25277 11.9733 3.25277H13.1184V9.66252C13.7039 10.2542 14.1755 10.9587 14.4979 11.7405H15.3882C15.5849 11.7405 15.7453 11.5801 15.7453 11.3835V3.25266H16.8904C16.9615 3.25266 17.0226 3.21379 17.0524 3.14915C17.0824 3.08452 17.0726 3.0128 17.0265 2.95856L14.5678 0.0629789ZM2.77354 4.39104C2.73843 4.34961 2.69158 4.32806 2.63749 4.32806C2.58325 4.32806 2.53639 4.34961 2.50143 4.39104L0.0429895 7.28642C-0.00311452 7.34066 -0.0127571 7.41238 0.0170746 7.47702C0.0470574 7.54165 0.107928 7.58053 0.179042 7.58053H1.32414V11.3834C1.32414 11.58 1.4846 11.7405 1.68122 11.7405H2.57152C2.89395 10.9588 3.36555 10.2542 3.95106 9.66247V7.58052H5.09616C5.16727 7.58052 5.22829 7.54165 5.25812 7.47701C5.28811 7.41237 5.27831 7.34065 5.23221 7.28641L2.77354 4.39104ZM8.67067 2.22701C9.49016 3.19218 10.3098 4.15753 11.1293 5.12254C11.1754 5.17678 11.185 5.2485 11.1552 5.31314C11.1252 5.37778 11.0643 5.41665 10.9932 5.41665H9.84812V7.88308C9.424 7.79539 8.98463 7.74913 8.53458 7.74913C8.08454 7.74913 7.64517 7.79554 7.22104 7.88323V5.4168H6.07595C6.00483 5.4168 5.94381 5.37793 5.91398 5.31329C5.88399 5.24865 5.89379 5.17693 5.93989 5.12269C6.75938 4.15753 7.57901 3.19217 8.39849 2.22716C8.4336 2.18573 8.48046 2.16418 8.53454 2.16418C8.58878 2.16418 8.63572 2.18558 8.67067 2.22701ZM10.1819 12.7072C9.94836 12.1512 9.50404 11.8298 9.01527 11.706C8.97926 11.6968 8.9428 11.689 8.90634 11.6819V11.3927C8.90634 11.1875 8.74 11.0213 8.53494 11.0213C8.32973 11.0213 8.16354 11.1877 8.16354 11.3927V11.6873C7.88164 11.7439 7.61661 11.863 7.40343 12.0365C7.07587 12.3029 6.8681 12.6897 6.89159 13.1718C6.91494 13.6563 7.15691 13.9812 7.49349 14.2011C7.78684 14.3927 8.14738 14.4917 8.47991 14.5464C8.74704 14.5903 9.03224 14.6596 9.24894 14.7905C9.42236 14.8951 9.55268 15.0483 9.58056 15.2776C9.58418 15.3082 9.58613 15.3302 9.58659 15.3445C9.59081 15.527 9.50357 15.666 9.37264 15.7655C9.20856 15.8899 8.97848 15.9633 8.74825 15.9912C8.68572 15.9989 8.63072 16.0031 8.58447 16.0043C8.31206 16.0108 8.04297 15.944 7.83295 15.8042C7.66043 15.6892 7.5286 15.5214 7.47361 15.3004C7.42479 15.1016 7.2241 14.9802 7.02537 15.029C6.82665 15.0778 6.7052 15.2785 6.75402 15.4773C6.85768 15.8937 7.10342 16.2084 7.42388 16.4221C7.6431 16.5681 7.89742 16.6644 8.16398 16.7114V17.001C8.16398 17.2062 8.33032 17.3724 8.53538 17.3724C8.74059 17.3724 8.90678 17.206 8.90678 17.001V16.7186C9.23056 16.6693 9.56037 16.5512 9.81937 16.3547C10.1304 16.1186 10.3374 15.781 10.3265 15.3273C10.3251 15.2756 10.3223 15.2297 10.3175 15.1908C10.2572 14.6941 9.98825 14.3704 9.63194 14.1554C9.3187 13.9665 8.94325 13.8722 8.59881 13.8157C8.35036 13.775 8.08852 13.7058 7.89686 13.5805C7.74815 13.4834 7.64147 13.3429 7.63153 13.1375C7.62068 12.9153 7.71771 12.7358 7.87064 12.6115C7.99027 12.514 8.14305 12.4465 8.30877 12.4132C8.47888 12.379 8.66133 12.3817 8.83565 12.4259C9.11258 12.4961 9.36465 12.6786 9.49738 12.9947C9.57678 13.1836 9.79434 13.2728 9.98345 13.1934C10.1721 13.114 10.261 12.8964 10.1819 12.7072Z" fill="#F2F2F2"/>
</svg>
