<?xml version="1.0" encoding="UTF-8"?><svg id="Layer_1" xmlns="http://www.w3.org/2000/svg" xmlns:xlink="http://www.w3.org/1999/xlink" viewBox="0 0 209.51 255.46"><defs><style>.cls-1{fill:url(#linear-gradient);}.cls-2{fill:#cb7fba;}</style><linearGradient id="linear-gradient" x1="0" y1="130.27" x2="209.51" y2="130.27" gradientTransform="translate(0 258) scale(1 -1)" gradientUnits="userSpaceOnUse"><stop offset="0" stop-color="#fc907e"/><stop offset=".99" stop-color="#9f6eed"/></linearGradient></defs><path class="cls-1" d="M45.32,51.08c0-2.77-.01-5.15,0-7.53C45.49,18.4,63.73,.15,88.87,.05c11.38-.04,22.77-.11,34.15,.04,21.84,.28,40.04,17.71,41.33,39.52,.22,3.67,.03,7.36,.03,11.45,2.85,0,5.31,0,7.76,0,13.84,.04,23.14,8.53,24.37,22.38,2.89,32.51,5.74,65.01,8.61,97.52,1.42,16,2.9,32,4.26,48.01,1.64,19.28-13.6,36.3-33.01,36.37-47.54,.15-95.08,.15-142.62,0-20.23-.06-35.55-17.85-33.6-38.06,2.33-24.14,4.35-48.31,6.5-72.46,2.19-24.45,4.31-48.91,6.61-73.35,1.06-11.28,10.81-20.06,22.27-20.38,3.08-.09,6.18-.01,9.76-.01h.01Zm0,17.39c-3.44,0-6.52-.15-9.59,.04-2.96,.18-4.83,2.19-5.13,5.29-.83,8.74-1.6,17.49-2.39,26.24-1.68,18.89-3.35,37.78-5.04,56.67-1.89,21.08-3.81,42.15-5.65,63.23-.15,1.77-.09,3.62,.28,5.35,1.78,8.22,8.52,13.11,17.95,13.11,46.05,0,92.1,0,138.15,0,12.25,0,19.47-7.47,18.54-19.72-1.31-17.12-2.95-34.21-4.47-51.31-1.9-21.37-3.83-42.75-5.73-64.12-.86-9.64-1.69-19.29-2.54-28.93-.25-2.8-1.34-5.4-4.28-5.79-3.48-.47-7.07-.11-10.89-.11v3.48c0,8.79-.02,17.58,0,26.36,0,3.51-.94,6.52-4.15,8.4-5.84,3.43-12.79-.6-12.87-7.59-.12-9.19-.03-18.37-.03-27.56v-3.16H62.37v3.42c0,9.19,.06,18.37-.03,27.56-.06,5.74-4.23,9.33-9.8,8.66-4.4-.53-7.15-3.9-7.2-9.15-.08-8.99-.02-17.97-.02-26.96v-3.42h0Zm102.15-17.56c0-2.57,.02-5.22,0-7.86-.14-14.8-10.85-25.75-25.64-25.96-11.27-.16-22.55-.13-33.82,0-11.43,.13-21.25,6.94-24.2,17.48-1.45,5.15-1.35,10.73-1.98,16.35h85.64Z"/><circle class="cls-2" cx="101.94" cy="149.62" r="23.05" transform="translate(-62.08 226.28) rotate(-80.78)"/></svg>