<?xml version="1.0" encoding="UTF-8"?><svg id="Layer_1" xmlns="http://www.w3.org/2000/svg" xmlns:xlink="http://www.w3.org/1999/xlink" viewBox="0 0 250.72 250.79"><defs><style>.cls-1{fill:url(#linear-gradient);}.cls-2{fill:#bc7acc;}.cls-3{fill:#de85a6;}.cls-4{fill:#dd84a4;}</style><linearGradient id="linear-gradient" x1="0" y1="126.18" x2="250.72" y2="126.18" gradientTransform="translate(0 251.57) scale(1 -1)" gradientUnits="userSpaceOnUse"><stop offset="0" stop-color="#fc907e"/><stop offset=".99" stop-color="#9f6eed"/></linearGradient></defs><path class="cls-1" d="M242.32,0h2.88c3.04,0,5.51,2.47,5.51,5.51V245.27c0,3.04-2.47,5.51-5.51,5.51h-2.73c-3.04,0-5.51-2.47-5.51-5.51v-24.79c0-3.04-2.47-5.51-5.51-5.51H19.38c-3.04,0-5.51,2.47-5.51,5.51v24.77c0,3.04-2.47,5.51-5.51,5.51h-2.84c-3.04,0-5.51-2.47-5.51-5.51V5.57C0,2.53,2.47,.06,5.51,.06h2.78C11.34,.06,13.81,2.53,13.81,5.57V97.4c0,3.04,2.47,5.51,5.51,5.51H231.29c3.04,0,5.51-2.47,5.51-5.51V5.51c0-3.04,2.47-5.51,5.51-5.51h0ZM19.49,200.59H231.14c3.04,0,5.51-2.47,5.51-5.51V122.81c0-3.04-2.47-5.51-5.51-5.51H19.49c-3.04,0-5.51,2.47-5.51,5.51v72.26c0,3.04,2.47,5.51,5.51,5.51Z"/><path class="cls-4" d="M125.51,33.4c9.91,0,19.82-.02,29.73,0,7.42,.02,11.95,4.52,11.97,11.88,.03,10.7,.03,21.39,0,32.09-.02,6.92-4.35,11.69-11.23,11.73-20.41,.14-40.82,.14-61.22,0-6.89-.05-11.21-4.8-11.22-11.73-.03-10.79-.04-21.58,0-32.38,.02-6.98,4.63-11.55,11.66-11.58,10.11-.04,20.21-.01,30.32-.01h0Z"/><path class="cls-3" d="M72.18,186.78c-9.81,0-19.62,.02-29.44,0-7.77-.02-12.22-4.48-12.23-12.23-.01-10.5-.02-21,0-31.5,.01-7.37,4.48-12.04,11.85-12.06,20.01-.07,40.04-.07,60.05,0,7.24,.02,11.76,4.66,11.78,11.82,.03,10.7,.03,21.39,0,32.09-.02,7.34-4.57,11.85-11.99,11.87-10.01,.03-20.01,0-30.03,0h0Z"/><path class="cls-2" d="M178.23,186.78c-9.81,0-19.62,.02-29.44,0-7.79-.02-12.24-4.45-12.25-12.2-.02-10.5-.02-21,0-31.5,.01-7.4,4.46-12.06,11.82-12.09,20.01-.07,40.04-.07,60.05,0,7.34,.02,11.81,4.7,11.82,12.09,.02,10.6,.02,21.19,0,31.79-.02,7.34-4.57,11.88-11.97,11.9-10.01,.04-20.01,0-30.03,0h0Z"/></svg>