<?xml version="1.0" encoding="UTF-8"?><svg id="Layer_1" xmlns="http://www.w3.org/2000/svg" xmlns:xlink="http://www.w3.org/1999/xlink" viewBox="0 0 251.33 247.12"><defs><style>.cls-1{fill:url(#linear-gradient);}.cls-2{fill:#bc7acc;}.cls-3{fill:#de85a6;}.cls-4{fill:#dd84a4;}</style><linearGradient id="linear-gradient" x1="0" y1="122.9" x2="251.33" y2="122.9" gradientTransform="translate(0 246.23) scale(1 -1)" gradientUnits="userSpaceOnUse"><stop offset="0" stop-color="#fc907e"/><stop offset=".99" stop-color="#9f6eed"/></linearGradient></defs><path class="cls-1" d="M242.55,79.73c-2.08-1.82-4.36-3.46-6.6-5.05C203.79,51.83,171.62,28.98,139.45,6.14,135.05,3.01,130.18-.26,124.78,.02c-4.56,.23-8.56,2.98-12.28,5.63C80.08,28.68,47.65,51.71,15.23,74.75c-4.44,3.16-9.17,6.58-12.02,11.35C-.39,92.15,.35,98.59,.28,105.41c-.15,15.56-.23,31.1-.27,46.66-.07,31.47,.09,62.94,.48,94.41,5.83,.06,11.66,.12,17.49,.19,.02-44.94,.03-89.87,.05-134.8,0-5.54,.07-11.34,2.74-16.19,2.48-4.51,6.88-7.59,11.13-10.5,28.68-19.67,57.36-39.33,86.04-59,2.34-1.61,4.87-3.27,7.72-3.27s5.38,1.67,7.73,3.27c28.81,19.73,57.61,39.45,86.41,59.18,4.13,2.83,8.41,5.82,10.8,10.22,2.51,4.63,2.58,10.14,2.59,15.4,.05,45.15,.11,90.3,.15,135.44,5.87,0,11.74,.01,17.61,.02,.13-47.22,.25-94.44,.38-141.66,.02-6.09-.03-12.45-2.86-17.85-1.46-2.78-3.55-5.1-5.91-7.18h0Z"/><path class="cls-4" d="M144.14,184.26c5.92-.03,9.51-3.72,9.53-9.67,.04-12.18,.03-24.37,0-36.55-.01-6.08-3.62-9.66-9.75-9.72-6.09-.06-12.19-.01-18.28-.01s-12.36-.05-18.55,.02c-5.93,.07-9.5,3.71-9.52,9.67-.03,12.18-.03,24.37,0,36.55,.01,5.99,3.56,9.68,9.48,9.72,12.36,.07,24.72,.07,37.08,0h0Z"/><path class="cls-3" d="M110.36,191c-12.18-.04-24.37-.03-36.55,0-6.13,.01-9.72,3.58-9.76,9.69-.04,6.09-.01,12.18-.01,18.28s-.04,12.36,.01,18.54c.04,5.91,3.68,9.56,9.62,9.58,12.18,.04,24.37,.04,36.55,0,6.1-.02,9.75-3.61,9.78-9.71,.06-12.27,.06-24.54,0-36.82-.03-5.97-3.69-9.54-9.63-9.56h0Z"/><path class="cls-2" d="M177.23,190.99c-12.01-.02-24.02-.02-36.03,0-6.42,.01-9.94,3.55-9.96,10.04-.03,12.01-.04,24.02,0,36.02,.02,6.46,3.58,10.01,10,10.03,12.01,.02,24.02,.02,36.03,0,6.39-.01,9.92-3.61,9.95-10.07,.02-6,0-12.01,0-18.01s.02-12.01,0-18.01c-.03-6.47-3.54-10-9.98-10.01h0Z"/></svg>