<svg width="191" height="78" viewBox="0 0 191 78" fill="none" xmlns="http://www.w3.org/2000/svg">
<g clip-path="url(#clip0_105_2)">
<path d="M28.2217 40.2153L27.1348 40.4382L26.9323 40.4608C26.6127 40.3414 26.4351 40.1606 26.3995 39.9181C26.3508 39.551 26.901 39.266 28.05 39.0631C29.198 38.8551 29.9318 38.7552 30.2515 38.7633C30.5702 38.7662 30.7779 38.952 30.8746 39.3206C30.8324 39.5725 30.7157 39.7114 30.5244 39.7372L29.6371 39.922C29.6851 40.0348 29.732 40.1557 29.7777 40.2849C30.3207 41.8834 30.7466 43.4937 31.0553 45.1156C31.4431 47.152 31.6952 48.7131 31.8118 49.799C32.045 49.7705 32.2224 49.7553 32.3439 49.7533C32.6636 49.7614 32.8722 49.9522 32.9699 50.326C32.9277 50.5779 32.811 50.7167 32.6198 50.7425L29.2287 51.436L29.0277 51.4663C28.708 51.3469 28.5304 51.1659 28.4949 50.9235C28.4462 50.5563 28.9958 50.2688 30.1439 50.0609L30.4739 49.998C30.2367 48.4738 29.9883 46.9465 29.7287 45.4159C29.2952 43.1391 28.7929 41.4055 28.2217 40.2153ZM37.3647 48.1612C36.7635 44.2515 36.3683 42.3146 36.179 42.3506C35.7936 44.8099 35.4597 46.9413 35.1775 48.7446C35.1465 48.9997 34.9445 49.1919 34.5715 49.3213C34.1975 49.4455 34.0076 49.2695 34.0018 48.7934C33.9359 47.0828 33.7049 45.6609 33.3089 44.5275C33.0509 43.8132 32.9959 43.3571 33.1438 43.1593C33.2958 42.9553 33.5573 42.9639 33.9281 43.1849C34.2611 43.4025 34.5366 44.0976 34.7545 45.2702C35.0898 42.4918 35.526 41.0514 36.0632 40.9491L36.3472 40.8952C36.9611 40.7783 37.5621 42.2359 38.15 45.268C38.1975 45.5452 38.2497 45.8057 38.3067 46.0493C38.5454 47.0801 38.7418 47.6525 38.896 47.7663C39.0502 47.88 39.1371 47.9881 39.1566 48.0904L39.1843 48.2363C39.274 48.707 38.9685 48.9825 38.2681 49.0628C37.7735 49.1941 37.4724 48.8936 37.3647 48.1612ZM39.6713 37.8684L39.7711 37.8495C40.0678 37.793 40.2508 37.9463 40.3199 38.3095L40.6136 39.8521C41.5254 39.5725 42.0963 39.4108 42.3266 39.3669C42.4857 39.395 42.6198 39.4728 42.7289 39.6005L42.7479 39.7003C42.8356 40.1607 42.1682 40.5265 40.7459 40.7973L41.2368 43.3759C41.7034 45.8266 42.1715 47.2964 42.6409 47.7849C42.6716 47.7791 42.6967 47.8273 42.7162 47.9296L42.725 47.9757C42.599 48.3443 42.385 48.5572 42.0832 48.6147C41.3515 48.754 40.6331 46.9715 39.9278 43.2672C39.8545 42.6874 39.7341 41.9574 39.5665 41.0774C38.7598 41.1568 38.3253 41.0328 38.263 40.7054C38.2114 40.4342 38.3738 40.215 38.7502 40.0479L39.0495 39.9909L39.222 40.0614L39.3678 40.0338L39.1136 38.6984C39.0249 38.2328 39.2108 37.956 39.6713 37.8684ZM45.9417 39.3309C46.4146 39.4476 46.7688 39.6929 47.0044 40.0669C47.2792 40.5076 47.3826 41.148 47.3145 41.9881C47.0849 43.511 46.2811 44.4409 44.903 44.7775C45.1595 45.6512 45.9284 45.9024 47.2097 45.5312C47.5067 45.4482 47.6791 45.5876 47.7268 45.9496C47.7787 46.3056 47.5716 46.5546 47.1055 46.6963C45.1066 47.2253 43.9381 46.5041 43.5998 44.5325C43.2931 44.4531 43.1222 44.3213 43.0871 44.1371C43.0589 43.9887 43.1125 43.8247 43.248 43.6452C43.3498 43.5675 43.5036 43.5674 43.7092 43.6449C43.9889 40.7975 44.733 39.3595 45.9417 39.3309ZM44.8523 43.801C45.4782 43.719 45.9297 43.2221 46.2068 42.3104C46.3871 41.6982 46.3402 41.2008 46.0659 40.8183C45.7916 40.4357 45.5934 40.439 45.4713 40.8281C45.114 41.7921 44.9077 42.7831 44.8523 43.801ZM50.0776 44.6194C50.1886 45.2027 50.5761 45.386 51.24 45.1695C51.8689 44.3234 52.0775 43.2604 51.8656 41.9806C51.8003 41.6378 51.7253 41.2995 51.6406 40.9657C50.4905 42.1655 49.9695 43.3834 50.0776 44.6194ZM52.7578 44.5783C52.3842 45.6515 51.9033 46.2441 51.3149 46.3561L51.077 46.4014C49.8454 46.4769 49.113 46.0277 48.88 45.0541L48.861 44.9543C48.75 42.9236 49.5681 41.1773 51.315 39.7154L51.1945 39.3328C51.137 39.031 51.3093 38.794 51.7113 38.622L51.9569 38.5753C52.2997 38.5101 52.8112 39.86 53.4914 42.6253L53.8907 44.5137C54.2974 47.4849 54.1465 49.4356 53.4382 50.3657C53.0447 50.833 52.6842 51.0977 52.3568 51.16L51.8809 51.2507C50.8935 51.4387 49.864 50.8633 48.7926 49.5244C48.5059 49.0488 48.5645 48.7858 48.9685 48.7354C49.3683 48.6911 49.734 48.8574 50.0655 49.2343C50.4183 49.6391 50.9086 49.9724 51.5364 50.2346C51.7688 50.2858 51.9541 50.2982 52.0922 50.2719L52.1383 50.2633C53.0439 50.0908 53.2504 48.1959 52.7578 44.5783ZM58.9494 39.8207C58.6663 40.1715 58.4115 40.0583 58.1849 39.4811C58.0561 39.1663 57.9306 38.925 57.8086 38.7574C57.5318 38.8631 57.241 39.4381 56.9361 40.4823C56.6354 41.5204 56.4925 42.7194 56.5075 44.0791C56.5737 44.9838 56.3378 45.4157 55.7999 45.375C55.4995 45.3845 55.3271 45.245 55.2828 44.9565C54.9329 42.4782 54.4593 40.2832 53.8621 38.3715C53.8611 38.1437 53.9834 38.0065 54.229 37.9597C54.5204 37.9307 54.6724 37.9496 54.6851 38.0161C54.9665 37.9625 55.3301 38.9669 55.7757 41.0293C56.1689 38.945 56.8623 37.7553 57.8558 37.4601C58.4199 37.3315 58.8861 37.8312 59.2547 38.9593C59.3385 39.1766 59.2367 39.4638 58.9494 39.8207ZM62.9 36.8258C63.5156 36.7456 63.9885 36.8625 64.3186 37.1761L64.4656 36.8617C64.602 36.7986 64.6937 36.7652 64.7407 36.7616C65.0407 36.8052 65.2016 36.9125 65.2235 37.0833C65.1824 38.6499 65.2531 39.954 65.4355 40.9955C65.623 42.0361 65.7897 42.6193 65.9357 42.7452C66.0857 42.8651 66.1746 43.0259 66.2024 43.2274C66.2655 43.6979 65.9459 43.9549 65.2438 43.9984C64.8306 44.0559 64.566 43.6688 64.4501 42.8372L64.212 41.0852C63.5766 42.9558 62.8509 43.9476 62.0347 44.0606C61.4609 44.138 61.1095 43.6986 60.9805 42.7423C60.7672 41.1764 60.9831 39.5395 61.6281 37.8314C62.0372 37.2233 62.4612 36.8881 62.9 36.8258ZM62.1098 42.241L62.1814 42.784C62.9981 41.9499 63.5745 40.4245 63.9107 38.208C63.6776 37.9024 63.4214 37.7684 63.1422 37.8057C62.4578 38.0261 62.096 39.2586 62.0568 41.5035C62.0473 41.6485 62.065 41.8943 62.1098 42.241ZM66.4497 32.77L66.5494 32.7511C66.8462 32.6946 67.0291 32.8478 67.0983 33.2111L67.392 34.7537C68.3037 34.4741 68.8747 34.3124 69.1049 34.2685C69.264 34.2966 69.3981 34.3744 69.5073 34.5021L69.5263 34.6019C69.6139 35.0623 68.9466 35.4281 67.5242 35.6989L68.0152 38.2775C68.4818 40.7282 68.9498 42.1979 69.4193 42.6864C69.45 42.6806 69.475 42.7288 69.4945 42.8311L69.5033 42.8772C69.3773 43.2458 69.1634 43.4588 68.8615 43.5163C68.1299 43.6556 67.4114 41.8731 66.7061 38.1688C66.6328 37.589 66.5124 36.859 66.3449 35.979C65.5382 36.0584 65.1037 35.9344 65.0413 35.607C64.9897 35.3358 65.1521 35.1166 65.5285 34.9494L65.8278 34.8925L66.0003 34.963L66.1462 34.9352L65.8919 33.6C65.8033 33.1344 65.9892 32.8576 66.4497 32.77ZM72.7201 34.2325C73.193 34.3492 73.5472 34.5945 73.7827 34.9685C74.0575 35.4092 74.1609 36.0496 74.0929 36.8897C73.8632 38.4126 73.0594 39.3424 71.6814 39.679C71.9379 40.5527 72.7068 40.8039 73.9881 40.4327C74.2851 40.3497 74.4574 40.4892 74.5051 40.8512C74.557 41.2072 74.3499 41.456 73.8838 41.5978C71.885 42.1268 70.7164 41.4056 70.3782 39.434C70.0715 39.3546 69.9006 39.2228 69.8655 39.0386C69.8372 38.8902 69.8909 38.7263 70.0263 38.5468C70.1282 38.4691 70.2819 38.4689 70.4875 38.5464C70.7672 35.699 71.5114 34.2611 72.7201 34.2325ZM71.6307 38.7026C72.2566 38.6205 72.7081 38.1237 72.9851 37.212C73.1655 36.5998 73.1185 36.1024 72.8442 35.7199C72.5699 35.3373 72.3717 35.3406 72.2496 35.7297C71.8924 36.6937 71.686 37.6847 71.6307 38.7026ZM79.8715 33.5786C80.3064 33.4958 80.6411 34.5852 80.8755 36.8469C81.1141 39.1025 81.4192 39.9113 81.7908 39.2732C82.4484 38.1884 82.8471 36.9965 82.9868 35.6975L82.3606 33.9955C82.4639 33.6471 82.6716 33.4431 82.9837 33.3837C83.3214 33.3194 83.6041 33.6766 83.8318 34.455C84.3787 35.9627 84.7904 37.4429 85.0671 38.896L85.3213 40.2315C85.7918 42.7027 85.6729 44.4034 84.9646 45.3335C84.5711 45.8008 84.2106 46.0655 83.8832 46.1278C82.5785 46.3763 81.405 45.9079 80.3629 44.7225C80.0761 44.2469 79.8938 43.8044 79.8159 43.3951C79.8257 42.1102 80.1351 41.4097 80.7439 41.2937C81.0919 41.2275 81.2902 41.3223 81.3389 41.5781C81.0299 42.183 80.9158 42.6978 80.9967 43.1225C81.1935 44.156 81.8847 44.8488 83.0705 45.201C83.3029 45.2522 83.501 45.2623 83.6647 45.2311C84.5856 45.0558 84.7169 43.2387 84.0584 39.78L84.0496 39.7339C83.96 39.2632 83.8213 38.6322 83.6335 37.8408C83.0048 39.4397 82.3809 40.2981 81.7618 40.416C80.7629 40.5161 80.1719 39.9181 79.9888 38.6222L79.2769 34.0894C79.4021 33.8005 79.6003 33.6302 79.8715 33.5786ZM87.3598 32.4153C88.0403 32.2858 88.6536 32.959 89.1997 34.435C89.2594 34.6092 89.3102 34.8064 89.352 35.0264L89.409 35.3257C89.7042 36.876 89.2308 38.0237 87.989 38.7691C87.8094 38.8563 87.6454 38.9142 87.4971 38.9424L87.2822 38.9832C86.6835 39.0972 86.2419 38.6988 85.9571 37.7881L85.9323 37.6576C85.7326 36.6088 85.8762 35.2745 86.3631 33.6548C85.9896 33.726 85.7785 33.6336 85.7298 33.3778C85.8802 32.9144 86.4235 32.5936 87.3598 32.4153ZM87.4365 33.5698C86.9698 34.9894 86.8236 36.1571 86.998 37.073L87.0579 37.3876C87.1843 37.7453 87.314 37.9115 87.4471 37.8862C88.2728 37.5169 88.5678 36.7132 88.332 35.475C88.181 34.6819 87.8825 34.0469 87.4365 33.5698ZM94.23 36.7777C94.2093 36.6968 94.1902 36.6103 94.1727 36.5182L93.9557 35.629C93.4542 37.3946 92.7864 38.3569 91.9524 38.5156C91.4459 38.6121 91.0956 38.3182 90.9017 37.6341C90.3544 35.5115 90.2608 33.488 90.6208 31.5638C90.6905 31.4286 90.7887 31.3172 90.9151 31.2295C91.2667 30.9876 91.5049 31.0827 91.6296 31.5149C91.5729 33.779 91.6561 35.4836 91.8794 36.6287C91.998 37.1681 92.2289 37.1136 92.572 36.465C93.2855 34.9772 93.644 33.6577 93.6475 32.5065C93.6413 31.5269 93.853 30.9961 94.2828 30.9143C94.6463 30.9299 94.8469 31.0376 94.8849 31.2372C94.9085 32.4468 94.9777 33.645 95.0923 34.832C95.1177 34.9651 95.1476 35.0946 95.1822 35.2205C95.4209 36.2514 95.6173 36.8237 95.7715 36.9375C95.9257 37.0513 96.0126 37.1593 96.0321 37.2616L96.0598 37.4075C96.1495 37.8782 95.844 38.1537 95.1436 38.234C94.7343 38.312 94.4511 37.9392 94.2943 37.1154L94.23 36.7777ZM101.064 31.8023C100.781 32.1531 100.526 32.0399 100.299 31.4627C100.17 31.1479 100.045 30.9067 99.9232 30.7391C99.6464 30.8448 99.3557 31.4197 99.0508 32.4639C98.7501 33.502 98.6072 34.7011 98.6222 36.0608C98.6884 36.9654 98.4526 37.3974 97.9146 37.3566C97.6142 37.3661 97.4418 37.2266 97.3975 36.9381C97.0476 34.4599 96.574 32.2648 95.9768 30.3532C95.9759 30.1254 96.0981 29.9882 96.3438 29.9415C96.635 29.9125 96.7872 29.9312 96.7998 29.9977C97.0812 29.9441 97.4447 30.9485 97.8904 33.011C98.2835 30.9268 98.977 29.7369 99.9706 29.4417C100.534 29.3131 101 29.8129 101.369 30.9409C101.453 31.1582 101.351 31.4454 101.064 31.8023ZM107.319 31.7883C106.857 28.9443 106.366 26.8085 105.845 25.3807C105.95 25.0691 106.112 24.8924 106.332 24.8505L106.524 24.8139C107.041 24.7156 107.483 25.6575 107.849 27.6395C108.216 29.6215 108.515 31.3857 108.746 32.9323C108.941 34.2365 109.134 34.9845 109.324 35.1762C109.357 35.2123 109.523 35.1622 109.82 35.0261C110.124 34.894 110.309 35.0285 110.374 35.4296C110.453 35.844 110.092 36.2043 109.292 36.5105C109.183 36.5524 108.942 36.4843 108.569 36.3062C108.197 36.1331 107.78 34.6272 107.319 31.7883ZM112.173 27.691C112.854 27.5614 113.467 28.2346 114.013 29.7106C114.073 29.8848 114.123 30.0819 114.165 30.3019L114.222 30.6012C114.517 32.1515 114.044 33.2994 112.802 34.0448C112.623 34.132 112.459 34.1898 112.31 34.2181L112.095 34.259C111.497 34.373 111.055 33.9745 110.77 33.0638L110.746 32.9333C110.546 31.8844 110.689 30.5502 111.176 28.9305C110.803 29.0016 110.592 28.9094 110.543 28.6535C110.693 28.1902 111.237 27.8692 112.173 27.691ZM112.25 28.8454C111.783 30.2651 111.637 31.4329 111.811 32.3486L111.871 32.6634C111.998 33.0211 112.127 33.1871 112.26 33.1618C113.086 32.7925 113.381 31.9888 113.145 30.7506C112.994 29.9576 112.696 29.3225 112.25 28.8454ZM116.775 31.9205C116.886 32.5037 117.274 32.6871 117.938 32.4706C118.567 31.6245 118.775 30.5615 118.563 29.2817C118.498 28.9389 118.423 28.6006 118.338 28.2668C117.188 29.4666 116.667 30.6845 116.775 31.9205ZM119.456 31.8794C119.082 32.9526 118.601 33.5452 118.013 33.6572L117.775 33.7026C116.543 33.778 115.811 33.3288 115.578 32.3552L115.559 32.2555C115.448 30.2248 116.266 28.4786 118.013 27.0166L117.892 26.6339C117.835 26.332 118.007 26.0951 118.409 25.9231L118.655 25.8764C118.997 25.8111 119.509 27.1611 120.189 29.9265L120.588 31.8148C120.995 34.7859 120.844 36.7366 120.136 37.6667C119.742 38.134 119.382 38.3988 119.054 38.4612L118.579 38.5518C117.591 38.7398 116.562 38.1643 115.49 36.8255C115.204 36.3499 115.262 36.087 115.666 36.0366C116.066 35.9923 116.432 36.1585 116.763 36.5354C117.116 36.9401 117.606 37.2736 118.234 37.5358C118.467 37.5869 118.652 37.5994 118.79 37.5731L118.836 37.5643C119.742 37.3919 119.948 35.4969 119.456 31.8794ZM122.089 31.8235C121.772 30.1872 121.584 28.5582 121.524 26.9366L121.194 26.9993C120.989 26.9535 120.87 26.8437 120.837 26.6698C120.769 26.3116 121.13 25.9645 121.919 25.6286C122.298 25.5565 122.514 25.6637 122.569 25.9502C122.775 28.2014 122.932 29.6268 123.041 30.2264C123.255 31.0711 123.43 31.5442 123.566 31.6455C123.72 31.7593 123.807 31.8674 123.826 31.9697L123.854 32.1155C123.944 32.5862 123.638 32.8618 122.938 32.9421C122.529 33.02 122.246 32.6472 122.089 31.8235ZM121.679 23.1136L121.94 23.0638C122.165 23.1323 122.292 23.2407 122.32 23.3891C122.391 23.7626 122.339 24.1146 122.163 24.445C121.993 24.7744 121.715 24.9598 121.331 25.0012C121.094 25.0092 120.957 24.921 120.922 24.7368C120.873 24.2848 120.943 23.9112 121.13 23.6157C121.317 23.3151 121.5 23.1477 121.679 23.1136ZM127.076 24.5434C127.461 24.5868 127.83 24.8133 128.184 25.2232C128.694 25.8152 128.782 26.1936 128.448 26.358C128.113 26.5224 127.745 26.3856 127.344 25.9478C127.075 25.6491 126.805 25.5705 126.535 25.712C125.618 26.157 125.182 26.5795 125.226 26.9793C125.278 27.3935 126.003 27.8838 127.399 28.4504C128.795 29.017 129.526 29.5564 129.592 30.0688C129.723 31.1783 129.021 31.7362 127.485 31.7424C125.954 31.7477 125.144 31.3663 125.056 30.5984L125.037 30.4588C125.138 30.1532 125.287 30.0004 125.483 30.0001C125.794 30.2962 126.331 30.5147 127.095 30.6556C127.863 30.7904 128.318 30.6878 128.46 30.3479C128.425 30.1106 127.333 29.526 125.183 28.594C124.484 28.2075 124.107 27.7836 124.051 27.3224C123.945 26.4358 124.327 25.7401 125.196 25.2353C126.069 24.7245 126.696 24.4939 127.076 24.5434ZM129.939 20.6819L130.039 20.6629C130.336 20.6064 130.519 20.7598 130.588 21.123L130.882 22.6657C131.793 22.386 132.364 22.2243 132.595 22.1805C132.754 22.2085 132.888 22.2863 132.997 22.414L133.016 22.5138C133.104 22.9743 132.436 23.34 131.014 23.6108L131.505 26.1894C131.972 28.6402 132.44 30.1098 132.909 30.5983C132.94 30.5925 132.965 30.6407 132.984 30.7431L132.993 30.7892C132.867 31.1578 132.653 31.3708 132.351 31.4282C131.62 31.5675 130.901 29.785 130.196 26.0808C130.123 25.5009 130.002 24.771 129.835 23.8909C129.028 23.9703 128.593 23.8462 128.531 23.5188C128.479 23.2476 128.642 23.0286 129.018 22.8615L129.318 22.8044L129.49 22.8749L129.636 22.8472L129.382 21.5118C129.293 21.0462 129.479 20.7696 129.939 20.6819ZM134.616 29.4383C134.299 27.802 134.111 26.173 134.052 24.5514L133.722 24.6143C133.517 24.5685 133.398 24.4585 133.365 24.2845C133.296 23.9264 133.657 23.5795 134.447 23.2435C134.825 23.1715 135.042 23.2786 135.097 23.5651C135.302 25.8163 135.46 27.2417 135.569 27.8413C135.783 28.686 135.957 29.159 136.093 29.2604C136.248 29.3742 136.334 29.4823 136.354 29.5847L136.382 29.7304C136.471 30.2011 136.166 30.4766 135.465 30.557C135.056 30.6349 134.773 30.262 134.616 29.4383ZM134.206 20.7284L134.467 20.6787C134.693 20.7472 134.819 20.8556 134.847 21.004C134.919 21.3775 134.866 21.7294 134.691 22.0598C134.52 22.3891 134.243 22.5745 133.858 22.6159C133.621 22.6239 133.485 22.5358 133.45 22.3517C133.401 21.8997 133.47 21.526 133.658 21.2305C133.845 20.9298 134.027 20.7625 134.206 20.7284ZM138.363 22.4501L138.463 22.4311C139.22 22.2869 139.817 22.844 140.252 24.1024L140.289 24.2943C140.351 24.6218 140.167 24.853 139.737 24.9879C139.389 25.0541 139.173 24.8673 139.089 24.4272C139.007 23.9923 138.815 23.6841 138.516 23.5026C138.042 24.6321 137.929 25.8491 138.177 27.1538C138.434 28.0857 138.731 28.5196 139.069 28.4553C139.075 28.486 139.124 28.4925 139.216 28.475L139.454 28.4297C139.848 28.3547 140.195 27.6843 140.494 26.4184C140.648 26.2248 140.792 26.1152 140.925 26.0898L140.971 26.0812C141.217 26.0344 141.39 26.0834 141.492 26.2284L141.537 26.4663C141.231 28.2265 140.533 29.2104 139.443 29.4179L139.259 29.453C138.507 29.5962 137.895 29.3045 137.422 28.5779C137.261 28.2588 137.158 27.9815 137.113 27.7461L137.005 27.1782C136.771 25.9503 136.942 24.6081 137.518 23.1517C137.79 22.7395 138.071 22.5056 138.363 22.4501ZM145.002 21.1304C145.387 21.1738 145.756 21.4003 146.11 21.8102C146.621 22.4022 146.708 22.7806 146.374 22.945C146.039 23.1094 145.671 22.9726 145.27 22.5348C145.001 22.2361 144.731 22.1575 144.462 22.299C143.544 22.744 143.108 23.1665 143.152 23.5663C143.204 23.9805 143.929 24.4708 145.325 25.0374C146.721 25.604 147.452 26.1434 147.518 26.6558C147.65 27.7653 146.947 28.3232 145.411 28.3294C143.88 28.3347 143.07 27.9533 142.982 27.1854L142.964 27.0457C143.064 26.7402 143.213 26.5874 143.409 26.5871C143.72 26.8832 144.257 27.1016 145.021 27.2425C145.789 27.3773 146.244 27.2748 146.386 26.9349C146.351 26.6976 145.259 26.113 143.109 25.181C142.41 24.7945 142.033 24.3706 141.977 23.9093C141.872 23.0227 142.253 22.3271 143.122 21.8223C143.995 21.3115 144.622 21.0809 145.002 21.1304ZM155.032 19.2207C155.417 19.2641 155.786 19.4907 156.14 19.9005C156.65 20.4926 156.738 20.8709 156.404 21.0353C156.069 21.1997 155.701 21.063 155.3 20.6252C155.031 20.3264 154.761 20.248 154.491 20.3895C153.574 20.8345 153.138 21.2569 153.182 21.6567C153.234 22.0709 153.958 22.5612 155.355 23.1278C156.751 23.6944 157.482 24.2339 157.548 24.7463C157.679 25.8558 156.977 26.4136 155.441 26.4198C153.909 26.425 153.1 26.0437 153.012 25.2757L152.993 25.1361C153.094 24.8306 153.243 24.6778 153.439 24.6775C153.75 24.9736 154.287 25.192 155.051 25.3329C155.819 25.4677 156.274 25.3652 156.416 25.0253C156.381 24.788 155.289 24.2033 153.139 23.2712C152.44 22.8848 152.063 22.461 152.007 21.9998C151.901 21.1132 152.283 20.4176 153.152 19.9128C154.025 19.402 154.652 19.1712 155.032 19.2207ZM157.895 15.3593L157.995 15.3403C158.292 15.2838 158.475 15.4372 158.544 15.8004L158.838 17.3431C159.749 17.0635 160.32 16.9018 160.551 16.858C160.71 16.886 160.844 16.9638 160.953 17.0915L160.972 17.1913C161.06 17.6518 160.392 18.0173 158.97 18.2881L159.461 20.8668C159.927 23.3176 160.395 24.7872 160.865 25.2757C160.896 25.2699 160.921 25.3181 160.94 25.4205L160.949 25.4665C160.823 25.8351 160.609 26.0482 160.307 26.1056C159.576 26.2449 158.857 24.4625 158.152 20.7582C158.079 20.1784 157.958 19.4484 157.791 18.5684C156.984 18.6478 156.549 18.5236 156.487 18.1962C156.435 17.925 156.598 17.7059 156.974 17.5388L157.274 17.4819L157.446 17.5523L157.592 17.5246L157.338 16.1892C157.249 15.7236 157.435 15.447 157.895 15.3593ZM164.022 17.5728C164.638 17.4927 165.111 17.6093 165.441 17.9229L165.588 17.6087C165.724 17.5456 165.816 17.5122 165.863 17.5085C166.163 17.5521 166.324 17.6594 166.346 17.8301C166.305 19.3967 166.376 20.7008 166.558 21.7423C166.745 22.7829 166.912 23.3662 167.058 23.4922C167.208 23.6121 167.297 23.7727 167.325 23.9742C167.388 24.4447 167.068 24.7017 166.366 24.7453C165.953 24.8027 165.688 24.4157 165.573 23.5841L165.334 21.8321C164.699 23.7027 163.973 24.6945 163.157 24.8075C162.583 24.8849 162.232 24.4456 162.103 23.4893C161.89 21.9235 162.106 20.2865 162.751 18.5784C163.16 17.9703 163.584 17.6351 164.022 17.5728ZM163.232 22.9879L163.304 23.531C164.121 22.6968 164.697 21.1715 165.033 18.9549C164.8 18.6494 164.544 18.5152 164.265 18.5525C163.58 18.7729 163.218 20.0057 163.179 22.2505C163.17 22.3955 163.187 22.6412 163.232 22.9879ZM169.128 16.5927L169.228 16.5738C169.985 16.4296 170.581 16.9866 171.017 18.245L171.054 18.4369C171.116 18.7644 170.932 18.9955 170.502 19.1305C170.154 19.1967 169.938 19.0098 169.854 18.5698C169.772 18.1349 169.58 17.8267 169.281 17.6452C168.806 18.7746 168.694 19.9917 168.942 21.2964C169.199 22.2283 169.496 22.6621 169.834 22.5979C169.84 22.6286 169.889 22.6351 169.981 22.6176L170.219 22.5723C170.613 22.4973 170.96 21.8268 171.259 20.5609C171.413 20.3673 171.557 20.2578 171.69 20.2324L171.736 20.2237C171.982 20.1769 172.155 20.226 172.257 20.371L172.302 20.6089C171.996 22.3691 171.298 23.353 170.208 23.5605L170.024 23.5956C169.272 23.7388 168.66 23.4471 168.187 22.7205C168.026 22.4013 167.923 22.1242 167.878 21.8888L167.77 21.3208C167.536 20.0929 167.707 18.7508 168.283 17.2944C168.555 16.8822 168.836 16.6482 169.128 16.5927ZM175.327 19.0152C176.786 20.0522 177.747 20.6857 178.21 20.9157C178.31 20.9708 178.387 21.0277 178.441 21.0864C178.646 21.3018 178.613 21.5334 178.343 21.7811C178.072 22.0289 177.807 22.103 177.55 22.0036C177.098 21.8299 176.251 21.2966 175.01 20.4035C175.146 22.2598 175.145 23.2011 175.007 23.2274C174.494 23.4259 174.118 23.4152 173.88 23.1954C173.775 21.699 173.676 20.5489 173.581 19.7452L173.425 18.4229C172.827 15.2866 172.112 13.1323 171.279 11.9602C171.232 11.7095 171.41 11.4899 171.814 11.3016C172.474 11.1759 173.057 11.9239 173.562 13.5456C173.99 14.9327 174.335 16.2985 174.596 17.6431C174.724 17.4227 174.858 17.193 174.998 16.9543C175.871 15.4945 176.612 14.9053 177.222 15.1868C177.572 15.4648 177.695 15.7198 177.591 15.9517C176.885 16.5632 176.131 17.5844 175.327 19.0152ZM37.7821 60.9812C38.0752 60.9891 38.2431 61.1055 38.286 61.3306L38.3211 61.5148C38.5256 62.5893 38.4893 64.8071 38.212 68.1683C38.0996 68.9425 37.8388 69.3686 37.4295 69.4466L37.2376 69.4831C36.8794 69.5513 36.5422 69.0746 36.2258 68.0533C35.5403 66.7364 35.1675 66.0731 35.1073 66.0634C34.9531 68.1499 34.7207 69.4215 34.41 69.8783C34.2782 69.9935 34.0858 70.0964 33.8326 70.1871C33.5052 70.2494 33.2223 69.7943 32.9841 68.8217C32.6034 67.6853 31.9185 65.9812 30.9292 63.7094C31.081 63.4207 31.2465 63.2594 31.4256 63.2253L31.7556 63.1625C31.9602 63.1235 32.3182 63.7922 32.8295 65.1688C33.1493 65.8184 33.4825 66.6219 33.8292 67.5792L33.8752 67.5704L34.1872 64.3218C33.9546 63.9632 33.8207 63.6918 33.7856 63.5077C33.8951 63.1634 34.0879 62.9649 34.3642 62.9123C34.707 62.847 35.0599 63.2385 35.4228 64.0867C35.949 64.9567 36.5256 66.0081 37.1526 67.2407L37.1987 67.2319C37.3397 64.3526 37.3236 62.4576 37.1502 61.5469C37.2951 61.2224 37.5058 61.0338 37.7821 60.9812ZM40.392 67.7372C40.0752 66.1009 39.887 64.472 39.8274 62.8503L39.4974 62.9132C39.2925 62.8674 39.1735 62.7574 39.1404 62.5835C39.0722 62.2253 39.433 61.8783 40.2226 61.5424C40.6012 61.4703 40.8178 61.5776 40.8724 61.8641C41.0783 64.1154 41.2357 65.5408 41.3445 66.1403C41.5584 66.9851 41.7333 67.4581 41.8692 67.5594C42.0234 67.6732 42.1103 67.7812 42.1298 67.8835L42.1575 68.0294C42.2471 68.5002 41.9417 68.7757 41.2413 68.856C40.832 68.934 40.5489 68.5609 40.392 67.7372ZM39.9823 59.0274L40.2433 58.9776C40.4684 59.0461 40.5951 59.1546 40.6233 59.303C40.6944 59.6765 40.6421 60.0284 40.4665 60.3587C40.2959 60.6881 40.0184 60.8736 39.6339 60.915C39.3969 60.923 39.2608 60.8349 39.2257 60.6507C39.1768 60.1988 39.2461 59.8249 39.4338 59.5294C39.6204 59.2288 39.8033 59.0615 39.9823 59.0274ZM42.5831 57.6733L42.6829 57.6544C42.9796 57.5979 43.1626 57.7512 43.2318 58.1145L43.5255 59.6571C44.4372 59.3775 45.0081 59.2158 45.2384 59.1719C45.3975 59.2 45.5316 59.2778 45.6407 59.4055L45.6597 59.5051C45.7474 59.9656 45.08 60.3313 43.6577 60.6021L44.1486 63.1809C44.6152 65.6316 45.0833 67.1012 45.5527 67.5897C45.5834 67.5839 45.6085 67.6321 45.628 67.7344L45.6368 67.7806C45.5108 68.1492 45.2968 68.3622 44.995 68.4197C44.2633 68.559 43.5449 66.7765 42.8396 63.0722C42.7663 62.4924 42.6459 61.7624 42.4783 60.8824C41.6716 60.9617 41.2371 60.8377 41.1748 60.5102C41.1232 60.2391 41.2856 60.0199 41.662 59.8528L41.9613 59.7959L42.1338 59.8664L42.2796 59.8386L42.0254 58.5032C41.9367 58.0377 42.1226 57.761 42.5831 57.6733ZM46.2927 55.5434L46.3925 55.5245C47.1241 55.3852 47.9999 57.66 49.0199 62.3488L49.2186 63.3926L49.2724 63.3824C49.7303 61.36 50.3251 60.2791 51.0568 60.1398C51.6605 60.0249 52.0496 60.4253 52.2239 61.3412C52.4699 62.8001 52.6684 63.9261 52.8193 64.7191C52.9333 65.3177 53.1485 65.8494 53.465 66.314C53.5137 66.5698 53.3089 66.7891 52.8506 66.9718C52.3799 67.0614 51.9759 66.4013 51.6385 64.9916C51.4384 63.7732 51.2399 62.6472 51.0431 61.6137L51.0081 61.4295L50.962 61.4383C50.5297 62.5651 50.0918 64.3026 49.6481 66.651C49.4822 66.8098 49.3199 66.9044 49.1613 66.9346L49.0616 66.9534C48.8518 66.9934 48.6872 66.8948 48.5679 66.6578C48.5542 66.5861 48.5574 66.5192 48.5774 66.4571C48.3139 64.9061 48.1339 63.8774 48.0375 63.3708C47.3593 59.8364 46.609 57.4556 45.7869 56.2283L45.7518 56.0441C45.8259 55.7649 46.0062 55.598 46.2927 55.5434ZM60.8316 53.006C63.0492 52.5679 64.5443 53.7651 65.3168 56.5977C65.4588 57.2599 65.2791 57.6387 64.7777 57.7341C64.5577 57.776 64.3542 57.6955 64.1671 57.4925L64.0092 56.9977C63.287 54.7917 62.1972 53.8435 60.7397 54.1528C60.1462 54.2658 59.6689 55.5178 59.3076 57.9088C59.2005 59.3236 59.2483 60.5631 59.4509 61.6273L59.5167 61.9727C59.8294 63.6151 60.4607 64.6056 61.4106 64.9444C61.6381 64.97 61.7928 64.975 61.8747 64.9594L62.2738 64.8834C63.2664 64.6944 64.267 63.3083 65.2756 60.7251C65.3497 60.3346 65.53 60.112 65.8165 60.0574L65.9623 60.0297C66.3256 59.9606 66.5355 60.0744 66.592 60.3711C65.8404 62.9955 64.6574 64.7741 63.043 65.7071C62.648 65.8883 62.2945 66.0087 61.9824 66.0681C60.6112 66.3291 59.5275 65.6634 58.7311 64.0707C58.4824 63.4606 58.2992 62.846 58.1813 62.227C57.663 59.505 57.9224 56.9266 58.9592 54.4918C59.3325 53.6679 59.9567 53.1726 60.8316 53.006ZM71.6805 57.7561C71.3973 58.1069 71.1425 57.9937 70.916 57.4165C70.7871 57.1017 70.6617 56.8605 70.5396 56.6929C70.2628 56.7986 69.972 57.3735 69.6671 58.4177C69.3664 59.4559 69.2235 60.6548 69.2385 62.0145C69.3047 62.9191 69.0689 63.351 68.5309 63.3102C68.2305 63.3197 68.0582 63.1802 68.0138 62.8918C67.6639 60.4135 67.1904 58.2185 66.5931 56.3069C66.5922 56.0791 66.7145 55.9419 66.9601 55.8952C67.2515 55.8662 67.4035 55.885 67.4162 55.9515C67.6976 55.8979 68.0611 56.9023 68.5068 58.9647C68.8999 56.8805 69.5933 55.6907 70.5869 55.3955C71.1509 55.2669 71.6172 55.7666 71.9857 56.8946C72.0695 57.112 71.9678 57.3992 71.6805 57.7561ZM75.7743 54.0102C76.2472 54.127 76.6014 54.3723 76.837 54.7463C77.1118 55.1871 77.2151 55.8274 77.1471 56.6674C76.9175 58.1904 76.1137 59.1203 74.7356 59.4569C74.9921 60.3306 75.761 60.5818 77.0423 60.2106C77.3393 60.1276 77.5117 60.2671 77.5594 60.6291C77.6113 60.9851 77.4041 61.2339 76.9381 61.3757C74.9392 61.9047 73.7707 61.1834 73.4324 59.2119C73.1257 59.1325 72.9548 59.0006 72.9197 58.8164C72.8915 58.6681 72.9451 58.5041 73.0806 58.3246C73.1824 58.2468 73.3362 58.2467 73.5418 58.3242C73.8215 55.4769 74.5656 54.0389 75.7743 54.0102ZM74.6849 58.4804C75.3108 58.3983 75.7623 57.9014 76.0394 56.9897C76.2197 56.3774 76.1727 55.8802 75.8984 55.4976C75.6241 55.1151 75.4259 55.1184 75.3039 55.5075C74.9466 56.4715 74.7403 57.4625 74.6849 58.4804ZM81.1024 53.6558C81.4871 53.6992 81.8563 53.9259 82.21 54.3357C82.7204 54.9278 82.8083 55.306 82.4738 55.4705C82.1392 55.6349 81.7712 55.4981 81.3698 55.0602C81.1008 54.7615 80.8314 54.683 80.5614 54.8246C79.6441 55.2696 79.2076 55.692 79.2519 56.0919C79.3042 56.506 80.0285 56.9964 81.4248 57.563C82.821 58.1295 83.552 58.669 83.6177 59.1814C83.7494 60.2909 83.0471 60.8487 81.5107 60.8549C79.9795 60.8601 79.1699 60.4788 79.082 59.7108L79.0634 59.5713C79.1643 59.2658 79.3128 59.1129 79.5089 59.1127C79.8198 59.4088 80.3571 59.6272 81.1209 59.7681C81.8888 59.9029 82.3438 59.8004 82.4859 59.4605C82.4513 59.2232 81.3591 58.6385 79.2094 57.7064C78.5102 57.32 78.1326 56.8961 78.0766 56.4349C77.9714 55.5483 78.3532 54.8526 79.2221 54.3479C80.095 53.8371 80.7218 53.6063 81.1024 53.6558ZM83.9654 49.7945L84.0651 49.7755C84.3619 49.719 84.5448 49.8722 84.614 50.2355L84.9077 51.7782C85.8194 51.4986 86.3904 51.3368 86.6206 51.2929C86.7797 51.321 86.9138 51.3989 87.023 51.5266L87.042 51.6264C87.1296 52.0868 86.4623 52.4525 85.0399 52.7233L85.5309 55.302C85.9975 57.7527 86.4655 59.2223 86.935 59.7108C86.9657 59.705 86.9908 59.7533 87.0102 59.8556L87.019 59.9016C86.893 60.2702 86.6791 60.4833 86.3772 60.5408C85.6456 60.6801 84.9271 58.8976 84.2218 55.1933C84.1486 54.6135 84.0281 53.8835 83.8606 53.0035C83.0539 53.0829 82.6194 52.9588 82.557 52.6314C82.5054 52.3602 82.6678 52.141 83.0442 51.9739L83.3436 51.917L83.516 51.9874L83.6619 51.9597L83.4076 50.6244C83.319 50.1588 83.5049 49.8821 83.9654 49.7945ZM93.7799 57.5726C93.4631 55.9364 93.2748 54.3074 93.2152 52.6858L92.8853 52.7486C92.6804 52.7028 92.5614 52.5928 92.5283 52.4188C92.4601 52.0607 92.8208 51.7137 93.6105 51.3778C93.9891 51.3057 94.2057 51.413 94.2602 51.6995C94.4661 53.9507 94.6235 55.3761 94.7324 55.9757C94.9462 56.8204 95.121 57.2934 95.257 57.3948C95.4112 57.5086 95.4981 57.6166 95.5176 57.719L95.5453 57.8647C95.6349 58.3354 95.3296 58.611 94.6291 58.6914C94.2198 58.7693 93.9367 58.3964 93.7799 57.5726ZM93.3701 48.8628L93.6311 48.8131C93.8562 48.8816 93.9829 48.99 94.0112 49.1384C94.0823 49.5119 94.0299 49.8637 93.8542 50.194C93.6836 50.5234 93.4062 50.7089 93.0218 50.7503C92.7847 50.7583 92.6485 50.6702 92.6135 50.486C92.5645 50.0341 92.6339 49.6603 92.8215 49.3647C93.0082 49.0641 93.191 48.8969 93.3701 48.8628ZM99.9226 56.6099C99.3214 52.7002 98.926 50.7634 98.7367 50.7994C98.3513 53.2587 98.0176 55.39 97.7353 57.1933C97.7044 57.4484 97.5023 57.6406 97.1293 57.77C96.7553 57.8942 96.5655 57.7182 96.5597 57.2421C96.4938 55.5315 96.2628 54.1096 95.8667 52.9762C95.6088 52.2619 95.5538 51.8058 95.7017 51.608C95.8537 51.404 96.1151 51.4126 96.4859 51.6336C96.8189 51.8512 97.0944 52.5463 97.3124 53.7189C97.6476 50.9405 98.0837 49.5002 98.621 49.3979L98.905 49.3439C99.519 49.227 100.12 50.6846 100.707 53.7167C100.755 53.9939 100.807 54.2544 100.864 54.498C101.103 55.5288 101.299 56.1012 101.453 56.215C101.608 56.3287 101.695 56.4368 101.714 56.5391L101.742 56.6849C101.831 57.1557 101.526 57.4312 100.826 57.5115C100.331 57.6428 100.03 57.3423 99.9226 56.6099ZM107.712 48.7008L108.119 48.6234C108.544 48.6539 109.171 50.3186 110 53.6174L110.117 54.2313C110.66 57.3621 110.12 59.562 108.495 60.831C108.094 61.1194 107.598 61.2455 107.008 61.2094C106.128 60.9316 105.775 60.4529 105.947 59.7732C106.119 59.0618 106.515 58.3688 107.134 57.6942C107.749 57.0257 108.147 56.6927 108.328 56.6954C108.449 56.6935 108.525 56.7719 108.555 56.9305C108.632 57.3347 108.608 57.5965 108.482 57.7159C107.822 58.3666 107.395 59.0496 107.202 59.7649C107.196 60.0365 107.397 60.1067 107.807 59.9757C108.301 59.8127 108.676 59.2642 108.933 58.3299C109.039 57.7742 109.096 57.0954 109.102 56.2936C109.058 55.5332 108.981 54.8613 108.87 54.278C108.612 52.9273 108.155 51.4741 107.499 49.9184L107.415 49.9821L107.178 50.0274C107.004 50.0605 106.842 49.993 106.694 49.8251L106.685 49.7792C106.615 49.4108 106.957 49.0513 107.712 48.7008ZM107.033 46.0942L107.294 46.0447C107.519 46.1131 107.646 46.2215 107.674 46.3699C107.745 46.7433 107.693 47.0954 107.517 47.4257C107.347 47.7551 107.069 47.9404 106.685 47.9818C106.448 47.9898 106.312 47.9044 106.278 47.7253C106.228 47.2682 106.297 46.892 106.485 46.5964C106.671 46.2958 106.854 46.1283 107.033 46.0942ZM114.627 53.2535C114.606 53.1727 114.587 53.0862 114.569 52.9941L114.352 52.1049C113.851 53.8705 113.183 54.8327 112.349 54.9915C111.843 55.0879 111.492 54.794 111.298 54.1099C110.751 51.9873 110.658 49.9639 111.018 48.0396C111.087 47.9044 111.185 47.7929 111.312 47.7052C111.663 47.4633 111.902 47.5585 112.026 47.9907C111.97 50.2548 112.053 51.9594 112.276 53.1045C112.395 53.6439 112.626 53.5895 112.969 52.941C113.682 51.4531 114.041 50.1335 114.044 48.9823C114.038 48.0027 114.25 47.472 114.679 47.3902C115.043 47.4058 115.244 47.5134 115.282 47.713C115.305 48.9226 115.374 50.1208 115.489 51.3078C115.514 51.4409 115.544 51.5705 115.579 51.6964C115.818 52.7273 116.014 53.2996 116.168 53.4134C116.322 53.5272 116.409 53.6352 116.429 53.7376L116.457 53.8834C116.546 54.3541 116.241 54.6295 115.54 54.7099C115.131 54.7878 114.848 54.415 114.691 53.5912L114.627 53.2535ZM119.825 46.2834C120.209 46.3268 120.578 46.5534 120.932 46.9632C121.443 47.5553 121.53 47.9335 121.196 48.0979C120.861 48.2623 120.493 48.1257 120.092 47.6879C119.823 47.3891 119.554 47.3105 119.284 47.4521C118.366 47.8971 117.93 48.3195 117.974 48.7194C118.026 49.1335 118.751 49.6239 120.147 50.1905C121.543 50.757 122.274 51.2964 122.34 51.8088C122.472 52.9183 121.769 53.4763 120.233 53.4825C118.702 53.4877 117.892 53.1064 117.804 52.3384L117.786 52.1987C117.886 51.8932 118.035 51.7404 118.231 51.7402C118.542 52.0363 119.079 52.2546 119.843 52.3955C120.611 52.5303 121.066 52.4279 121.208 52.088C121.173 51.8507 120.081 51.266 117.932 50.3339C117.232 49.9475 116.855 49.5236 116.799 49.0624C116.694 48.1758 117.075 47.4801 117.944 46.9753C118.817 46.4645 119.444 46.2339 119.825 46.2834ZM122.688 42.4219L122.787 42.4029C123.084 42.3464 123.267 42.4999 123.336 42.8631L123.63 44.4057C124.542 44.1261 125.113 43.9644 125.343 43.9205C125.502 43.9486 125.636 44.0264 125.745 44.1541L125.764 44.2539C125.852 44.7143 125.184 45.0799 123.762 45.3507L124.253 47.9295C124.72 50.3802 125.188 51.8499 125.657 52.3384C125.688 52.3326 125.713 52.3808 125.732 52.4831L125.741 52.5292C125.615 52.8978 125.401 53.1108 125.099 53.1683C124.368 53.3076 123.649 51.5251 122.944 47.8208C122.871 47.241 122.75 46.511 122.583 45.631C121.776 45.7104 121.342 45.5863 121.279 45.2589C121.228 44.9877 121.39 44.7686 121.766 44.6015L122.066 44.5445L122.238 44.615L122.384 44.5872L122.13 43.2518C122.041 42.7862 122.227 42.5095 122.688 42.4219ZM131.628 40.7197L131.727 40.7008C132.024 40.6443 132.207 40.7976 132.276 41.1609L132.57 42.7036C133.482 42.424 134.053 42.2622 134.283 42.2183C134.442 42.2464 134.576 42.3242 134.685 42.4519L134.704 42.5516C134.792 43.0121 134.124 43.3779 132.702 43.6487L133.193 46.2274C133.66 48.6781 134.128 50.1477 134.597 50.6362C134.628 50.6304 134.653 50.6787 134.672 50.781L134.681 50.8271C134.555 51.1957 134.341 51.4087 134.039 51.4662C133.308 51.6055 132.589 49.823 131.884 46.1187C131.811 45.5389 131.69 44.8089 131.523 43.9289C130.716 44.0082 130.282 43.8842 130.219 43.5567C130.168 43.2856 130.33 43.0663 130.706 42.8992L131.006 42.8423L131.178 42.9128L131.324 42.885L131.07 41.5497C130.981 41.0842 131.167 40.8074 131.628 40.7197ZM141.779 41.1808C142.072 41.1886 142.24 41.3051 142.283 41.5302L142.318 41.7144C142.523 42.7888 142.486 45.0067 142.209 48.3679C142.097 49.1422 141.836 49.5683 141.427 49.6462L141.235 49.6827C140.877 49.7509 140.539 49.2743 140.223 48.253C139.537 46.9361 139.165 46.2728 139.104 46.263C138.95 48.3495 138.718 49.6211 138.407 50.0779C138.275 50.1931 138.083 50.2961 137.83 50.3867C137.502 50.449 137.219 49.9939 136.981 49.0213C136.601 47.8849 135.916 46.1809 134.926 43.909C135.078 43.6204 135.244 43.459 135.423 43.4249L135.753 43.3621C135.957 43.3232 136.315 43.9919 136.827 45.3685C137.146 46.018 137.48 46.8215 137.826 47.7788L137.872 47.77L138.184 44.5215C137.952 44.1629 137.818 43.8915 137.783 43.7073C137.892 43.363 138.085 43.1645 138.361 43.1119C138.704 43.0466 139.057 43.4382 139.42 44.2863C139.946 45.1564 140.523 46.2077 141.15 47.4403L141.196 47.4314C141.337 44.5522 141.321 42.6573 141.147 41.7465C141.292 41.422 141.503 41.2334 141.779 41.1808ZM145.347 41.7341C146.028 41.6045 146.641 42.2777 147.187 43.7537C147.247 43.9279 147.298 44.1251 147.34 44.3451L147.397 44.6444C147.692 46.1947 147.219 47.3426 145.977 48.088C145.797 48.1752 145.633 48.2329 145.485 48.2612L145.27 48.3021C144.671 48.4161 144.23 48.0176 143.945 47.1068L143.92 46.9765C143.72 45.9276 143.864 44.5933 144.351 42.9736C143.977 43.0447 143.766 42.9525 143.717 42.6966C143.868 42.2333 144.411 41.9123 145.347 41.7341ZM145.424 42.8885C144.957 44.3082 144.811 45.476 144.986 46.3918L145.046 46.7065C145.172 47.0642 145.302 47.2303 145.435 47.205C146.26 46.8357 146.555 46.032 146.32 44.7938C146.169 44.0008 145.87 43.3656 145.424 42.8885ZM156.356 34.3972C156.602 34.3504 156.766 34.4332 156.849 34.6454C157.012 36.8676 157.196 38.9746 157.4 40.9663C157.603 42.9529 157.974 44.815 158.511 46.5524C158.359 46.8411 158.194 47.0025 158.015 47.0366L157.823 47.0732C157.547 47.1258 157.185 46.341 156.739 44.7188C156.359 46.0953 155.873 46.8268 155.28 46.9132C154.686 46.9997 154.239 46.9046 153.937 46.6281C153.634 46.3464 153.336 45.7114 153.041 44.7229C152.949 44.4064 152.886 44.1585 152.852 43.9795C152.451 41.8715 152.601 40.4168 153.302 39.6152L153.797 39.3777C154.524 39.2394 155.291 39.8303 156.099 41.1504L156.145 41.1416C155.735 36.8456 155.671 34.6708 155.953 34.6173C155.94 34.5507 156.074 34.4773 156.356 34.3972ZM153.905 40.4865C153.744 41.3707 153.766 42.3475 153.97 43.4168L154.051 43.8465C154.279 45.0438 154.605 45.6817 155.028 45.7602C155.156 45.7359 155.472 45.0978 155.976 43.8461C156.002 43.8412 156.093 43.8053 156.25 43.7383C155.562 42.3263 154.911 41.3314 154.298 40.7537C154.128 40.5581 154.012 40.4661 153.951 40.4778L153.905 40.4865ZM161.421 38.4272C162.037 38.3471 162.51 38.4638 162.84 38.7774L162.987 38.4631C163.123 38.4 163.215 38.3667 163.262 38.3631C163.562 38.4067 163.723 38.5138 163.745 38.6846C163.704 40.2512 163.775 41.5553 163.957 42.5968C164.144 43.6374 164.311 44.2208 164.457 44.3468C164.607 44.4666 164.696 44.6273 164.724 44.8288C164.787 45.2993 164.467 45.5563 163.765 45.5998C163.352 45.6573 163.087 45.2703 162.972 44.4387L162.733 42.6866C162.098 44.5572 161.372 45.5491 160.556 45.6621C159.982 45.7395 159.631 45.3001 159.502 44.3438C159.289 42.7779 159.504 41.1409 160.15 39.4328C160.559 38.8247 160.983 38.4895 161.421 38.4272ZM160.631 43.8425L160.703 44.3856C161.52 43.5514 162.096 42.0261 162.432 39.8095C162.199 39.504 161.943 39.3697 161.664 39.407C160.979 39.6274 160.617 40.8601 160.578 43.1049C160.569 43.2499 160.586 43.4958 160.631 43.8425ZM165.221 37.6879C165.656 37.6051 165.99 38.6946 166.225 40.9563C166.463 43.2119 166.768 44.0207 167.14 43.3826C167.798 42.2978 168.196 41.1057 168.336 39.8067L167.71 38.1047C167.813 37.7563 168.021 37.5524 168.333 37.493C168.671 37.4287 168.953 37.7858 169.181 38.5642C169.728 40.0719 170.14 41.5523 170.416 43.0054L170.671 44.3408C171.141 46.812 171.022 48.5127 170.314 49.4428C169.92 49.9101 169.56 50.1749 169.232 50.2372C167.928 50.4856 166.754 50.0172 165.712 48.8318C165.425 48.3562 165.243 47.9137 165.165 47.5044C165.175 46.2195 165.484 45.519 166.093 45.403C166.441 45.3368 166.639 45.4317 166.688 45.6875C166.379 46.2924 166.265 46.8071 166.346 47.2318C166.543 48.2653 167.234 48.9582 168.42 49.3104C168.652 49.3616 168.85 49.3716 169.014 49.3404C169.935 49.1651 170.066 47.348 169.408 43.8893L169.399 43.8433C169.309 43.3726 169.171 42.7414 168.983 41.9501C168.354 43.549 167.73 44.4075 167.111 44.5254C166.112 44.6255 165.521 44.0275 165.338 42.7316L164.626 38.1987C164.751 37.9098 164.95 37.7395 165.221 37.6879ZM173.673 36.031C174.058 36.0744 174.427 36.301 174.78 36.7108C175.291 37.3029 175.379 37.6811 175.044 37.8455C174.71 38.01 174.342 37.8733 173.94 37.4354C173.671 37.1367 173.402 37.0581 173.132 37.1996C172.215 37.6447 171.778 38.0671 171.822 38.4669C171.875 38.8811 172.599 39.3716 173.995 39.9381C175.391 40.5047 176.122 41.0442 176.188 41.5566C176.32 42.6661 175.618 43.2239 174.081 43.2302C172.55 43.2354 171.74 42.854 171.652 42.0861L171.634 41.9465C171.735 41.641 171.883 41.488 172.079 41.4878C172.39 41.7838 172.928 42.0023 173.691 42.1432C174.459 42.278 174.914 42.1754 175.056 41.8356C175.022 41.5983 173.93 41.0136 171.78 40.0815C171.081 39.695 170.703 39.2712 170.647 38.81C170.542 37.9234 170.924 37.2278 171.793 36.7231C172.666 36.2122 173.292 35.9815 173.673 36.031Z" fill="#A87EEF"/>
<path d="M60.7298 23.2382C57.572 18.7336 53.987 14.2182 49.9508 10.3775C44.7844 5.46136 37.5228 2.69614 30.3906 2.00977C24.652 1.45749 17.9941 2.34808 12.4871 4.09468C9.3944 5.07556 4.64307 7.0431 2.18601 9.25685M10.9431 13.5438C7.83876 11.9318 4.53412 11.5178 1.7274 9.18999C0.627133 8.2775 1.24402 6.67922 1.7937 5.55655C2.34807 4.42435 4.35985 2.39945 4.19499 1.15939" stroke="#A87EEF" stroke-width="1.5" stroke-linecap="round"/>
</g>
<defs>
<clipPath id="clip0_105_2">
<rect width="191" height="78" fill="white"/>
</clipPath>
</defs>
</svg>
