<?xml version="1.0" encoding="utf-8"?>
<!-- Generator: Adobe Illustrator 27.0.1, SVG Export Plug-In . SVG Version: 6.00 Build 0)  -->
<svg version="1.1" id="Layer_1" xmlns="http://www.w3.org/2000/svg" xmlns:xlink="http://www.w3.org/1999/xlink" x="0px" y="0px"
	 viewBox="0 0 198.2 252" style="enable-background:new 0 0 198.2 252;" xml:space="preserve">
<style type="text/css">
	
		.st0{fill:url(#SVGID_1_);stroke:url(#SVGID_00000127757704128629984900000007681331789229466298_);stroke-width:9;stroke-miterlimit:10;}
	.st1{fill:#D983A9;stroke:#D983A9;stroke-miterlimit:10;}
	.st2{fill:#C57CBF;stroke:#C57CBF;stroke-miterlimit:10;}
</style>
<linearGradient id="SVGID_1_" gradientUnits="userSpaceOnUse" x1="5" y1="1063.3168" x2="194" y2="1063.3168" gradientTransform="matrix(1 0 0 1 0 -937.3212)">
	<stop  offset="0" style="stop-color:#FC907E"/>
	<stop  offset="0.99" style="stop-color:#9F6EED"/>
</linearGradient>
<linearGradient id="SVGID_00000025404593712942842890000016414727227233597849_" gradientUnits="userSpaceOnUse" x1="0.5" y1="1063.3168" x2="198.5" y2="1063.3168" gradientTransform="matrix(1 0 0 1 0 -937.3212)">
	<stop  offset="0" style="stop-color:#FC907E"/>
	<stop  offset="0.99" style="stop-color:#9F6EED"/>
</linearGradient>
<path style="fill:url(#SVGID_1_);stroke:url(#SVGID_00000025404593712942842890000016414727227233597849_);stroke-width:9;stroke-miterlimit:10;" d="
	M155.5,24.8c4.5,0.2,8.9,0.2,13.2,0.7c13.2,1.6,24.4,13.7,25.1,27c0.1,1.4,0.1,2.8,0.1,4.2c0,52.7,0,105.3,0,158
	c0,10.7-3.9,19.4-12.5,25.8c-4.7,3.5-10.1,5.5-16,5.6c-6.8,0.2-13.6,0.1-20.4,0.1c-36.3,0-72.6,0-108.9,0c-11.8,0-21-5-27.1-15.1
	c-3.1-5.1-4-10.7-4-16.6c0-44.1,0-88.2,0-132.3c0-9.6-0.2-19.2,0.1-28.9c0.6-15.2,13-27.5,28.2-28.3c2.9-0.2,5.8-0.1,8.6-0.1
	c1.2,0,1.6-0.4,1.8-1.6c1.8-11.2,9.4-17.6,20.8-17.7c23.1,0,46.2,0.2,69.3-0.1c12.1-0.2,20.6,8.2,21.4,18.3
	C155.3,24.3,155.4,24.5,155.5,24.8L155.5,24.8L155.5,24.8z M155.6,33.6c-0.1,0.6-0.2,1-0.3,1.4c-1.8,11.5-9.4,18-21,18
	c-23.2,0-46.3,0-69.5,0c-2.7,0-5.5-0.3-8-1.2c-7.5-2.7-11.7-8.4-12.9-16.2c-0.2-1.4-0.6-1.9-2.1-1.9c-2.2,0.1-4.4,0-6.5,0
	C22.8,33.9,13.7,43,13.7,55.5c-0.1,53.4,0,106.8,0,160.3c0,3,0.6,6.2,1.8,9c4,8.9,11.3,13,21,13c40.5,0,81,0,121.5,0
	c2.2,0,4.5,0,6.7,0c5-0.2,9.5-1.9,13.3-5.2c5.4-4.8,7.5-10.9,7.5-18c-0.1-52.5,0-105,0-157.5c0-1,0-2-0.1-2.9
	c-0.6-8.3-4.7-14.4-12-18.2C167.7,32.9,161.6,33.6,155.6,33.6L155.6,33.6L155.6,33.6z M99.7,14.3c-11.9,0-23.8,0-35.8,0
	c-6.7,0-11.5,4.8-11.6,11.5c0,2.2,0,4.4,0,6.5c0,7.4,4.6,12,12.1,12c6.5,0,12.9,0,19.4,0c17,0,34,0,50.9,0c7.6,0,12.1-4.6,12.2-12.2
	c0-2,0-3.9,0-5.9c-0.1-7.3-4.7-12-12-12C123.1,14.3,111.4,14.3,99.7,14.3L99.7,14.3L99.7,14.3z"/>
<path class="st1" d="M54.8,167.5c-3.6-0.2-6.2-1.9-8.1-4.6c-2.1-3-4.1-6-6.1-9.1c-1.5-2.4-1.1-4.9,1-6.3c2.1-1.3,4.4-0.8,6,1.5
	c1.9,2.7,3.7,5.5,5.5,8.2c1.4,2,1.8,2.1,3.4,0.2c5.7-7.1,11.3-14.1,17-21.2c0.8-1,1.9-1.9,3.1-2.3c1.7-0.6,3.3,0.1,4.4,1.7
	c1.2,1.7,1,3.5-0.2,5.1c-2.1,2.8-4.4,5.5-6.5,8.2c-3.8,4.8-7.6,9.5-11.4,14.3C60.7,165.9,58,167.5,54.8,167.5L54.8,167.5L54.8,167.5
	z"/>
<path class="st1" d="M54.8,117.3c-3.4-0.2-6.1-1.7-8-4.4c-2.2-3.1-4.3-6.3-6.3-9.4c-1.5-2.3-1-4.8,1.1-6.1c2.1-1.3,4.5-0.8,6,1.5
	c1.8,2.6,3.5,5.2,5.3,7.9c1.7,2.5,2,2.6,3.9,0.2c5.6-7,11.2-14,16.9-21c0.8-1,2-1.9,3.2-2.2c1.7-0.5,3.3,0.2,4.3,1.8
	c1,1.7,0.9,3.4-0.3,4.9c-2.2,2.8-4.4,5.6-6.7,8.4c-3.8,4.7-7.5,9.4-11.3,14.1C60.5,115.8,57.7,117.3,54.8,117.3L54.8,117.3
	L54.8,117.3z"/>
<path class="st2" d="M122,108H98.9c-0.8,0-1.6,0-2.3-0.1c-1.9-0.4-3.1-1.5-3.4-3.5c-0.3-2,0.5-3.6,2.4-4.4c0.9-0.4,2-0.5,3.1-0.5
	c15.6,0,31.3,0,46.9,0c2.9,0,4.7,1,5.3,2.9c0.9,3-1.1,5.6-4.6,5.6C138.2,108,130.1,108,122,108L122,108L122,108z"/>
<path class="st2" d="M122,158.3c-7.6,0-15.3,0-22.9,0c-0.8,0-1.7,0-2.5-0.1c-2-0.3-3.4-1.9-3.5-3.9c-0.1-2,1.1-3.7,3-4.3
	c0.7-0.2,1.5-0.2,2.3-0.2c15.8,0,31.5,0,47.3,0c2.2,0,4.1,0.5,5,2.7c1.2,2.9-0.8,5.7-4.1,5.8c-3.9,0.1-7.9,0-11.8,0L122,158.3
	L122,158.3z"/>
</svg>
