<svg width="259" height="60" viewBox="0 0 259 60" fill="none" xmlns="http://www.w3.org/2000/svg">
<g clip-path="url(#clip0_301_819)">
<path d="M30.3379 30.6948C30.6365 32.5378 30.8805 34.5618 31.3054 36.5455C32.247 40.9235 33.2719 45.2843 34.2766 49.6479C34.6039 51.0632 34.3168 51.5426 32.468 52.3666C31.3484 48.8986 30.2317 45.4393 29.1149 41.9828C29.046 42.0029 28.98 42.0201 28.9111 42.0402C29.5369 45.1637 30.1197 48.2986 30.8144 51.4077C31.0728 52.5675 30.9034 53.3771 29.9963 54.2182C26.0661 57.8699 21.401 59.7302 16.1073 60.0345C12.3321 60.2498 8.56851 60.1321 5.04028 58.5101C3.69387 57.8843 2.40775 57.1321 0.825928 56.2996C10.0326 47.9455 11.2814 36.9072 11.9704 25.4268C14.0546 26.0096 15.9494 26.5407 17.8441 27.0718C17.9015 26.9311 17.9618 26.7876 18.0192 26.6469C16.4317 25.3378 14.8441 24.0259 13.2106 22.6795C13.6728 22.0996 14.0403 21.6374 14.4967 21.0689C15.3034 22.0278 16.0039 22.9264 16.7704 23.7618C18.8489 26.0268 21.0623 28.1426 24.2977 28.5187C25.3685 28.6421 26.5341 28.5216 27.5704 28.2201C29.5542 27.6431 30.1599 26.1819 29.6374 23.0555C29.3073 23.6756 28.9771 24.2929 28.6498 24.913C28.5207 24.7809 28.3943 24.646 28.2652 24.5139C28.5379 23.2852 28.8106 22.0536 29.0948 20.7732C33.7513 23.5895 38.2183 21.5082 42.7111 19.9063C42.9781 19.8115 43.3886 19.5819 43.3972 19.3924C43.5321 17.1991 45.2977 15.6374 45.4412 13.3493C45.7226 8.87947 46.446 4.43832 46.9857 0.00291113C48.6106 -0.269816 48.8087 -0.028668 48.602 1.55028C47.9647 6.42492 47.3532 11.3053 46.779 16.1886C46.7417 16.4986 47.0489 16.9264 47.3101 17.1819C48.1168 17.9771 48.5762 19.0048 47.6202 19.7369C45.5532 21.3216 45.9121 23.6039 45.6278 25.6766C45.1369 29.2766 44.7379 32.8938 44.425 36.5168C44.1321 39.8871 44.046 43.2747 43.7905 46.6479C43.4833 50.7417 43.0987 54.8297 42.7341 58.9206C42.7054 59.2536 42.5704 59.578 42.4499 60.0345C41.9532 59.9799 41.4709 59.9283 41.0288 59.8795C42.002 47.4718 42.9695 35.1646 43.9369 22.8345C43.4144 23.0268 42.7427 23.1732 42.1915 23.5149C41.8613 23.7187 41.6546 24.201 41.5054 24.6029C40.7503 26.6297 40.0757 28.691 39.2575 30.6919C39.1082 31.0536 38.4106 31.4326 37.9943 31.4039C35.4939 31.2374 33.002 30.9532 30.335 30.6948H30.3379Z" fill="black"/>
<path d="M16.7647 6.68031C15.4585 7.25734 14.1523 7.83438 12.8863 8.39131C13.2451 5.38557 16.8796 3.02863 19.6958 2.68988C21.2403 2.50615 22.759 2.58366 24.1657 3.43916C24.4815 3.6315 25.0384 3.54538 25.4518 3.4449C28.0183 2.83629 30.5734 2.18462 33.1313 1.55017C33.2145 1.53007 33.3092 1.49275 33.3839 1.51284C34.2049 1.74251 35.0231 1.98366 35.8413 2.22481C35.5513 2.97983 35.4681 3.95591 34.937 4.44969C33.0968 6.15782 31.0987 7.70232 28.9112 9.5138C29.2327 10.4095 29.6662 11.5837 30.0681 12.7664C30.1427 12.9817 30.1341 13.2516 30.0853 13.4813C29.9676 14.0296 29.6518 14.5779 29.6863 15.109C29.781 16.5502 29.3102 17.5176 27.8604 17.9224C27.5418 18.0114 27.2633 18.2296 26.8729 18.4392C27.1829 18.8124 27.4327 19.1425 27.7112 19.4468C28.8049 20.6468 28.5121 22.2229 27.0222 22.8774C25.6786 23.4688 24.2891 23.509 22.8968 23.0152C22.4289 22.8487 21.9667 22.6794 21.4643 22.5932C23.3446 24.7349 25.5839 26.1358 28.5523 26.0813C28.558 26.2133 28.5638 26.3425 28.5695 26.4746C27.5561 26.5894 26.4824 26.9856 25.5408 26.7731C21.8346 25.9349 18.6738 24.1779 16.8308 20.6497C16.6183 20.242 16.7188 19.6736 16.6815 19.2803C15.2289 19.4526 13.4949 19.6564 11.626 19.8803C11.8958 18.6372 12.0824 17.7875 12.2461 17.0411C10.1246 17.3368 8.15517 17.6813 6.17144 17.8449C5.5858 17.8937 4.64991 17.5779 4.43747 17.1502C4.2279 16.7282 4.54369 15.7521 4.95422 15.3674C6.53891 13.8832 8.1724 12.4191 9.94656 11.1731C12.1628 9.62002 14.537 8.29084 16.8423 6.86404C16.8164 6.80376 16.7906 6.74347 16.7647 6.68031ZM21.5303 19.1052C21.7456 19.6162 21.8518 20.3282 22.1073 20.3884C23.2413 20.6468 24.4155 20.7617 25.5781 20.7789C25.6757 20.7789 25.7906 19.6707 25.8911 19.1081H21.5332L21.5303 19.1052Z" fill="black"/>
<path d="M246.935 37.1368C249.734 32.3541 252.355 27.8412 255.031 23.3569C255.295 22.9148 255.849 22.4383 256.326 22.3722C257.956 22.1397 258.062 22.2947 258.065 23.9541C258.08 29.911 258.071 35.8679 258.128 41.8249C258.14 42.9215 257.948 43.4182 256.679 43.4239C255.37 43.4297 255.151 42.9416 255.169 41.7761C255.232 37.4096 255.194 33.0431 255.194 28.312C254.793 28.823 254.577 29.0411 254.425 29.2995C252.341 32.7933 250.271 36.2928 248.19 39.7895C247.314 41.2593 246.436 41.2679 245.569 39.8239C243.542 36.445 241.521 33.0632 239.497 29.6842C239.282 29.3225 239.055 28.9694 238.659 28.3349C238.595 28.9464 238.538 29.2507 238.538 29.5579C238.532 33.7579 238.489 37.9579 238.564 42.1579C238.587 43.4182 237.944 43.3866 237.057 43.3952C236.161 43.4038 235.653 43.2947 235.661 42.1636C235.713 36.0345 235.676 29.9053 235.707 23.7789C235.707 23.3053 235.963 22.4498 236.181 22.4239C237.045 22.3177 238.001 22.0019 238.644 23.1359C240.484 26.3742 242.425 29.555 244.328 32.7589C245.152 34.1455 245.976 35.5321 246.935 37.1426V37.1368Z" fill="black"/>
<path d="M195.814 36.4162C197.422 38.7013 198.961 40.8917 200.523 43.1166C198.283 43.774 197.543 43.5243 196.34 41.8047C195.384 40.4353 194.465 39.0315 193.432 37.7224C193.122 37.3319 192.484 37.019 191.982 36.9961C190.156 36.9099 188.327 36.9616 186.341 36.9616V43.1339C186.143 43.263 186.111 43.3004 186.074 43.3032C184.275 43.5157 183.375 42.7205 183.375 40.9176C183.375 35.1731 183.401 29.4257 183.352 23.6812C183.344 22.6075 183.668 22.2659 184.733 22.3061C187.727 22.4152 190.742 22.2544 193.719 22.5272C198.826 22.9922 201.668 27.7147 199.874 32.4372C199.317 33.9071 198.326 34.9836 196.977 35.7501C196.615 35.9568 196.254 36.1606 195.809 36.4162H195.814ZM186.447 24.775V34.5329C188.962 34.4123 191.411 34.487 193.796 34.1281C196.142 33.7779 197.402 31.9578 197.391 29.6439C197.379 27.3214 196.119 25.5903 193.73 25.2343C191.382 24.8841 188.973 24.9185 186.447 24.775Z" fill="black"/>
<path d="M72.6766 36.9991C72.6766 38.8709 72.6049 40.5762 72.6996 42.2699C72.7714 43.5417 71.9876 43.3896 71.2154 43.3723C70.4345 43.3551 69.5819 43.6106 69.5934 42.2441C69.6451 35.9886 69.6221 29.7331 69.6077 23.4776C69.6077 22.7915 69.6881 22.3006 70.5494 22.3207C73.713 22.3896 76.8967 22.2489 80.0403 22.5245C85.2393 22.981 88.1532 27.9274 86.1293 32.6441C84.8116 35.7101 82.1216 36.7034 79.0757 36.9417C77.4594 37.068 75.8259 36.9877 74.1982 36.9991C73.7417 37.002 73.2824 36.9991 72.6766 36.9991ZM72.6824 24.7723C72.6824 27.9475 72.6623 30.8068 72.7168 33.6632C72.7226 33.913 73.2192 34.3609 73.4919 34.3609C75.5417 34.3752 77.6087 34.4298 79.6412 34.2231C82.136 33.9676 83.6403 32.2336 83.7149 29.8766C83.7953 27.4077 82.5494 25.6106 80.046 25.2288C77.7034 24.8699 75.2977 24.9159 72.6795 24.7695L72.6824 24.7723Z" fill="black"/>
<path d="M167.201 25.2659C166.538 25.8746 165.981 26.3856 165.318 26.9913C165.065 26.8162 164.692 26.5578 164.322 26.2937C161.055 23.9712 156.108 24.2985 153.278 27.0286C150.527 29.6784 150.077 34.1597 152.233 37.4181C154.498 40.843 159.88 42.1004 163.478 39.9703C163.871 39.7377 164.169 39.0344 164.192 38.5377C164.276 36.6688 164.227 34.7942 164.227 32.8478H166.943C166.974 33.2554 167.032 33.6631 167.034 34.0707C167.046 35.8277 166.94 37.5932 167.072 39.3415C167.172 40.7023 166.653 41.4401 165.499 42.0688C160.994 44.5148 154.954 44.0382 151.386 40.8717C148.222 38.064 147.008 33.4047 148.5 29.2104C150.019 24.9387 153.252 22.7195 157.644 22.1999C160.515 21.8583 163.294 22.2659 165.734 23.9942C166.242 24.353 166.684 24.8124 167.207 25.2688L167.201 25.2659Z" fill="black"/>
<path d="M124.547 22.4124V40.7655H135.783C135.852 41.1215 135.918 41.3196 135.926 41.5206C135.978 42.7531 135.4 43.3703 134.193 43.3722C130.426 43.3722 126.662 43.3407 122.896 43.3923C121.839 43.4067 121.504 43.0966 121.512 42.0143C121.561 36.0201 121.535 30.023 121.535 24.0258C121.535 22.8756 122.13 22.3091 123.321 22.3263C123.657 22.3321 123.99 22.3694 124.547 22.4096V22.4124Z" fill="black"/>
<path d="M101.767 22.4697C103.73 22.1731 104.712 22.9405 104.712 24.7721C104.712 30.5482 104.672 36.3243 104.744 42.0975C104.761 43.4353 104.066 43.3779 103.153 43.3894C102.249 43.4037 101.658 43.3836 101.669 42.1434C101.732 35.8994 101.698 29.6525 101.701 23.4056C101.701 23.1128 101.744 22.82 101.77 22.4697H101.767Z" fill="black"/>
<path d="M215.919 22.3377C216.677 22.3377 217.454 22.2344 218.178 22.3894C218.459 22.4497 218.789 23.0985 218.798 23.4832C218.85 26.4803 218.827 29.4803 218.827 32.4803C218.827 35.7788 218.789 39.0774 218.847 42.376C218.87 43.6076 218.075 43.398 217.391 43.3578C216.731 43.3176 215.772 43.7798 215.781 42.4104C215.812 35.9425 215.795 29.4717 215.801 23.0037C215.801 22.8401 215.858 22.6765 215.921 22.3406L215.919 22.3377Z" fill="black"/>
</g>
<defs>
<clipPath id="clip0_301_819">
<rect width="257.225" height="60" fill="white" transform="translate(0.825928)"/>
</clipPath>
</defs>
</svg>
