<svg width="344" height="60" viewBox="0 0 344 60" fill="none" xmlns="http://www.w3.org/2000/svg">
<g clip-path="url(#clip0_301_758)">
<path d="M36.5038 50.6266C38.3706 37.6662 40.2412 24.7096 42.1079 11.7492C42.9707 11.7416 43.8334 11.734 44.7 11.7263C46.5782 24.5302 48.4564 37.3303 50.3308 50.1342C50.7431 50.138 51.1554 50.1456 51.5677 50.1494C53.4268 37.3646 55.2859 24.5798 57.1489 11.795L59.9204 12.2722C57.3817 28.5462 54.8393 44.8164 52.3006 61.0904L49.5177 61.2049C47.6166 48.0498 45.7193 34.8909 43.8182 21.7358C43.528 21.7053 43.2379 21.6785 42.9478 21.648C41.039 34.7573 39.1303 47.8628 37.2253 60.9721C36.2939 60.9988 35.3662 61.0293 34.4348 61.056C31.9381 44.8355 29.4415 28.6187 26.9448 12.3982C27.8343 12.2302 28.7238 12.0623 29.6171 11.8943C31.5296 24.8051 33.4384 37.7158 35.351 50.6304C35.7365 50.6304 36.1221 50.6304 36.5038 50.6304V50.6266Z" fill="black"/>
<path d="M173.525 60.8043C173.525 48.8211 173.525 37.0594 173.525 25.3015C173.525 22.8163 173.212 20.2777 173.62 17.8612C173.979 15.7349 175.212 11.9746 175.945 12.0014C179.205 12.1197 182.672 12.8718 185.554 14.372C186.905 15.0783 187.799 18.033 187.707 19.9074C187.241 29.4397 188.337 38.846 188.929 48.321C189.623 59.4109 185.928 61.9381 173.525 60.8004V60.8043ZM175.854 47.2407C175.835 47.2407 175.812 47.2407 175.793 47.2407C175.793 49.5121 175.506 51.8331 175.884 54.0397C176.182 55.7881 177.484 58.8764 178.014 58.8077C180.198 58.5328 183.916 57.5136 184.084 56.3416C184.909 50.6115 185.077 44.7211 184.68 38.9453C184.611 37.9565 180.679 36.7426 178.492 36.651C177.675 36.6166 176.335 39.4072 175.957 41.0716C175.51 43.0338 175.854 45.1754 175.854 47.2407ZM176.09 34.9712C179.553 33.5931 183.874 32.8793 184.035 31.6348C184.687 26.5269 184.512 21.1824 183.599 16.109C183.386 14.9256 179.091 14.4789 176.09 13.5055V34.9751V34.9712Z" fill="black"/>
<path d="M4.64309 46.1256C4.64309 48.7826 4.09337 51.6037 4.82251 54.0431C5.37605 55.8907 7.91469 58.7462 8.94159 58.5019C10.9267 58.0324 13.3355 55.9786 13.9731 54.0507C14.8434 51.4243 14.0341 48.2901 14.2708 45.4003C14.7098 40.113 13.9234 36.4864 7.11683 37.0094C5.63946 37.1239 2.86414 34.0127 2.50529 32.0543C1.76851 28.0345 2.20753 23.7856 2.25715 19.6322C2.34114 12.6958 3.64291 11.707 10.0945 11.394C16.588 11.0771 17.1645 14.8679 16.9354 19.7352C16.8324 21.9494 16.9163 24.1712 16.9163 26.3891C16.3094 26.4388 15.7062 26.4922 15.0992 26.5418C14.9045 24.1559 14.5953 21.7738 14.5419 19.384C14.4731 16.3453 13.8394 14.1655 10.0678 14.0968C6.29225 14.0243 4.72707 15.6696 4.82251 19.2962C4.87596 21.3729 4.98666 23.4649 4.79197 25.5264C4.24607 31.2984 5.21571 35.3412 12.5949 34.4937C13.8356 34.3524 16.5079 36.956 16.63 38.4486C17.111 44.2245 16.8476 50.0652 16.8324 55.8793C16.8209 60.884 13.4348 61.22 9.58675 61.3421C5.61273 61.4681 2.41749 60.8726 2.26479 56.0244C2.16172 52.6955 2.2457 49.359 2.2457 46.0263C3.04356 46.0645 3.84142 46.1027 4.64309 46.1409V46.1256Z" fill="black"/>
<path d="M99.4545 45.9962C99.4545 48.7295 98.9238 51.6079 99.6339 54.1427C100.138 55.9446 102.707 58.7657 103.654 58.5138C105.666 57.9793 108.032 56.0362 108.758 54.1045C109.647 51.7339 108.861 48.783 109.063 46.0992C109.483 40.4913 108.884 36.1623 101.371 36.9525C100.092 37.0861 97.4159 34.4368 97.2632 32.8945C96.744 27.5577 96.8738 22.1292 97.1029 16.7503C97.3243 11.5051 101.233 11.4669 105.196 11.4173C109.185 11.3677 111.613 12.7687 111.659 17.0443C111.693 20.2433 111.667 23.4462 111.667 26.6491C111.044 26.6911 110.418 26.7331 109.796 26.7789C109.609 24.5647 109.281 22.3544 109.269 20.1403C109.254 16.7122 108.891 13.9941 104.326 14.0704C99.6835 14.1468 99.5881 17.1054 99.5919 20.3884C99.5919 22.4613 99.7713 24.5533 99.5461 26.6033C98.9773 31.8027 100.153 35.1354 106.421 34.2917C110.048 33.8031 111.751 35.6546 111.667 39.3728C111.552 44.5532 111.552 49.7373 111.644 54.9215C111.747 60.8119 108.086 61.3883 103.409 61.415C98.4734 61.4418 96.6562 59.1513 96.9387 54.5474C97.1143 51.6804 97.2403 48.8097 97.3854 45.9389C98.0763 45.958 98.7635 45.9809 99.4545 46V45.9962Z" fill="black"/>
<path d="M138.732 38.052C130.894 36.8355 126.984 32.4327 127.001 24.8435C127.005 22.9767 127.093 21.1023 126.99 19.2432C126.692 13.8529 128.742 11.3983 134.579 11.3334C140.824 11.2647 142.05 14.4332 141.691 19.5105C141.515 21.988 141.283 24.4579 141.076 26.9317L139.172 26.8324C139.172 24.4961 139.141 22.1636 139.179 19.8273C139.229 16.6511 138.866 14.1698 134.613 14.0705C130.029 13.9636 129.551 16.6053 129.609 20.0564C129.643 22.1293 129.796 24.2251 129.57 26.2751C128.975 31.6921 130.097 35.2576 136.74 34.3262C140.072 33.8604 141.683 35.6661 141.611 39.1019C141.493 44.7021 141.569 50.3024 141.47 55.9027C141.382 60.7509 138.16 61.3731 134.213 61.3731C130.273 61.3731 127.055 60.7967 126.982 55.9065C126.933 52.7609 126.975 49.6152 126.975 46.4696C127.807 46.4505 128.639 46.4276 129.471 46.4085C129.471 49.0693 128.895 51.9172 129.662 54.3337C130.227 56.1126 132.575 58.5138 134.087 58.4833C135.663 58.4527 138.347 55.9637 138.523 54.3337C139.091 49.0273 138.736 43.6256 138.736 38.0444L138.732 38.052Z" fill="black"/>
<path d="M281.602 12.4291C281.602 19.5755 281.602 26.7256 281.602 33.872C281.602 41.1291 281.629 48.39 281.575 55.647C281.545 59.8768 279.121 61.3924 275.12 61.3504C271.222 61.3084 266.996 61.4611 266.928 56.1815C266.741 41.8811 266.92 27.5731 266.993 13.269C266.993 12.9788 267.5 12.6925 268.703 11.4175C269.058 13.7118 269.497 15.2502 269.505 16.7925C269.554 28.1992 269.443 39.6059 269.547 51.0126C269.577 54.3529 268.672 58.6857 274.147 58.785C279.575 58.8804 278.972 54.7232 278.987 51.2531C279.033 40.2625 278.991 29.2681 278.987 18.2775C278.987 16.3535 278.987 14.4295 278.987 12.5016C279.861 12.4787 280.736 12.4558 281.606 12.4329L281.602 12.4291Z" fill="black"/>
<path d="M244.473 11.8638C247.1 28.0881 249.73 44.3125 252.356 60.5369L249.486 61.0484C247.558 48.0651 245.626 35.078 243.698 22.0947C243.332 22.0412 242.965 21.984 242.599 21.9305C240.671 34.952 238.743 47.9735 236.815 60.995C235.926 60.8461 235.036 60.701 234.147 60.5521C236.644 44.3278 239.14 28.1034 241.641 11.879C242.584 11.8752 243.53 11.8714 244.473 11.8676V11.8638Z" fill="black"/>
<path d="M335.101 39.4871V60.3459C334.314 60.3688 333.524 60.3956 332.738 60.4185C332.738 57.2538 333.096 54.0394 332.657 50.9396C331.901 45.618 335.73 39.0214 328.004 35.326C326.649 34.6771 327.076 29.9396 326.992 27.0802C326.851 22.2168 326.954 17.3494 326.954 12.4821C327.824 12.4478 328.691 12.4096 329.561 12.3752C329.561 17.903 329.584 23.4307 329.55 28.9585C329.531 31.9514 330.054 34.261 333.864 34.303C337.33 34.3411 339.342 33.4364 339.193 29.4356C338.987 23.8163 339.139 18.1817 339.139 12.5547L341.266 12.5432C341.266 19.7583 341.575 27.0001 341.029 34.177C340.907 35.7841 337.8 37.1661 335.097 39.4871H335.101Z" fill="black"/>
<path d="M218.087 60.495C217.544 60.7317 217.021 61.1325 216.464 61.186C208.389 61.9647 204.351 58.347 204.351 50.3328C204.351 40.1554 204.347 29.9779 204.359 19.7966C204.366 14.2842 207.072 11.5725 212.475 11.6615C213.906 11.6883 215.342 11.8333 216.766 12.0242C217.002 12.0547 217.167 12.6159 217.361 12.9366C217.167 13.242 217.01 13.7688 216.766 13.8146C213.616 14.4216 208.68 13.9711 207.699 15.7348C206.088 18.6361 207.008 22.9575 206.913 26.6834C206.855 28.9281 206.901 31.1766 206.901 33.6694C210.78 34.181 214.029 34.6123 217.277 35.0399C217.27 35.6393 217.258 36.2424 217.251 36.8418C214.143 37.1166 211.036 37.3915 206.962 37.7503C206.962 43.7171 206.779 49.6533 207.123 55.559C207.188 56.6737 209.215 58.3037 210.566 58.5748C213.005 59.0672 215.617 58.7122 218.159 58.7122C218.132 59.3039 218.109 59.8956 218.083 60.4873L218.087 60.495Z" fill="black"/>
<path d="M78.6261 12.3828C82.2412 28.4736 82.2565 44.5338 78.5306 60.5902C75.3087 44.5338 75.6217 28.4507 78.6261 12.3828Z" fill="black"/>
<path d="M303.557 15.2803C300.697 14.387 299.094 13.887 297.487 13.3869L297.624 12.2378H310.646C310.711 12.5814 310.776 12.9249 310.84 13.2723C309.088 13.8411 307.336 14.41 305.091 15.1391V60.4146C304.58 60.4337 304.068 60.449 303.557 60.4681V15.288V15.2803Z" fill="black"/>
<path d="M243.252 7.43195L249.455 1.18652" stroke="black" stroke-width="1.0689" stroke-miterlimit="10"/>
</g>
<defs>
<clipPath id="clip0_301_758">
<rect width="342.857" height="60" fill="white" transform="translate(0.714355)"/>
</clipPath>
</defs>
</svg>
