<svg width="132" height="60" viewBox="0 0 132 60" fill="none" xmlns="http://www.w3.org/2000/svg">
<g clip-path="url(#clip0_301_571)">
<path d="M69.5483 13.3157H75.7789C76.1104 19.0121 76.4419 24.6698 76.7718 30.3276C76.8184 30.3469 76.8651 30.3678 76.9118 30.3871C77.0292 30.1441 77.1547 29.906 77.2626 29.6598C79.5331 24.4606 81.8148 19.2663 84.0563 14.0543C84.3218 13.438 84.6437 13.2385 85.297 13.2578C86.927 13.3061 88.5603 13.2739 90.2757 13.2739C90.6635 18.8608 91.0464 24.3979 91.4294 29.9333C91.4745 29.9446 91.5195 29.9558 91.5662 29.9671C92.0876 28.8697 92.6009 27.769 93.1335 26.6764C96.1346 20.5247 99.4848 14.5837 103.723 9.18346C105.865 6.45436 108.208 3.91675 111.135 1.99221C112.506 1.0911 113.964 0.379856 115.811 0.0371094C115.367 0.513415 115.055 0.848116 114.741 1.18121C110.528 5.67714 107.307 10.8554 104.399 16.2444C99.8372 24.6972 96.1555 33.5314 93.0032 42.594C92.802 43.1717 92.5397 43.3729 91.925 43.3535C90.4285 43.3053 88.9272 43.3375 87.3326 43.3375C86.7388 37.3112 86.1498 31.3317 85.5609 25.3537C85.511 25.3392 85.4627 25.3247 85.4129 25.3103C85.2664 25.6063 85.1135 25.9008 84.9736 26.2001C82.4713 31.5891 79.9595 36.9733 77.4862 42.3752C77.2288 42.9352 76.9295 43.0993 76.3453 43.0832C74.8505 43.0414 73.3523 43.0687 71.7786 43.0687C71.0336 33.1355 70.295 23.2618 69.5483 13.3141V13.3157Z" fill="black"/>
<path d="M0.847656 13.3077H6.37827C6.71941 18.8271 7.06055 24.3223 7.41456 30.0492C7.6334 29.6051 7.76696 29.3605 7.87799 29.1063C10.0793 24.0826 12.2886 19.062 14.4642 14.0254C14.7152 13.4445 15.0033 13.2337 15.6421 13.2563C17.1338 13.311 18.6303 13.274 20.1783 13.274C20.8879 18.7563 21.5879 24.163 22.2878 29.5697C22.3393 29.581 22.3908 29.5922 22.4423 29.6051C22.5356 29.3847 22.6386 29.1658 22.7223 28.9422C24.5889 23.9554 26.4636 18.9719 28.3044 13.9755C28.5056 13.43 28.7614 13.2482 29.3375 13.2611C31.0754 13.3013 32.8148 13.2756 34.6686 13.2756C34.1215 14.904 33.6114 16.4456 33.0868 17.9839C30.3126 26.1117 27.5208 34.233 24.7788 42.3704C24.5181 43.1428 24.1898 43.4035 23.3804 43.3617C21.9419 43.286 20.4969 43.3407 19.0197 43.3407C17.9576 37.4754 16.9085 31.689 15.8609 25.9009L15.6968 25.8462C15.5649 26.1342 15.4232 26.4174 15.3026 26.7103C13.1463 31.9866 10.9804 37.2582 8.85474 42.5458C8.6021 43.1718 8.28993 43.3794 7.62857 43.3568C6.18356 43.3053 4.73695 43.3407 3.14873 43.3407C2.38117 33.3383 1.61683 23.3649 0.847656 13.3077Z" fill="black"/>
<path d="M52.6893 12.4692C54.7683 12.4403 56.812 12.6945 58.7864 13.3494C63.2614 14.8347 65.8698 17.9661 66.5408 22.594C67.2408 27.4149 66.4233 32.0139 63.8004 36.167C60.8091 40.9027 56.3598 43.3438 50.8678 44.01C48.3978 44.3093 45.9406 44.2128 43.5205 43.6399C38.3036 42.4041 35.0982 39.0345 34.3355 33.7212C33.5486 28.234 34.852 23.2231 38.3873 18.901C41.8663 14.648 46.824 12.4709 52.6893 12.4709V12.4692ZM59.5266 25.6545C59.5266 25.1734 59.5588 24.6874 59.5217 24.2095C59.29 21.2407 57.6101 18.8801 55.0338 18.1511C51.6675 17.2001 48.4943 17.6957 45.8827 20.1094C42.1897 23.5224 40.9539 27.9266 41.4302 32.8039C41.6925 35.488 43.0635 37.5879 45.7861 38.4182C49.212 39.4642 52.3933 38.8768 55.0757 36.4599C58.2586 33.5908 59.3898 29.8061 59.5266 25.6529V25.6545Z" fill="black"/>
<path d="M32.3 59.7862C31.4552 59.9455 30.7939 59.902 30.2226 59.0798C29.1558 57.5479 27.9537 56.1077 26.6696 54.4503V59.7781H25.1265V52.0173C26.2963 51.7003 26.5248 51.7791 27.2554 52.7237C28.3946 54.1976 29.5387 55.6684 30.8341 57.3371V51.9513H32.3V59.7862Z" fill="black"/>
<path d="M66.1689 51.969C67.1763 51.7051 67.8103 52.0205 68.3815 52.8427C69.4017 54.3103 70.5555 55.6845 71.7961 57.2807V51.9561H73.3441V59.7717C72.5427 59.9213 71.8685 59.9857 71.278 59.1409C70.1805 57.5736 68.9495 56.098 67.6284 54.3972V59.7846H66.1706V51.969H66.1689Z" fill="black"/>
<path d="M44.0662 54.4374H42.6968C42.095 53.2096 40.9348 52.7188 39.6265 53.2354C39.3353 53.3496 39.0279 53.7133 38.9684 54.0094C38.9346 54.1799 39.3482 54.5629 39.6217 54.6498C40.4617 54.9121 41.3355 55.0601 42.1899 55.2806C43.6558 55.6587 44.4314 56.4697 44.4009 57.5591C44.3703 58.663 43.4933 59.688 42.0853 59.8361C40.9734 59.9535 39.7842 59.8457 38.6997 59.5689C37.5572 59.2777 37.0117 58.2527 37.0551 57.0378C37.5073 56.9895 37.9707 56.9396 38.4181 56.8913C39.0086 58.4924 40.7706 59.165 42.2173 58.3557C42.4779 58.2092 42.7756 57.8407 42.7692 57.5849C42.7611 57.3322 42.4329 56.9621 42.1658 56.8672C41.4143 56.6001 40.6178 56.4617 39.847 56.2445C39.361 56.1077 38.8542 55.9822 38.4165 55.7424C37.002 54.97 36.9586 53.2273 38.3022 52.3375C39.5638 51.5007 41.9888 51.5426 43.194 52.4469C43.828 52.9232 44.182 53.5524 44.0662 54.439V54.4374Z" fill="black"/>
<path d="M11.9588 54.4518H10.5781C9.91196 53.1854 9.11866 52.8008 7.67526 53.1967C7.32768 53.2916 7.06379 53.6955 6.76127 53.9562C7.03321 54.2088 7.26493 54.5838 7.58515 54.69C8.3688 54.949 9.19911 55.0665 10.0005 55.2773C10.3851 55.3771 10.7745 55.5139 11.1204 55.707C12.5011 56.4761 12.6411 58.1818 11.4246 59.1923C10.0922 60.2994 7.06379 60.2673 5.76199 59.1215C5.16983 58.6018 4.84478 57.9533 4.86731 57.0554C5.33718 56.9975 5.80383 56.9379 6.26243 56.8816C6.72908 58.7225 8.47017 58.9011 9.81381 58.4634C10.1549 58.3524 10.5975 57.9243 10.6119 57.6234C10.6248 57.3483 10.1726 56.9074 9.83633 56.7883C9.00763 56.497 8.12582 56.3651 7.27297 56.1366C5.8521 55.7568 5.11351 54.9748 5.17465 53.9594C5.23902 52.8877 6.05968 52.1331 7.46929 51.8498C8.5796 51.6262 9.65933 51.7179 10.6795 52.2216C11.5517 52.6528 11.9781 53.3689 11.9588 54.4534V54.4518Z" fill="black"/>
<path d="M57.9688 59.7974V51.9529H64.6322V53.1871H59.5924V55.0698H64.3136V56.3796H59.5875V58.4924H64.8044V59.7958H57.9688V59.7974Z" fill="black"/>
<path d="M90.2305 55.0583V56.3698H85.4997V58.4826H90.7052V59.7908H83.8809V51.9575H90.5346V53.1756H85.5045V55.0567H90.2305V55.0583Z" fill="black"/>
<path d="M14.9629 55.3561C16.0877 54.3906 17.1111 53.6729 17.927 52.7702C18.8442 51.7564 19.9078 51.8433 21.2112 51.9463C19.8595 53.0791 18.6189 54.117 17.3461 55.1839C18.6366 56.7045 19.8966 58.1866 21.1694 59.6863C19.8837 60.1095 19.2304 59.926 18.4451 58.9573C17.7049 58.0449 16.9615 57.1358 16.173 56.1687C15.6935 56.6852 14.9034 56.8429 14.9726 57.7505C15.0225 58.4102 14.9822 59.078 14.9822 59.7635C14.8165 59.8021 14.7183 59.8391 14.6186 59.844C13.7915 59.8869 13.3779 59.5044 13.3779 58.6966C13.3779 56.7158 13.3779 54.7349 13.3779 52.7525C13.3779 52.4918 13.4005 52.2295 13.4133 51.935H14.9613V55.3545L14.9629 55.3561Z" fill="black"/>
<path d="M53.2717 54.3439C52.7455 54.4533 52.2821 54.5499 51.838 54.6432C50.9143 53.1612 49.981 52.7573 48.565 53.1934C47.4322 53.5425 46.8094 54.6223 46.9011 56.0818C46.9929 57.5622 47.7057 58.4424 48.9769 58.6467C50.401 58.8752 51.2362 58.3507 51.9442 56.7528C52.4221 56.859 52.9097 56.9668 53.3956 57.0746C53.0738 59.0893 51.4502 60.1111 48.8852 59.9534C46.7595 59.823 45.3338 58.2782 45.2421 56.0045C45.1504 53.7163 46.523 52.1249 48.8804 51.7821C51.0334 51.47 52.7922 52.4612 53.2733 54.3439H53.2717Z" fill="black"/>
<path d="M81.3335 56.7513C81.8098 56.8607 82.299 56.9717 82.7866 57.0843C82.3231 59.2148 80.6834 60.1964 78.0798 59.9406C76.033 59.7394 74.6765 58.1818 74.6331 55.9853C74.5864 53.6183 75.8817 52.1218 78.2713 51.779C80.4131 51.4733 82.1638 52.4742 82.6337 54.3295C82.1703 54.4373 81.7084 54.5451 81.2547 54.6513C80.2972 52.973 79.372 52.7702 77.7693 53.2675C76.6799 53.6054 76.144 54.7784 76.2744 56.2605C76.3918 57.5944 77.0838 58.4167 78.2761 58.6388C79.6745 58.8978 80.4903 58.4022 81.3319 56.7529L81.3335 56.7513Z" fill="black"/>
<path d="M131.595 7.1335H130.688V1.74932C130.644 1.73644 130.599 1.72357 130.556 1.7107C130.474 1.87805 130.377 2.04057 130.31 2.21275C129.74 3.6835 129.161 5.15265 128.62 6.63467C128.478 7.02247 128.282 7.28154 127.881 7.14154C127.635 7.05626 127.349 6.83259 127.255 6.60248C126.657 5.11403 126.108 3.60626 125.54 2.10494C125.479 1.94402 125.395 1.79115 125.202 1.6592V7.1158H124.243V0.162705C125.695 -0.143032 125.724 -0.12694 126.213 1.2006C126.786 2.75181 127.36 4.30302 127.984 5.9894C128.638 4.27245 129.238 2.70193 129.832 1.12819C130.123 0.355802 130.711 0.0200278 131.594 0.120867V7.1335H131.595Z" fill="black"/>
<path d="M23.4159 59.8167H21.9194V51.948H23.4159V59.8167Z" fill="black"/>
<path d="M122.908 0.122314V0.893092H120.383V7.10276H119.261V0.939758H116.754C116.722 0.645285 116.698 0.420005 116.664 0.122314H122.908Z" fill="black"/>
<path d="M56.1621 59.8053H54.6816V51.9495H56.1621V59.8053Z" fill="black"/>
<path d="M3.88574 46.5893C3.88574 46.5893 52.5622 46.4284 59.2804 46.5893C65.9985 46.7503 93.4022 46.5893 93.4022 46.5893C93.4022 46.5893 66.8031 49.9685 54.4127 49.6467C54.4127 49.6467 30.7584 49.6467 26.4137 48.8421C26.4137 48.8421 6.13854 47.8767 3.88574 46.5893Z" fill="black"/>
</g>
<defs>
<clipPath id="clip0_301_571">
<rect width="130.747" height="60" fill="white" transform="translate(0.847656)"/>
</clipPath>
</defs>
</svg>
