<?xml version="1.0" encoding="UTF-8"?><svg id="UNCOVER" xmlns="http://www.w3.org/2000/svg" viewBox="0 0 1202.64 250.32"><g id="RwtKLF.tif"><path d="m410.76,48.1c-1.04,2.87.21,5.69.21,8.55-.07,45.15-.03,90.31-.04,135.46,0,6.95-.07,6.94-7.11,6.93-2.21,0-4.46-.27-6.61.06-7.06,1.09-11.67-2.04-16.17-7.16-21.96-25.03-44.26-49.77-66.42-74.62-4.04-4.53-8.02-9.13-12.11-13.78-1.55,1.63-.94,3.28-.94,4.76-.02,28.13.02,56.26.02,84.39,0,6.41-.04,6.39-6.59,6.37-6.62-.02-13.24-.1-19.85.07-2.86.07-4.1-.94-4.02-3.71.06-2.02-.02-4.04-.01-6.06.05-46.16.11-92.33.2-138.49,0-1.08-.17-1.98-.88-2.78h23.83c.6,3.46,3.87,4.87,5.92,7.15,25.78,28.64,51.26,57.53,76.48,86.65.76.87,1.38,2.66,2.99,1.85,1.15-.57.69-2.07.66-3.2-.77-26.81-.75-53.62.04-80.43.12-4,.76-8.06-.48-12.02h30.89Z"/><path d="m694.05,48.1c-.62.35-1.24.71-1.97,1.12,1.49,1.25,3.3,1.16,4.95,1.42,29.64,4.64,53.27,31.89,59.19,59.57,9.94,46.46-29.44,87.5-72.65,89.81-24.16,1.29-45.62-4.69-62.94-21.36-20.6-19.83-29.77-44-22.37-72.08,7.24-27.5,24.99-46.17,53.02-54.72,3.21-.98,6.59-1.47,9.91-2.02,2.56-.43.35-1.15.2-1.75,10.88,0,21.77,0,32.65,0Zm32.56,74.74c.76-9.72-2.54-18.52-8.6-26.34-12.8-16.52-30.13-21.31-50.44-18.8-33.41,4.12-52,41.9-34.48,70.16,8.72,14.06,21.96,20.49,38.06,21.73,19.4,1.49,39.09-3.41,49.74-23.19,3.95-7.33,5.87-15.03,5.72-23.55Z"/><path d="m1142.39,198.76c-9.26.17-18.53.21-27.78.57-3.25.13-4.14-1.19-4.18-4.01-.08-6.05.22-12.09-.81-18.13-3.15-18.46-22.22-36.03-41.12-37.81-3.42-.32-3.48,1.61-3.47,3.98.02,16.45.02,32.9,0,49.35,0,6.28-.02,6.3-6.3,6.32-6.32.02-12.67-.27-18.97.11-4.52.27-5.48-1.53-5.38-5.5.23-9.09.08-18.18.09-27.27.04-38.24.07-76.48.2-114.72,0-1.67-.3-2.76-1.72-3.56h53.84c-1.65,1.1-1.12,1.62.51,1.9,4.64.83,9.19,2.07,13.51,3.89,13.97,5.89,24.18,15.62,28.2,30.14,4.43,16.01-1.2,29.47-13.34,40.55-1.85,1.69-3.99,2.81-.91,5.68,14.26,13.27,23.68,29.17,26.27,48.95.56-1.21.97-2.08,1.37-2.95v22.51Zm-77.34-105.24c0,4.18.03,8.37-.01,12.55-.02,2.04.65,3.32,2.98,3.36,7.83.11,15.67-.25,23.06-2.87,10.84-3.84,12.59-15.45,3.84-22.72-8.2-6.8-17.91-6.37-27.65-5.99-1.99.08-2.21,1.57-2.21,3.11,0,4.18,0,8.37,0,12.55Z"/><path d="m238.66,48.1c-.62.81-1.07,1.57-1.04,2.72.89,30.56,1.17,61.16.09,91.68-.85,23.9-14.51,41.25-36.16,51.51-41.63,19.73-84.34-6.64-92.3-44.78-.88-4.21-1.25-8.58-1.29-12.88-.29-29.41-.51-58.83.09-88.25h30.01c.09,4.02.25,8.04.25,12.06.02,25.09,0,50.18.02,75.27,0,4.77.28,9.58,2.15,14.03,5.5,13.11,15.52,20.6,30,21.14,13.43.5,25.25-3.04,32.71-15.45,3.52-5.86,4.47-12.02,4.46-18.63-.04-28.55.07-57.09.17-85.64,0-1.09-.22-1.97-.93-2.77h31.77Z"/><path d="m1006.47,48.1c.1,7.77.23,15.54.3,23.32.06,6.29-.04,6.39-6.25,6.4-16.47,0-32.95.08-49.42-.11-3.91-.05-5.6.91-5.44,5.04.28,7.2.25,14.43.02,21.64-.12,3.79,1.27,5.04,5.1,5.01,16.32-.14,32.65-.05,48.98-.02,5.94.01,5.99.11,5.95,5.74-.04,6.2-.12,12.41.01,18.61.08,3.5-1.26,4.82-4.92,4.79-16.62-.14-33.24.06-49.86-.14-4.04-.05-5.49,1.12-5.33,5.13.28,7.21.31,14.43.09,21.64-.11,3.92,1.53,4.88,5.24,4.85,17.65-.13,35.3.06,52.95-.11,3.74-.04,4.85,1.11,4.71,4.66-.24,6.2-.05,12.41-.07,18.61-.02,5.79-.08,5.88-5.85,5.89-20.74.02-41.48,0-62.22.04-6.91.01-13.82-.03-20.72.31-3.36.16-4.49-.97-4.45-4.14.12-9.09.09-18.18.1-27.27.02-37.38.02-74.75.04-112.13,0-2.58.08-5.16.13-7.75,30.3,0,60.6,0,90.9,0Z"/><path d="m535.2,48.1c-.09,2.14,1.81,1.66,2.86,1.86,13.66,2.58,25.26,9.12,35.99,17.51,2.06,1.61,3.1,3.34,2.87,5.87-.88,9.76-1.71,19.52-2.63,29.27-.31,3.33-2.05,2.05-3.45.81-3.83-3.36-7.75-6.66-11.35-10.26-10.51-10.48-23.4-15.07-38.15-15.24-17.87-.21-32.96,5.54-43.44,20.33-9.94,14.02-11.62,29.24-4.3,44.71,7.3,15.44,19.89,24.5,37.3,27.08,20.29,3.01,36.93-3.75,51.23-17.47,3.36-3.22,6.95-6.22,10.42-9.34,2.07-1.87,3.45-1.53,3.75,1.26,1.04,9.89,2.01,19.78,2.93,29.68.16,1.71-.97,2.94-2.27,4-15.21,12.37-32.26,20.17-52.24,21.85-36.67,3.08-76.59-21.44-84.57-60.99-6.36-31.53,8.7-64.32,37.76-79.93,8.17-4.39,16.57-8.11,25.91-9.4.9-.12,2.4.12,1.38-1.62h30.01Z"/><path d="m902.33,48.1c-1.18,7.65-4.76,14.49-7.62,21.56-11.71,28.92-23.49,57.81-35.34,86.67-5.16,12.56-10.63,25-15.77,37.57-1.51,3.7-3.6,5.6-7.88,5.2-3.64-.34-7.36-.31-11.01-.02-4.09.33-6.03-1.45-7.47-5.06-9.84-24.54-19.83-49.01-29.81-73.49-9-22.07-18.03-44.13-27.12-66.16-.87-2.1-.84-4.6-2.71-6.28,10.88,0,21.77,0,32.65,0,.97,2.25,1.99,4.49,2.91,6.75,10.04,24.64,20.07,49.29,30.11,73.93,1.86,4.55,3.77,9.08,5.68,13.61.33.78.55,1.82,1.58,1.87,1.07.06,1.31-1,1.67-1.76.49-1.05.94-2.12,1.37-3.19,8.01-19.84,15.99-39.7,24.05-59.53,4.3-10.57,9.23-20.89,12.93-31.7h31.77Z"/></g></svg>