<?xml version="1.0" encoding="UTF-8"?><svg id="Layer_1" xmlns="http://www.w3.org/2000/svg" viewBox="0 0 896.28 449.06"><path d="m406.31,88.9c7.45,1.3,15.07,2,22.33,4.01,31.05,8.62,54,27.02,66.57,57.18,11.11,26.66,3.16,60.51-19.02,82.49-1.05,1.04-2.27,1.92-3.59,3.03,3.85,4.39,7.31,8.39,10.84,12.33,7.8,8.71,15.59,17.43,23.47,26.07,11.21,12.29,25.59,17.79,41.83,18.76,9.68.58,19.4.47,29.1.66,1.86.04,3.71,0,5.89,0v60.11c-.26.19-.45.44-.65.45-29.72,1.57-58.69-1.39-85.86-14.67-22.62-11.05-41.31-26.61-54.98-47.97-3.01-4.7-6.35-9.25-10.03-13.44-8.88-10.11-20.25-14.95-33.72-14.9-5.59.02-5.6-.04-5.6-5.71,0-14.19,0-28.38,0-42.57,0-1.6,0-3.2,0-5,5.38-.41,10.46-.46,15.43-1.23,14.22-2.18,26.47-13.31,29.3-26.45,2.77-12.84-2.57-22.64-12.22-30.4-6.98-5.61-15.17-8.45-24.2-8.52-11.7-.09-23.4-.14-35.1-.14-4.93,0-4.94.07-4.94,4.94,0,62.36,0,124.73,0,187.09,0,12.1-6.81,18.97-18.88,18.99-13.07.01-26.14.16-39.21-.08-34.85-.64-66.22-11.16-93.41-33.35-11.62-9.48-20.66-21.09-28.77-33.59-7.4-11.4-16.9-20.31-30.82-23.01-3.88-.75-7.89-1.03-11.85-1.1-2.7-.05-3.76-.83-3.74-3.63.09-15.56.08-31.12-.01-46.68-.02-2.59,1.15-2.91,3.37-3.15,6.38-.69,13.11-.7,19.01-2.86,12.64-4.61,20.96-13.73,22.75-27.54,1.55-11.97-4.15-20.94-13.17-27.96-7.52-5.85-16.36-8.26-25.83-8.32-11.2-.07-22.41-.06-33.61-.06-4.51,0-4.83.35-4.83,4.91.01,62.61.03,125.22.03,187.83,0,11.44-7.12,18.45-18.59,18.43-26.64-.03-53.28-.03-79.91-.02-1.24,0-2.47.17-3.71.26,0-20.17,0-40.33,0-60.5,12.3.1,24.6.12,36.9.35,3.39.06,4.54-1.1,4.5-4.53-.16-13.67-.07-27.35-.07-41.03,0-43.64.02-87.28,0-130.91,0-10.46,4.14-18.65,13.52-23.48,4.34-2.24,9.23-3.4,13.87-5.05,26.14,0,52.28,0,78.43,0,1.31.31,2.6.8,3.93.92,13.89,1.24,27.11,4.74,39.6,11.1,21.54,10.96,37.63,27.3,45.85,49.95,10.58,29.19,3.65,55.52-16.38,78.72-1.92,2.22-4.02,4.28-6.15,6.54,2.14,2.3,4.04,4.25,5.85,6.29,8.83,9.96,17.49,20.06,26.48,29.87,12.68,13.83,27.89,22.24,47.31,21.4,6.08-.26,6.11,0,6.11-6.11,0-56.62,0-113.25,0-169.87,0-13.93,7.79-23.88,21.33-27.28,1.79-.45,3.55-1.02,5.32-1.53,26.64,0,53.28,0,79.92,0Z"/><path d="m744.67,356.29c.08-7.57.21-15.15.24-22.72.04-12.18.02-24.37.02-36.55,0-1.22,0-2.44,0-4.2,10.96.55,21.66-1.36,32.11,1.6,9.61,2.72,14.57,10.89,11.63,19.66-1.14,3.41-4.01,6.25-6.09,9.35-.29-.18-.57-.36-.86-.54.08.18.11.47.24.53,7.89,3.49,10.92,8.17,10.4,16.11-.51,7.76-4.76,12.97-12.51,15.34-1.52.47-3.04.95-4.56,1.43h-30.62Zm13.03-10.13c5.42,0,10.53.43,15.52-.13,4.45-.5,6.53-3.66,6.6-8.12.07-4.82-2.19-8.56-6.48-9.15-5.09-.69-10.28-.56-15.64-.8v18.2Zm.1-43.84v17.36c4.36-.24,8.46-.16,12.46-.76,4.25-.64,6.52-3.73,6.5-7.82-.02-4.21-2.15-7.24-6.39-7.92-4-.64-8.12-.59-12.56-.86Z"/><path d="m627.4,356.29c.1-2.85.28-5.69.28-8.54.03-16.41.01-32.82.01-49.23,0-1.72,0-3.44,0-5.41h12.5v25.08c2.66,1.32,4.01.37,5.26-1.54,4.71-7.17,9.43-14.33,14.38-21.32.88-1.24,2.85-2.23,4.4-2.36,3.92-.33,7.89-.11,12.71-.11-7.55,10.18-14.67,19.79-21.87,29.5,7.06,10.12,14.03,20.1,20.97,30.1.83,1.19,1.43,2.54,2.14,3.82h-15.69c-5.19-7.89-10.48-15.71-15.5-23.71-1.68-2.67-3.51-3.53-6.91-2.2v25.91h-12.7Z"/><path d="m681.18,356.29c6.71-19.76,13.51-39.5,20.04-59.32,1.03-3.12,2.27-4.29,5.64-4.19,8.76.26,8.79.08,11.56,8.33,5.79,17.2,11.56,34.4,17.3,51.61.38,1.15.49,2.38.73,3.58h-12.7c-1.19-3.77-2.24-7.6-3.68-11.28-.4-1.03-1.92-2.25-2.98-2.3-5.31-.24-10.64-.24-15.95,0-1.06.05-2.62,1.24-3,2.27-1.39,3.69-2.38,7.53-3.52,11.32h-13.44Zm28.33-45.4c-.24,0-.48.01-.72.02-2.23,7.07-4.47,14.13-6.79,21.47h14.25c-2.33-7.4-4.54-14.44-6.75-21.49Z"/><path d="m803.67,356.29v-63.2h40.06v9.48h-27.3v16.02h22.96v9.61h-22.87v18.32h27.48v9.78h-40.33Z"/><path d="m855.21,356.29v-63.17h12.38v53.46h28.7v9.71h-41.08Z"/><path d="m694.34,276.53h32.13v7.21h-32.13v-7.21Z"/></svg>