<?xml version="1.0" encoding="UTF-8"?><svg id="Layer_1" xmlns="http://www.w3.org/2000/svg" viewBox="0 0 896.28 449.06"><defs><style>.cls-1{fill:#fff;}</style></defs><path d="m.78,276.78c0-3.01,0-6.03,0-9.04.3-1.31.74-2.61.86-3.93.47-5.03,1.39-9.98,2.66-14.87,3.6-13.85,9.85-26.48,17.69-38.38,10.05-15.25,22.25-28.65,35.64-41.01,18.29-16.87,38.36-31.36,59.46-44.46,27.38-16.99,56.12-31.36,85.76-43.97,38.23-16.27,77.53-29.4,117.65-40.16,24.36-6.53,48.93-12.2,73.73-16.81,11.62-2.16,23.26-4.21,34.92-6.12,8.54-1.4,17.12-2.58,25.71-3.71,8.14-1.07,16.29-2.02,24.45-2.89,8.61-.92,17.23-1.79,25.86-2.51,7.51-.63,15.03-1.16,22.55-1.52,13.09-.63,26.19-1.31,39.3-1.57,20.73-.42,41.45-.16,62.15,1.18,10.75.69,21.5,1.42,32.22,2.43,13.42,1.26,26.78,3.05,40.09,5.21,18,2.92,35.82,6.62,53.41,11.42,22.5,6.13,44.39,13.89,65.2,24.52,14.41,7.36,28,15.98,40.14,26.75,11.09,9.84,20.52,21.01,27.05,34.43,5.03,10.33,8.3,21.13,8.58,32.72.02.72.28,1.44.43,2.16v5.87c-.15.88-.37,1.75-.44,2.63-.13,1.65-.06,3.32-.26,4.96-1.32,10.92-4.51,21.32-9.07,31.31-6.5,14.22-15.28,26.96-25.39,38.82-13.86,16.24-29.72,30.33-46.7,43.18-26.4,19.98-54.87,36.56-84.54,51.14-33.16,16.29-67.44,29.81-102.54,41.31-34.51,11.3-69.53,20.68-105.11,27.95-16.22,3.31-32.52,6.3-48.84,9.06-13.14,2.22-26.35,4.02-39.56,5.72-10.45,1.35-20.95,2.39-31.45,3.35-10.95,1-21.92,1.9-32.9,2.54-12.26.71-24.54,1.06-36.81,1.59-.58.02-1.15.23-1.72.35h-32.11c-.73-.12-1.45-.32-2.18-.36-14.97-.79-29.96-1.32-44.91-2.41-12.39-.9-24.75-2.25-37.09-3.75-15.02-1.83-29.94-4.42-44.75-7.56-22.64-4.8-44.88-10.96-66.45-19.42-17.86-7-35-15.42-50.81-26.37-12.03-8.32-22.93-17.88-31.87-29.52-10.69-13.91-17.55-29.4-19.17-47.02-.1-1.09-.54-2.15-.82-3.23Zm167.82-4.02c.59,1.07.98,1.79,1.38,2.5,4.16,7.59,8.26,15.22,12.52,22.76,3.63,6.44,7.75,12.56,12.72,18.07,2.75,3.05,5.81,5.72,9.56,7.45,7.83,3.61,15.31,2.99,22-2.55,7.14-5.91,9.68-13.57,7.65-22.65-1.2-5.37-3.81-10.11-6.71-14.72-3.29-5.23-6.68-10.39-9.79-15.72-14.62-25.09-26.94-51.3-37.92-78.15-6.52-15.96-12.46-32.13-17.06-48.76-1.16-4.2-2.08-8.48-3.34-12.65-.64-2.14-1.57-4.26-2.76-6.14-2.37-3.77-6.51-5.21-10.82-4.12-2.39.61-4.42,1.88-6.29,3.44-6.21,5.2-9.57,11.85-10.21,19.93-.53,6.66.11,13.24,1.12,19.79,1.82,11.85,4.8,23.43,8.28,34.89,4.93,16.21,10.91,32.05,17.07,47.82.29.75.55,1.51.7,1.94-12.03,10.28-23.81,20.34-35.72,30.5-.29-.6-.65-1.24-.93-1.92-4.27-10.2-8.73-20.34-12.74-30.64-6.04-15.5-11.14-31.32-14.91-47.56-.71-3.06-1.65-6.12-2.9-9-1.94-4.46-6.19-6.48-10.95-5.44-1.44.32-2.92.87-4.16,1.66-5.37,3.39-9.38,7.98-11.72,13.93-1.56,3.98-2.09,8.17-2.14,12.4-.1,8.98.8,17.89,2.35,26.73,2.37,13.52,6.02,26.7,10.49,39.67,10.19,29.56,23.48,57.7,39.4,84.59,3.41,5.76,7.2,11.3,10.92,16.87,1.98,2.95,4.39,5.55,7.25,7.7,4.35,3.27,9.23,5.11,14.66,5.17,8.67.1,17.13-5.88,20.29-14.12,2.19-5.71,1.68-11.38-.21-17.02-1.69-5.04-4.37-9.57-7.25-14-7.68-11.81-14.78-23.97-21.26-36.48-.75-1.45-.74-2.46.23-3.85,6.96-9.94,15.4-18.52,24.43-26.55,2.13-1.89,4.32-3.71,6.75-5.79Zm237.24-41.23c.82.16,1.47.26,2.1.42,5.01,1.26,10.12,1.7,15.24,1.34,11.32-.78,22.35-3.14,33.09-6.76,6.66-2.24,13.01-5.18,18.58-9.57,6.21-4.9,10.35-11.1,11.56-19.02.84-5.5.28-10.97-.99-16.35-4.66-19.71-12.95-37.81-24.31-54.53-2.93-4.31-6.37-8.21-10.44-11.52-4.52-3.67-9.66-5.77-15.5-6.09-8.01-.43-15.74,1.14-23.32,3.49-9.58,2.97-16.83,8.9-21.76,17.6-1.67,2.94-3.21,5.97-4.5,9.09-6.27,15.17-10.12,31.01-12.61,47.19-2.56,16.61-3.95,33.33-4.43,50.12-.49,17.1-.05,34.17,2.18,51.16.88,6.72,2.04,13.39,4.07,19.87,1.15,3.68,2.64,7.21,5,10.31,2.36,3.1,5.34,5.3,9.25,5.99,8.1,1.43,15.84-2.85,19.01-10.46,1.64-3.94,2.44-8.05,2.5-12.31.08-5.83-.87-11.55-2.01-17.23-3.06-15.29-4.18-30.7-3.27-46.26.12-2.09.36-4.17.56-6.49Zm129.03-19.49c10.82,4.52,15.75,4.67,22.48,4.96,10.87.47,21.69-.32,32.35-2.61,6.36-1.37,12.48-3.44,17.97-7.06,7.53-4.95,12.05-11.84,13.35-20.79.9-6.17.59-12.34-.21-18.46-1.96-14.99-5.84-29.5-11.56-43.5-2.6-6.36-5.67-12.47-9.91-17.93-5.24-6.74-12.13-10.36-20.61-11.19-6.35-.63-12.65-.39-18.93.54-8.13,1.21-15.23,4.56-21.1,10.4-3.82,3.8-6.93,8.14-9.7,12.73-9.1,15.12-15.67,31.33-20.84,48.15-5.49,17.86-9.72,36.01-12.77,54.45-1.94,11.74-3.39,23.53-4.03,35.42-.45,8.29-.56,16.55.52,24.8.53,4.05,1.42,8.01,3.37,11.65,2.13,3.97,5.26,6.72,9.71,7.84,7.09,1.78,14.69-1.25,18.68-7.47,2.35-3.66,3.82-7.65,4.6-11.93,1.03-5.6,1.01-11.25.83-16.89-.51-16.26.73-32.34,4.56-48.18.38-1.59.8-3.17,1.25-4.93Zm-233.86-51.37c-1.04-.75-1.83-1.31-2.62-1.88-6.65-4.85-13.92-6.14-21.84-3.83-6.54,1.91-12.67,4.76-18.63,8.02-9.11,4.98-15.1,12.42-18.06,22.41-2.92,9.87-4.39,19.95-5.01,30.21-.78,13.06-.16,26.03,2.41,38.87,1.09,5.48,2.57,10.85,5.11,15.85,4.42,8.67,11.49,13.46,21.25,14.29,5.56.47,10.98-.3,16.3-1.74,12.08-3.26,23.3-8.51,33.98-14.97,3.43-2.07,6.63-4.48,9.36-7.42,1.78-1.92,3.34-4.04,5.05-6.13.14.04.36.07.55.16,7.1,3.27,13.38,1.32,19.13-3.2,2.78-2.19,4.3-5.26,4.62-8.77.19-2.15.09-4.37-.2-6.51-.58-4.36-2.27-8.41-3.85-12.48-8.19-21.11-13.09-42.99-15.35-65.49-.59-5.91-1.44-11.8-2.13-17.7-.6-5.13-5.6-8.35-10.62-7.07-8.06,2.05-13.79,6.85-16.7,14.75-.6,1.62-1.05,3.3-1.41,4.99-.51,2.42-.88,4.87-1.37,7.64Zm563.58,28.38c-.16-10.55-1.01-20.52-2.77-30.39-1.12-6.3-2.52-12.53-4.84-18.52-4.26-11-11.98-18.24-23.5-21.16-3.35-.85-6.77-1.46-10.19-1.95-7-1.01-13.81-.26-20.32,2.65-7.34,3.28-13.41,8.3-18.98,13.98-5.33,5.45-10.07,11.4-14.45,17.62-6.68,9.48-12.99,19.21-18.18,29.6-3.26,6.52-5.58,13.35-4.93,20.81.85,9.72,5.03,17.52,13.47,22.81,4.37,2.74,9.07,4.75,14,6.18,17.65,5.15,35.62,7.44,54,5.86,4.73-.41,9.37-1.38,13.91-2.83,8.56-2.73,14.59-8.27,18.11-16.47,1.24-2.89,2.19-5.93,2.92-8.99,1.55-6.48,1.66-13.12,1.76-19.21Zm-178.16,16.9c.07,9.1,4.07,15.06,12.75,17.53,3.16.9,6.47,1.46,9.75,1.7,5.72.42,9.89-2.3,12.09-7.59.74-1.79,1.3-3.7,1.65-5.61,1.14-6.22,2.49-12.39,4.41-18.41,10.34-32.3,24.07-63.1,41.25-92.34,8.88-15.11,17.66-30.32,28.78-43.99,1.27-1.56,2.3-3.37,3.16-5.19,1.73-3.66.47-7.7-2.97-9.86-.94-.59-2-1.1-3.08-1.36-1.97-.48-3.97-.82-5.98-1.1-11.73-1.59-21.72,1.64-29.71,10.6-5.23,5.87-9.81,12.21-13.86,18.92-14.28,23.68-27.1,48.12-38.43,73.34-6.42,14.28-12.31,28.77-16.41,43.92-1.73,6.4-3.06,12.87-3.4,19.43Zm-56.63-12.03c.19,2.85.25,5.71.61,8.54.4,3.15,1.36,6.16,3.08,8.89,2.1,3.32,4.99,5.73,8.82,6.59,7.88,1.77,14.66-.23,19.76-6.68,1.43-1.81,2.54-3.91,3.52-6.01,1.99-4.26,3.01-8.82,3.69-13.45,1.28-8.72,2.98-17.34,5.2-25.87,4.36-16.78,10.19-33.05,17.22-48.9,1.37-3.09,2.6-6.26,3.54-9.5,1.49-5.16-1.34-9.75-6.55-11.02-.95-.23-1.93-.35-2.91-.38-8.73-.29-16.25,2.57-22.53,8.65-4.9,4.73-8.33,10.47-11.23,16.54-5.44,11.42-10.16,23.14-14.1,35.17-3.99,12.19-7.2,24.54-8.13,37.44Zm-340.46,157.15c.41-.03.49-.05.56-.04,24.11,5.38,48.38,9.82,72.99,12.18,11.09,1.06,22.21,2.01,33.34,2.46,14.75.59,29.52.48,44.27-.63,10.52-.79,20.98-1.95,31.39-3.64,17.8-2.89,35.2-7.32,52.1-13.64,41.15-15.39,74.9-40.44,100.11-76.64.38-.54.8-1.04,1.32-1.71,2.16,1.81,4.21,3.53,6.37,5.34.48-.56.83-.98,1.3-1.52-5.38-4.59-10.64-9.07-16.23-13.83-.28.49-.47.82-.65,1.15-.1.2-.16.41-.26.69,2.13,1.85,4.27,3.7,6.39,5.55-.5.77-.81,1.29-1.15,1.78-10.55,15.27-22.9,28.91-37.2,40.77-21.74,18.03-46.34,30.72-73.19,39.24-27.48,8.71-55.73,12.66-84.47,13.55-18.78.58-37.53-.02-56.21-1.91-11.53-1.17-23.02-2.75-34.5-4.38-14.61-2.07-29.06-5.05-43.47-8.23-.49-.11-.95-.37-1.53-.61.78-2.67,1.54-5.24,2.34-7.99-.75-.16-1.28-.27-1.94-.41-2.06,6.69-4.07,13.21-6.13,19.89.66.23,1.18.41,1.88.65.9-2.79,1.74-5.42,2.59-8.08ZM689.06,85.17c2.07-.15,4.72-.17,7.31-.55,5.03-.73,8.72-3.63,11.28-7.87,3.11-5.14,6.05-10.4,9.02-15.63.51-.91.88-1.92,1.2-2.91,1.69-5.21-.43-9.5-5.57-11.31-.78-.27-1.59-.56-2.4-.62-3.74-.3-7.49-.68-11.24-.72-4.57-.04-8.45,1.79-11.77,4.93-4.81,4.55-8.69,9.78-11.54,15.74-.77,1.62-1.41,3.33-1.84,5.07-1.22,4.87.73,9.22,5.17,11.59,1.18.63,2.48,1.14,3.78,1.4,1.98.4,4.01.54,6.6.86Z"/><path class="cls-1" d="m168.6,272.76c-2.43,2.08-4.62,3.9-6.75,5.79-9.03,8.03-17.47,16.6-24.43,26.55-.97,1.39-.98,2.41-.23,3.85,6.48,12.51,13.58,24.66,21.26,36.48,2.88,4.43,5.56,8.96,7.25,14,1.89,5.64,2.4,11.32.21,17.02-3.16,8.24-11.62,14.21-20.29,14.12-5.43-.06-10.31-1.9-14.66-5.17-2.86-2.15-5.28-4.75-7.25-7.7-3.73-5.57-7.51-11.11-10.92-16.87-15.93-26.89-29.21-55.03-39.4-84.59-4.47-12.96-8.13-26.15-10.49-39.67-1.55-8.84-2.45-17.75-2.35-26.73.05-4.23.57-8.41,2.14-12.4,2.34-5.96,6.35-10.54,11.72-13.93,1.24-.79,2.72-1.34,4.16-1.66,4.76-1.04,9.02.98,10.95,5.44,1.25,2.88,2.19,5.93,2.9,9,3.77,16.23,8.87,32.05,14.91,47.56,4.02,10.3,8.47,20.43,12.74,30.64.28.67.64,1.31.93,1.92,11.9-10.17,23.68-20.23,35.72-30.5-.16-.44-.41-1.2-.7-1.94-6.16-15.77-12.14-31.61-17.07-47.82-3.49-11.46-6.46-23.04-8.28-34.89-1.01-6.55-1.65-13.14-1.12-19.79.65-8.08,4-14.73,10.21-19.93,1.86-1.56,3.89-2.83,6.29-3.44,4.31-1.09,8.45.35,10.82,4.12,1.19,1.89,2.11,4.01,2.76,6.14,1.26,4.17,2.17,8.45,3.34,12.65,4.6,16.63,10.53,32.8,17.06,48.76,10.98,26.85,23.3,53.06,37.92,78.15,3.11,5.33,6.5,10.49,9.79,15.72,2.9,4.61,5.51,9.34,6.71,14.72,2.02,9.09-.51,16.74-7.65,22.65-6.69,5.54-14.17,6.16-22,2.55-3.75-1.73-6.81-4.4-9.56-7.45-4.97-5.51-9.09-11.63-12.72-18.07-4.25-7.54-8.35-15.17-12.52-22.76-.39-.72-.79-1.44-1.38-2.5Z"/><path class="cls-1" d="m405.85,231.53c-.2,2.32-.44,4.4-.56,6.49-.91,15.56.21,30.98,3.27,46.26,1.14,5.68,2.09,11.4,2.01,17.23-.06,4.26-.86,8.37-2.5,12.31-3.18,7.61-10.92,11.89-19.01,10.46-3.91-.69-6.9-2.89-9.25-5.99-2.36-3.1-3.84-6.63-5-10.31-2.03-6.48-3.19-13.16-4.07-19.87-2.23-16.99-2.66-34.06-2.18-51.16.48-16.79,1.87-33.51,4.43-50.12,2.5-16.19,6.34-32.02,12.61-47.19,1.29-3.12,2.84-6.15,4.5-9.09,4.93-8.7,12.18-14.63,21.76-17.6,7.59-2.35,15.31-3.92,23.32-3.49,5.84.31,10.98,2.41,15.5,6.09,4.07,3.31,7.51,7.21,10.44,11.52,11.35,16.72,19.65,34.83,24.31,54.53,1.27,5.38,1.83,10.85.99,16.35-1.21,7.92-5.35,14.11-11.56,19.02-5.57,4.4-11.92,7.33-18.58,9.57-10.74,3.62-21.77,5.98-33.09,6.76-5.13.35-10.23-.09-15.24-1.34-.63-.16-1.27-.26-2.1-.42Zm5.02-36.78c.18,2.38.24,5.55.71,8.66.86,5.77,5.3,9.86,11.09,10.55,8.78,1.04,17.55-3.49,21.76-11.24,2.27-4.18,3.29-8.7,3.64-13.4.55-7.59-.52-15.01-2.27-22.37-2.09-8.8-4.55-17.49-8.76-25.55-1.28-2.45-2.84-4.81-4.65-6.9-2.86-3.31-4.81-3.11-7.4.35-2.14,2.86-3.62,6.08-4.85,9.4-5.94,16.04-8.54,32.7-9.26,50.51Z"/><path class="cls-1" d="m534.87,212.04c-.45,1.76-.86,3.34-1.25,4.93-3.83,15.84-5.08,31.92-4.56,48.18.18,5.64.2,11.29-.83,16.89-.78,4.28-2.25,8.27-4.6,11.93-3.99,6.23-11.59,9.25-18.68,7.47-4.45-1.12-7.59-3.87-9.71-7.84-1.95-3.64-2.84-7.6-3.37-11.65-1.08-8.25-.96-16.52-.52-24.8.64-11.89,2.09-23.68,4.03-35.42,3.05-18.43,7.28-36.59,12.77-54.45,5.17-16.82,11.74-33.04,20.84-48.15,2.76-4.59,5.88-8.92,9.7-12.73,5.87-5.85,12.97-9.2,21.1-10.4,6.28-.93,12.58-1.17,18.93-.54,8.48.84,15.37,4.45,20.61,11.19,4.24,5.46,7.31,11.57,9.91,17.93,5.73,14,9.6,28.51,11.56,43.5.8,6.12,1.11,12.29.21,18.46-1.3,8.96-5.81,15.84-13.35,20.79-5.49,3.61-11.61,5.69-17.97,7.06-10.66,2.29-21.48,3.09-32.35,2.61-6.73-.29-11.66-.44-22.48-4.96Zm50.14-49.83c-.28-9.48-.99-18.71-3.16-27.75-.91-3.78-2.2-7.5-3.64-11.12-.7-1.76-1.99-3.36-3.28-4.79-1.16-1.3-2.44-1.32-3.86-.28-1.14.84-2.29,1.78-3.13,2.9-2.01,2.72-4.07,5.44-5.71,8.38-7.05,12.65-11.69,26.22-15.03,40.26-1.17,4.91-2.16,9.86-2.2,14.93-.06,6.53,3.75,11.42,10.12,12.91,5.08,1.18,10.04.61,14.77-1.59,5.32-2.48,8.77-6.75,11.11-12,3.13-7.02,3.9-14.48,4.02-21.84Z"/><path class="cls-1" d="m301.01,160.67c.49-2.77.85-5.22,1.37-7.64.36-1.69.81-3.37,1.41-4.99,2.91-7.9,8.64-12.7,16.7-14.75,5.02-1.28,10.02,1.94,10.62,7.07.69,5.9,1.54,11.79,2.13,17.7,2.26,22.5,7.17,44.38,15.35,65.49,1.58,4.07,3.27,8.12,3.85,12.48.29,2.15.39,4.36.2,6.51-.32,3.5-1.84,6.58-4.62,8.77-5.75,4.52-12.03,6.46-19.13,3.2-.19-.09-.42-.12-.55-.16-1.71,2.09-3.27,4.21-5.05,6.13-2.73,2.94-5.94,5.35-9.36,7.42-10.68,6.46-21.9,11.71-33.98,14.97-5.33,1.44-10.74,2.21-16.3,1.74-9.77-.83-16.83-5.61-21.25-14.29-2.55-5-4.02-10.37-5.11-15.85-2.57-12.85-3.19-25.81-2.41-38.87.61-10.25,2.08-20.33,5.01-30.21,2.96-9.99,8.94-17.43,18.06-22.41,5.96-3.26,12.09-6.1,18.63-8.02,7.92-2.31,15.19-1.02,21.84,3.83.78.57,1.57,1.13,2.62,1.88Zm-30.97,43.34c.27,9.75.91,19.44,2.3,29.05.74,5.12,1.96,10.18,3.13,15.23.6,2.58,1.86,4.93,3.68,6.91,2.93,3.19,6.57,4.59,10.8,3.54,2.45-.61,4.87-1.59,7.1-2.79,6.99-3.78,11.29-9.54,12.32-17.57.59-4.55.14-9.02-.89-13.44-2.44-10.47-7.14-19.94-12.94-28.9-3.04-4.69-6.46-9.08-10.52-12.95-2.13-2.03-4.39-3.92-7.1-5.15-2.23-1.02-3.19-.68-4.5,1.43-1.34,2.17-1.87,4.62-2.09,7.09-.51,5.84-.87,11.69-1.29,17.54Z"/><path class="cls-1" d="m864.59,189.05c-.09,6.1-.21,12.73-1.76,19.21-.73,3.06-1.68,6.1-2.92,8.99-3.51,8.19-9.55,13.74-18.11,16.47-4.54,1.45-9.18,2.42-13.91,2.83-18.38,1.59-36.35-.71-54-5.86-4.93-1.44-9.63-3.45-14-6.18-8.44-5.28-12.62-13.09-13.47-22.81-.65-7.46,1.67-14.29,4.93-20.81,5.2-10.39,11.5-20.11,18.18-29.6,4.39-6.22,9.12-12.17,14.45-17.62,5.56-5.69,11.63-10.7,18.98-13.98,6.51-2.91,13.32-3.66,20.32-2.65,3.42.49,6.84,1.1,10.19,1.95,11.52,2.92,19.23,10.16,23.5,21.16,2.32,5.99,3.72,12.22,4.84,18.52,1.75,9.87,2.61,19.83,2.77,30.39Zm-32.1-25.99c0-1.81.06-3.62-.01-5.42-.18-4.3-.69-8.57-2.27-12.61-.59-1.52-1.37-3.06-2.4-4.3-1.75-2.09-2.98-1.93-4.76-1.03-.94.47-1.91.98-2.67,1.68-2.33,2.13-4.8,4.17-6.79,6.6-12,14.56-20.79,30.94-27.09,48.68-.77,2.18-1.32,4.49-1.62,6.79-.8,6.09,2.08,12.35,9.68,13.75,1.4.26,2.82.48,4.25.6,11.34.95,19.96-3.05,25.44-13.05,1.47-2.69,2.73-5.57,3.6-8.5,3.24-10.81,4.49-21.93,4.64-33.19Z"/><path class="cls-1" d="m686.43,205.96c.34-6.55,1.67-13.03,3.4-19.43,4.11-15.15,9.99-29.64,16.41-43.92,11.33-25.22,24.15-49.66,38.43-73.34,4.05-6.72,8.63-13.05,13.86-18.92,7.99-8.96,17.98-12.19,29.71-10.6,2.01.27,4.02.61,5.98,1.1,1.07.26,2.13.77,3.08,1.36,3.44,2.16,4.69,6.2,2.97,9.86-.86,1.82-1.89,3.63-3.16,5.19-11.12,13.67-19.9,28.87-28.78,43.99-17.18,29.23-30.91,60.04-41.25,92.34-1.93,6.02-3.28,12.19-4.41,18.41-.35,1.91-.9,3.82-1.65,5.61-2.2,5.29-6.37,8.01-12.09,7.59-3.28-.24-6.59-.8-9.75-1.7-8.68-2.47-12.68-8.44-12.75-17.53Z"/><path class="cls-1" d="m629.8,193.92c.94-12.89,4.15-25.25,8.13-37.44,3.93-12.03,8.65-23.75,14.1-35.17,2.9-6.08,6.33-11.81,11.23-16.54,6.29-6.08,13.81-8.94,22.53-8.65.97.03,1.96.15,2.91.38,5.21,1.26,8.04,5.86,6.55,11.02-.94,3.24-2.17,6.42-3.54,9.5-7.03,15.85-12.86,32.12-17.22,48.9-2.22,8.52-3.92,17.15-5.2,25.87-.68,4.63-1.7,9.19-3.69,13.45-.98,2.1-2.09,4.21-3.52,6.01-5.1,6.45-11.87,8.45-19.76,6.68-3.84-.86-6.72-3.27-8.82-6.59-1.72-2.72-2.68-5.74-3.08-8.89-.36-2.83-.42-5.69-.61-8.54Z"/><path class="cls-1" d="m289.34,351.08c-.85,2.66-1.69,5.28-2.59,8.08-.7-.24-1.21-.42-1.88-.65,2.06-6.68,4.07-13.2,6.13-19.89.66.14,1.2.25,1.94.41-.81,2.75-1.56,5.32-2.34,7.99.58.24,1.04.5,1.53.61,14.41,3.18,28.86,6.16,43.47,8.23,11.48,1.63,22.97,3.21,34.5,4.38,18.68,1.89,37.43,2.5,56.21,1.91,28.74-.89,56.99-4.84,84.47-13.55,26.84-8.51,51.45-21.21,73.19-39.24,14.3-11.86,26.65-25.5,37.2-40.77.34-.49.65-1.01,1.15-1.78-2.13-1.84-4.26-3.7-6.39-5.55.11-.28.16-.5.26-.69.17-.34.37-.67.65-1.15,5.59,4.77,10.85,9.25,16.23,13.83-.46.55-.82.96-1.3,1.52-2.16-1.81-4.21-3.53-6.37-5.34-.52.67-.95,1.17-1.32,1.71-25.2,36.2-58.96,61.25-100.11,76.64-16.9,6.32-34.3,10.75-52.1,13.64-10.41,1.69-20.87,2.85-31.39,3.64-14.75,1.11-29.52,1.22-44.27.63-11.13-.45-22.25-1.39-33.34-2.46-24.61-2.36-48.88-6.8-72.99-12.18-.07-.02-.15,0-.56.04Z"/><path class="cls-1" d="m689.06,85.17c-2.59-.32-4.62-.46-6.6-.86-1.31-.26-2.61-.77-3.78-1.4-4.44-2.38-6.39-6.72-5.17-11.59.44-1.74,1.07-3.45,1.84-5.07,2.85-5.97,6.73-11.19,11.54-15.74,3.32-3.14,7.21-4.97,11.77-4.93,3.75.04,7.5.42,11.24.72.81.06,1.62.35,2.4.62,5.14,1.81,7.26,6.1,5.57,11.31-.32,1-.69,2.01-1.2,2.91-2.97,5.23-5.9,10.48-9.02,15.63-2.57,4.24-6.25,7.14-11.28,7.87-2.59.38-5.24.4-7.31.55Z"/><path d="m410.86,194.75c.72-17.81,3.32-34.47,9.26-50.51,1.23-3.32,2.71-6.54,4.85-9.4,2.59-3.45,4.54-3.66,7.4-.35,1.8,2.08,3.37,4.45,4.65,6.9,4.21,8.06,6.67,16.75,8.76,25.55,1.75,7.36,2.83,14.78,2.27,22.37-.34,4.7-1.37,9.22-3.64,13.4-4.21,7.76-12.97,12.28-21.76,11.24-5.8-.69-10.23-4.78-11.09-10.55-.46-3.11-.52-6.29-.71-8.66Z"/><path d="m585.01,162.21c-.12,7.36-.89,14.82-4.02,21.84-2.34,5.25-5.79,9.52-11.11,12-4.72,2.2-9.69,2.78-14.77,1.59-6.37-1.49-10.18-6.38-10.12-12.91.05-5.07,1.03-10.02,2.2-14.93,3.35-14.04,7.99-27.61,15.03-40.26,1.64-2.94,3.7-5.67,5.71-8.38.83-1.13,1.98-2.07,3.13-2.9,1.42-1.04,2.69-1.02,3.86.28,1.29,1.44,2.58,3.03,3.28,4.79,1.44,3.62,2.73,7.34,3.64,11.12,2.17,9.04,2.88,18.27,3.16,27.75Z"/><path d="m270.03,204.01c.42-5.85.78-11.7,1.29-17.54.22-2.47.75-4.91,2.09-7.09,1.3-2.11,2.26-2.44,4.5-1.43,2.71,1.23,4.96,3.12,7.1,5.15,4.06,3.86,7.48,8.25,10.52,12.95,5.8,8.97,10.51,18.43,12.94,28.9,1.03,4.42,1.48,8.89.89,13.44-1.04,8.02-5.33,13.78-12.32,17.57-2.22,1.2-4.65,2.18-7.1,2.79-4.23,1.05-7.87-.35-10.8-3.54-1.82-1.98-3.08-4.33-3.68-6.91-1.17-5.05-2.39-10.11-3.13-15.23-1.39-9.62-2.03-19.31-2.3-29.05Z"/><path d="m832.49,163.07c-.15,11.26-1.4,22.38-4.64,33.19-.88,2.93-2.13,5.81-3.6,8.5-5.48,10.01-14.1,14-25.44,13.05-1.42-.12-2.84-.34-4.25-.6-7.6-1.41-10.48-7.67-9.68-13.75.3-2.3.84-4.61,1.62-6.79,6.29-17.74,15.09-34.12,27.09-48.68,2-2.42,4.46-4.46,6.79-6.6.76-.7,1.73-1.2,2.67-1.68,1.78-.9,3.01-1.07,4.76,1.03,1.04,1.24,1.81,2.78,2.4,4.3,1.58,4.04,2.08,8.31,2.27,12.61.08,1.8.01,3.61.01,5.42Z"/></svg>