<?xml version="1.0" encoding="UTF-8"?><svg id="Layer_16" xmlns="http://www.w3.org/2000/svg" viewBox="0 0 1202.64 533.28"><path d="m497.01,118.22c.74,1.95,2.24,1.56,3.74,1.21,11.39.11,22.79.21,34.18.32,10.19,1.15,20.38.62,30.58.14,3.36,2.49,7.13,1.46,10.8,1.25,3.6,0,7.19,0,10.79,0,4.16.62,7.83.74,5.5-5.3-.71-1.12-1.43-2.24-2.14-3.36-.27-2.04-1.1-2.64-2.77-1.06.8.41,1.24.17,1.32-.72-4.49-7.92-10.06-15.05-16.18-21.76-8.42-11.49-16.77-23.03-25.32-34.42-1.13-1.51-1.86-2.93-2.1-4.7,3.27-4.78,5.74-4.02,10.94,2.78,14.27,18.64,30.14,35.86,47.13,52.06,3.84,3.67,7.24,4.46,8.8-2.06,1.21-5.05,2.46-10.09,3.7-15.13,3.01-1.74,1.3-4.66,1.77-7.03,3.67-4.82,3.44-10.84,5.08-16.29-.41-5.48,3.6-10.48,1.77-16.12.68-1.28,1.68-2.49,2-3.86,1.91-8.17,3.75-16.35,5.43-24.57.85-4.14,2.56-7.99,7.24-7.02,4.57.95,4.03,4.78,2.66,8.58-1.27,3.53-2.19,7.28-2.6,11.01-2.69,24.66-10.19,48.57-11.35,73.48-.11,2.46-2.28,4.74.07,7.28,2.91,3.14,5.65.59,8.07-.41,16.12-6.66,32.8-12.07,48.04-20.72,4.86-2.76,9.81-3.18,15.9-1.93-4.84,6.35-10.59,10.57-17.29,13.67-11.37,5.26-22.63,10.71-33.25,17.39-1.91,1.2-5.1,1.58-4.44,4.64.72,3.34,3.87,3.22,6.56,3,9.85-.8,19.9-.29,29.17,2.2,37.37,10.05,74.46,21.08,108.16,40.9,47.53,27.95,87.38,63.96,118.61,109.53,20.8,30.35,35.58,63.31,46.87,98.04.58,1.81,1.16,3.63,1.74,5.44,6.4,16.24,5.39,34.54,14.07,50.14v53.72c-5.24-.09-8.19-3.21-8.82-7.9-1.51-11.35-2.06-22.83-3.86-34.12-2.26-14.22-3.04-28.79-8.85-42.28-.69-3.54-1.39-7.07-2.08-10.61-10.53-34.18-25.77-66.09-46.24-95.5-10.9-15.66-24.61-28.84-37.2-43.03-17.2-19.36-36.04-36.65-58.58-49.35-29.72-16.75-59.7-33.26-93.09-41.89-11.83-3.06-23.06-8.44-35.96-9.09,3.17,4.19,6.72,7.83,10.79,10.75,24.74,17.74,49.62,35.28,74.35,53.02,2.24,1.61,6.06,3.7,4.19,6.95-1.83,3.19-5.97,2.27-8.65.61-5.71-3.54-10.99-7.76-16.58-11.52-32.05-21.58-65.08-41.72-96.14-64.75-2.25-1.67-5.94-2.28-6.39-1.29-1.27,2.8-4.51,5.55-2.01,9.35,5.78,8.79,3.49,19.25,5.73,28.81,1.44,6.17,5.21,12,3.75,18.74-.43,1.99,1.45,4.91-2.58,5.53-3.61.56-4.87-1.79-5.79-4.19-1.31-3.42-1.7-7.19-4.03-10.22.61-3.85-1.48-7.13-2.25-10.68-1.59-10.07-7.22-18.67-10.46-28.14-2.55-7.45-5.07-7.88-11.65-2.02-.33.13-.56.36-.69.69-2.02,1.85-4.65,3.18-5.31,6.19-3.13,3.55-6.26,7.11-9.4,10.66-.84.31-1.71.6-1.24,1.8-3.14,4.84-8.03,8.51-9.68,14.35-5.94,4.03-9.57,9.87-12.73,16.08l-1.56,1.74c-1.88.53-1.63,2.27-2.06,3.63-.53.55-1.05,1.09-1.58,1.64-3.31,1.5-3.64,5.31-5.93,7.6-2.21,2.88-4.41,5.75-6.62,8.63-3.26,1.34-3.61,4.86-5.49,7.25-3.66,5.35-7.31,10.7-10.97,16.05-3.39,1.56-7.15,5.05-9-1.67-.63-3.81,2.23-6.06,3.98-8.81,2.43-3.61,4.87-7.22,7.3-10.82,1.84-.48,1.71-1.96,1.74-3.37,4.35-4.92,7.71-10.45,10.44-16.39,4.44-6.41,9.58-12.36,12.91-19.49.99-.29,1.73-.75,1.44-1.97,4.92-7.71,9.84-15.41,14.75-23.12,1.06-.99,2.66-1.8,3.07-3.01,1.73-5.1,11.06-7.96,7.01-13.72-3.39-4.81-10.21.51-15.55.75-5.22,1.98-11.28.15-16.19,3.56-8.35-.94-15.83,2.29-23.45,4.86-12.6.77-24.33,4.82-35.91,9.45-2.87-1.21-4.57,2.1-7.2,1.85-3.01,1.17-6.02,2.34-9.02,3.51-1.21-.28-1.66.46-1.95,1.43,0,0,.08-.08.08-.08-1.32.34-3.04-.17-3.58,1.75-13.81,3.46-25.44,11.58-38.03,17.64-3.65,1.76-6.98,4.16-10.45,6.27-1.19-.45-1.6.26-1.87,1.21-1.18.75-2.35,1.5-3.53,2.24-2.04,0-2.85,1.53-3.74,2.96-4.32,1.33-7.78,3.93-10.73,7.27-1.31.41-3.06-.05-3.59,1.85-1.79,1.36-3.58,2.71-5.37,4.07-1.21-.3-1.65.44-1.93,1.41-6.56,5.53-13.11,11.07-19.67,16.6-1.19-.35-1.58.4-1.84,1.33-16.99,14.95-32.17,31.51-45.08,50.1-6.55,4.5-9.71,11.57-13.73,17.99-1.06,2.51-4.66,3.53-4.12,6.97-.59.65-1.19,1.31-1.78,1.96-2.29,1.09-3.65,2.77-3.44,5.43-7.16,9.83-11.4,21.11-16.03,32.19-.94,1.64-2.57,3.01-2.14,5.21-.96.28-1.72.71-1.39,1.92-.18,1.18-.35,2.37-.53,3.55-7.93,15.27-13.6,31.27-15.7,48.42-.22.56-.43,1.11-.65,1.67-1.3,4.15-3.75,8.03-2.93,12.66-.14,1.12-.28,2.23-.42,3.35-1.04.27-1.69.8-1.4,1.99-.16,2.38-.32,4.76-.49,7.14-2.67,1.27-1.38,3.49-1.32,5.42,0,1.19,0,2.39.01,3.58-4.52,7.88-.18,17.03-3.63,25.07,0,1.19,0,2.39,0,3.58-.09,2.07-.29,4.14-.25,6.2.05,2.64-.29,4.71-3.72,4.58-2.72-.1-4.68-1.19-5.13-3.9-.34-2.03-.05-4.15-.17-6.22-1.02-17.68,2.61-35.02,3.77-52.54,3.19-5.58,1.01-12.22,3.56-17.92,2.17-4.55,4.07-9.15,3.17-14.37,5.48-14.93,10.51-30.05,16.55-44.76,9.26-22.55,19.52-44.45,34.28-64.35,10.95-14.76,21.35-29.99,32.93-44.28,9.5-11.71,21.5-21.08,32.99-30.8,3.38-2.86,6.78-5.55,9.54-9.01,4.83-.58,6.82-5.35,10.75-7.25,11.41-7.73,22.81-15.46,34.22-23.19,2.91-.28,5.28-1.63,7.25-3.73,3.47-.26,6.11-2.34,8.92-4.05,1.19.34,1.53-.49,1.87-1.34,8.08-2.88,16.27-5.53,23.32-10.66,1.18-.13,2.37-.25,3.55-.38,3.62-1.64,7.25-3.28,10.87-4.92,12.63-3.19,25.42-5.88,39.37-12.04-6.43-.71-9.87-3.26-14.25-3.02-7.11.4-14.27-.14-21.39.22-5.5.28-6.66-3.93-6.88-7.23-.2-3.03,2.48-5.66,6.6-4.91,1.74.32,3.55.19,5.33.26Z"/><path d="m590.45,402.63c1.32-3.5,2.64-6.99,3.96-10.49,5.34-8.32,13.5-14.08,19.76-21.57,5.97-1.97,11.94-3.94,17.91-5.9,8.33,1.21,17.01-1.29,25.11,2.33,1.83,1.04,3.65,2.07,5.48,3.11,4.31,3.34,8.72,7.82,11.11-1.72.58-2.3,2.9-1.42,4.49-1.5,4.39-.23,8.79-.27,13.18-.39,1.2,0,2.4-.02,3.6-.03,1.46.44,3.28.23,3.95,2.12-.02,1.19-.04,2.39-.06,3.58-1.28,29.24,1.36,58.55-1.79,87.75-.74,11.41-.14,22.85-1.75,34.29-.58,4.14-4.29,6.31-4.03,10.28-8.62,14.73-22.45,22.71-37.7,28.85h-35.98c-.82-6.44-6.93-3.69-10.33-5.44-10.89-5.62-11.17-5.3-8.11-17.09.5-1.92.12-4.07.14-6.12.74-1.18,1.48-2.35,2.22-3.53,9.29.17,15.71,8.65,25.07,8.6,1.8-.02,3.6-.04,5.39-.06,2.4-.03,4.8-.05,7.2-.08,7.4,1.61,13.1-1.45,18.07-6.52,5.52-3.39,8.38-8.67,10.41-14.54,2.17-2.67,2.84-5.64,1.8-8.95,1.08-4.46-.29-6.48-5.09-5.05-4.8,3-9.59,6-14.39,9-2.85-1.24-4.57,2.09-7.2,1.77-4.78-.17-9.56-.33-14.35-.5-1.72-2.65-5.18-1.26-7.24-3.1-1.75-.73-3.51-1.45-5.26-2.18-6.47-4.91-13.21-9.53-18.06-16.24-1.78-2.94-3.56-5.88-5.34-8.81-.17-1.4.12-3.03-1.77-3.6-1.34-5.35-2.69-10.7-4.03-16.05.33-5.97-3.76-11.94-.02-17.91-.11-4.26,3.23-7.92,2.16-12.34.93-.32,1.79-.7,1.48-1.95Zm79.43,20.29c.71-4.6-.18-10.42-1.87-16.06-2.57-8.57-7.67-15.36-16.36-18.4-9.71-3.4-18.2-1.14-25.47,6.39-14.1,14.6-15.85,40.58-3.54,56.49,10.13,13.09,26.57,13.9,38.37,2.19,8.33-8.27,8.83-18.63,8.87-30.6Z"/><path d="m284.95,436.47c.02-6.5.04-13,.06-19.5,2.5-1.29,1.65-3.43,1.38-5.42.16-1.18.31-2.35.47-3.53,1.79-4.77,3.58-9.55,5.37-14.32,1.77-2.95,3.54-5.89,5.31-8.84,6.93-4.95,11.59-12.68,19.79-16.09,2.39-.79,4.77-1.57,7.16-2.36,1.18.32,1.6-.43,1.9-1.34,0,0-.07.06-.07.06,12.2.36,24.76-2.51,35.98,5.65,2.19,1.6,7.35.8,7.2-5.13-.25-9.79-.16-19.6.21-29.39.26-7.08-3.14-15.52.94-20.88,4.47-5.88,13.53-.91,20.35-2.7,1.2.03,2.4.06,3.6.09,1.1.73,2.21,1.45,3.31,2.18.14,43.85.27,87.7.41,131.55.04,11.03.11,22.06.17,33.09.56,3.39-1.54,5.27-3.98,6.96-4.77.16-9.54.33-14.31.49-3.48-1.7-6.65-3.8-7.12-8.01-.73-6.42-4.16-3.9-7.18-2.21-6.04,3.39-10.93,8.77-18.08,10.22-11.48,4.28-21.87-.23-32.34-4.02-1.79-1.2-3.58-2.4-5.38-3.6-2.94-2.37-5.87-4.74-8.81-7.1-1.83-2.37-2.28-5.78-5.46-7.12-1.39-2.96-2.77-5.92-4.16-8.88-2.25-6.62-4.5-13.24-6.75-19.86Zm84.48-9.97c1.52-4.87-1.95-10.08-1.81-15.69.26-10.56-6.13-16.93-14.84-20.74-7.74-3.38-15.86-3.27-23.56,1.52-18.26,11.36-23.49,51.3-1.03,67.56,9.18,6.65,22.14,5.58,30.75-2.23,8.82-8.01,10.68-18.4,10.49-30.42Z"/><path d="m817.36,487.07c-3,0-6,0-8.99,0-8.04-1.68-3.1-8.75-5.38-12.83.8-5.37.76-10.74,0-16.12.6-16.17,1.5-32.36-2.09-48.35-.12-2.47,1.62-5.28-1.32-7.24-1.22-5.43-4.05-9.64-9.21-12.1-9.97-3.64-18.68-2.53-25.27,6.61-4.68,1.67-4.79,6.37-6.64,9.92.13.65.26,1.29.4,1.93-2.44,21.61-2.05,43.31-1.75,64.99.16,11.32-.63,12.49-11.77,12.53-4.78.02-9.56.2-14.34.3-1.12-1.2-2.24-2.41-3.35-3.61-1.67-12.81,1.63-25.42,1.49-38.21-.4-37-.26-74.01-.11-111.01.03-6.51-2.96-14.79,1.1-19.09,4.46-4.72,13.04-.98,19.78-1.73.89-.1,1.79-.18,2.68-.27,1.18.14,2.36.28,3.54.42,0,20.74,0,41.48,0,64.17,12.13-8.94,23.57-14,37.37-12.52,14.2,1.53,23.4,9.76,31.26,20.44.08.67.16,1.35.24,2.01,4.41,8.97,6.75,18.47,6.94,28.42.38,19.51.58,39.02.85,58.53-1.01,1.68-1.25,3.46-.75,5.34-.29,11.47-9.5,5.55-14.69,7.47Z"/><path d="m865.61,354.25c3.09-8.28,14.74-15.22,23.49-14.52,3.36.27,3.9,1.7,3.84,4.46-.1,5.07.2,10.15-.08,15.21-.29,5.33,1.72,7.93,7.24,7.4.89-.09,1.8-.02,2.7-.01q19.58.12,20.41,18.68c.18,4.17-2.76,4.62-6.01,4.6-6.29-.04-12.6.3-18.87-.09-4.5-.28-5.64,1.38-5.47,5.55.5,11.91.68,23.82.99,35.74.06,5.96-.93,11.95.51,17.87-1.78,10.22,4.36,16.1,14.26,13.65,10.88-2.69,12.45-1.77,13.37,7.88-.09,4.18-.18,8.36-.27,12.54-4.02,4.2-9.36,3.54-14.42,3.87-6.4,2.66-12.78,1.8-19.15-.09-5.06-3.79-11.05-6.38-14.73-11.94-6.4-9.66-7.74-20.38-7.53-31.63.3-16.03.08-32.08.33-48.12.07-4.39-1.34-6.09-5.69-4.92-2.4,0-4.8-.02-7.2-.03-1.16-.2-2.31-.41-3.47-.61-3.86-5.47-.88-11.78-2.17-17.57-.68-5.99,3.7-5.42,7.43-5.67,1.2,0,2.4,0,3.6,0,7.54,1.25,7.53-3.45,6.89-8.66,0-1.19,0-2.39-.01-3.58Z"/><path d="m505.93,452.74c-3.28,10.03-1.13,20.28-1.2,30.44-4.96,5.48-11.58,2.87-17.53,3.64-8,1.03-10.38-2.72-10.35-10.18.14-47.1-.06-94.21,0-141.31.03-21.44.19-21.44,21.21-22.45.3-.01.59-.09.89-.14,1.2.01,2.4.02,3.6.03,3.35,1.75.97,5.09,2.1,7.46,0,2.39,0,4.77,0,7.16,2.3,5.23-.23,10.83,1.23,16.12-.81,2.38-.85,4.76-.07,7.16-.81,2.39-.78,4.78.03,7.17-.92,5.97-.81,11.94.05,17.9-.84,5.97-.81,11.95.05,17.92-.84,18.5-.82,37,.02,55.51,0,1.2-.02,2.39-.03,3.59Z"/><path d="m564.21,407.98c-.06,7.16-.12,14.32-.18,21.48,0,4.18,0,8.36-.01,12.54-.13,14.27-.25,28.53-.38,42.8-8.81,2.56-17.82,2.18-26.83,1.78-.58-.55-1.17-1.1-1.75-1.65-.15-2.37-.29-4.74-.44-7.11.03-5.97.06-11.94.09-17.9,1.38-26.7.5-53.41.11-80.11-.19-12.69-.93-12.68,10.9-13.31,1.2,0,2.4,0,3.6,0,2.85,1.2,4.58-2.07,7.2-1.78,1.2,0,2.4-.02,3.6-.03,1.12,1.32,2.24,2.65,3.37,3.97.21,1.17.42,2.34.63,3.5.03.6.05,1.2.08,1.79,0,2.98.02,5.96.02,8.95,0,8.36,0,16.72,0,25.08Z"/><path d="m432.46,488.37c-2.34-1.76-4.67-3.52-7.01-5.29-7.95-10.48-7.96-16.36-.07-26.7,2.49-1.08,3.78-4.22,7.01-4.02,10.37-.95,17.43,3.45,21.27,13.04,1.21,7.38-2.69,12.82-6.92,18.13-1.22-.34-1.62.44-1.92,1.37-.59.51-1.17,1.01-1.76,1.52-3.51.8-6.71,3.23-10.6,1.94Z"/><path d="m563.53,345.24c-11.47,9.6-16.03,9.88-26.74,1.65-.55-.56-1.1-1.12-1.65-1.67-4.51-8.03-2.04-14.93,3.52-21.31,0,0-.05.04-.05.04,6.38-5.29,13.05-5.45,19.97-1.13.13.33.35.56.68.7,1.99,2.52,3.97,5.04,5.96,7.55.63,4.87.45,9.64-1.69,14.18Z"/></svg>