<?xml version="1.0" encoding="UTF-8"?><svg id="samosa_party" xmlns="http://www.w3.org/2000/svg" viewBox="0 0 1202.64 533.28"><defs><style>.cls-1{fill:#fff;}</style></defs><path d="m626.41,34.63c-.4,3.74-4.12,2.51-6.06,4-1.5,1.16-4.1,1.15-4.06,3.81.04,2.67,2.6,2.22,4.12,2.83,4.3,1.73,9.63,2.77,9.96,8.38.3,5.2-4.52,7.5-8.25,9.91-8.69,5.63-18.85,6.72-28.68,8.59-16.35,3.11-32.86,5.36-49.1,9.11-2.07.48-4.26.03-6.38.94-1.38.59-3.4.86-3.36,2.32.06,1.98,1.94,2.47,3.89,3.07,3.69,1.13,7.57.49,11.17,1.82,2.37.88,5.32,1.58,5.53,4.37.24,3.13,1.43,6.61-1.74,9.44-2.19,1.95-4.51,3.7-7.21,4.35-10.56,2.52-20.81,6.05-31.12,9.39-1.55.5-3.15.98-4.58,1.75q-11.21,6.01-7.41,18.5c2.03,6.7-3.74,15.1-13.74,16.27-1.15.14-2.33.02-3.72.02.96-2.81,3.39-3.26,5.39-4.28,6.14-3.15,7.57-7.57,4.49-13.81-.59-1.19-1.09-2.42-1.78-3.55-4.51-7.4-.77-12.93,4.63-16.88,6.41-4.69,13.7-7.85,20.82-11.32,7.73-3.76,7.9-8.29,1.02-13.48-7.69-5.81-6.99-10.76,1.59-16.78,6.66-4.68,14.81-5.12,22.63-6.25,10.99-1.58,21.96-3.27,32.95-4.83,3.95-.56,8.02-.5,11.9-1.33,8.98-1.91,18.33-1.65,27.11-4.85,2.29-.83,4.4-2.25,4.66-4.03.34-2.37-2.5-3.29-4.46-4-6.57-2.37-6.88-3.94-2.26-9.04,2.01-2.22,4.78-2.77,6.99-4.43h5.07Z"/><path d="m558.28,149.67c2.4.65,5.06.16,7.25,1.75,2.03,1.48,3.77,2.81,4.18,5.79.71,5.14,2.05,10.2,2.23,16.52,5.05-6.25,8.93-11.94,13.21-17.32,6.06-7.62,13.29-14.09,19.8-21.24,10.84-11.92,19.5-25.3,28.71-38.36,3.18-4.51,5.92-9.26,10.66-12.86,10.8-8.2,22.5-1.89,26.81,8.29,2.36,5.57,3.18,11.23,3.04,17.22-.13,5.62.15,11.24,3.13,16.35,1.49,2.57-1.41,4.7-.62,7.8,4.12,16.26,11.91,31,18.36,46.28,6.15,14.58,9.94,29.63,11.7,45.39,1.41,12.6,4.99,24.84,10.26,36.47,3.22,7.11,6.82,14.06,9.66,21.31,1.3,3.32,3.63,4.87,6.44,5.38,6.39,1.17,12.31,3.55,18.32,5.8,3.98,1.49,7.21,3.69,7.89,8.05.79,5.04-2.24,8.8-5.79,11.54-12.98,10.01-27.4,17.65-42.89,22.76-7.49,2.47-15.29,5.06-23.77,3.3-2.89-.6-6.49.62-9.78.5-13.95-.51-27.56-3.42-41.08-6.45-14.91-3.34-29.76-6.95-44.78-9.77-.33-.06-.67-.08-1.01-.08-2.53.05-5.48-.69-7.48.37-2.72,1.43.41,4.05.19,6.31-.41,4.18-.02,8.44.04,12.67-.27.56-.91,1.45-.76,1.61.72.77,1.71.43,2.63.25h16.21c-1.31,6.26-2.02,11.92-1.89,17.81.28,12.65-.15,25.31-.06,37.97.02,3.45.48,7.01,1.43,10.32.73,2.54.49,3.39-2.19,3.37-7.73-.06-15.47-.02-23.17-.02,1.71-12.09,3.14-23.83,2.34-35.71.21-1.24.47-2.47-.16-3.67-1.98.49-1.53,2.22-1.88,3.54-2.91.53-2.92,3.34-3.72,5.24-3.95,9.35-7.59,18.84-11.38,28.26-.71,1.77-1.77,3.07-4.02,3.24-2.5.2-3.57-1.05-4.5-3.07-3.38-7.35-5.66-15.15-9.51-22.32-2.79-5.19-4.98-10.71-7.88-16.03.16,12.65-1.6,25.34,1.03,37.84.6,2.85-.27,2.75-2.17,2.75-7.59,0-15.18,0-23.19,0,2.9-15.86,2.39-31.56,2.48-47.25.02-3.29-1.19-3.87-4.1-3.9-9.13-.07-13.52-4.38-16.09-13.46-4.19-14.81-8.98-29.45-13.54-44.15-2.55-8.22-4.44-16.74-7.87-24.57-3.87-8.82-5.67-18.2-8.97-27.13-1.24-3.36-2.72-6.84-5.83-8.47-7.89-4.11-10.52-11.49-12.83-19.13-3.45-11.37-6.66-22.81-10.12-34.18-.81-2.65-1.68-5.44-2.21-8.01-1.14-5.57,3.87-8.21,7.79-10.19,13.2-6.68,27.09-11.49,41.54-14.93,8.04-1.91,16.39-2.66,24.11-5.9,2.5-1.05,4.89-2.18,7.73-.4,2.38,1.49,4.87-.41,7.29-.76,12.63-1.8,25.34-2.23,38.05-2.69,0,0,.38.23.38.23l.37-.25Zm-56.08,96.61l1.14,1.08-.17.09c1.87,7.86,3.75,15.72,5.58,23.6.17.75.42,1.38,1.2,1.13.57-.19,1.42-.85,1.41-1.28-.04-1.28-.4-2.57-.7-3.83-1.61-6.7-3.24-13.39-4.86-20.08,5.31-7.18,15.04-8.2,22.52-1.64.42-5.66,5.84-7.59,7.92-12.22-.76-.17-1.27-.46-1.66-.35-21.61,6.23-43.85,9.55-65.84,13.95-4.05.81-3.78,1.61-2.9,5,2.32,8.97,6.72,17.15,9.17,26.08,4.16,15.16,8.74,30.21,13.55,45.18,2.72,8.44,4.56,17.18,8.26,25.3-.21,2.37.72,4.16,2.72,5.42l-.04-.03c5.78,5.4,12.55,4.58,19.42,3.08,17.07-1.02,33.36-5.83,49.69-10.42.68.16.94-.27,1.13-.8.32,0,.62-.07.9-.21,2.63-.35,5.13-1.02,7.2-2.82l-.07.05c.52-.18.98-.41.86-1.1.05-.68.1-1.36.14-2.04,2.71-3.51-.05-7-.14-10.49-.04-1.67,1.34-3.83-1.58-5.08-2.9-1.25-2.87,1.91-4.53,2.29-3.63,1.09-8,1.69-10.72,3.38-4.35,2.69-8.57,4.21-13.42,4.76-2.19-4.09-.67-9.52-4.51-13.97-1.67,5.89,2.32,10.18,1.39,15.01h0c-.4.32-.79.65-1.19.98-.31-.04-.6.04-.86.22-5.18.27-9.95,2.79-15.19,2.75l.1.06c-.06-1.65-.91-3.1-1.22-4.73-.96-5.12-2.6-10.12-3.84-15.2-.28-1.15.03-2.56-1.77-2.26-2.48.42-.33,1.86-.26,2.52.71,6.7,3.75,12.94,4.03,19.76-4.43.71-8.67,3.97-13.36.96.12-.52.2-1.02-.43-1.28.16-.17.16-.33,0-.5-3.49-9.85-4.84-20.52-10.64-29.5,2.54,10.29,5.12,20.53,9.02,30.35-.17.27-.3.73-.51.77-9.39,1.7-9.65,1.79-12.66-7.31-3.93-11.87-7.36-23.91-11.06-35.85-4.35-14.03-8.7-28.05-13.17-42.04-1.23-3.85.11-5.79,4.04-6.12,2.92-.24,3.99,2.07,5.93,3.18,3.46,11.5,6.92,23,10.37,34.5.31,1.05.93,2.07,2.01,1.83,1.63-.37,1.02-1.94.83-2.92-.34-1.75-1.12-3.41-1.57-5.15-2.53-9.84-6.36-19.3-8.33-29.29,1.58-1.84,2.93-3.6,5.63-4.45,3.57-1.12,6.99-.27,10.46-.54.05.25.2.38.45.39l.18-.15Zm162.91-154.79c-.22-.82-.08-1.8-1.08-2.24-.65-1.33-1.57-2.36-3.01-2.85-2.56-1.9-5.42-.72-8.16-.78-3.38.73-5.38,3.24-7.21,5.84-12.71,17.94-23.9,37.02-39.57,52.74-1.46,1.08-2.94,2.14-3.29,4.12-2.3,2.31-4.61,4.61-6.91,6.92-1.35.13-2.1.87-2.25,2.22-.6.64-1.2,1.27-1.8,1.91-.32.4-.64.79-.96,1.19-10.07,10.68-16.78,23.65-24.34,36.02-5.52,9.04-10.53,18.41-15.4,27.83-6.03,11.68-16.21,20.31-22.66,31.68-5.74,10.11-11.36,20.33-18.78,29.38-.79.19-1.71.13-2.11,1.08-.32.29-.64.59-.97.88-2.06.17-3.06,1.73-4.14,3.18-.31.3-.61.6-.92.9-1.23.68-2.11,1.6-2.17,3.1l.07-.06c-1.73,1.18-1.95,2.37-1.33,4.63,2.47,9.01,17.21,9.55,26.38,4.76,2.13.28,4.14-.39,5.51-1.82,5.29-5.56,12.49-6.02,19.28-7.6,7.11-.01,14.21-.03,21.32-.04,9.17,1.36,18.28,2.98,27.28,5.26,8.77,2.22,17.61,4.18,26.43,6.25,5.77,1.55,11.52,1.54,17.24-.28,4.32-1.67,8.71-3.15,13.27-4.04,5.35.76,10.61-1.54,16.13-.08,2.51.66,5.32,1.92,8.19,1.09,4.15,1.87,8.62,2.79,12.63,5.23,8.88,5.39,17.81,4.01,25.53-3.02,2.05-1.86,3.34-4.76,6.49-5.3,2.7-.32,5.41-.64,8.11-.96.32.1.64.21.97.31,1.15,1.58,2.72.57,4.11.68,7.35,4.28,7.83,6.41,3.06,13.37-4.95,4.6-11.3,6.97-16.97,10.57,7.05.47,12.12-4.12,17.94-6.71,3.18-1.15,5.56-3.55,8.09-5.57,6.87-5.49,5.99-10.83-2.38-14.13-5.48-2.16-11.13-4.2-16.89-5.27-4.64-.87-6.75-3.34-8.44-7.27-4.11-9.58-8.49-19.05-12.77-28.56-.08-.81-.03-1.68-1.01-2.03l.05.07c-.32-1.06.38-2.48-1.08-3.15.02-.32-.04-.63-.17-.93-1.35-5.73-2.7-11.46-4.05-17.19-2.2-7.17-1.53-14.8-3.47-22.02-.82-1.76.33-4.03-1.43-5.55l.05.07c-.33-1.06.64-2.41-.72-3.24v-.05c-.65-1.23.22-2.99-1.36-3.9l.06.07c-.34-1.05.46-2.48-1.06-3.13l.06.08c-.36-1.06.42-2.48-1.02-3.19l.09.11c-.23-1.09.15-2.41-1.15-3.1l.04.06c-.14-.48.05-1.16-.74-1.27.21-.19.21-.38,0-.56-1.99-7.18-5.85-13.58-8.48-20.49-.4-1.06-1.2-.96-1.96-1.14l.06.09c-.2-.8.02-1.79-1.03-2.18l.1.13c-.18-1.11.09-2.4-1.19-3.09l.05.07c-.12-.86.02-1.83-1.04-2.26-2.35-7.37-4.71-14.75-7.06-22.12-.37-4.82-.55-9.66-2.12-14.29-.02-1.83-.09-3.66-.05-5.49.13-6.7-.37-13.34-1.97-19.86-.24-1.06.49-2.43-.97-3.12l.07.08c-.18-.8.02-1.8-1.1-2.11l.07.1Zm45.55,236.81l1.29-.76.23.16.25-.12c.78-.5,2.12-1.27,1.68-1.93-.72-1.1-2.25-.32-3.44-.34-2.06,0-4.11,0-6.17,0-5.73-.44-11.56.5-17.2-1.25l.06.05c-.35-1.02-1.31-.87-2.08-1.09-.29-1.1-1.24-.85-2.01-.96-.98-1.48-2.97-.61-4.09-1.76-.28-.17-.58-.25-.9-.24-.37-.36-.74-.72-1.11-1.07l.07.04c-1.62-.8-3.25-1.6-4.87-2.41l-.08.02c-.74-.24-1.49-.48-2.23-.72l.07.06c-1.08-1.7-2.7-.72-4.1-.82-.67-.09-1.35-.18-2.02-.28-3.79-2.61-7.42,1.27-11.16.28-.36,0-.72,0-1.08,0-.99.35-1.98.7-2.97,1.04-3.98-.08-6.99,3.09-10.9,3.23-1.57,0-3.15.01-4.72.02l-.29.24.19.32c-1.2-1.87-3.14-.41-4.62-1.03l.07.05c-1.02-1.73-2.73-.79-4.12-1.06-.41-.99-1.15-1.12-2.07-.81-.66-.07-1.32-.15-1.98-.22l.06.05c-1.4-1.86-3.49-.45-5.15-1.1l.1.07c-1.43-2.06-3.68-.28-5.36-1.16-3.75-2.07-8.07-1.61-12.04-2.7-1.66,0-3.32.01-4.98.02-.29-.15-.6-.22-.93-.2-1.03-1.79-2.83-.52-4.18-1.07l.07.05c-1.1-1.64-2.69-.76-4.1-.82-.41-.29-.78-.73-1.23-.83-13.14-2.98-26.4-5.56-39.64-1.14-3.95,1.32-8.08-.59-11.73,1.71-.86.54-1.99.91-2,1.97-.02,1.43,1.45,1.1,2.3,1.33,2.68.7,5.42,1.87,8.11,1.8,14.09-.33,27.98,2.74,42.06,2.23,5.76,3.16,12.23,1.5,18.29,2.69.71.41,1.41,1.14,2.14,1.2,9.25.66,18.19,2.98,27.19,5.03,11.1,2.52,22.19,5.16,33.55,6.36,2.89,2.14,6.35.78,9.53,1.36,7.61,1.39,15.44,2.42,23.07-.4,4.89.23,9.01-1.97,13.15-4.13.81-.1,1.72.02,2.08-1,0,0-.05.04-.05.04Zm-210.03-141.63l4.96-.09c1.04.02,2.09.03,3.13.05.33,0,.66,0,.98.01,2.72-.02,5.44-.04,8.16-.06l.98.15c2.42.04,4.92,1.07,7.2-.59,2.43.19,5.03-1.08,7.27.83,1.28,7.27,2.39,14.58,3.99,21.77.35,1.57-.29,5.68,3.6,4.15,2.3-.91,5.64-.25,5.03-5.83-.87-7.98-2.89-15.93-2.54-24.06,4.04-2.27,5.47-.17,5.91,3.54.1.83.11,1.67.16,2.51-.78,6.55.68,12.87,2.05,19.26,4.24-6.61,1.51-13.52.87-20.32-.03-2.32-.14-4.65-.06-6.97.13-4.05,3.87-4.18,6.34-4.98,2.18-.71,5.53-1.28,6.1,2.8-.27,1.71-.49,3.42.38,5.37,3.39-2.67,3.79-5.86,3.28-9.36-.36-2.37-.44-4.88-.98-7.11-.84-3.44.03-7.15-1.83-10.36,0-.88.04-1.78-1.01-2.16-.73-1.15-1.69-1.78-3.1-1.39-5.09,0-10.17.01-15.26.02-.66-.33-.84.17-1.06.61-7.46-.5-14.81.89-22.23,1.21-14.73,1.86-29.42,3.93-43.71,8.15-.67-.16-.98.23-1.22.76-.6.06-1.2.13-1.8.19-5.16,1.4-10.42,2.49-15.31,4.78-6.78,1.84-13.14,4.73-19.35,7.95-6.63,3.44-7.27,5.34-4.69,12.52,4.02,13.27,7.91,26.59,12.14,39.79,1.59,4.97,6.03,10.85,13.65,10.15,5.48-.5,11.02-.75,16.53-1.13,7.32-.51,14.5-1.99,21.77-2.64,6.2-.55,11.87-3.66,17.93-3.71,6.52-.06,12.48-2.47,18.79-3.23,2.3-.28,4.36-2.35,5.53-4.79,1.09-2.27,2.33-4.47,3.59-6.87-8.16,1.56-8.22,1.63-5.83,6.77-1.43.45-2.83,1.02-4.28,1.31-9.37,1.91-18.73,3.91-28.15,5.58-14.78,2.62-29.61,4.97-44.7,4.48-3.7-.12-8.19-.87-9.48-4.41-3.1-8.48-7.66-16.64-7.54-26.07,2.28-2.64,4.55-5.2,7.41-7.36,8.38-6.32,18.02-9.35,27.98-11.77,6.08,1.73,12.24.7,18.38.52Zm69.03,164.43c-7.78,2.38-14.59,4.57-21.47,6.49-1.75.49-2.39,1.11-1.73,2.71,3.6,8.74,7.17,17.48,9.99,28.03,3.45-13.55,8.72-24.75,13.21-37.23Zm-114.84-141.03c.41,6.08,2.38,11.09,4.96,15.81,1.85,3.4,4.8,5.24,9.01,4.84,6.31-.61,12.65-.92,18.97-1.39.16-.01.28-.49.79-1.47-5.39-.13-10.43-.82-15.44.39-7.54,1.81-12.6-1.97-13.19-9.78-.24-3.21-.57-6.64-5.1-8.39Z"/><path d="m613.95,473.29c7.76,2.99,11.57,8.19,12.68,15.77.5,3.38,1.78,6.8,3.4,9.82,1.98,3.7,1.55,4.76-2.79,4.56-6.57-.3-13.18-.19-19.76-.04-3.9.09-5.76-1.66-6.48-5.38-.78-4.01-2.23-7.89-2.81-11.92-.73-5.06-3.66-6.56-8.28-6.56-9.16.01-9.09-.07-9.18,9.21-.05,4.71.09,9.37,1.83,14.35-9.78,0-19.35-.02-28.93.02-2.04,0-1.58-.83-1.44-2.39,1.26-14.44,1.95-28.93,1.13-43.39-.53-9.33-1.56-18.64-2.06-27.99-.19-3.59.94-4.54,4.48-4.49,12.67.2,25.35-.21,38.01.13,7.59.21,15.11,1.24,22.21,4.64,7.95,3.81,11.32,10.08,11.46,18.48.11,6.34-.06,12.49-3.88,18.2-2.37,3.54-5.93,4.59-9.57,6.96Zm-33.38-18.55q0,9.61,10.07,9.61c1.18,0,2.5.34,3.52-.07,3.6-1.44,8.72-1.05,8.98-6.89.39-8.7-.89-11.04-7.16-12.3-1.78-.36-3.69-.04-5.54-.03q-9.88.04-9.88,9.69Z"/><path d="m454.8,503.7c5.41-12.94,7.98-26.42,13.62-38.59,5.58-12.06,8.11-24.4,8.78-37.37.11-2.22.83-2.88,2.98-2.87,13.52.07,27.04.07,40.55-.03,2.34-.02,3.19.61,3.26,3.11.2,7.12.37,14.53,3.24,20.97,3.32,7.44,3.12,15.94,7.63,22.86,1.53,2.35,1.21,5.14,1.93,7.67,2.38,8.32,8.08,15.19,9.77,24.18-9.56,0-19.12-.01-28.69.01-2.4,0-3.3-1.14-3.11-3.47.33-3.9-1.32-7.53-1.73-11.24-.49-4.38-2.52-4.8-5.96-4.67-4.73.17-9.47.24-14.19,0-2.58-.13-3.83,1.22-4.35,3.18-.94,3.49-2.24,7.15-1.99,10.63.39,5.46-2.12,5.87-6.46,5.71-8.22-.29-16.47-.08-25.3-.08Zm46.09-56.18c-2.77,5.48-2.8,11.47-5.18,16.93-3.58,8.24-3.12,8.47,5.96,8.41,2.32-.02,4.7.45,7.44-.59-3.56-8.01-6.49-16.17-8.22-24.76Z"/><path d="m409.7,425.31c10.22.31,20.43-.73,30.68,1.29,12.18,2.4,19.86,8.94,21.34,21.21,1.17,9.78,1.3,19.86-7.03,27.4-4.67,4.22-10.4,6.19-16.47,7.43-6.45,1.32-12.73,1.25-19.04-.98-2.26-.8-4.27-.07-3.86,3.25.6,4.96.39,10.1,1.6,14.89.96,3.79-.32,4-3.24,3.97-7.77-.07-15.55-.27-23.31.1-4.33.21-4.74-1.9-4.37-5.15,1.55-13.51,2.54-27,1.04-40.61-.62-5.64-.27-11.36-.92-17.06-.41-3.62-.94-7.26-1.27-10.91-.32-3.58.52-5.17,4.58-4.95,6.74.36,13.51.1,20.26.1Zm28.99,29.68c0-7.71-2.79-9.95-12.38-9.95-9.89,0-10.65.42-10.65,5.87-.01,14.14.22,14.46,10.45,14.45,8.5-.01,12.59-3.38,12.59-10.37Z"/><path d="m711.28,424.78c9.35,0,18.82.03,28.28-.03,1.99-.01,3.13.22,3.93,2.56,1.44,4.21,4.19,8,5.39,12.25,1.32,4.64,5.13,7.2,7.71,10.68,1.68,2.26,3.43-1.32,4.42-2.75,4.05-5.9,6.98-12.44,9.4-19.14,1.09-3.02,2.63-3.71,5.51-3.66,9.12.14,18.25.05,27.97.05-6.69,9.77-13.26,19.19-19.19,29.04-4.09,6.79-8.91,13.14-12.8,20.03-3.04,5.37-1.37,11.55-1.09,17.34.19,3.88,1.44,7.7,2.26,11.8h-31.67c2.26-8.95,2.05-17.86,1.56-26.67-.31-5.64-5.03-9.56-7.87-14.12-7.52-12.07-14.67-24.44-23.84-35.41-.5-.6-.48-1.2.02-1.98Z"/><path d="m605.08,379.93c-2.13-19.81,15.83-35.09,36.69-34.89,23.68.22,35.05,16.51,34.24,36.49-.92,22.59-13.45,33.96-34.14,34.73-20.02.75-38.72-14.05-36.79-36.33Zm48.72-.14c.36-2.47-.07-5.24-.88-7.96-1.37-4.6-4.13-8.13-8.96-9-6.89-1.24-11.18.63-13.46,6.28-3.3,8.17-3.71,16.44,1.52,24.23,3.95,5.89,10.85,6.65,16.13,2.07,4.76-4.13,5.8-9.41,5.66-15.62Z"/><path d="m709.43,454.59c-6.89-4.16-14.06-3.37-21.13-3.48-2.16-.03-3.32.25-3.37,2.93-.16,9.91.34,19.81-.47,29.75-.46,5.65.91,11.52,2.02,17.19.49,2.52-.26,3.15-2.21,2.94-8.74-.96-17.51-.49-26.26-.67-3.08-.06-2.39-2.63-2.06-4.13,3.25-14.76,2.48-29.72,2.65-44.65.03-2.74-.9-3.38-3.48-3.39-7.48,0-14.94-.19-22.38,3.19.23-3.53.02-6.87.35-9.54.8-6.38,2.64-12.71,3.76-19.14.18-1.06,1.74-.72,2.7-.72,20.94-.03,41.89-.01,62.83-.09,2.3,0,3.02.6,3.3,3.1.96,8.64,2.37,17.22,3.73,26.71Z"/><path d="m424.73,373.44c-9.13-4.41-17.95-6.37-27.12-6.54-2.78-.05-5.64.56-8.33,1.34-1.23.36-3.05.78-3.31,2.67-.29,2.08,1.23,3.21,2.66,3.9,4.36,2.1,9.07,3.06,13.89,3.16,6.02.12,11.84,1.28,17.48,3.19,4.76,1.61,8.92,4.59,9.4,9.88.61,6.78,1.23,13.86-5.95,18.44-11.28,7.21-23.39,8.01-36.33,6.33-6.94-.9-13.53-2.84-20.29-4.18-2.69-.54-3.28-1.68-3.26-4.01.06-6.26-.03-12.52.07-18.78.02-1.19-.84-2.81.84-3.57,1.47-.67,2.8.42,3.63,1.18,8.39,7.67,18.87,8.19,29.33,8.81,3.02.18,5.86-.68,8.44-2.22,1.18-.71,2.78-1.05,2.46-3.18-.3-2.03-1.99-2.39-3.19-2.6-5.21-.93-10.46-1.78-15.73-2.15-5.83-.41-11.32-1.68-16.5-4.39-9.04-4.73-11.09-17.24-4.71-25.24,5.63-7.07,13.42-9.04,21.42-9.8,10.63-1,21.29-.14,31.72,2.78,2.43.68,3.42,1.58,3.39,4.01-.06,6.75-.02,13.5-.02,21Z"/><path d="m683.07,384.69c11.61,8.37,24.37,11.44,38.52,8.64,2.29-.45,3.89-1.37,4.17-3.56.34-2.68-2.16-2.68-3.8-2.95-6.19-1.02-12.41-1.84-18.62-2.73-11.85-1.69-21.33-8.5-19.99-19.62,1.11-9.22,4.89-14.82,17.17-17.9,13.47-3.37,26.86-1.53,40.11,1.92,1.34.35,1.6,1.01,1.6,2.06.02,7.39,0,14.78,0,22.73-9.44-4.44-18.67-7.09-28.62-6.49-3.55.21-8.13.08-8.71,4.03-.58,3.99,3.95,4.38,7.14,5.29,6.4,1.83,13.13,1.3,19.53,2.9,5.09,1.28,10.85,2.18,13.45,7.29,5.47,10.76,1.93,21.63-10.85,26.29-13.88,5.07-27.86,3.6-41.76.46-11.5-2.6-11.41-2.85-10.24-15.33.2-2.17-.06-4.39-.1-6.59,1.98-1.91.61-4.32.97-6.47Z"/><path d="m507.44,414.87c-8.06,0-15.79-.03-23.51.02-1.9.01-2.48-.67-2.68-2.64-.37-3.59-1.5-7.11-1.88-10.7-.27-2.59-1.36-3.58-3.83-3.55-4.56.06-9.13.09-13.69.02-2.42-.04-3.5.82-4.01,3.38-.68,3.39-2.04,6.68-1.84,10.18.16,2.73-.86,3.46-3.46,3.41-7.42-.15-14.85-.05-22.5-.05,5.92-15.17,10.39-30.56,14.99-45.89,2.02-6.74,2.78-13.88,3.77-20.89.34-2.42,1.47-2.6,3.33-2.6,11.16.02,22.32,0,33.48,0,1.35,0,2.78-.19,2.81,1.89.22,16.71,7.28,31.68,11.84,47.31,1.95,6.68,4.61,13.06,7.19,20.1Zm-32.24-26.93c1.4-.52,1.41-.79.08-1.92-2.59-6.67-3.8-13.87-7.37-20.21-1.67,7.48-3.71,14.55-6.7,21.34-.1.66.14.95.82.78,4.39,0,8.78.01,13.18.02Z"/><path d="m748.07,414.6c4.93-9.17,8.24-18.63,11.14-28.1,2.72-8.89,6.17-17.68,7.3-27.06.46-3.82,1.26-7.59.94-11.46-.21-2.45,1.21-2.72,3.12-2.71,11.15.02,22.29,0,33.44-.01,1.52,0,3.07-.21,3.09,2.16.14,20.81,9.9,39.14,15.29,58.59.76,2.74,2.65,5.17,4.44,8.55-8.74,0-16.75-.02-24.75.01-1.93,0-1.94-1.23-2.16-2.67-.56-3.6-1.4-7.15-1.99-10.75-.46-2.79-1.85-3.91-4.74-3.75-3.87.22-7.8.41-11.64-.03-3.21-.37-4.2,1.41-4.76,3.71-.63,2.56-1.44,5.32-1.07,7.84.8,5.47-1.82,5.98-6.25,5.77-6.9-.33-13.82-.09-21.39-.09Zm46.7-26.92c-2.46-7.1-5.91-13.05-6.03-20.01-.01-.8,0-1.91-1.18-1.69-1,.18-1.85.99-1.77,2.13.36,5.11-2.09,9.47-3.66,14.07q-1.87,5.49,4.15,5.5c2.65,0,5.3,0,8.48,0Z"/><path d="m627.19,79.64c-5.63,9.22-14.27,12.76-24.4,13.98-5.2.62-10.53.7-15.53,2.78-3.76,1.56-4.39,3.42-1.74,6.37,6.62,7.37,7.12,12.18-4.37,17.15-14.72,6.37-30.56,9.27-46.48,11.19-2.48.3-6.2,3.27-7.25-.85-.46-1.81,3.9-1.74,6.13-2.39,11.64-3.42,23.3-6.78,34.88-10.38,6.74-2.1,7.99-6.15,4.42-12.09-2.17-3.61-4.37-7.11-1.43-11.77,2.7-4.28,7.05-4.55,10.78-4.95,15.24-1.66,30.61-2.37,44.98-9.03Z"/><path d="m803.97,495.08c-1.38,2.37-1.05,4.21-.89,5.89.14,1.41.59,2.76-1.4,2.93-1.57.13-2.65-.75-2.7-2.33-.1-3.38-.02-6.76-.05-10.13,0-1.33.73-1.85,1.9-1.65,1.47.25,3.43-1.01,4.22,1.49.68,2.14,1.65,4.19,2.52,6.35,2.25-1.51,2.18-4.14,3.13-6.17,1.18-2.52,3.03-1.73,4.64-1.62,2.56.17.62,2.05.74,3.04.29,2.5.1,5.06.11,7.59,0,1.35,1.15,3.12-1.39,3.48-2.6.37-2.59-1.38-2.64-3.14-.02-.67-.09-1.35-.13-2.01-2.72-.35-1.31,5.76-4.71,3.3-1.67-1.21-2.07-4.18-3.35-7.01Z"/><path d="m790.32,489.74c1,0,2.03-.13,3.01.03,1.18.2,2.97-.88,3.41.98.61,2.55-1.66,1.61-2.86,2.14-3.7,1.62-2.29,5.03-1.68,7.41.56,2.18.4,3.25-1.61,3.56-2.61.4-1.71-1.73-1.85-3.06-.3-3.03,1.78-7.25-3.96-7.56-.87-.05-1.22-1.48-.98-2.57.26-1.18,1.24-.88,2-.91,1.51-.05,3.01-.02,4.52-.02Z"/><path d="m683.07,384.69c-.36,2.15,1.01,4.56-.97,6.47-1.09-2.37-2.34-4.76.97-6.47Z"/><path d="m575.45,378.91c.34-1.32-.11-3.05,1.88-3.54.63,1.19.37,2.43.16,3.67-.68-.04-1.36-.08-2.04-.13Z"/><path d="m584.82,345.3c-.91.18-1.91.52-2.63-.25-.15-.16.49-1.05.76-1.61,1.17.07,1.79.68,1.86,1.86Z"/><path class="cls-1" d="m558.28,149.67l-.37.25s-.38-.23-.38-.23c.24-.26.49-.26.75-.02Z"/><path class="cls-1" d="m708.65,256.01c4.27,9.51,8.66,18.98,12.77,28.56,1.69,3.94,3.8,6.41,8.44,7.27,5.76,1.08,11.4,3.11,16.89,5.27,8.37,3.3,9.24,8.64,2.38,14.13-2.53,2.02-4.91,4.42-8.09,5.57-.81-1.16-1.06-2.47-.97-3.86,4.77-6.96,4.28-9.09-3.06-13.37-.95-2.8-2.45-2.22-4.11-.68-.32-.1-.64-.21-.97-.31-2.69-2.65-6.6-2.19-8.11.96-3.15.54-4.44,3.44-6.49,5.3-7.73,7.03-16.65,8.42-25.53,3.02-4.01-2.44-8.48-3.36-12.63-5.23-.89-5.73,4.05-1.95,5.72-3.51l-.03.15c-.36,1.75.42,1.42,1.37.75.79.2,1.87.83,2.3.53,1-.7-.07-1.89-.41-2.32-1.09-1.41-2.57-2.51-3.91-3.73-.38-.25-.77-.51-1.15-.76l.07.1c.39-1.1.78-2.2,1.17-3.3,2.28.95,4.17,2.91,8.05,3.01-3.77-4.84-8.71-6.7-12.17-10.22,0-.61,0-1.23,0-1.84,0,0,.03-.03.03-.03,1.37-.01,2.74-.02,4.12-.03,0,0-.03-.03-.03-.03.17.51.42.81.94.33.86.46,1.72.92,2.58,1.38.39.05.78.11,1.17.16l-.52-.91c-3.09-4.1-8.73-5.26-11.36-9.89.81-1.83,2.05-2.3,4.06-1.78,2.81.73,2.48-1.91,1.59-2.57-2.61-1.93-3.98-5.6-7.82-5.82l.07.06c-.04-1.52,1.19-2.14,2.11-2.98.52-.34,3.05,1.57,1.42-1.03-1.31-2.09-3.56-3.57-5.11-5.55-3.86-4.92-8.8-9.21-10.06-16.08,3.14.58,3.79,3.95,7.94,5.2-3.32-3.82-5.6-6.75-7.27-10.07-5.81-11.57-5.88-24.37-8.01-36.73,1.48-.21,1.86-1.2,1.86-2.54-.01-7.44-.01-14.89,0-22.33,0-1.33-.37-2.32-1.85-2.54,2.94-11.68,2.75-23.72,4-35.59,1.12-.17,1.86-.76,1.85-1.96-.05-6.86.21-13.74-.37-20.56-.2-2.36.24-6.07-3.66-6.91-1.84-1.41-2.24-4.9-5.7-3.99-.28.18-.78.36-.79.55-.71,15.36-1.42,30.71.32,46.05-.64,7.88-.58,15.91-2.18,23.6-.91,4.37.73,9.05-1.92,13.07-1.16,3.93-1.87,7.84.57,11.59.82,4.26,1.63,8.52,2.45,12.79-1.18,1.43-1.34,2.78.29,4.01l-.06-.08c.1,1.45-.6,3.11,1.08,4.15l-.06-.09c.11,1.45-.6,3.1,1.07,4.15l-.06-.08c.12,1.44-.6,3.11,1.08,4.14l-.06-.08c0,1.16-.28,2.42,1.05,3.13l-.05-.06c.13,1.44-.59,3.09,1.08,4.13l-.06-.08c-.12,2.94-.13,5.85,2.06,8.2l-.04-.06c.24,1.74-.8,3.75,1.08,5.14l-.05-.08c.35,1.68-1.07,3.84,1.34,4.97l-.11.03c-.11,1.81-1.01,3.76.88,5.24l-.06-.09c.2,1.76-.83,3.77,1.07,5.17l-.06-.08c.22,1.75-.83,3.77,1.09,5.16l-.07-.09c.2,1.76-.83,3.76,1.06,5.17l-.06-.08c.22,1.75-.81,3.75,1.05,5.16l-.05-.07c.24,1.74-.82,3.76,1.09,5.15l-.06-.09c.21,1.75-.83,3.77,1.09,5.17l-.08-.1c.27.36.54.72.82,1.08-.17,4.07,1.4,7.63,3.24,11.12.66,2.67,1.51,4.68-3.12,3.53-4.39-1.09-9.29-1.08-13.13,2.51-4.56.89-8.95,2.37-13.27,4.04-5.77-1.14-11.52-1.74-17.24.28-8.81-2.07-17.65-4.03-26.43-6.25-9-2.27-18.11-3.89-27.28-5.26.31-.69,2.57-1.8-.37-1.8-6.15,0-12.31.01-18.46,0-1.31,0-2.28.38-2.49,1.84-6.8,1.58-13.99,2.04-19.28,7.6-1.37,1.44-3.38,2.1-5.51,1.82-3.02-.1-6.03.52-8.98.63-9.02.33-16.17-.53-16.08-10.02,0,0-.07.06-.07.06,2.3.08,2.22-1.52,2.17-3.1.31-.3.61-.6.92-.9,2.3.15,4.12-.34,4.14-3.18.32-.29.64-.59.97-.88.88-.02,1.71-.13,2.11-1.08,7.42-9.05,13.04-19.27,18.78-29.38,6.46-11.37,16.63-20,22.66-31.68,4.87-9.42,9.88-18.79,15.4-27.83,7.55-12.37,14.27-25.34,24.34-36.02,1.74.76.66-.78.96-1.19.6-.64,1.2-1.27,1.8-1.91,1.57.09,2.33-.64,2.25-2.22,2.3-2.31,4.61-4.61,6.91-6.92,2.9.07,3.44-1.74,3.29-4.12,15.67-15.72,26.85-34.8,39.57-52.74,1.84-2.59,3.83-5.1,7.21-5.84,2.59,1.65,5.44.44,8.16.78,1.44.49,2.36,1.52,3.01,2.85-.03.93.07,1.81,1.08,2.24,0,0-.07-.1-.07-.1-.04.92.1,1.74,1.1,2.11,0,0-.07-.08-.07-.08.37,1.02-1.03,2.6.97,3.12,1.6,6.53,2.09,13.16,1.97,19.86-.03,1.83.03,3.66.05,5.49-.02,4.87-.43,9.8,2.12,14.29,2.35,7.37,4.71,14.75,7.06,22.12-.04.93.02,1.81,1.04,2.26,0,0-.05-.07-.05-.07.02,1.18-.32,2.49,1.19,3.09,0,0-.1-.13-.1-.13-.1.94,0,1.78,1.03,2.18,0,0-.06-.09-.07-.09-.04,1.58-.14,3.11-2.23,3.31l.05.03c-.25-.38-.51-.76-.76-1.14-1-1.13-1.98-2.27-2.99-3.39-.86-.95-1.64-.83-2.55.06-1.03,1.01.06,1.39.44,1.98,6.61,10.48,11.16,21.81,13.9,33.88-1.17,1.09-1.16,2.09.24,2.98l-.05-.07c.23,1.75-.82,3.77,1.09,5.15l-.06-.09c.2,1.75-.83,3.76,1.06,5.17l-.06-.08c.31,2.06-1,4.41,1.09,6.16,2.56,4.08,1.17,9,2.79,13.28-1.18,1.08-1.17,2.08.2,2.99l-.04-.05c.25,1.73-.79,3.74,1.08,5.13l-.05-.07c.23,1.75-.82,3.76,1.09,5.15l-.06-.09c.21,1.39-.85,3.22,1.36,3.93l-.03.02c-.41,1.23-.64,2.43.74,3.25l-.06-.08c.86,4.25-1.02,9.43,4.16,12.2l-.06-.05c.5.59-1.29,2.32,1.01,2.01,2.96,5.55,4.91,11.63,8.74,16.74.77,1.03,1.09,3.11,2.57,2.47,2.2-.96.09-2.52-.22-3.76-2.67-10.89-8.85-20.51-11.37-31.45,1.52-4.05.51-7.43-2.7-10.22-.17-.3-.28-.62-.32-.96,1.55-1.67,2.15-3.18-.68-4.12-1.12-2.72-1.7-5.55-2.25-8.45-.98-5.14.4-10.78-1.48-15.37-2.79-6.81-3.58-13.99-5.72-20.86.85-1.32,1.71-2.64,2.56-3.96.21.19.22.37,0,.56-.15.66.17,1.04.74,1.27,0,0-.04-.06-.04-.06.01,1.17-.31,2.47,1.15,3.1,0,0-.09-.11-.09-.11-.06,1.19-.36,2.46,1.02,3.19,0,0-.06-.08-.06-.08,0,1.16-.29,2.43,1.06,3.13,0,0-.06-.07-.06-.07.24,1.37-.85,3.21,1.36,3.9,0,0,0,.05,0,.05-.42,1.23-.65,2.42.73,3.24,0,0-.05-.07-.05-.07.12,1.94-.7,4.13,1.43,5.55,1.94,7.22,1.27,14.84,3.47,22.02-.55,6.18.26,12.03,4.05,17.19.13.3.19.61.17.93.03,1.16-.26,2.43,1.08,3.15,0,0-.05-.07-.05-.07.49.6-1.16,2.27,1.01,2.03Zm-139.93-22.3l-.07-.09c-.04.91.09,1.74,1.08,2.13l-.1-.1c.35.37.71.74,1.06,1.12,1.46,1.7,2.43,3.88,4.73,4.8.85-2.12-1.1-3.73-.97-5.69,1.83-1.09.48-2.28.08-3.41-1.36-3.88-3.31-7.62-2.92-11.93.73.32,1.47.64,2.2.96,1.39.72,1.14,3.36,3.65,2.92-2.68-7.99-1.07-16.46-2.82-24.56-.3-1.37,1.08-3.7-1.92-3.68-1.41.89-1.39,1.89-.23,2.97.19.66-.16.95-.73,1.09-1.94,2.27-1.51,4.64-.31,7.05,0,1.38,0,2.76.01,4.13-2.39,3.08.92,6.06.17,9.11-.93-.41-1.34-2.29-2.87-1.04l-.33-1.94c1.56-1.68,2.13-3.19-.72-4.11-.22-.22-.29-.49-.22-.79-.23-.41-.45-.82-.68-1.23-.6-1.4.93-3.92-2.11-4.05-1.77,1-1.01,2.7-1.14,4.15.02.32-.04.63-.19.92-1.96,3.36.04,6.17,1.25,9.09l-.05-.06c.22,3.31-.69,6.98,2.94,9.2.18.24.23.51.15.8-.04.94.05,1.81,1.08,2.23Zm-39.78,59.84s-.06.06-.06.06c9.12-2.79,18.45-3.45,27.92-2.99,2.16.1,4.41.26,6.48-.21,1.95-.44,3.33-1.69.16-2.81-.33-.02-.64-.09-.95-.21-1.23-3.99-5.09-3.09-7.62-3.32-4.82-.45-10.03-2.5-14.56,1.26-5.84,1.77-11.94,3.1-15.9,8.39-1.18,1.58-4.41,3.36-2.6,5,2.03,1.83,2.93-1.81,4.35-3.02,1.5.03,2.9-.09,2.79-2.16Zm52.73-79.15c.58-.28,1.59-.46,1.68-.84,1.96-9.04,1.21-18.33,2.46-27.45.09-.64-.01-1.49-.95-1.22-.95.27-.92,1.3-1.07,2.11-4.51.95-3.01,5.74-5.21,8.17-1.26,4.72-1.69,9.43.19,14.11,2.01,1.11,1.25,3.79,2.9,5.11Zm61.83-90.41c.6,1.34-.53,2.12-.99,3.12-1.36,2-1.33,4.01-.02,6.02-1.08,10.36-1.62,20.77-3.53,31.04-2.44,4.81-1.71,9.74-.52,14.68.4.65.8,1.29,1.2,1.94.11.77.02,1.82,1.18,1.63.34-.05.54-1.02.8-1.57l.21-1.95c.62-.05,1.78,2.3,1.69.15-.2-4.59,1.67-8.94,1.11-13.5.07-2.34.14-4.68.21-7.02,2.87-3,3.68-9.81,1.71-14.26.11-.99.23-1.98.34-2.97.69.28,1.81,2.59,1.83-.32.05-6.51,0-13.01.02-19.52,0-1.32-.4-2.28-1.84-2.5,1.37-2.83.89-5.78.65-8.77-2.69,1.32-2.61,1.33-2.88,3.16-.23,1.54.83,3.36-.9,4.6-1.76,1.94-1.48,3.97-.26,6.04Z"/><path class="cls-1" d="m561.49,153.84c1.42-.39,2.38.24,3.1,1.39.49.65-1.29,2.36,1.01,2.16,1.86,3.2,1,6.92,1.83,10.36.54,2.22.62,4.73.98,7.11-1.07,1.46-.58,4.36-3.66,3.99-.57-4.07-3.92-3.51-6.1-2.8-2.46.8-6.21.93-6.34,4.98-.07,2.32.04,4.65.06,6.97-.97.35-1.95.7-2.92,1.06-.05-.84-.06-1.68-.16-2.51-.45-3.71-1.88-5.82-5.91-3.54-1.01.2-3.38,0-2.54,1.17,2.41,3.35.82,7.11,1.81,10.61,1.14,4.05,1.86,8.47,1.59,12.88-.12,2.08-1.11,3.23-2.99,3.31-1.74.08-1.9-1.47-2.13-2.85-.98-5.92-1.97-11.85-3.09-17.74-.28-1.48.47-4.15-2.74-3.41-2.24-1.91-4.83-.64-7.27-.83-.9-1.38-2.32-1.17-3.65-1.17-12.16,0-24.32,0-36.49,0-1.33,0-2.75-.21-3.66,1.16-9.96,2.42-19.6,5.45-27.98,11.77-2.86,2.16-5.13,4.72-7.41,7.36-2.54.99-3.53-.25-4.18-2.58-1.15-4.18-2.7-8.25-3.76-12.45-.67-2.63-1.32-.66-2.04-.22-2.59-7.17-1.94-9.08,4.69-12.52,6.21-3.22,12.56-6.11,19.35-7.95,5.66.2,10.89-.98,15.31-4.78.6-.06,1.2-.12,1.8-.19.41-.25.81-.51,1.22-.76,14.29-4.22,28.98-6.29,43.71-8.15.95,1.24,3.6.69,3.59,2.36-.02,3.71,1.98,2.87,4.26,2.65,2.84-.28,5.74-.27,8.59-.05,2.88.23,6.16-1.28,8.52,1.66-.19.02-.34-.05-.45-.21-1.04-.43-1.83-.41-1.82,1.03l-.19-.06c-.74.14-2.06-1.68-2.16.64-2.94,2.56-7.75.04-10.25,3.79-2.65-2.42-13.95-.32-17.26,3.2-3.17,2.09-6.95,1.23-10.41,2.05-9.9,2.34-19.76,5.19-30.08,5.14-1.51,0-3.08-.28-4.52.03-4.67,1-9.81.4-13.81,3.84-2.08.91-4.3,1.31-6.52,1.87,18.74-.28,36.97-4.09,55.24-7.61.67.92,1.33.92,1.98-.02.28-.15.58-.21.89-.2,1.77-.22,3.8.81,5.21-1.1l-.1.07c1.32.02,2.72.32,3.96,0,5.22-1.34,11.02-.87,15.42-4.83,8.32-1.72,16.64-3.5,24.69-6.27,2.87-.99,5.78-2.23,2.7-6.02-.61-1.54,2.36-2.07,1.06-3.8Z"/><path class="cls-1" d="m501.57,246.04c-3.47.26-6.88-.58-10.46.54-2.7.85-4.05,2.61-5.63,4.45-1.1.35-2.21.69-3.31,1.04-1.93-1.11-3.01-3.42-5.93-3.18-3.93.33-5.28,2.26-4.04,6.12,4.47,13.99,8.83,28.01,13.17,42.04,3.7,11.95,7.14,23.98,11.06,35.85,3.01,9.1,3.27,9.02,12.66,7.31.21-.04.34-.5.51-.77.54-.28,1.08-.57,1.63-.85.15.17.15.34-.01.5-.3.58-.07.98.44,1.28,4.69,3,8.94-.25,13.36-.96,1.02-.03,2.04-.06,3.07-.09,0,0-.1-.06-.1-.06,5.62,2.16,10.49.17,15.19-2.75.26-.18.54-.25.86-.22.4-.33.79-.65,1.19-.98,0,0,0,0,0,0,1.04-.35,2.08-.69,3.12-1.04,4.85-.55,9.07-2.07,13.42-4.76,2.73-1.68,7.09-2.29,10.72-3.38,1.61,1.01,3.86-2.26,5.02.57.61,1.48.46,3.33-1.93,3.56-2.47-.48-3.08.63-3.02,2.99.05,1.65.99,3.63-.89,5.03-.87.64-3.08.81-2.25,2.11,1.03,1.59,2.42-.23,3.6-.82.87-.43,1.76-.82,2.64-1.23,1.03.36,2.06.71,3.08,1.07-.05.68-.1,1.36-.14,2.04-.29.37-.57.73-.86,1.1,0,0,.07-.05.07-.05-2.72.12-5.7-.44-7.2,2.82-.28.14-.58.21-.9.21-.38-.02-.76-.03-1.14-.05-.15-.08-.3-.15-.45-.23.14.08.29.16.43.25,0,.28,0,.56.02.84-16.33,4.59-32.61,9.4-49.69,10.42-1.58-1.84-3.72-.81-5.61-1.1-2.54-.4-5.31.98-7.64-1.02,3.36-.53,6.98,1.23,10.12-1.15.39-1.14,1.26-.88,2.09-.71,1,1.11,1.99,1.1,2.98-.01.28-.15.58-.21.89-.2.38-.27.75-.54,1.13-.81,11.08-.64,34.06-6.23,37.69-9.15-3.65-.94-6.81,1-10.13,1.92-9.61,2.68-19.51,4.12-29.34,4.72-5.86.36-12.95,4.44-17.86-2.69-3.36,4.05.48,5.14,2.46,6.97,0,.37-.01.74-.02,1.11-2.06-.32-4.12-.65-6.18-.97,0,0,.04.03.04.03.06-2.29-.36-4.34-2.72-5.42-3.7-8.12-5.54-16.86-8.26-25.3-4.82-14.96-9.4-30.02-13.55-45.18-2.45-8.93-6.85-17.11-9.17-26.08-.88-3.39-1.15-4.19,2.9-5,21.99-4.4,44.23-7.72,65.84-13.95.39-.11.9.18,1.66.35-2.08,4.63-7.5,6.56-7.92,12.22-7.48-6.56-17.21-5.54-22.52,1.64-.87.15-1.74.31-2.62.46,0,0,.17-.09.17-.1,0-.77-.37-1.14-1.14-1.07,0,0-.18.15-.18.15.07-.27.14-.55.21-.82-.22.15-.44.29-.66.44Z"/><path class="cls-1" d="m704.5,325.32c2.06,0,4.11,0,6.17,0,.59.76,1.17,1.51,1.76,2.27l-.25.12s-.23-.16-.23-.16c-.43.25-.86.5-1.29.76,0,0,.05-.04.05-.04-.64.45-2.24-1.1-2.08,1-4.14,2.16-8.26,4.37-13.15,4.13-.78-1.13-1.96-1.1-3.13-1.11-7.3-.07-14.6.25-21.89-.88-2.4-.37-5.33-1.21-7.58,1.02-11.36-1.2-22.45-3.84-33.55-6.36-9-2.05-17.93-4.36-27.19-5.03-.74-.05-1.43-.78-2.14-1.2-5.63-4.09-12.02-2.94-18.29-2.69-14.08.52-27.98-2.56-42.06-2.23-2.69.06-5.42-1.1-8.11-1.8-.86-.22-2.32.1-2.3-1.33.01-1.06,1.13-1.43,2-1.97,3.65-2.3,7.78-.39,11.73-1.71,13.23-4.42,26.49-1.84,39.64,1.14.45.1.82.55,1.23.83,1.16,1.32,2.7.71,4.1.82,0,0-.07-.05-.07-.05,1.06,1.65,2.72.95,4.18,1.07.33-.02.64.05.93.2,1.66,1.29,3.32,1.31,4.98-.02,3.97,1.1,8.29.64,12.05,2.71,1.46,1.92,3.52,1.01,5.36,1.16,0,0-.1-.07-.1-.07,1.39,1.92,3.4.87,5.15,1.1,0,0-.06-.05-.06-.05.55,1.08,1.21,1.21,1.98.22.92-.31,1.66-.18,2.07.81,1.05,1.63,2.69.92,4.12,1.06,0,0-.07-.05-.07-.05,1.24,1.7,3.03.91,4.62,1.03l-.19-.32s.29-.24.29-.23c1.59,2.23,3.16,2.28,4.72-.03,3.91-.13,6.92-3.31,10.9-3.23,1.58,1.35,2.6,1.05,2.97-1.04.36,0,.72,0,1.08,0,3.76,1.27,7.49,1.66,11.16-.28.67.09,1.35.18,2.02.28,1.16,1.33,2.7.72,4.1.82,0,0-.07-.06-.07-.06.5,1,1.28,1.12,2.23.72,0,0,.08-.02.08-.02.79,2.5,2.9,2.32,4.87,2.4,0,0-.07-.04-.07-.04.37.36.74.72,1.11,1.07.32,0,.63.08.9.24.77,1.96,1.7,3.56,4.09,1.76.77.11,1.71-.14,2.01.96.38.96,1.2,1.09,2.08,1.09,0,0-.06-.05-.06-.05,5.48,3.84,11.37,2.17,17.19,1.25Z"/><path class="cls-1" d="m436.88,190.03c.72-.45,1.37-2.41,2.04.22,1.07,4.2,2.62,8.27,3.76,12.45.64,2.34,1.63,3.58,4.18,2.58-.12,9.44,4.44,17.59,7.54,26.07,1.29,3.54,5.78,4.29,9.48,4.41,15.09.49,29.92-1.86,44.7-4.48,9.42-1.67,18.77-3.67,28.15-5.58,1.45-.29,2.84-.87,4.28-1.31-2.39-5.14-2.33-5.21,5.83-6.77-1.26,2.4-2.5,4.6-3.59,6.87-1.17,2.43-3.24,4.51-5.53,4.79-6.32.76-12.27,3.17-18.79,3.23-6.07.05-11.74,3.16-17.93,3.71-7.27.65-14.45,2.13-21.77,2.64-5.51.38-11.05.63-16.53,1.13-7.62.7-12.05-5.18-13.65-10.15-4.23-13.2-8.12-26.52-12.14-39.79Z"/><path class="cls-1" d="m547.91,162.31c-2.36-2.95-5.64-1.44-8.52-1.66-2.85-.22-5.75-.24-8.59.05-2.29.23-4.29,1.07-4.26-2.65,0-1.67-2.65-1.12-3.59-2.36,7.41-.32,14.77-1.7,22.23-1.21.35-.2.71-.41,1.06-.61,5.09,0,10.17-.01,15.26-.02,1.3,1.73-1.67,2.27-1.06,3.8-10.02-3.06-19.92.67-30.23-.14,1.29,2.83,3.23,2.03,4.77,2.07,4.22.11,8.44.01,12.67.07.88.01,2.29-.53,2.42.94.12,1.28-1.63.87-2.15,1.72Z"/><path class="cls-1" d="m482.17,252.07c1.1-.35,2.21-.69,3.31-1.04,1.97,9.99,5.8,19.46,8.33,29.29.45,1.74,1.23,3.4,1.57,5.15.19.98.8,2.55-.83,2.92-1.08.24-1.69-.78-2.01-1.83-3.45-11.5-6.91-23-10.37-34.5Z"/><path class="cls-1" d="m533.3,186.98c3.21-.74,2.46,1.93,2.74,3.41,1.13,5.9,2.11,11.82,3.09,17.74.23,1.38.39,2.93,2.13,2.85,1.87-.09,2.86-1.24,2.99-3.31.26-4.41-.45-8.83-1.59-12.88-.99-3.51.6-7.26-1.81-10.61-.84-1.17,1.53-.96,2.54-1.17-.35,8.13,1.66,16.08,2.54,24.06.61,5.58-2.73,4.93-5.03,5.83-3.89,1.53-3.25-2.57-3.6-4.15-1.61-7.2-2.71-14.51-3.99-21.77Z"/><path class="cls-1" d="m454.82,210.06c4.53,1.76,4.86,5.19,5.1,8.39.59,7.81,5.66,11.59,13.19,9.78,5.01-1.2,10.06-.52,15.44-.39-.51.98-.63,1.46-.79,1.47-6.32.48-12.66.79-18.97,1.39-4.21.41-7.16-1.43-9.01-4.84-2.57-4.73-4.55-9.73-4.96-15.81Z"/><path class="cls-1" d="m679.06,168.85c2.09-.19,2.19-1.73,2.23-3.31.77.18,1.56.08,1.97,1.14,2.63,6.91,6.49,13.31,8.48,20.49-.85,1.32-1.7,2.64-2.56,3.96-2.56-7.8-6.04-15.17-10.11-22.28Z"/><path class="cls-1" d="m654.84,301.64c3.84-3.59,8.74-3.59,13.13-2.51,4.63,1.14,3.78-.87,3.12-3.53,4.72.7,9.62.7,13.78,3.54-1.67,1.56-6.61-2.22-5.72,3.51-2.87.83-5.68-.43-8.19-1.09-5.52-1.46-10.78.85-16.13.08Z"/><path class="cls-1" d="m482.25,186.14c.91-1.37,2.33-1.16,3.66-1.16,12.16,0,24.32,0,36.49,0,1.33,0,2.75-.21,3.65,1.17-2.28,1.66-4.78.62-7.2.59-.26-.48-.57-.6-.98-.15-2.72.02-5.44.04-8.16.06-.32-.45-.65-.46-.98-.01-1.04-.02-2.09-.03-3.13-.05-1.67-.92-3.33-1.07-4.96.09-6.14.18-12.3,1.2-18.38-.52Z"/><path class="cls-1" d="m662.87,332.43c2.25-2.24,5.18-1.39,7.58-1.02,7.29,1.13,14.59.81,21.89.88,1.18.01,2.36-.02,3.13,1.11-7.63,2.81-15.47,1.79-23.07.4-3.18-.58-6.63.78-9.53-1.36Z"/><path class="cls-1" d="m549.47,189.06c.97-.35,1.95-.7,2.92-1.06.64,6.8,3.38,13.7-.87,20.32-1.37-6.39-2.83-12.71-2.05-19.26Z"/><path class="cls-1" d="m511.24,338.59c-.54.28-1.08.57-1.63.85-3.9-9.82-6.47-20.06-9.02-30.35,5.8,8.98,7.15,19.64,10.64,29.5Z"/><path class="cls-1" d="m499.46,294.53c-.09,9.49,7.06,10.36,16.08,10.02,2.95-.11,5.95-.73,8.98-.63-9.18,4.78-23.91,4.25-26.38-4.76-.62-2.26-.41-3.45,1.33-4.63Z"/><path class="cls-1" d="m503.17,247.45c.87-.15,1.74-.31,2.62-.46,1.62,6.69,3.25,13.38,4.86,20.08.3,1.27.66,2.55.7,3.83.01.43-.83,1.09-1.41,1.28-.78.26-1.03-.38-1.2-1.13-1.83-7.87-3.71-15.73-5.58-23.6Z"/><path class="cls-1" d="m528.1,339.33c-1.02.03-2.04.06-3.07.09-.28-6.81-3.32-13.06-4.03-19.76-.07-.66-2.22-2.11.26-2.52,1.8-.3,1.49,1.11,1.77,2.26,1.24,5.08,2.88,10.07,3.84,15.2.31,1.63,1.16,3.08,1.22,4.73Z"/><path class="cls-1" d="m740.06,312.96c-.1,1.39.15,2.7.97,3.86-5.82,2.6-10.89,7.18-17.94,6.71,5.66-3.6,12.02-5.97,16.97-10.57Z"/><path class="cls-1" d="m575.58,330.27c2.39-.23,2.53-2.08,1.93-3.56-1.16-2.83-3.41.45-5.02-.57,1.67-.38,1.63-3.54,4.53-2.29,2.92,1.25,1.54,3.42,1.58,5.08.09,3.49,2.86,6.98.14,10.49-1.03-.36-2.06-.71-3.08-1.07.08-1.69.15-3.37.23-5.06.12-.09.35-.2.34-.27-.04-.25-.16-.49-.26-.73l-.4-2.01Z"/><path class="cls-1" d="m549.31,294.5c.21-1.45,1.18-1.84,2.49-1.84,6.15.01,12.31-.01,18.46,0,2.94,0,.68,1.11.37,1.8-7.11.01-14.21.03-21.32.04Z"/><path class="cls-1" d="m499.48,353.67c2.06.32,4.12.65,6.18.97,0,0-.01,0-.01,0,2.32,1.99,5.1.62,7.64,1.02,1.89.29,4.03-.74,5.61,1.1-6.87,1.5-13.64,2.32-19.42-3.08Z"/><path class="cls-1" d="m548.35,334.28c-1.04.35-2.08.69-3.12,1.04.93-4.83-3.06-9.12-1.39-15.01,3.84,4.45,2.32,9.87,4.51,13.97Z"/><path class="cls-1" d="m581.71,317.15c6.26-.25,12.66-1.4,18.29,2.69-6.05-1.19-12.52.47-18.29-2.69Z"/><path class="cls-1" d="m624.34,305.97c5.71-2.03,11.47-1.42,17.24-.28-5.72,1.83-11.46,1.84-17.24.28Z"/><path class="cls-1" d="m476.22,164.78c-4.42,3.8-9.65,4.98-15.31,4.78,4.89-2.29,10.15-3.37,15.31-4.78Z"/><path class="cls-1" d="m543.18,336.52c-4.7,2.92-9.57,4.91-15.19,2.75,5.24.04,10.01-2.48,15.19-2.75Z"/><path class="cls-1" d="m706.44,249.97c-3.79-5.15-4.6-11.01-4.05-17.19,1.35,5.73,2.7,11.46,4.05,17.19Z"/><path class="cls-1" d="m564.76,178.85c3.07.38,2.58-2.53,3.66-3.99.51,3.5.11,6.69-3.28,9.36-.87-1.95-.65-3.66-.38-5.37Z"/><path class="cls-1" d="m704.5,325.32c-5.83.92-11.71,2.59-17.19-1.25,5.63,1.75,11.46.82,17.19,1.25Z"/><path class="cls-1" d="m664.01,314.89c-3.67,1.94-7.41,1.56-11.16.28,3.75.99,7.37-2.89,11.16-.28Z"/><path class="cls-1" d="m671.19,136.19c-2.55-4.49-2.15-9.42-2.12-14.29,1.57,4.64,1.76,9.48,2.12,14.29Z"/><path class="cls-1" d="m723.81,299.55c1.51-3.14,5.42-3.6,8.11-.96-2.7.32-5.41.64-8.11.96Z"/><path class="cls-1" d="m570.62,345.32c1.5-3.25,4.48-2.7,7.2-2.82-2.06,1.8-4.57,2.47-7.2,2.82Z"/><path class="cls-1" d="m732.89,298.91c1.66-1.54,3.16-2.12,4.11.68-1.39-.1-2.96.9-4.11-.68Z"/><path class="cls-1" d="m496.81,348.28c2.36,1.08,2.78,3.13,2.72,5.42-1.99-1.26-2.92-3.05-2.72-5.42Z"/><path class="cls-1" d="m606.08,144.2c.15,2.37-.38,4.19-3.29,4.12.34-1.97,1.83-3.03,3.29-4.12Z"/><path class="cls-1" d="m506.62,287.42c-.02,2.84-1.84,3.32-4.14,3.18,1.08-1.45,2.08-3,4.14-3.18Z"/><path class="cls-1" d="m661.02,86.41c-2.71-.34-5.57.87-8.16-.78,2.74.06,5.59-1.12,8.16.78Z"/><path class="cls-1" d="m683.28,322.06c-2.39,1.81-3.32.21-4.09-1.76,1.12,1.15,3.11.28,4.09,1.76Z"/><path class="cls-1" d="m677.24,319.03c-1.98-.09-4.08.09-4.87-2.4,1.62.8,3.25,1.6,4.87,2.4Z"/><path class="cls-1" d="m712.43,327.58c-.59-.76-1.17-1.51-1.76-2.27,1.19.02,2.72-.76,3.44.34.44.66-.9,1.42-1.68,1.93Z"/><path class="cls-1" d="m615.36,315.97c-1.84-.15-3.9.76-5.36-1.16,1.68.88,3.93-.9,5.36,1.16Z"/><path class="cls-1" d="m501.56,291.5c.05,1.57.13,3.17-2.17,3.1.06-1.5.94-2.42,2.17-3.1Z"/><path class="cls-1" d="m597.95,312.1c-1.66,1.32-3.31,1.3-4.98.02,1.66,0,3.32-.01,4.98-.02Z"/><path class="cls-1" d="m500.63,186.67c1.63-1.16,3.29-1.01,4.96-.09-1.65.03-3.31.06-4.96.09Z"/><path class="cls-1" d="m698.92,210.76c-2.13-1.42-1.31-3.61-1.43-5.55,1.77,1.52.61,3.79,1.43,5.55Z"/><path class="cls-1" d="m620.41,317c-1.74-.23-3.76.82-5.15-1.1,1.66.65,3.75-.76,5.15,1.1Z"/><path class="cls-1" d="m628.52,319.03c-1.43-.13-3.08.58-4.12-1.06,1.4.27,3.1-.67,4.12,1.06Z"/><path class="cls-1" d="m595.89,155.23c.08,1.58-.68,2.31-2.25,2.22.15-1.35.9-2.09,2.25-2.22Z"/><path class="cls-1" d="m670.13,315.98c-1.4-.09-2.95.51-4.1-.82,1.4.1,3.02-.88,4.1.82Z"/><path class="cls-1" d="m696.82,201.99c-2.21-.68-1.12-2.52-1.36-3.9,1.57.91.7,2.67,1.36,3.9Z"/><path class="cls-1" d="m633.07,320.01c-1.59-.12-3.38.67-4.62-1.03,1.48.62,3.42-.84,4.62,1.03Z"/><path class="cls-1" d="m587.94,310.9c-1.4-.1-2.94.51-4.1-.82,1.41.06,3.01-.82,4.1.82Z"/><path class="cls-1" d="m592.04,311.92c-1.45-.11-3.12.58-4.18-1.07,1.34.55,3.15-.72,4.18,1.07Z"/><path class="cls-1" d="m637.89,319.43c-1.56,2.31-3.13,2.26-4.72.03,1.57-.01,3.15-.02,4.72-.03Z"/><path class="cls-1" d="m667.04,96.54c-2-.51-.6-2.09-.97-3.12,1.47.68.73,2.05.97,3.12Z"/><path class="cls-1" d="m651.76,315.16c-.38,2.1-1.39,2.39-2.97,1.04.99-.35,1.98-.7,2.97-1.04Z"/><path class="cls-1" d="m565.61,157.4c-2.29.19-.52-1.51-1.01-2.16,1.05.39,1.01,1.29,1.01,2.16Z"/><path class="cls-1" d="m697.54,205.28c-1.37-.82-1.15-2.01-.73-3.24,1.36.83.4,2.18.73,3.24Z"/><path class="cls-1" d="m695.52,198.17c-1.35-.7-1.07-1.96-1.06-3.13,1.52.65.72,2.08,1.06,3.13Z"/><path class="cls-1" d="m694.51,195.12c-1.38-.73-1.08-2-1.02-3.19,1.45.71.66,2.13,1.02,3.19Z"/><path class="cls-1" d="m708.63,329.26c-.15-2.1,1.45-.55,2.08-1-.37,1.02-1.28.9-2.08,1Z"/><path class="cls-1" d="m708.65,256.01c-2.17.24-.52-1.43-1.01-2.03.98.35.93,1.22,1.01,2.03Z"/><path class="cls-1" d="m707.68,254.04c-1.34-.71-1.04-1.99-1.08-3.15,1.46.67.76,2.08,1.08,3.15Z"/><path class="cls-1" d="m693.58,192.05c-1.46-.63-1.14-1.93-1.15-3.1,1.3.69.92,2.01,1.15,3.1Z"/><path class="cls-1" d="m680.43,163.59c-1.51-.6-1.17-1.92-1.19-3.09,1.27.69,1.01,1.98,1.19,3.09Z"/><path class="cls-1" d="m591.84,159.36c-.3.41.77,1.94-.96,1.19.32-.4.64-.79.96-1.19Z"/><path class="cls-1" d="m687.37,324.12c-.88,0-1.7-.13-2.08-1.09.77.22,1.73.07,2.08,1.09Z"/><path class="cls-1" d="m679.29,160.57c-1.02-.44-1.08-1.33-1.04-2.26,1.06.43.92,1.4,1.04,2.26Z"/><path class="cls-1" d="m681.36,165.64c-1.02-.4-1.13-1.24-1.03-2.18,1.06.39.83,1.38,1.03,2.18Z"/><path class="cls-1" d="m666.14,93.51c-1-.37-1.14-1.19-1.1-2.11,1.12.31.92,1.31,1.1,2.11Z"/><path class="cls-1" d="m622.33,317.17c-.78.99-1.43.86-1.98-.22.66.07,1.32.15,1.98.22Z"/><path class="cls-1" d="m665.11,91.49c-1.02-.43-1.11-1.3-1.08-2.24,1,.44.86,1.42,1.08,2.24Z"/><path class="cls-1" d="m672.29,316.64c-.95.4-1.73.28-2.23-.72.74.24,1.49.48,2.23.72Z"/><path class="cls-1" d="m509.7,285.46c-.4.95-1.24,1.06-2.11,1.08.41-.94,1.32-.89,2.11-1.08Z"/><path class="cls-1" d="m479.24,163.83c-.41.25-.81.51-1.22.76.24-.53.55-.92,1.22-.76Z"/><path class="cls-1" d="m577.75,342.56c.29-.37.57-.73.86-1.1.12.69-.34.92-.86,1.1Z"/><path class="cls-1" d="m568.59,346.33c-.01-.28-.02-.56-.02-.84l.02-.02c.38.02.76.03,1.14.05-.19.53-.45.97-1.13.8Z"/><path class="cls-1" d="m511.67,340.38c-.51-.3-.74-.7-.44-1.28.64.26.56.76.44,1.28Z"/><path class="cls-1" d="m545.23,335.32c-.4.33-.79.65-1.19.98.4-.33.79-.65,1.19-.98Z"/><path class="cls-1" d="m501.57,246.04c.22-.15.44-.29.66-.44-.07.27-.13.55-.21.82-.26,0-.41-.13-.46-.38Z"/><path class="cls-1" d="m502.2,246.28c.78-.07,1.14.31,1.14,1.07-.38-.36-.76-.71-1.14-1.07Z"/><path class="cls-1" d="m710.66,328.3c.43-.25.86-.51,1.29-.76-.43.25-.86.51-1.29.76Z"/><path class="cls-1" d="m692.47,189c-.57-.23-.89-.62-.74-1.27.79.11.6.79.74,1.27Z"/><path class="cls-1" d="m678.29,320.06c-.37-.36-.74-.72-1.11-1.07.37.36.74.72,1.11,1.07Z"/><path class="cls-1" d="m517.86,186.59c.4-.44.72-.32.98.15-.33-.05-.65-.1-.98-.15Z"/><path class="cls-1" d="m508.72,186.63c.33-.44.66-.44.98.01-.33,0-.66,0-.98-.01Z"/><path class="cls-1" d="m546.23,153.86c-.35.2-.71.41-1.06.61.22-.44.4-.94,1.06-.61Z"/><path d="m475.19,387.94c.03-.64.05-1.28.08-1.92,1.34,1.13,1.33,1.41-.08,1.92Z"/><path d="m461.19,387.14c.27.26.55.52.82.78-.68.17-.92-.12-.82-.78Z"/><path d="m684.88,299.15c-4.17-2.84-9.07-2.84-13.78-3.54-1.84-3.48-3.41-7.05-3.24-11.12.14-.67-.31-.89-.82-1.08,0,0,.08.1.08.1-.69-1.65.86-3.78-1.09-5.16,0,0,.06.09.06.09-.63-1.66.77-3.75-1.09-5.15,0,0,.05.07.05.07-.61-1.67.85-3.76-1.05-5.16,0,0,.06.08.06.08-.61-1.67,1.06-3.81-1.06-5.17,0,0,.07.09.06.09-.67-1.66.83-3.77-1.09-5.16,0,0,.06.08.06.08-.68-1.66.9-3.78-1.07-5.17,0,0,.06.09.06.09-.65-1.69.78-3.72-.88-5.24,0,0,.11-.03.11-.03-.77-1.57.56-3.7-1.34-4.97,0,0,.05.08.05.08-.56-1.67.85-3.76-1.08-5.14,0,0,.04.06.04.06-.11-2.88-.37-5.72-2.06-8.2,0,0,.06.08.06.08-.5-1.34.63-3.11-1.08-4.13,0,0,.05.06.05.06-.31-1.06.49-2.49-1.05-3.13,0,0,.06.08.06.08-.3-1.4.74-3.14-1.08-4.14,0,0,.06.08.06.08-.54-1.34.65-3.12-1.07-4.15,0,0,.06.09.06.09-.55-1.33.64-3.12-1.08-4.15,0,0,.06.08.06.08-.1-1.34-.19-2.67-.29-4.01-.82-4.26-1.63-8.52-2.45-12.79.23-.24.28-.51.17-.82.56-.82.34-1.4-.55-1.77-.06-3-.13-6-.19-9,2.64-4.01,1.01-8.7,1.92-13.07,1.6-7.68,1.54-15.71,2.18-23.6.16-15.54.31-31.07.47-46.61,3.46-.91,3.86,2.58,5.7,3.99.83,3.4,1.66,6.81,2.49,10.21,0,3.34,0,6.69,0,10.03-.11,3.06-.21,6.13-.32,9.19-1.25,11.87-1.06,23.91-4,35.59-.31,2.14-.36,4.24.87,6.17-1.2,5.7-1.27,11.4,0,17.11-.59,1.32-1.44,2.58-.87,4.14,2.13,12.36,2.2,25.17,8.01,36.73,1.67,3.32,3.94,6.25,7.27,10.07-4.16-1.25-4.81-4.62-7.94-5.2,1.26,6.87,6.2,11.16,10.06,16.08,1.55,1.97,3.8,3.45,5.11,5.55,1.63,2.6-.9.7-1.42,1.03-1.99-1.73-4.08-3.3-6.99-4.47.43,3.77,2.74,5.55,4.88,7.44,0,0-.07-.06-.07-.06.12,2.92,4.31,3.57,4.09,6.93-2.47-1.17-4.01-3.57-8.02-3.83,2.83,2.66,3.47,5.61,6.1,7.08,2.63,4.62,8.27,5.79,11.36,9.89-.24.23-.45.48-.65.75-.86-.46-1.72-.92-2.58-1.38-.3-.15-.61-.26-.94-.33,0,0,.03.03.03.03-3.81-2.43-7.63-4.87-12.06-7.7,1.2,5.32,3.75,8.17,7.92,9.6,3.46,3.53,8.4,5.39,12.17,10.22-3.88-.1-5.77-2.06-8.05-3.01-3.82-1.47-6.68-4.79-11.41-6.16,3.06,4.3,5.01,8.65,10.24,9.46,0,0-.07-.1-.07-.1.19.54.49.92,1.15.76,1.33,1.22,2.81,2.33,3.91,3.73.34.43,1.41,1.62.41,2.32-.43.3-1.52-.32-2.3-.53-.46-.25-.91-.5-1.37-.75l.03-.15Z"/><path d="m679.06,168.85c4.07,7.11,7.56,14.48,10.11,22.28,2.14,6.88,2.93,14.05,5.72,20.86,1.88,4.59.5,10.23,1.48,15.37.55,2.9,1.14,5.73,2.25,8.45.09.68.18,1.35.26,2.03-.2.3-.25.62-.15.97-.29.62.03.93.57,1.12.05.34.15.66.32.96-.1,3.67,1.71,6.84,2.7,10.22,2.52,10.95,8.7,20.57,11.37,31.45.31,1.25,2.42,2.8.22,3.76-1.48.65-1.8-1.44-2.57-2.47-3.83-5.11-5.78-11.19-8.74-16.74-.03-.82-.13-1.61-1.01-2.01,0,0,.06.05.06.05-.81-4.26-2.28-8.3-4.16-12.2,0,0,.06.08.06.08-.34-1.06.59-2.42-.74-3.25,0,0,.03-.02.02-.02-.71-1.22.27-3.03-1.36-3.93,0,0,.06.09.06.09-.64-1.66.78-3.76-1.09-5.15,0,0,.05.07.05.07-.59-1.66.78-3.73-1.08-5.13,0,0,.04.05.03.05-.07-1-.13-1.99-.2-2.99-1.61-4.28-.23-9.2-2.79-13.28-.68-2,.83-4.38-1.09-6.16,0,0,.06.08.06.08-.66-1.66.9-3.78-1.06-5.17,0,0,.06.09.06.09-.64-1.66.79-3.76-1.09-5.15,0,0,.05.07.05.07-.08-.99-.16-1.98-.24-2.98-2.75-12.07-7.29-23.4-13.9-33.88-.38-.59-1.47-.97-.44-1.98.91-.89,1.69-1.01,2.55-.06,1.01,1.12,1.99,2.26,2.99,3.39-.16.66.23.94.76,1.14l-.05-.03Z"/><path d="m646.89,141.3c-.11.99-.23,1.98-.34,2.97-1.02,4.7-1.87,9.42-1.71,14.26-.07,2.34-.14,4.68-.21,7.02-3.21,3.97-3.17,8.62-2.79,13.34-.07.65-.14,1.3-.21,1.95-.66-.02-1.32-.04-1.98-.07-.4-.65-.8-1.29-1.2-1.94.06-4.03.13-8.05.19-12.08.83-.39,1.09-.94.54-1.75.13-.33.06-.61-.2-.85,1.9-10.26,2.44-20.68,3.52-31.03,0-2.01.01-4.01.02-6.02.46-1,1.59-1.78.99-3.12.09-2.01.18-4.03.26-6.04,1.73-1.25.67-3.06.9-4.6.27-1.83.19-1.84,2.88-3.16.24,2.99.73,5.94-.65,8.77,0,7.45,0,14.9,0,22.35Z"/><path d="m562.48,287.39c.31.12.62.19.95.21-1.86,3.96-5.38,1.25-8.04,2-1.17-1.34-2.61-.76-4-.58-2.4-.02-4.81-.04-7.21-.06-1.57-.2-3.12-.33-4.59.47-3.99.32-7.89.88-10.72,4.18,0,0,.06-.06.06-.06-1.39.12-2.53.56-2.79,2.16-1.42,1.21-2.32,4.85-4.35,3.02-1.81-1.64,1.42-3.42,2.6-5,3.96-5.29,10.06-6.62,15.9-8.4,7.44.19,14.92,0,22.19,2.06Z"/><path d="m567.48,212.66c-.07.3,0,.57.22.79.19,1.38-.85,2.97.72,4.11.11.65.22,1.3.33,1.94,1.09,5.74,3.22,11.12,5.71,16.37-.13,1.96,1.82,3.57.97,5.69-2.3-.92-3.27-3.11-4.73-4.8-.35-.37-.71-.74-1.06-1.12,0,0,.1.1.1.1-.22-.78-.03-1.77-1.08-2.12,0,0,.07.09.07.09-.17-.84-.01-1.83-1.08-2.23.08-.29.03-.56-.15-.8-.98-3.07-1.96-6.13-2.94-9.2,0,0,.05.06.05.06.3-3.13-.8-6.06-1.25-9.09.15-.29.22-.59.19-.92,1.69-1.02.55-2.83,1.14-4.15,3.04.13,1.51,2.65,2.11,4.05-.22.66.16.98.68,1.23Z"/><path d="m572.72,196.18c3-.02,1.63,2.31,1.92,3.68,1.75,8.1.14,16.57,2.82,24.56-2.51.44-2.26-2.21-3.65-2.92-.94-3.32-2.31-6.54-2.36-10.07,0-1.38,0-2.76-.01-4.13.1-2.35.21-4.7.31-7.05.57-.14.93-.43.73-1.09.08-.99.16-1.98.23-2.97Z"/><path d="m578.57,195.17c2.2-2.43.7-7.22,5.21-8.17-.71,9.13-1.41,18.26-2.12,27.39-1.64-1.32-.89-4-2.9-5.11-.06-4.7-.13-9.41-.19-14.11Z"/><path class="cls-1" d="m581.66,214.4c.71-9.13,1.41-18.26,2.12-27.39.16-.82.13-1.84,1.07-2.11.94-.27,1.04.58.95,1.22-1.26,9.11-.5,18.41-2.46,27.45-.08.38-1.1.56-1.68.84Z"/><path class="cls-1" d="m555.39,289.6c2.66-.75,6.18,1.96,8.04-2,3.17,1.12,1.79,2.37-.16,2.81-2.07.47-4.32.31-6.48.21-9.47-.46-18.8.21-27.92,2.99,2.84-3.29,6.73-3.85,10.72-4.18,1.56.18,3.16.67,4.59-.47,2.4.02,4.81.04,7.21.06,1.22,1.01,2.64.56,4,.58Z"/><path class="cls-1" d="m677.09,272.48c-2.63-1.47-3.27-4.42-6.1-7.08,4.02.26,5.55,2.66,8.02,3.83.22-3.36-3.98-4.01-4.09-6.93,3.84.23,5.21,3.9,7.82,5.82.89.66,1.22,3.29-1.59,2.57-2.01-.52-3.24-.05-4.06,1.78Z"/><path class="cls-1" d="m660.33,112.91c-.83-3.4-1.66-6.81-2.49-10.21,3.9.84,3.46,4.55,3.66,6.91.58,6.81.32,13.7.37,20.56,0,1.2-.73,1.79-1.85,1.96.11-3.06.21-6.13.32-9.19,1.03-3.34,1.04-6.69,0-10.03Z"/><path class="cls-1" d="m652.14,98.71c-.16,15.54-.31,31.07-.47,46.61-1.74-15.34-1.04-30.7-.32-46.05,0-.2.52-.37.79-.55Z"/><path class="cls-1" d="m646.89,141.3c0-7.45,0-14.9,0-22.35,1.44.23,1.85,1.18,1.84,2.5-.01,6.51.04,13.01-.02,19.52-.02,2.91-1.15.61-1.83.32Z"/><path class="cls-1" d="m562.48,287.39c-7.27-2.07-14.75-1.87-22.19-2.06,4.53-3.76,9.75-1.71,14.56-1.26,2.53.24,6.39-.67,7.62,3.32Z"/><path class="cls-1" d="m680.18,283.34c-4.16-1.42-6.72-4.28-7.92-9.6,4.44,2.83,8.25,5.27,12.06,7.7-1.37.01-2.74.02-4.12.03-.14-.14-.28-.27-.43-.41.13.15.27.29.4.44,0,.61,0,1.23,0,1.84Z"/><path class="cls-1" d="m683.13,293.85c-5.23-.81-7.18-5.16-10.24-9.46,4.73,1.37,7.59,4.7,11.41,6.16-.39,1.1-.78,2.2-1.17,3.3Z"/><path class="cls-1" d="m656.01,195.13c-.57-1.56.28-2.82.87-4.14,0-5.7,0-11.4,0-17.11-1.23-1.92-1.17-4.03-.87-6.17,1.48.22,1.86,1.21,1.85,2.54-.01,7.44-.01,14.89,0,22.33,0,1.33-.37,2.32-1.86,2.54Z"/><path class="cls-1" d="m574.45,235.87c-2.49-5.25-4.61-10.63-5.71-16.37,1.53-1.26,1.94.62,2.87,1.03,0,0,0,0,0,0-.39,4.31,1.56,8.05,2.92,11.93.4,1.13,1.75,2.32-.08,3.41Z"/><path class="cls-1" d="m644.84,158.53c-.16-4.84.69-9.56,1.71-14.26,1.98,4.46,1.16,11.26-1.71,14.26Z"/><path class="cls-1" d="m641.83,178.9c-.38-4.72-.42-9.38,2.79-13.34.56,4.56-1.31,8.91-1.11,13.5.09,2.14-1.07-.2-1.69-.15Z"/><path class="cls-1" d="m674.99,262.37c-2.14-1.89-4.45-3.67-4.88-7.44,2.92,1.17,5,2.74,6.99,4.47-.92.84-2.15,1.46-2.11,2.98Z"/><path class="cls-1" d="m697.49,252.95c1.88,3.9,3.35,7.93,4.16,12.2-5.17-2.77-3.3-7.95-4.16-12.2Z"/><path class="cls-1" d="m702.33,251.1c-.99-3.38-2.8-6.55-2.7-10.22,3.21,2.8,4.22,6.18,2.7,10.22Z"/><path class="cls-1" d="m578.57,195.17c.06,4.7.13,9.41.19,14.11-1.88-4.68-1.45-9.39-.19-14.11Z"/><path class="cls-1" d="m638.63,166.77c-.06,4.03-.13,8.05-.19,12.08-1.19-4.94-1.92-9.87.52-14.68.27.23.34.51.2.85-.18.59-.36,1.17-.53,1.75Z"/><path class="cls-1" d="m571.45,211.42c.05,3.53,1.42,6.75,2.36,10.07-.73-.32-1.47-.64-2.2-.96,0,0,0,0,0,0,.76-3.05-2.56-6.03-.17-9.11Z"/><path class="cls-1" d="m564.55,221.47c.98,3.07,1.96,6.13,2.94,9.2-3.62-2.22-2.71-5.89-2.94-9.2Z"/><path class="cls-1" d="m563.35,212.45c.45,3.03,1.54,5.96,1.25,9.09-1.21-2.92-3.21-5.73-1.25-9.09Z"/><path class="cls-1" d="m648.31,192.75c.11.31.06.58-.17.82-2.44-3.75-1.73-7.66-.57-11.59.06,3,.13,6,.19,9,.18.59.36,1.18.55,1.77Z"/><path class="cls-1" d="m655.89,229.59c1.69,2.48,1.96,5.32,2.06,8.2-2.19-2.36-2.18-5.27-2.06-8.2Z"/><path class="cls-1" d="m568.41,217.56c-1.56-1.14-.52-2.73-.72-4.11,2.84.91,2.27,2.42.72,4.11Z"/><path class="cls-1" d="m571.75,200.24c-.1,2.35-.21,4.7-.31,7.05-1.2-2.41-1.63-4.78.31-7.05Z"/><path class="cls-1" d="m698.89,237.83c-.09-.68-.18-1.35-.26-2.03,2.83.94,2.23,2.45.68,4.12-.54-.19-.86-.5-.57-1.12.12-.08.34-.17.34-.24-.02-.25-.12-.49-.18-.73Z"/><path class="cls-1" d="m643.76,117.95c-.09,2.01-.18,4.03-.26,6.04-1.22-2.07-1.5-4.1.26-6.04Z"/><path class="cls-1" d="m642.5,127.11c0,2.01-.01,4.01-.02,6.02-1.31-2.01-1.33-4.02.02-6.02Z"/><path class="cls-1" d="m689.38,213.33c1.92,1.78.41,4.16,1.09,6.16-2.09-1.75-.78-4.1-1.09-6.16Z"/><path class="cls-1" d="m658.93,242.8c1.89,1.27.57,3.4,1.34,4.97-2.41-1.13-.99-3.29-1.34-4.97Z"/><path class="cls-1" d="m661.98,258.03c1.91,1.4.41,3.51,1.09,5.16-1.92-1.39-.87-3.41-1.09-5.16Z"/><path class="cls-1" d="m694.44,240.77c1.87,1.4.45,3.49,1.09,5.15-1.91-1.39-.86-3.41-1.09-5.15Z"/><path class="cls-1" d="m663,263.1c2.12,1.36.46,3.5,1.06,5.17-1.89-1.41-.86-3.42-1.06-5.17Z"/><path class="cls-1" d="m664.01,268.19c1.9,1.4.44,3.49,1.05,5.16-1.87-1.41-.83-3.41-1.05-5.16Z"/><path class="cls-1" d="m665.01,273.28c1.86,1.4.46,3.49,1.09,5.15-1.9-1.39-.85-3.41-1.09-5.15Z"/><path class="cls-1" d="m660.16,247.79c1.66,1.52.22,3.55.88,5.24-1.89-1.48-.99-3.42-.88-5.24Z"/><path class="cls-1" d="m666.04,278.34c1.95,1.39.4,3.51,1.09,5.16-1.91-1.39-.88-3.41-1.09-5.16Z"/><path class="cls-1" d="m687.34,203.18c1.89,1.39.45,3.49,1.09,5.15-1.92-1.39-.86-3.41-1.09-5.15Z"/><path class="cls-1" d="m657.91,237.73c1.93,1.38.52,3.47,1.08,5.14-1.88-1.39-.83-3.4-1.08-5.14Z"/><path class="cls-1" d="m693.42,235.71c1.85,1.4.49,3.47,1.08,5.13-1.87-1.39-.83-3.4-1.08-5.13Z"/><path class="cls-1" d="m526.14,295.7c.25-1.59,1.4-2.04,2.79-2.16.11,2.06-1.28,2.18-2.79,2.16Z"/><path class="cls-1" d="m688.37,208.24c1.96,1.39.4,3.51,1.06,5.17-1.89-1.41-.86-3.42-1.06-5.17Z"/><path class="cls-1" d="m660.97,252.94c1.97,1.39.39,3.51,1.07,5.17-1.9-1.4-.86-3.42-1.07-5.17Z"/><path class="cls-1" d="m650.82,210.27c1.72,1.03.53,2.82,1.08,4.15-1.67-1.04-.97-2.7-1.08-4.15Z"/><path class="cls-1" d="m651.83,214.34c1.72,1.03.53,2.81,1.07,4.15-1.67-1.05-.96-2.7-1.07-4.15Z"/><path class="cls-1" d="m652.84,218.41c1.82,1,.78,2.75,1.08,4.14-1.68-1.04-.96-2.7-1.08-4.14Z"/><path class="cls-1" d="m564.69,207.38c-.6,1.32.55,3.13-1.14,4.15.13-1.45-.62-3.15,1.14-4.15Z"/><path class="cls-1" d="m650.6,206.35c.1,1.34.19,2.67.29,4.01-1.62-1.23-1.47-2.58-.29-4.01Z"/><path class="cls-1" d="m654.87,225.53c1.71,1.02.57,2.79,1.08,4.13-1.66-1.04-.95-2.69-1.08-4.13Z"/><path class="cls-1" d="m639.64,180.78c.66.02,1.32.04,1.98.07-.26.55-.46,1.51-.8,1.57-1.16.19-1.07-.86-1.18-1.63Z"/><path class="cls-1" d="m695.47,245.83c1.63.9.65,2.7,1.36,3.93-2.2-.7-1.14-2.53-1.36-3.93Z"/><path class="cls-1" d="m696.8,249.77c1.33.84.4,2.19.74,3.25-1.38-.82-1.15-2.02-.74-3.25Z"/><path class="cls-1" d="m693.25,232.77c.07,1,.13,1.99.2,2.99-1.37-.91-1.38-1.91-.2-2.99Z"/><path class="cls-1" d="m653.86,222.47c1.54.64.74,2.07,1.05,3.13-1.33-.71-1.05-1.97-1.05-3.13Z"/><path class="cls-1" d="m687.15,200.27c.08.99.16,1.98.24,2.98-1.41-.88-1.41-1.88-.24-2.98Z"/><path class="cls-1" d="m572.72,196.18c-.08.99-.16,1.98-.23,2.97-1.16-1.09-1.18-2.09.23-2.97Z"/><path class="cls-1" d="m701.59,265.1c.87.4.97,1.19,1.01,2.01-2.29.31-.51-1.42-1.01-2.01Z"/><path class="cls-1" d="m684.85,299.3c.46.25.91.5,1.37.75-.96.67-1.73,1-1.37-.75Z"/><path class="cls-1" d="m568.65,233.62c1.05.36.86,1.35,1.08,2.12-.99-.39-1.12-1.21-1.08-2.12Z"/><path class="cls-1" d="m567.64,231.48c1.06.4.91,1.39,1.08,2.23-1.02-.42-1.12-1.29-1.08-2.23Z"/><path class="cls-1" d="m567.48,212.66c-.52-.24-.9-.57-.68-1.23.23.41.45.82.68,1.23Z"/><path class="cls-1" d="m569.63,235.64c.35.37.71.74,1.06,1.12-.35-.37-.71-.74-1.06-1.12Z"/><path class="cls-1" d="m684.29,281.41c.33.07.64.18.94.33-.52.48-.77.19-.94-.33Z"/><path class="cls-1" d="m679.11,168.87c-.53-.19-.93-.48-.76-1.14.25.38.51.76.76,1.14Z"/><path d="m688.45,282.37l.52.91c-.39-.05-.78-.11-1.17-.16.19-.27.41-.52.65-.75Z"/><path class="cls-1" d="m667.04,283.4c.5.19.96.41.82,1.08-.27-.36-.54-.72-.82-1.08Z"/><path class="cls-1" d="m684.21,294.52c-.66.16-.96-.22-1.15-.76.38.25.77.51,1.15.76Z"/><path d="m547.91,162.31c.53-.84,2.27-.44,2.15-1.72-.13-1.47-1.54-.93-2.42-.94-4.22-.06-8.45.03-12.67-.07-1.55-.04-3.48.76-4.77-2.07,10.31.8,20.21-2.92,30.23.14,3.09,3.79.17,5.03-2.7,6.02-8.05,2.77-16.37,4.55-24.69,6.27-6.44,1.67-13.13,2.37-19.37,4.83,0,0,.1-.07.09-.07-1.67.71-3.82-.89-5.21,1.1-.31-.01-.61.05-.89.2-.66,0-1.32.01-1.98.02-18.27,3.51-36.5,7.33-55.24,7.61,2.22-.56,4.44-.95,6.52-1.87,6.15-1.1,12.6-.78,18.33-3.87,10.32.05,20.18-2.8,30.08-5.14,3.46-.82,7.24.04,10.41-2.05,5.99.23,11.37-2.88,17.26-3.2,2.5-3.75,7.31-1.23,10.25-3.79.72-.21,1.44-.42,2.16-.64,0,0,.19.06.19.05.61-.34,1.22-.69,1.82-1.03.1.16.25.23.45.21Z"/><path class="cls-1" d="m533.05,167.5c-5.89.32-11.27,3.43-17.26,3.2,3.31-3.52,14.61-5.62,17.26-3.2Z"/><path class="cls-1" d="m475.3,177.89c-5.73,3.09-12.18,2.77-18.33,3.87,4-3.43,9.13-2.84,13.81-3.84,1.44-.31,3.01-.03,4.52-.03Z"/><path class="cls-1" d="m513.67,174.76c6.25-2.46,12.93-3.15,19.37-4.83-4.4,3.96-10.2,3.48-15.42,4.83-1.24.32-2.63.01-3.96,0Z"/><path class="cls-1" d="m508.55,175.79c1.4-1.99,3.55-.39,5.21-1.1-1.41,1.91-3.45.88-5.21,1.1Z"/><path class="cls-1" d="m545.46,163.07c-.72.21-1.44.42-2.16.64.1-2.32,1.42-.5,2.16-.64Z"/><path class="cls-1" d="m505.69,176.02c.66,0,1.32-.01,1.98-.02-.65.94-1.31.95-1.98.02Z"/><path class="cls-1" d="m547.47,162.1c-.61.34-1.22.68-1.82,1.03,0-1.43.78-1.46,1.82-1.03Z"/><path d="m517.87,352.77c-.83-.17-1.7-.44-2.09.71-3.37.02-6.73.03-10.1.05-1.98-1.83-5.82-2.92-2.46-6.97,4.91,7.13,12,3.05,17.86,2.69,9.83-.6,19.73-2.05,29.34-4.72,3.32-.92,6.48-2.86,10.13-1.92-3.62,2.92-26.61,8.51-37.69,9.15-.68-.15-.92.31-1.13.81-.31-.02-.61.05-.89.2-.99,0-1.99,0-2.98.01Z"/><path d="m575.58,330.27c.13.67.26,1.34.4,2.01-.03.33-.05.67-.08,1-.08,1.69-.15,3.37-.23,5.06-.88.41-1.77.8-2.64,1.23-1.18.59-2.57,2.41-3.6.82-.83-1.29,1.38-1.46,2.25-2.11,1.88-1.4.94-3.38.89-5.03-.07-2.36.54-3.47,3.02-2.99Z"/><path class="cls-1" d="m505.68,353.53c3.37-.02,6.73-.03,10.1-.05-3.15,2.38-6.77.62-10.12,1.15,0,0,0,0,0,0,0-.37.01-.74.02-1.11Z"/><path class="cls-1" d="m517.87,352.77c.99,0,1.99,0,2.98-.01-.99,1.12-1.98,1.12-2.98.01Z"/><path class="cls-1" d="m568.56,345.5c-.14-.08-.29-.16-.43-.25.15.08.3.15.45.23,0,0-.02.02-.02.02Z"/><path class="cls-1" d="m521.74,352.56c.21-.5.45-.96,1.13-.81-.38.27-.75.54-1.13.81Z"/><path class="cls-1" d="m575.9,333.29c.03-.33.05-.67.08-1,.09.24.21.48.26.73.01.07-.22.18-.34.27Z"/><path class="cls-1" d="m656.88,173.89c0,5.7,0,11.4,0,17.11-1.27-5.7-1.2-11.41,0-17.11Z"/><path class="cls-1" d="m660.33,112.91c1.04,3.34,1.03,6.69,0,10.03,0-3.34,0-6.69,0-10.03Z"/><path class="cls-1" d="m648.31,192.75c-.18-.59-.36-1.18-.55-1.77.89.37,1.11.95.55,1.77Z"/><path class="cls-1" d="m698.89,237.83c.07.24.17.48.18.73,0,.07-.22.16-.34.24-.1-.35-.05-.67.15-.97Z"/><path class="cls-1" d="m638.63,166.77c.18-.58.35-1.17.53-1.75.56.81.3,1.37-.53,1.75Z"/><path class="cls-1" d="m555.39,289.6c-1.36-.02-2.79.43-4-.58,1.39-.18,2.83-.77,4,.58Z"/><path class="cls-1" d="m544.18,288.96c-1.43,1.13-3.02.65-4.59.47,1.46-.8,3.02-.67,4.59-.47Z"/><path class="cls-1" d="m680.18,281.5c-.13-.15-.27-.29-.4-.44.14.14.28.27.43.41,0,0-.03.03-.03.03Z"/></svg>