<svg width="1146" height="221" viewBox="0 0 1146 221" fill="none" xmlns="http://www.w3.org/2000/svg">
<path d="M795.33 132.039C796.66 130.259 796.11 128.479 796.11 126.849C796.08 101.459 796.02 76.0593 795.88 50.6693C795.87 48.7993 796.39 48.1793 798.21 47.9193C803.54 47.1593 808.85 47.3293 814.18 47.8393C817.47 48.1593 817.91 50.3193 817.9 53.0493C817.86 68.0593 817.89 83.0593 817.89 98.0693C817.89 118.699 817.9 139.339 817.88 159.969C817.88 165.489 817.23 166.129 811.62 166.199C807 166.259 802.35 165.839 797.78 166.309C792.29 166.879 788.5 164.239 786.75 159.869C783.71 152.259 778.77 145.729 774.59 138.949C768.66 129.309 763.6 119.149 757.22 109.779C753.08 103.689 749.09 97.4893 745.35 91.1493C743.59 88.1593 743.68 84.1993 740.46 81.5893C739.52 83.1593 739.92 84.8893 739.92 86.5093C739.89 111.039 739.91 135.569 739.89 160.099C739.89 165.879 739.59 166.159 733.74 166.209C731 166.229 728.26 166.229 725.52 166.199C720.9 166.139 718.97 164.469 718.38 159.949C718.2 158.529 718.24 157.069 718.24 155.629C718.24 122.869 718.24 90.1193 718.24 57.3593C718.24 49.3293 720.15 47.4093 728.14 47.3793C731.75 47.3693 735.38 47.6293 738.96 47.3093C742.62 46.9793 745.26 48.4493 746.84 51.3993C752.14 61.2893 759.16 70.1593 763.71 80.5293C766.36 86.5593 771.77 91.0393 774.47 97.1593C777.92 104.979 783.41 111.619 787.17 119.319C789.29 123.669 792.42 127.749 795.35 132.009L795.33 132.039Z" fill="black"/>
<path d="M1096.91 107.53C1096.91 110.7 1096.82 113.88 1096.93 117.05C1097.31 128.75 1091.72 138.28 1085.77 147.63C1081.23 154.76 1073.84 158.82 1066.79 162.57C1062.89 164.65 1058.15 166.67 1052.96 166.28C1046.5 165.81 1039.95 165.79 1033.49 166.28C1025.59 166.88 1019.49 162.7 1012.77 159.87C1008.59 158.11 1005.63 154.81 1001.84 152.59C998.73 150.77 997 147.37 995.14 144.33C991.5 138.38 989.56 131.68 987.03 125.25C986.58 124.1 986.72 122.69 986.72 121.39C986.68 113.74 986.86 106.09 986.61 98.4498C986.31 89.3198 989.9 81.5298 993.62 73.4598C997.4 65.2598 1004.28 60.3498 1010.48 54.6498C1012.98 52.3598 1016.8 52.5098 1019.94 51.0598C1031.6 45.7198 1044.25 46.6098 1056.35 48.0898C1063.84 49.0098 1070.87 53.3698 1077.34 58.2598C1083.36 62.8098 1086.56 69.2298 1091.27 74.5898C1091.86 75.2598 1091.76 76.4998 1092.18 77.3798C1096.38 86.2498 1097.55 95.6398 1096.95 105.33C1096.91 106.05 1096.95 106.77 1096.95 107.49C1096.94 107.49 1096.92 107.49 1096.91 107.49V107.53ZM1008.5 106.21C1007.75 118.96 1011.11 129.29 1018.78 138.48C1025.01 145.95 1033.93 147.15 1042.29 148.89C1045.17 149.49 1049.9 147.86 1053.33 146.38C1067.81 140.13 1073.85 127.9 1075 113.01C1075.57 105.63 1075.13 98.2898 1072.84 90.8898C1071.11 85.2998 1069.1 80.3798 1065.03 76.2598C1063.93 75.1398 1062.34 74.9598 1061.3 73.5498C1058.25 69.4198 1053.94 67.4298 1048.79 67.3798C1045.62 67.3398 1042.42 67.5698 1039.27 67.3198C1026.71 66.3198 1018.78 73.5098 1013.3 83.2698C1009.28 90.4198 1007.27 98.6398 1008.51 106.23L1008.5 106.21Z" fill="black"/>
<path d="M336.96 106.71C336.96 89.3997 336.96 72.0897 336.96 54.7697C336.96 47.4397 336.99 47.2997 344.53 47.4197C360.39 47.6697 376.26 47.6197 392.1 47.6097C399.93 47.6097 405.75 51.3197 412.1 53.8697C415.19 55.1097 418.22 58.7497 421.05 61.5197C422.18 62.6297 422.18 64.8997 422.69 66.6397C424.61 73.1597 427.29 79.4997 426.4 86.6097C425.43 94.2897 422.6 101.48 418.03 107.28C415.81 110.1 412.17 113.27 407.7 114.34C403.01 115.47 402.67 118.13 405.36 122.19C411 130.69 416.26 139.44 421.77 148.03C424.45 152.21 427.12 156.42 430.21 160.29C431.49 161.9 431.9 163.25 431.31 164.95C430.67 166.77 428.96 166.25 427.58 166.26C422.24 166.28 416.88 165.96 411.57 166.37C408.25 166.62 406.7 164.79 405.5 162.56C400.38 153.06 394.72 143.92 388.38 135.2C385.44 131.16 384.12 126.17 380.7 122.4C378.95 120.47 377.06 119.33 374.33 119.43C369.72 119.58 365.09 119.59 360.48 119.43C357.24 119.32 356.2 120.72 356.23 123.82C356.33 136.08 356.29 148.34 356.26 160.61C356.25 165.94 355.95 166.21 350.61 166.26C347.72 166.28 344.83 166.1 341.96 166.3C338.17 166.57 336.9 164.95 336.93 161.25C337.05 143.07 336.98 124.9 336.97 106.72L336.96 106.71ZM375.86 67.3397C370.96 67.3397 366.04 67.5097 361.15 67.2897C357.3 67.1097 356.08 68.7097 356.21 72.3897C356.42 78.2997 356.26 84.2197 356.26 90.1297C356.26 102.73 356.3 102.14 368.67 102.93C377.17 103.47 384.92 100.26 393.15 99.9597C393.92 99.9297 394.71 99.2997 395.42 98.8397C403.78 93.3797 405.77 87.6797 402.7 78.1497C400.32 70.7597 395.71 67.3697 387.98 67.3497C383.94 67.3397 379.9 67.3497 375.86 67.3497V67.3397Z" fill="black"/>
<path d="M587.36 107.291C587.36 89.3905 587.35 71.4905 587.36 53.6005C587.36 47.8705 587.79 47.4005 593.51 47.4205C618.62 47.5005 643.72 47.6505 668.83 47.7005C672.4 47.7005 674.3 48.9305 674.09 52.7405C673.96 55.0405 674.13 57.3605 674.05 59.6705C673.87 64.7805 671.32 67.3305 666.29 67.3405C649.26 67.3705 632.23 67.3405 615.19 67.3605C609.22 67.3605 609.11 67.4805 609.09 73.4005C609.07 79.4605 609.07 85.5205 609.09 91.5905C609.1 97.3905 609.25 97.5405 615.26 97.5405C627.53 97.5505 639.8 97.5405 652.07 97.5405C658.26 97.5405 658.35 97.8105 658.61 103.77C659.14 115.77 657.25 116.99 645.77 116.68C634.82 116.38 623.84 117.381 612.91 116.061C610.68 115.791 609.17 116.53 609.16 119.02C609.13 127.54 609.16 136.051 609.11 144.571C609.09 147.781 611.54 147.481 613.4 147.381C627.68 146.611 641.97 147.221 656.25 147.071C661.44 147.021 666.63 147.351 671.81 147.351C674.9 147.351 676.38 148.961 676.56 151.781C676.76 154.941 676.56 158.13 676.74 161.3C676.93 164.8 675.46 166.31 671.93 166.24C666.3 166.13 660.67 166.23 655.04 166.24C634.11 166.24 613.18 166.141 592.25 166.351C588.32 166.391 587.28 165.09 587.31 161.43C587.43 143.39 587.36 125.35 587.36 107.3V107.291Z" fill="black"/>
<path d="M283.36 91.5989C283.36 103.429 283.67 115.269 283.27 127.089C282.9 138.219 280.25 148.919 271.01 156.169C266.66 159.579 261.93 162.509 256.11 164.279C244.95 167.679 233.89 165.789 222.83 165.929C217.92 165.989 212.91 164.119 208.36 161.289C204.25 158.729 200.25 156.199 196.71 152.869C193.94 150.259 192.75 146.789 191.6 143.519C189.62 137.869 187.95 132.099 187.99 125.879C188.15 101.059 188.07 76.2489 187.96 51.4289C187.95 48.6489 188.74 47.4389 191.62 47.5389C195.94 47.6889 200.26 47.7189 204.58 47.6289C208.49 47.5489 209.84 49.3289 209.81 53.1789C209.68 71.0689 209.75 88.9589 209.76 106.849C209.76 112.189 210.28 117.589 209.64 122.849C208.92 128.699 211.4 133.629 213.8 138.169C216.5 143.279 222.04 145.969 227.84 146.889C231.22 147.429 234.77 146.799 238.21 147.069C243.63 147.489 247.94 145.929 252.41 142.519C258.93 137.539 261.69 131.429 261.68 123.599C261.68 100.519 261.68 77.4289 261.68 54.3489C261.68 48.0189 261.97 47.7089 268.09 47.5389C271.26 47.4489 274.44 47.4089 277.61 47.4289C282.86 47.4689 283.36 47.9289 283.38 53.0789C283.42 65.9189 283.39 78.7589 283.39 91.5989H283.38H283.36Z" fill="black"/>
<path d="M908.66 166.21C906.06 166.21 903.47 166.21 900.87 166.21C890.39 166.23 881.29 162.73 873.06 156.21C861 146.65 854.89 134.24 853.15 119.09C852.62 114.52 849.47 110.03 850.89 105.35C853.78 95.8204 853.15 85.4404 858.1 76.4204C860.85 71.4204 863.61 65.7204 867.54 62.4004C873.32 57.5304 879.75 53.1204 887.51 50.3304C899.29 46.0904 910.89 48.3004 922.57 47.6804C926.36 47.4804 928.66 50.4204 931.82 51.5404C934.69 52.5604 937.76 53.9304 940.6 55.5704C944.39 57.7604 946.6 61.0104 949.06 64.2504C951.02 66.8404 954.27 68.5604 954.1 72.5404C954.04 73.8404 956.5 74.8504 955.43 76.3104C954.3 77.8504 952.67 79.1704 951 80.1304C947.45 82.1804 943.33 82.9204 939.7 84.9604C936.28 86.8804 934.49 83.4504 932.56 81.6304C931.16 80.3204 930.3 78.3104 929.54 76.4804C927.37 71.2504 922.16 67.4504 916.65 67.3704C913.62 67.3204 910.58 67.4804 907.56 67.3204C897.28 66.8004 889.45 70.7904 883.5 79.2704C880.43 83.6304 879.81 88.8404 877.52 93.2404C874.1 99.8104 875.88 106.43 875.08 112.98C874.56 117.27 877.45 120.43 878.16 124.39C879.36 131.1 882.84 137.08 888.58 141.51C895.24 146.64 902.74 147.76 910.81 147.37C918.25 147.01 924.83 144.41 929.78 139.08C931.84 136.86 934.22 134.29 934.92 130.76C935.56 127.52 937.88 125.88 941.4 127.06C945.68 128.5 949.94 130.01 954.23 131.43C955.71 131.92 955.61 133.11 955.67 134.24C955.87 137.89 955.42 141.14 953.01 144.35C947.61 151.52 941.43 157.85 933.65 162.16C929.7 164.35 925.33 166.49 920.37 166.22C916.49 166.01 912.58 166.18 908.69 166.18V166.21H908.66Z" fill="black"/>
<path d="M467.82 106.66C467.82 88.7699 467.94 70.8899 467.72 52.9999C467.67 49.0199 469.02 47.5499 472.79 47.5899C477.11 47.6299 481.44 47.3399 485.76 47.4799C490.37 47.6299 491.95 49.4499 491.96 53.9799C492.01 77.7599 492.04 101.53 492.1 125.31C492.11 131.05 491.13 136.73 491.96 142.54C492.43 145.82 493.45 147.09 496.73 147.06C507.98 146.96 519.23 147.11 530.48 146.99C535.26 146.94 539.97 147.47 544.71 147.81C548.65 148.09 550.83 150.38 551.5 153.91C552 156.56 551.86 159.37 551.72 162.09C551.56 164.96 549.39 165.92 546.91 166.09C544.32 166.27 541.72 166.22 539.13 166.22C517.64 166.22 496.15 166.24 474.65 166.22C468.02 166.22 467.8 165.98 467.8 159.45C467.79 141.85 467.8 124.25 467.8 106.66H467.82Z" fill="black"/>
<path d="M116.38 116.75C106.71 116.75 97.0501 116.74 87.3801 116.75C83.2101 116.75 79.1201 120.32 77.0701 123.85C74.3401 128.57 74.6701 133.48 74.6501 138.46C74.6201 146.25 74.5801 154.04 74.6601 161.83C74.6901 164.91 73.5201 166.41 70.3301 166.25C68.1701 166.14 66 166.18 63.84 166.27C58.18 166.516 55.3501 163.763 55.3501 158.01C55.3501 146.9 55.6201 135.78 55.2401 124.69C55.0701 119.68 56.5201 115.35 58.8501 111.31C60.7801 107.96 60.9101 105.4 58.3001 102.43C56.0701 99.8896 55.31 96.7196 55.34 93.2196C55.45 79.6596 55.4501 66.0996 55.3001 52.5396C55.2601 49.0996 56.3201 47.3796 59.9201 47.5196C62.9401 47.6396 65.9701 47.4996 69.0001 47.5996C74.6001 47.7996 74.6201 47.8396 74.6301 53.6196C74.6501 62.1296 74.9101 70.6596 74.5301 79.1496C74.3101 84.1096 75.6101 88.5996 77.3701 92.9596C78.7901 96.4596 82.0001 97.6196 85.8201 97.5996C105.15 97.5096 124.48 97.5596 143.82 97.5696C147.987 97.5696 150.073 99.703 150.08 103.97C150.08 106.28 150.08 108.59 150.08 110.89C150.11 116.72 150.11 116.73 144.07 116.74C134.84 116.75 125.6 116.74 116.37 116.74L116.38 116.75Z" fill="black"/>
<path d="M118.13 80.459C109.48 80.459 100.83 80.339 92.1804 80.509C88.1904 80.589 86.3804 79.289 86.5104 75.059C86.7304 67.709 86.7004 60.359 86.5204 53.009C86.4304 49.059 88.2804 47.449 91.9304 47.459C109.51 47.499 127.1 47.629 144.68 47.609C148.84 47.609 150.2 49.539 150.12 53.479C149.99 60.829 150.07 68.179 150.22 75.529C150.29 79.009 148.88 80.499 145.36 80.459C136.28 80.359 127.2 80.429 118.12 80.429C118.12 80.439 118.12 80.449 118.12 80.459H118.13Z" fill="black"/>
</svg>
