<?xml version="1.0" encoding="UTF-8"?>
<svg id="Tahiliya" xmlns="http://www.w3.org/2000/svg" viewBox="0 0 1202.64 533.28">
  <defs>
    <style>
      .cls-1 {
        stroke-width: 0px;
      }
    </style>
  </defs>
  <path class="cls-1" d="m436.02,132.26c6.38-8.26,6.13-9.12-4.07-13.2,6.24-4.28,10.36-8.88-.45-13.46,7.88-4.55,9.42-9.01.46-13.71,4.8-3.86,12.99-7.27,1.1-13.35,9.01-3.27,13.88-7.33,4.49-14.58,11.72-1.61,12.34-2.52,8.86-11.78,10.65-1.94,10.95-2.4,6.84-12.02,9.06,2.17,14.19.29,9.19-10.13q9.09,2.72,10.15-7.42,9.56,4.78,10.13-6.73,8.93,4.78,9.33-6.26c5.44,4.77,11.11,9.57,12.49-2.45,8.97,5.98,10.33,5.65,14.36-3.5,4.5,4.49,9.25,8.72,12.12-2.62,5.53,9.63,9.8,7.36,12.91-1.05,8.01,12.86,7.65,9.04,14.31,2.24q5.67,11,13.83,3.63,2.2,11.31,12.2,5.44c.79,10.92,1.63,11.49,10.91,7.26.64,10.9,2.27,11.96,12.26,7.95-1.74,11.7-1.63,11.82,8.28,9.02,2.6,2.89-2.92,5.54-.17,8.64,2.92,3.3,5.82.75,8.74.22,2.19,3.46-2.96,6.19-.09,9.81,3.14,3.97,6.45.04,9.36,1.1,2.66,3.31-5.7,4.97-.98,8.72,3.04,2.41,6.08.38,9.08.87q-1.93,8.9,7.57,7.51-1.1,9.47,8.83,7.22c2.03,2.65-4.24,5.37.16,8.18,4.03,2.57,5.39-2.28,8.33-2.53q1.69,7.05,9.74,2.22c1.72,1.54.09,3.21.2,4.8.24,3.3,2.1,4.56,4.02,1.47,3.89-6.25,5.12-2.22,6.46,1.8,2.51-1.21,2.43-9.8,7.08-2.44.65,1.02,3.05.73,2.98.28-1.41-9.13,8.1-2.47,9.59-6.74.47-1.34-.62-3.22-.99-4.82,3.17-2.28,4.63,2.37,7.16,1.32,1.62-2.63-5.03-6.8-9.74-6.15-1.09.15-2.13.86-3.17-.09,3.32-12.11,2.79-14.15-5.57-20.37,6.82-4.62,14.05-9.19,6.31-20.25,9.42,2.82,16.62,3.27,15.65-9.67,6.49,5.7,12.09,8.79,14.15-4.06,4.76,8.98,8.66,16.14,19.01,9.54-1.24,10.56,4.02,12.87,12.44,11.02-3.67,10.87-3.28,11.74,6.52,15.34-4.85,8.59-4.68,9.23,3.91,15.21q-6.69,5.71.1,12.36c-8.64,6.27-8.64,6.34-.68,12.2-1.22,4.25-6.84.75-8.25,4.61-1.69,4.63,2.89,5.46,6.07,8.2-7.24,2.44-15.77,4.17-5.71,12.67-10.52,3.04-11.15,4.34-6.78,12.92-2.26,3.15-6.84-1.18-9.07,2.89-2.11,3.85,1.97,5.61,2.38,9.33-6.97-.9-13.87-1.12-8.26,9.23-10.22-.88-11.11.14-9.91,10.47-2.98,2-5.46-2.97-8.75-.49-3.67,2.77-.82,5.76-.92,9.39-5.96-.79-13.79-3.52-11.33,7.46-3.2,2.42-5.51-3.19-8.86-.26-2.97,2.6-.54,5.39-1.29,8.86-5.93-3.41-11.43-5.23-12.26,4.29-.12,1.35-1.73,1.27-2.78.5-8.74-6.46-7.16,2.19-9.13,6.6-5.91-4.32-11.1-5.28-12.53,5.04-5.97-5.38-11.03-7.08-12.24,2.95-8.95-5.58-10.13-6.12-12.75,3.91-5.06-3.51-11.05-11.72-13.65,2.98-5.4-7.36-9.85-9.12-12.8-.05-4-.49-3.25-6.01-7.91-5.89-4.66.11-3.43,4.98-6.29,6.06-6.57-8.24-6.69-8.24-12.87.28-3.14-4.19-5.97-13.37-11.59-.8-3.6-7.22-7.41-13.15-12.91-2.19q-4.92-9.98-11.59-2.46c-3.99-1.41.26-7.16-4.42-8.29-4.49-1.08-4.67,4.65-8.16,5.13-2.98-10.37-3.7-10.64-11.45-4.47-3.29-10.04-4-10.2-12.5-2.82-3.3-2.22.91-7.05-3.16-9.03-4.29-2.09-4.6,3.65-7.81,3.83-3.54-1.84,1.07-6.89-3.53-8.63-4.42-1.67-5.22,4.21-8.87,3.7-.33-10.87-.6-11.05-10.61-7.08-.6-10.71-1.65-11.51-11.96-9.09,1.5-10.03-.12-11.67-10.31-10-1.27-3.05,4.13-5.48.52-9.19-3.23-3.32-6.59-.19-9.81-1.65,2.28-4.99,6.42-10.79-4.09-10.55-1.71.04-3.38-1.16-2.1-2.54,7.5-8.06.24-9.69-5.44-11.79Zm121.57,35.77c-.57.06-1.15.13-1.72.19-1.17.04-2.34.08-3.5.12-.54.57-1.08,1.13-1.63,1.7-3.44,2.06-6.89,4.11-10.33,6.16-1.85,1.1-5.3.9-4.93,3.85.32,2.54,3.47,2.65,5.58,3.27,18.54,5.5,37.41,9.87,56.66,11.46,30.21,2.5,59.01-3.57,86.23-17,3.27-1.62,3.99-3.08,3.44-7.24-.54-4.07-7.96-5.74-3.57-11.08.2-.24-2.38-1.02-3.82-.83-1.68.22-3.58.15-3.5,2.71.04,1.42,0,2.86-.15,4.27-.46,4.01-.75,7.86-5.54,9.74-5.04,1.98-6.55-1.78-9.01-4.42-4.05-4.34-9.54-7.95-14.88-5.55-4.19,1.89-7.69.12-10.5.77-7.21,1.68-13.92,4.37-21.38,1.65-.25-.09-.92.65-1.23,1.12-3.82,5.77-8.09,6.92-13.27,1.55-1.49-1.55-4.09-2.49-5.39-.63-6.78,9.73-13.56,6.1-20.65.58-.74-.58-2.24-.2-3.39-.26-.36-.04-.72-.04-1.08,0-1.28-.12-2.57-.23-3.85-.35-1.07-3.5-2.68-5.96-6.83-3.54-.58.58-1.17,1.17-1.75,1.75Zm166.23-72.58c-11.91,7.44-23.37,15.84-38.45,15.7-3.98-.04-4.28,2.76-3.55,6.11,2.28,10.45,5.76,20.47,11.38,29.56,11.96,19.33,15.3,19.35,29.99,1.23,3.71-4.58,6.61-8.93,1.42-14.27-1.31-1.35-2-2.97-.64-4.57,1.46-1.72,3.36-1.03,4.55.23,6.08,6.42,7.98.87,10.29-3.47,9.44-17.76,9.48-18.06-9.62-21.87-5.97-1.19-8.3-2.9-5.45-8.74,7.46-1.46,13.53,3.61,20.56,4.39,6.64.74,6.64-3.45,7.25-7.93.87-6.4-3.95-3.86-6.74-4.58-2.42-.62-6.22,3.61-7.15-1.13-.87-4.4,3.69-4.22,6.58-5.02,1.37-.38,2.87-.31,4.25-.66,3.51-.9,3-3.81,2.83-6.32-.17-2.54-.76-6.87-3.08-6.28-5.79,1.48-13.51,3-15.83,8.03-2.95,6.39-7.29,12.41-8.59,19.59Zm-261.66-27.82c11.45,4.71,11.1-5.08,15.42-8.62,3.48-2.85,2.57-6.02-.55-8.72-3.68-3.18-5.11.64-6.77,2.48-15.41,17.14-20.71,37.43-17.74,59.91,1.59,12.06,5.56,23.46,12.69,33.55,1.75,2.49,3.66,4.62,7.1,2.74,1.67-.91,3.25-2.75,1.95-4.09-4.63-4.74-2.62-14.74-14.34-14.66,10.81-7.16,3.92-9.84-2.01-13.04,8.26-5,6.88-9.17-.69-12.41,1.6-3.05,6.08-2.23,6.1-6.09.02-3.48-4.78-2.89-4.92-6.14,2.53-1.23,5.62-.61,7.03-4.2,2.05-5.21-4.44-5.23-4.93-8.76,8.95-1.8,9.02-2.05,1.67-11.94Zm70.76,71.52c-1.07-.75-1.88-1.54-2.84-1.95q-8.63-3.65-4.62-11.72c.88-1.77-.36-2.8-1.55-3.41-6.75-3.48-6.78-7.8-1.82-12.86,1.06-1.08,2.26-2.67,1.16-3.71-4.63-4.42.62-6.38,3.21-9.52-2.24-.21-3.69-.81-4.38-.33-4.75,3.28-8.88,8.32-15.67,4.1-.79-.49-3.07.29-2.69,1.26,2.34,6.01-.58,13.44,2.07,18.01,3.21,5.54,6.91,11.12,10.35,16.71,3.6,5.86,9.66,7.3,16.79,3.43Zm115.36-40.71c-2-.09-2.96.46-2.92,1.85.06,1.78.73,3.38,2.33,4.36,2.34,1.43,6.08,1.39,6.43,4.98.93,9.52,9.17,15.54,11.44,24.4.64,2.49,3.06,3.38,5.36,3.78,1.83.32,4.37-1.74,3.36-2.32-5.1-2.93,1.54-10.12-4.84-12.13-1.12-.35-2.36-1.3-.63-2.18,6.67-3.4-4.06-8.19,1.04-11.61-7.37-3.81-14.75-7.62-21.58-11.15Zm-7.56,20.76c-.35-2.9-2.13-4.43-4.23-5.37-3.74-1.67-6.66.81-7.82,3.49-2.96,6.79-9.07,9.97-14.33,14.22-5.21,4.2-9.03,9.62-12.21,15.41-1.09,1.99-3.16,5.05.52,6.54,2.91,1.17,5.69.22,6.86-3.23,3.56-10.51,10.77-17.16,21.14-21.09,4.6-1.74,7.23-6.29,10.07-9.96Zm-69.79-11.71c-1.36.26-2.23.34-3.04.6-9.09,2.95-21.36,26.94-18.67,36.39.59,2.06,1.5,3.92,3.78,4.15,3.07.31,2.56-2.36,3.01-4.17,3.01-12.31,6.66-24.28,17.4-32.47.97-.74,1.75-1.96.81-2.89-.91-.9-2.42-1.21-3.3-1.61Zm-36.82-41.89c4.25,2.42,7.15,4.21,10.18,5.74,1.7.86,3.9,2.48,5.47.51,1.62-2.03,1.74-4.88.84-7.37-.75-2.08-2.65-3.13-4.86-2.58-6.49,1.62-14.89-2.8-19.18,6.15-.59,1.24-2.95,1.57-4.41,2.46-2.01,1.24-6.3.05-5.91,3.49.36,3.18,3.8,5.05,7.02,5.42,4.13.47,8.37,1.47,11.96-2.46,3.54-3.88-.05-6.8-1.11-11.36Zm31.39,84.26c-.13,2,.46,3.4,2.26,3.5,2.63.14,3.31-1.89,3.86-3.85,3.61-12.92,8.59-24.99,20.17-33.1.82-.57,1.74-1.9,1.61-2.73-.24-1.56-1.89-2.01-3.32-2.22-3.16-.47-5.47,1.16-7.67,3.15-10.08,9.14-14.75,20.94-16.91,35.25Zm21.01,5.26c1.52-.42,2.91-1.39,3.44-3.17,3.34-11.26,9.45-20.73,18.23-28.53,1.02-.91,2.32-2.19,1.49-3.69-1.1-1.96-2.9-1.06-4.52-.55-9.65,3.03-22.58,21.05-22.67,31.52-.02,2.67.65,4.52,4.03,4.41Zm-16.84-57.41c.44,2.54-.83,6.62,3.58,7.23,4.26.59,4.72-3.34,5.58-6.32,1.43-4.95,2.27-10.06,4.91-14.64,1.3-2.25,4.16-5.01.02-7.19-3.94-2.07-7.01-1.16-9.06,3.21-2.59,5.53-4.25,11.25-5.03,17.71Z"/>
  <path class="cls-1" d="m601.64,511.89c-183.24,0-366.48,0-549.72,0-2.6,0-5.21-.2-7.79.03-7.34.64-10.31-2.26-10.15-9.92.4-19.29.13-38.6.13-57.9,0-90.17,0-180.33.01-270.5,0-12.32.11-12.45,12.63-12.45,102.15-.02,204.31-.03,306.46.08,3.96,0,11.04-1.93,11.06,3.08.03,6.29-7.2,3.69-11.23,3.7-100.13.16-200.26.12-300.4.13-12.46,0-12.49.03-12.49,12.35,0,103.99,0,207.98,0,311.98q0,12.22,12.52,12.25c365.9,0,731.8,0,1097.71,0q13.03,0,13.06-12.65c0-103.7,0-207.41,0-311.11q0-12.79-12.97-12.81c-99.84,0-199.69.03-299.53-.11-4.18,0-11.59,2.28-11.73-3.2-.15-5.88,7.25-3.58,11.35-3.58,102.15-.14,204.3-.11,306.46-.1,13.25,0,13.52.27,13.52,13.56.01,107.74,0,215.47,0,323.21,0,13.86-.1,13.96-13.98,13.96-184.97,0-369.94,0-554.91,0Z"/>
  <path class="cls-1" d="m601.56,533.1c-190.43,0-380.86,0-571.29,0-2.89,0-5.8-.27-8.65.05-7.62.85-9.95-2.46-9.94-9.93.17-124.43.17-248.86,0-373.29,0-7.31,2.03-10.16,9.79-10.14,111.66.2,223.32.13,334.98.14,1.73,0,3.47.07,5.18.28,1.51.19,2.91.94,2.88,2.63-.03,1.64-1.41,2.54-2.91,2.65-3.16.24-6.33.33-9.5.33-107.04.02-214.09.01-321.13.02q-13.19,0-13.2,13.24c0,118.67,0,237.34,0,356.01,0,12.06.03,12.1,11.74,12.1,381.44,0,762.87,0,1144.31,0,11.92,0,11.96-.04,11.96-11.93,0-119.25.01-238.49,0-357.74,0-11.65-.04-11.68-12.22-11.68-107.33,0-214.67.02-322-.11-4.24,0-11.89,2.22-11.97-2.68-.09-5.67,7.41-3,11.46-3.01,109.06-.17,218.13-.13,327.19-.13q13.53,0,13.56,13.07c0,122.41.01,244.83,0,367.24,0,12.84-.04,12.87-12.91,12.87-192.45,0-384.9,0-577.35,0Z"/>
  <path class="cls-1" d="m394.53,343.23c0-11.22,0-22.45,0-33.67,0-5-.52-10.23,7.07-10.01,7.37.21,6.95,5.44,7,10.4.06,6.62.15,13.24.04,19.86-.09,5.12,2.3,6.91,7.33,7.24,27.17,1.8,27.16,1.9,27.38-25.26.02-2.01.07-4.03.17-6.04.24-4.85,3.28-6.28,7.6-6.19,4.24.08,6.3,2.12,6.3,6.41-.03,25.04-.04,50.08,0,75.11,0,4.7-2.16,6.68-6.86,6.71-4.64.03-7.08-1.82-7.11-6.53-.05-7.77-.28-15.54-.07-23.31.16-5.92-2.32-8.25-8.23-8.13-32.12.65-25.78-4.62-26.52,25.21-.04,1.73-.06,3.45-.05,5.18.05,4.72-1.55,7.59-6.99,7.59-5.33,0-7.09-2.57-7.05-7.46.09-12.37.03-24.75.03-37.13h-.04Z"/>
  <path class="cls-1" d="m1070.64,387.77c-4.92.71-7.09-2.69-8.97-6.99-8.4-19.16-8.46-18.95-29.19-18.86-6.01.02-9.85,1.64-11.68,7.68-1.24,4.11-3.51,7.91-4.9,11.98-1.86,5.42-5.76,6.51-10.87,6.25-4.49-.23-5.57-2.2-4-6.14,10.31-25.97,20.63-51.93,30.93-77.9,1.35-3.4,3.81-4.76,7.43-4.65,3.34.1,5.38,1.68,6.56,4.65,10.31,25.97,20.64,51.93,30.93,77.9,2.35,5.93-1.57,6.17-6.22,6.09Zm-31.97-64.92c-2.93,7.96-4.99,13.95-7.35,19.81-2.04,5.07-.33,6.98,4.86,6.68,2.59-.15,5.19-.03,7.78-.12,2.39-.08,4.12-1.17,3.32-3.76-2.22-7.22-3.97-14.67-8.61-22.6Z"/>
  <path class="cls-1" d="m322.84,387.71c-5.39.73-7.37-2.9-9.21-7.14-8.25-19.01-8.3-18.78-29.34-18.67-6.14.03-9.7,2.01-11.55,7.89-1.38,4.37-3.65,8.46-5.29,12.76-2.35,6.17-7.48,5.75-12.31,4.93-4.7-.8-2.63-4.28-1.65-6.79,5.25-13.41,10.62-26.77,15.93-40.16,4.57-11.51,9.13-23.03,13.65-34.56,1.41-3.6,2.86-6.82,7.68-6.89,4.72-.07,6.5,2.75,7.97,6.48,9.84,24.92,19.65,49.84,29.68,74.68,2.41,5.97.63,8.1-5.57,7.47Zm-30.63-63.45c-.65-.02-1.29-.03-1.94-.05-2.45,6.6-4.95,13.18-7.32,19.81-.81,2.28-1.13,4.91,2.31,5.06,4.48.19,9.83,1.99,13.23-1.02,3.08-2.73-.62-6.83-1.57-10.22-1.28-4.61-3.12-9.06-4.72-13.58Z"/>
  <path class="cls-1" d="m547.44,387.78c-5.19,0-10.38-.08-15.56.02-4.52.09-7.07-1.66-7.11-6.5-.03-4.47,1.79-7.66,6.44-7.27,9.51.8,10.8-4.32,10.53-12.15-.46-13.22-.32-26.47-.05-39.69.12-6.07-1.68-9.33-8.3-8.79-4.73.38-8.67-.47-8.63-6.69.03-5.88,3.51-7.26,8.44-7.25,10.09.03,20.17,0,30.26.03,4.57.01,7.82,1.4,7.97,6.81.15,5.25-2.38,7.45-7.34,7.09-6.5-.48-8.56,2.72-8.46,8.81.22,14.09.18,28.19.02,42.29-.07,5.74,1.34,9.58,8.07,9.37,5.28-.17,7.96,2.33,7.71,7.9-.26,5.8-4.13,6.08-8.42,6.05-5.19-.03-10.37,0-15.56,0v-.03Z"/>
  <path class="cls-1" d="m780.93,387.79c-5.19-.01-10.38-.07-15.57,0-4.42.06-7.05-1.45-7.21-6.4-.16-5.07,1.89-7.79,6.99-7.51,6.92.38,8.96-2.99,8.83-9.44-.29-14.1-.27-28.22,0-42.32.11-6.16-1.94-9.25-8.44-8.75-4.94.38-7.4-1.79-7.39-7.06.01-5.52,3.1-6.86,7.74-6.85,10.09.02,20.19.02,30.28,0,4.69,0,7.65,1.48,7.64,6.96-.01,5.35-2.67,7.33-7.51,6.96-6.6-.5-8.43,2.78-8.32,8.84.26,14.1.21,28.21.02,42.32-.08,5.74,1.17,9.65,8,9.29,5.23-.28,8.03,1.87,7.81,7.63-.22,5.71-3.7,6.4-8.15,6.35-4.9-.06-9.81-.01-14.71-.02Z"/>
  <path class="cls-1" d="m903.41,387.69c-4.25.23-7.37-1.66-6.57-5.92,4.86-25.93-9.45-45.07-22.45-64.74-1.43-2.16-3.12-4.24-4.09-6.6-1.33-3.24-7.27-6.78-1.95-9.96,4.33-2.58,10.26-2.14,13.75,3.29,5.14,8,10.24,16.02,15.24,24.11,5.95,9.63,5.93,9.69,12.2-.19,4.48-7.05,8.8-14.21,13.28-21.25,1.22-1.92,2.44-4.16,4.26-5.33,3.85-2.49,8.91-3.06,12.27-.51,3.85,2.91-.68,6.07-2.21,8.7-4.2,7.21-8.21,14.68-13.41,21.15-11.36,14.12-14.9,29.97-13.08,47.58.52,5.02.26,10.35-7.25,9.68Z"/>
  <path class="cls-1" d="m150.37,350.82c0-10.06-.11-20.13.05-30.19.08-5.14-2.11-7.37-7.23-7.17-4.02.16-8.06-.08-12.09-.04-4.66.05-6.75-2.13-6.78-6.83-.03-4.61,1.84-7.1,6.55-7.11,17.86-.02,35.71-.02,53.57.02,4.33.01,6.06,2.49,6.08,6.64.02,4.38-1.37,7.31-6.34,7.25-.86-.01-1.73.05-2.59.06-17.81.11-17.11-2.63-17.1,17.32.01,16.39-.05,32.78,0,49.17.02,5.21-1.1,9.1-7.53,9.03-6.28-.07-6.59-4.16-6.56-8.81.07-9.78.02-19.55.02-29.33h-.05Z"/>
  <path class="cls-1" d="m638.71,343.53c0-10.92-.12-21.84.06-32.75.08-4.83-1.76-11.17,6.65-11.2,8.64-.02,7.33,6.41,7.36,11.68.1,17.52.29,35.05-.07,52.57-.16,7.46,2.51,10.44,10.02,10.04,7.75-.41,15.53-.03,23.3-.02,5.1,0,7.13,2.55,6.97,7.59-.16,4.96-2.86,6.37-7.25,6.35-13.24-.05-26.48-.13-39.71.03-5.81.07-7.39-2.96-7.34-8.1.12-12.07.04-24.13.04-36.2h-.03Z"/>
  <path class="cls-1" d="m559.3,173.18c-.57-.58-1.15-1.16-1.72-1.74-.02-1.16-.03-2.32-.05-3.47.58-.58,1.17-1.17,1.75-1.75,2.92.58,4.67,2.32,5.24,5.24-.58.58-1.16,1.16-1.74,1.74-1.16,0-2.32-.01-3.48-.02Z"/>
</svg>