<?xml version="1.0" encoding="UTF-8"?>
<svg id="Layer_22" data-name="Layer 22" xmlns="http://www.w3.org/2000/svg" viewBox="0 0 1202.64 533.28">
  <defs>
    <style>
      .cls-1 {
        stroke-width: 0px;
      }
    </style>
  </defs>
  <g>
    <path class="cls-1" d="m907.96,409.36c6.02,10.52,11.77,20.57,17.52,30.62.97-.2,1.94-.39,2.9-.59,5.5-13.81,10.93-27.66,16.53-41.43,2.42-5.95,4.86-11.92,7.84-17.6,3.8-7.25,7.18-7.47,10.53,0,7.02,15.62,13.18,31.62,19.68,47.48,1.83,4.46,3.61,8.95,5.71,14.15h-16.08c7.32-12.82,1.59-22.84-12.3-22.85-2.15,0-4.37-.37-6.42.08-4.4.95-11.26,1.11-12.51,3.76-2.44,5.18-1.71,11.85-2.41,19.07h-30.21c9.18-12.38-1.47-19.55-7.4-26.6-2.98-3.54-11.05-2.79-19.23-4.48,1.31,12.28,2.27,21.35,3.29,30.93h-12.97c4.17-22.09,3.51-43.61.23-67.41,12.5.78,26.44.48,39.91,2.87,10.64,1.89,13.35,15.3,5.74,23.42-2.85,3.04-6.44,5.4-10.34,8.59Zm-24.3-.22c8.6-2.66,16.56-4.02,23.27-7.66,3.25-1.77,5.98-8,5.6-11.88-.31-3.17-5.16-7.47-8.75-8.4-6.23-1.62-13.04-1.03-20.11-1.4v29.34Zm74.5-22.99c-.89,0-1.79,0-2.68.01-3.81,8.8-7.62,17.6-11.87,27.41h26.31c-4.27-9.96-8.01-18.69-11.76-27.42Z"/>
    <path class="cls-1" d="m700.37,375.79c-1.03,5.12-2.68,9.86-2.8,14.63-.37,14.72-.13,29.45-.19,44.18-.01,2.85-.32,5.71-.6,10.23-15.21-20.73-29.28-39.9-43.36-59.08-1.13.55-2.25,1.11-3.38,1.66,2.87,17.75-3.87,36.5,5.04,54.45h-15.71c7.96-9.21,7.53-56.96-.82-65.65,7.73-1.59,14.3-2.79,19.6,4.7,5.11,7.24,11.09,13.86,16.44,20.94,5.32,7.04,10.35,14.31,16.41,21.22.71-15.77,2.6-31.43-.92-47.28h10.28Z"/>
    <path class="cls-1" d="m257.76,374.41c10.23.56,21.91.02,33.11,2.1,15.89,2.94,25.88,18.5,24.35,35.01-1.66,17.95-12.35,29.17-29.61,30.16-10.24.58-20.53.11-29.63.11,6.04-21.83,3.17-43.5,1.79-67.37Zm9.33,32.58h.49c0,7.97-.03,15.93.01,23.89.03,5.84,3.15,7.78,8.82,7.82,17.77.13,30.12-10.95,30.24-27.61.15-20.83-10.88-32.36-30.37-32.08-6,.09-9.26,2.38-9.2,8.65.06,6.44.01,12.88.01,19.33Z"/>
    <path class="cls-1" d="m568.2,408.76c.67-22.3,13.54-35.76,33.53-35.03,19.84.71,31.86,15.63,31.08,38.59-.6,17.59-14.88,32.6-30.87,32.44-21.2-.22-34.38-14.28-33.73-36Zm8.67,1.69c.12,1.93.06,5.94.7,9.85,1.65,10.13,10.78,18.68,20.43,19.52,11.3.99,20.99-4.67,23.37-16.21,1.86-9.01,2.33-19,.46-27.93-2.96-14.1-14.93-20.24-27.8-16.49-11.41,3.33-16.55,12.12-17.15,31.27Z"/>
    <path class="cls-1" d="m794.31,392.95c-14.29-16.71-26.25-19.32-38.54-9.85-8.56,6.6-11.08,16.04-11.85,25.87-1.6,20.39,15.49,35.17,34.68,30.56,9.68-2.32,15.9-15.37,10.14-23.29-2.27-3.13-8.09-3.68-12.38-7.38,5.54,0,11.14-.48,16.57.27,1.79.25,4.29,3.55,4.49,5.65.54,5.76.71,11.73-.21,17.41-1.51,9.32-10.75,9.41-17.07,11.3-17.41,5.2-36.95-4.07-42.23-18.65-7.08-19.57-.37-39.01,17.1-47.79,11.03-5.53,22.61-4.59,33.82-.15,6.81,2.7,6.41,8.57,5.48,16.05Z"/>
    <path class="cls-1" d="m432.58,374.6c10.76.64,22.91.96,34.96,2.21,7.81.81,13.09,5.93,13.69,13.82.63,8.36-2.02,16.1-10.76,19.28-8.47,3.08-17.31,5.18-27.19,8.06.64,6.84-4.44,15.8,6.53,23.73h-17.5c3.38-21.99,2.76-43.47.27-67.09Zm10.33,35.03c11.1,1.79,17.88.12,24.04-5.43,6.27-5.66,7.51-13.95,2.9-19.44-4.29-5.11-20.6-7.41-24.88-3.37-1.02.96-1.94,2.58-1.97,3.92-.18,8.17-.09,16.35-.09,24.32Z"/>
    <path class="cls-1" d="m837.97,373.48c9.13,22.39,18.25,44.78,27.95,68.57-5.59.25-10.66.47-13.69.6-.53-7.07-.16-12.76-1.68-17.88-.72-2.42-4.87-4.74-7.83-5.34-4.41-.9-9.25-.84-13.7-.06-3.98.69-9.77,1.94-11.05,4.67-2.19,4.69-1.49,10.73-2,16.21.9.57,1.81,1.13,2.71,1.7-4.47.27-8.93.55-15.15.93,10-24.25,19.3-46.79,28.59-69.32,1.95-.03,3.9-.05,5.86-.08Zm-2.78,12.34c-.84-.1-1.69-.2-2.53-.3-3.8,9.13-7.6,18.26-11.64,27.97h26.17c-4.36-10.05-8.18-18.86-12-27.67Z"/>
    <path class="cls-1" d="m553.68,388.39c-3.68-3.11-6.37-6.11-9.68-8.03-6.95-4.01-14.93-4.91-20,1.77-2.49,3.28-2.76,11.76-.3,14.44,3.61,3.92,10.47,5.12,16.15,6.78,7.56,2.22,15.56,2.87,19.22,11.85,3.5,8.57,1.4,15.72-4.3,21.96-10.38,11.35-32.68,9.73-41.42-2.9-1.52-2.2-1.74-5.3-2.57-7.99.78-.43,1.57-.87,2.35-1.3,1.51,1.87,3.03,3.72,4.51,5.6,6.99,8.85,17.2,12.47,26.79,7.35,4.29-2.29,8.04-8.21,9.17-13.14,1.36-5.9-3.29-10.07-9.37-11.49-4.77-1.11-9.6-1.93-14.37-3.04-10.7-2.49-17.18-9.97-16.38-18.76.94-10.34,8.61-17.36,19.87-17.47,5.12-.05,10.39.48,15.33,1.76,5.46,1.42,8.16,5.2,4.97,12.61Z"/>
    <path class="cls-1" d="m349.16,441.21c5.9-8.23,6.49-53.28.9-65.63h15.15c-1.23,5.77-3.19,11.36-3.45,17.02-.54,11.61.28,23.28-.32,34.89-.43,8.24,3.16,11.56,10.66,10.69,9.17-1.06,18.26-2.89,27.89-4.48-.1,3.68.77,8.67-6.19,8.72-13.43.11-26.87-.01-40.3-.13-1.38-.01-2.75-.67-4.33-1.08Z"/>
    <path class="cls-1" d="m340.46,442.2h-16.62c5.84-11.73,5.82-57.18-.39-66.21h16.1c-5.29,11.48-4.96,57.42.91,66.21Z"/>
    <path class="cls-1" d="m404.77,375.6h15.05c-4.41,22.14-2.52,43.76-1.53,66.32h-13.4c5.32-9.55,5.56-57.31-.12-66.32Z"/>
    <path class="cls-1" d="m709.31,375.49h14.93c-2.58,22.14-4.03,44.03.42,66.56h-14.92c6.27-9.77,6.29-57.06-.43-66.56Z"/>
  </g>
  <g>
    <path class="cls-1" d="m650.96,78.34c-.06-10.67-4.27-18.78-11.59-26.04-16.1-15.98-35.95-4.6-40.47,10.13-5.62,18.33-1.92,35.89,11.94,50.2,22.83,23.57,45.36,47.61,64.16,74.4,21.24,30.27,28.78,81.96,4.98,117.4-25,37.22-79.11,44.58-110.51,12.74-26.17-26.54-28.92-75.11,9.53-99.95,17.72-11.45,38.2-16.56,59.32-5.14,4.66,2.52,12.38,7.15,15.58,3.31,2.83-3.39-2.15-10.95-5.32-15.59-14.17-20.75-28.95-41.08-43.36-61.66-14.92-21.32-24.75-44.29-23.42-71.08,1.35-27.13,12.1-34.47,35.8-37.42,25.7-3.2,34.85,14.11,39.41,34.46,1.15,5.11-1.96,9.77-6.05,14.23Zm-67.92,167.14c27.86-2.24,47.17,14.75,45.2,39.34-.17,2.07.34,4.84-2.13,5.59-3.26.99-3.74-2.33-4.96-4.26-2.81-4.44-1.78-10.25-5.32-14.53-10.34-12.49-25.87-13.21-38.51-1.65-7.86,7.2-6.03,24.41,3.58,33.59,15.23,14.54,40.04,17.48,55.91,6.29,24.07-16.96,24.66-34.15,16.1-56.68-9.46-24.89-32.61-28.94-55.14-23.33-7.01,1.75-15.19,4.73-14.75,15.63Z"/>
    <path class="cls-1" d="m611.72,11.51c.82-7.2,3.77-11.81,11.1-11.5,6.46.27,10.28,3.96,10.43,10.5.16,6.51-3.39,10.91-9.86,10.91-6.32,0-10.97-3.41-11.68-9.92Z"/>
  </g>
  <g>
    <path class="cls-1" d="m424.14,489.13c0-.74-.27-1.26-.8-1.57-.54-.31-1.54-.58-3.01-.8-.37-.07-.55-.39-.55-.94,0-.22.04-.52.11-.88,1.18.08,2.4.14,3.67.19,1.27.06,2.33.08,3.18.08s1.94-.03,3.18-.08,2.39-.12,3.45-.19c.07.37.11.66.11.88,0,.59-.2.9-.61.94-1.36.22-2.29.49-2.79.8-.5.31-.74.84-.74,1.57v23.93c0,2.58-.11,4.79-.33,6.63-.22,1.84-.7,3.51-1.44,5-.74,1.49-1.79,2.91-3.15,4.26-1.36,1.34-3.17,2.79-5.42,4.34-.48-.37-.72-.76-.72-1.16,0-.26.09-.48.28-.66,2.03-1.95,3.46-3.94,4.31-5.97.85-2.03,1.27-4.33,1.27-6.91v-29.45Z"/>
    <path class="cls-1" d="m462.1,487.47v14.15h8.62c.74,0,1.26-.36,1.58-1.08.31-.72.56-1.59.75-2.62.11-.48.44-.72.99-.72.11,0,.26.02.44.06.19.04.33.07.44.11-.07.81-.14,1.73-.19,2.76-.06,1.03-.08,1.94-.08,2.71,0,.63.02,1.39.05,2.29s.11,1.92.22,3.07c-.29.07-.57.11-.83.11-.59,0-.94-.24-1.05-.72-.19-1.03-.43-1.91-.75-2.63-.31-.72-.84-1.08-1.58-1.08h-8.62v13.04c0,.77.5,1.29,1.49,1.55.99.26,2.63.39,4.92.39h3.04c1.07,0,2-.15,2.79-.47.79-.31,1.49-.74,2.1-1.27s1.15-1.17,1.63-1.91c.48-.74.94-1.55,1.38-2.43.11-.26.39-.39.83-.39.18,0,.38.06.58.17.2.11.39.22.58.33-.33.7-.62,1.54-.86,2.51-.24.98-.47,1.91-.69,2.79-.22.88-.45,1.64-.69,2.26-.24.63-.54.94-.91.94-.29,0-.72-.02-1.27-.06-.55-.04-1.15-.06-1.8-.08-.64-.02-1.3-.05-1.96-.08-.66-.04-1.24-.06-1.71-.06h-12.1c-1.07,0-2.21.03-3.43.08s-2.38.12-3.48.19c-.08-.37-.11-.66-.11-.88,0-.51.18-.81.55-.88,1.4-.26,2.4-.53,3.01-.83.61-.29.91-.81.91-1.55v-28.13c0-.74-.27-1.24-.8-1.52-.53-.28-1.58-.56-3.12-.86-.37-.07-.55-.39-.55-.94,0-.18,0-.34.03-.47.02-.13.05-.27.08-.42,1.58.11,2.91.19,3.98.22,1.07.04,2.03.06,2.87.06h10.89c1.66,0,3.09-.06,4.31-.17,1.22-.11,2.03-.17,2.43-.17.48,0,.8.3.97.91.17.61.3,1.33.42,2.18.11.85.24,1.75.39,2.71.15.96.42,1.77.83,2.43-.29.22-.63.33-.99.33-.48,0-.79-.17-.94-.5-.44-.96-.87-1.78-1.27-2.46-.41-.68-.88-1.24-1.41-1.69s-1.18-.77-1.93-.99-1.69-.33-2.79-.33h-8.18Z"/>
    <path class="cls-1" d="m525.48,484.65c.22-.07.4-.11.55-.11.37,0,.63.24.77.72l9.34,26.8,7.85-22.43c.07-.22.13-.42.17-.61.04-.19.05-.35.05-.5,0-.51-.27-.9-.8-1.16-.53-.26-1.39-.46-2.57-.61-.41-.04-.61-.35-.61-.94,0-.29.04-.59.11-.88.96.08,1.96.14,3.01.19,1.05.06,1.98.08,2.79.08.88,0,1.83-.03,2.85-.08,1.01-.06,1.81-.12,2.4-.19,0,.11.02.26.06.44.04.19.05.33.05.44,0,.59-.22.92-.66.99-1.11.15-1.94.36-2.51.63-.57.28-.99.76-1.24,1.46l-11.66,32.77c-.22.07-.42.11-.61.11-.44,0-.77-.33-.99-.99l-9.23-26.03-9.39,26.91c-.15.07-.33.11-.55.11-.44,0-.77-.33-.99-.99l-11.88-32.16c-.18-.52-.52-.9-1.02-1.16-.5-.26-1.41-.48-2.73-.66-.41-.11-.61-.46-.61-1.05,0-.18.04-.46.11-.83.52.04,1.08.08,1.69.11s1.22.06,1.82.08,1.2.04,1.77.06c.57.02,1.08.03,1.52.03.92,0,2.03-.03,3.34-.08s2.53-.12,3.67-.19c.07.37.11.66.11.88,0,.55-.2.87-.61.94-1.07.11-1.9.3-2.49.58-.59.28-.88.69-.88,1.24,0,.22.05.44.17.66l8.34,22.82,9.5-27.41Z"/>
    <path class="cls-1" d="m577.75,487.47v14.15h8.62c.74,0,1.26-.36,1.58-1.08.31-.72.56-1.59.75-2.62.11-.48.44-.72.99-.72.11,0,.26.02.44.06.19.04.33.07.44.11-.07.81-.14,1.73-.19,2.76-.06,1.03-.08,1.94-.08,2.71,0,.63.02,1.39.05,2.29s.11,1.92.22,3.07c-.29.07-.57.11-.83.11-.59,0-.94-.24-1.05-.72-.19-1.03-.43-1.91-.75-2.63-.31-.72-.84-1.08-1.58-1.08h-8.62v13.04c0,.77.5,1.29,1.49,1.55.99.26,2.63.39,4.92.39h3.04c1.07,0,2-.15,2.79-.47.79-.31,1.49-.74,2.1-1.27s1.15-1.17,1.63-1.91c.48-.74.94-1.55,1.38-2.43.11-.26.39-.39.83-.39.18,0,.38.06.58.17.2.11.39.22.58.33-.33.7-.62,1.54-.86,2.51-.24.98-.47,1.91-.69,2.79-.22.88-.45,1.64-.69,2.26-.24.63-.54.94-.91.94-.29,0-.72-.02-1.27-.06-.55-.04-1.15-.06-1.8-.08-.64-.02-1.3-.05-1.96-.08-.66-.04-1.24-.06-1.71-.06h-12.1c-1.07,0-2.21.03-3.43.08s-2.38.12-3.48.19c-.08-.37-.11-.66-.11-.88,0-.51.18-.81.55-.88,1.4-.26,2.4-.53,3.01-.83.61-.29.91-.81.91-1.55v-28.13c0-.74-.27-1.24-.8-1.52-.53-.28-1.58-.56-3.12-.86-.37-.07-.55-.39-.55-.94,0-.18,0-.34.03-.47.02-.13.05-.27.08-.42,1.58.11,2.91.19,3.98.22,1.07.04,2.03.06,2.87.06h10.89c1.66,0,3.09-.06,4.31-.17,1.22-.11,2.03-.17,2.43-.17.48,0,.8.3.97.91.17.61.3,1.33.42,2.18.11.85.24,1.75.39,2.71.15.96.42,1.77.83,2.43-.29.22-.63.33-.99.33-.48,0-.79-.17-.94-.5-.44-.96-.87-1.78-1.27-2.46-.41-.68-.88-1.24-1.41-1.69s-1.18-.77-1.93-.99-1.69-.33-2.79-.33h-8.18Z"/>
    <path class="cls-1" d="m625,517.14c0,.63.28,1.07.83,1.33.55.26,1.31.39,2.26.39h6.02c1.07,0,1.99-.14,2.76-.41s1.44-.67,1.99-1.19,1.04-1.15,1.46-1.91c.42-.76.8-1.61,1.13-2.57.11-.29.33-.44.66-.44.19,0,.38.04.58.14.2.09.41.19.63.3-.26,1.11-.51,2.28-.75,3.51s-.45,2.62-.63,4.17c-.04.41-.15.66-.33.77-.19.11-.41.17-.66.17-.63,0-1.41-.05-2.35-.14-.94-.09-1.76-.14-2.46-.14h-13.81c-.85,0-1.92.03-3.21.08-1.29.06-2.52.12-3.7.19-.08-.37-.11-.66-.11-.88,0-.51.18-.81.55-.88,1.51-.26,2.54-.54,3.1-.86.55-.31.83-.8.83-1.46v-28.18c0-.74-.26-1.26-.77-1.57s-1.51-.58-2.98-.8c-.18-.04-.32-.14-.41-.3s-.14-.36-.14-.58c0-.26.04-.57.11-.94,1.25.08,2.49.14,3.7.19s2.25.08,3.09.08c1.25,0,2.58-.03,3.98-.08s2.65-.12,3.76-.19c.07.37.11.66.11.88,0,.63-.2.96-.61.99-1.58.19-2.76.45-3.51.8-.76.35-1.13.99-1.13,1.91v27.63Z"/>
    <path class="cls-1" d="m669.65,517.14c0,.63.28,1.07.83,1.33.55.26,1.31.39,2.26.39h6.02c1.07,0,1.99-.14,2.76-.41s1.44-.67,1.99-1.19,1.04-1.15,1.46-1.91c.42-.76.8-1.61,1.13-2.57.11-.29.33-.44.66-.44.19,0,.38.04.58.14.2.09.41.19.63.3-.26,1.11-.51,2.28-.75,3.51s-.45,2.62-.63,4.17c-.04.41-.15.66-.33.77-.19.11-.41.17-.66.17-.63,0-1.41-.05-2.35-.14-.94-.09-1.76-.14-2.46-.14h-13.81c-.85,0-1.92.03-3.21.08-1.29.06-2.52.12-3.7.19-.08-.37-.11-.66-.11-.88,0-.51.18-.81.55-.88,1.51-.26,2.54-.54,3.1-.86.55-.31.83-.8.83-1.46v-28.18c0-.74-.26-1.26-.77-1.57s-1.51-.58-2.98-.8c-.18-.04-.32-.14-.41-.3s-.14-.36-.14-.58c0-.26.04-.57.11-.94,1.25.08,2.49.14,3.7.19s2.25.08,3.09.08c1.25,0,2.58-.03,3.98-.08s2.65-.12,3.76-.19c.07.37.11.66.11.88,0,.63-.2.96-.61.99-1.58.19-2.76.45-3.51.8-.76.35-1.13.99-1.13,1.91v27.63Z"/>
    <path class="cls-1" d="m714.29,487.47v14.15h8.62c.74,0,1.26-.36,1.58-1.08.31-.72.56-1.59.75-2.62.11-.48.44-.72.99-.72.11,0,.26.02.44.06.19.04.33.07.44.11-.07.81-.14,1.73-.19,2.76-.06,1.03-.08,1.94-.08,2.71,0,.63.02,1.39.05,2.29s.11,1.92.22,3.07c-.29.07-.57.11-.83.11-.59,0-.94-.24-1.05-.72-.19-1.03-.43-1.91-.75-2.63-.31-.72-.84-1.08-1.58-1.08h-8.62v13.04c0,.77.5,1.29,1.49,1.55.99.26,2.63.39,4.92.39h3.04c1.07,0,2-.15,2.79-.47.79-.31,1.49-.74,2.1-1.27s1.15-1.17,1.63-1.91c.48-.74.94-1.55,1.38-2.43.11-.26.39-.39.83-.39.18,0,.38.06.58.17.2.11.39.22.58.33-.33.7-.62,1.54-.86,2.51-.24.98-.47,1.91-.69,2.79-.22.88-.45,1.64-.69,2.26-.24.63-.54.94-.91.94-.29,0-.72-.02-1.27-.06-.55-.04-1.15-.06-1.8-.08-.64-.02-1.3-.05-1.96-.08-.66-.04-1.24-.06-1.71-.06h-12.1c-1.07,0-2.21.03-3.43.08s-2.38.12-3.48.19c-.08-.37-.11-.66-.11-.88,0-.51.18-.81.55-.88,1.4-.26,2.4-.53,3.01-.83.61-.29.91-.81.91-1.55v-28.13c0-.74-.27-1.24-.8-1.52-.53-.28-1.58-.56-3.12-.86-.37-.07-.55-.39-.55-.94,0-.18,0-.34.03-.47.02-.13.05-.27.08-.42,1.58.11,2.91.19,3.98.22,1.07.04,2.03.06,2.87.06h10.89c1.66,0,3.09-.06,4.31-.17,1.22-.11,2.03-.17,2.43-.17.48,0,.8.3.97.91.17.61.3,1.33.42,2.18.11.85.24,1.75.39,2.71.15.96.42,1.77.83,2.43-.29.22-.63.33-.99.33-.48,0-.79-.17-.94-.5-.44-.96-.87-1.78-1.27-2.46-.41-.68-.88-1.24-1.41-1.69s-1.18-.77-1.93-.99-1.69-.33-2.79-.33h-8.18Z"/>
    <path class="cls-1" d="m765.63,504.99h-4.09v12.16c0,.81.38,1.36,1.13,1.66.75.29,1.91.53,3.45.72.44.07.66.39.66.94,0,.26-.04.57-.11.94-.99-.08-2.2-.14-3.62-.19-1.42-.06-2.81-.08-4.17-.08-.96,0-2.06.03-3.32.08s-2.43.12-3.54.19c-.07-.37-.11-.66-.11-.88,0-.51.2-.81.61-.88,1.4-.22,2.39-.49,2.96-.8.57-.31.86-.84.86-1.57v-28.13c0-.7-.27-1.22-.8-1.57-.53-.35-1.58-.62-3.12-.8-.37-.04-.55-.35-.55-.94,0-.22.04-.52.11-.88,1.1.08,2.25.14,3.42.19s2.3.08,3.37.08h7.46c3.98,0,6.98.88,9.01,2.62,2.03,1.75,3.04,4.12,3.04,7.1,0,.81-.14,1.66-.41,2.54-.28.88-.7,1.75-1.27,2.6-.57.85-1.31,1.63-2.21,2.35-.9.72-1.96,1.3-3.18,1.74l9.23,12.82c.7.96,1.47,1.62,2.32,1.99.85.37,1.64.64,2.38.83.33.07.5.33.5.77,0,.29-.04.63-.11.99-.85-.08-1.88-.14-3.1-.19-1.22-.05-2.34-.08-3.37-.08-.77,0-1.56-.33-2.35-.99-.79-.66-1.54-1.51-2.24-2.54l-8.84-12.76Zm-1.16-2.27c2.58,0,4.57-.54,5.97-1.63,1.4-1.09,2.1-2.99,2.1-5.72,0-1.14-.15-2.19-.44-3.15-.3-.96-.77-1.79-1.41-2.49s-1.49-1.25-2.54-1.66c-1.05-.4-2.33-.61-3.84-.61h-2.76v15.25h2.93Z"/>
    <path class="cls-1" d="m825.14,493.88c-.37.07-.65.11-.83.11-.48,0-.83-.09-1.05-.28-.22-.18-.39-.39-.5-.61-.96-2.1-2.1-3.63-3.43-4.59-1.33-.96-3.13-1.44-5.42-1.44-.88,0-1.72.12-2.51.36-.79.24-1.48.59-2.07,1.05-.59.46-1.06,1.02-1.41,1.69-.35.66-.53,1.4-.53,2.21,0,1.73.73,3.15,2.18,4.25s3.6,2.23,6.44,3.37c3.54,1.4,6.14,2.96,7.82,4.67,1.67,1.71,2.51,3.82,2.51,6.33,0,1.51-.23,2.92-.69,4.23-.46,1.31-1.18,2.45-2.15,3.43-.98.98-2.24,1.74-3.78,2.29s-3.41.83-5.58.83c-2.28,0-4.36-.24-6.22-.72s-3.44-1.1-4.72-1.88c-.11-1.55-.28-3.04-.5-4.48-.22-1.44-.48-2.87-.77-4.31.26-.11.57-.17.94-.17.44,0,.78.1,1.02.3.24.2.45.53.63.97.92,2.65,2.11,4.6,3.56,5.86,1.46,1.25,3.49,1.88,6.11,1.88,1.18,0,2.21-.17,3.09-.5.88-.33,1.62-.79,2.21-1.38s1.03-1.25,1.33-1.99c.29-.74.44-1.53.44-2.38,0-1.91-.65-3.42-1.96-4.53-1.31-1.1-3.18-2.1-5.61-2.98-1.58-.59-3.02-1.21-4.31-1.85-1.29-.64-2.39-1.39-3.32-2.24s-1.63-1.83-2.13-2.96c-.5-1.12-.74-2.46-.74-4.01,0-1.36.25-2.64.74-3.84.5-1.2,1.22-2.24,2.16-3.12.94-.88,2.07-1.58,3.4-2.1,1.33-.51,2.82-.77,4.48-.77s3.39.17,4.97.5c1.58.33,3.37.88,5.36,1.66.07,1.11.17,2.29.3,3.57.13,1.27.3,2.46.53,3.56Z"/>
  </g>
</svg>