<svg width="1203" height="267" viewBox="0 0 1203 267" fill="none" xmlns="http://www.w3.org/2000/svg">
<path d="M1200.33 196.44C1196.67 196.49 1193 196.37 1189.36 196.63C1184.84 196.96 1183.17 195.16 1183.23 190.58C1183.41 175.62 1183.38 160.65 1183.19 145.69C1183.09 138.02 1182.02 130.49 1178.51 123.45C1175.35 117.1 1170.38 113.34 1163.41 112.71C1154.04 111.85 1144.68 111.62 1137.28 119.09C1136.69 119.68 1135.86 120.19 1135.09 119.49C1134.34 118.8 1134.79 117.91 1135.2 117.22C1137.06 114.13 1139.94 112.07 1142.94 110.34C1156.32 102.65 1177.27 104.52 1189.1 114.28C1192.79 117.33 1195.25 121.24 1196.92 125.65C1198.16 128.91 1199.2 132.24 1200.32 135.53V196.43L1200.33 196.44Z" fill="black"/>
<path d="M109.94 20.5392C139.19 20.4792 162.8 38.1592 169.68 62.3892C170.54 65.4192 171.81 68.4592 171.96 71.5392C172.16 75.4192 173.9 76.6292 177.45 76.9992C192.86 78.5792 205.13 85.8092 214.55 98.0292C231.29 119.749 231.06 149.789 213.42 170.819C199.02 187.979 180.58 195.239 158.35 191.519C145.52 189.369 134.58 182.969 125.38 173.949C107.58 156.509 90.1099 138.709 72.7699 120.829C52.5699 99.9992 49.2099 69.5792 67.2899 44.6292C78.7299 28.8492 94.8299 21.8492 109.95 20.5392H109.94ZM111.04 31.4392C91.3399 30.2292 71.0799 48.4992 67.0399 69.6292C66.4699 72.5892 66.5999 74.1392 70.1899 74.7692C83.3399 77.0692 94.5299 83.2092 103.94 92.7092C119.75 108.669 135.5 124.699 151.58 140.379C162.04 150.589 169.12 162.459 171.7 176.839C172.46 181.069 174.53 182.019 178.3 181.099C201.62 175.409 215.83 158.389 216.52 134.749C217.19 111.649 201.55 91.2192 178.31 87.3192C173.81 86.5592 171.87 87.8092 170.9 92.0392C168.68 101.749 164.57 110.559 157.86 118.049C155.55 120.629 153.46 124.089 149.25 121.509C145.98 119.509 146.28 116.139 149.81 111.599C150.12 111.209 150.45 110.829 150.76 110.439C163.07 95.3692 165.45 78.2492 158.23 60.8092C150.36 41.8192 135.26 31.6992 111.05 31.4192L111.04 31.4392ZM161.02 176.589C159.95 170.129 157.65 163.069 152.65 157.549C133.11 135.959 112.25 115.649 91.3099 95.4292C85.7199 90.0292 78.5699 87.1192 70.8799 85.6292C67.6099 84.9892 66.3799 85.4692 67.0699 89.3192C69.0199 100.149 74.9799 108.569 82.4699 116.109C98.9899 132.769 115.53 149.419 132.21 165.929C139.13 172.769 146.83 178.489 156.72 180.549C159.64 181.159 161.35 180.969 161.02 176.599V176.589Z" fill="black"/>
<path d="M740.63 132.689C746.86 135.679 753.6 136.969 759.12 141.229C775.12 153.579 775.21 174.859 759.2 187.259C751.36 193.329 742.2 195.969 732.69 196.269C714.23 196.849 695.74 196.469 677.26 196.629C673.23 196.669 671.66 195.239 671.68 191.089C671.79 153.659 671.75 116.239 671.75 78.8092C671.75 75.8792 671.69 72.7292 675.81 72.7592C693.92 72.8992 712.15 71.1492 730.07 74.7492C740.15 76.7692 749.48 80.9792 755.59 89.9492C764.82 103.469 760.99 119.459 746.51 128.669C744.6 129.879 742.31 130.559 740.62 132.689H740.63ZM690.89 164.069C690.89 171.549 690.96 179.019 690.86 186.499C690.81 189.709 691.73 191.499 695.34 191.459C705.98 191.329 716.63 191.719 727.25 191.249C736.27 190.849 742.77 186.029 746.71 177.809C750.78 169.309 750.48 160.759 747.15 152.199C743.52 142.869 736.5 137.879 726.57 137.589C716.27 137.289 705.96 137.589 695.65 137.459C691.84 137.409 690.79 139.179 690.86 142.649C691 149.789 690.9 156.939 690.9 164.079L690.89 164.069ZM690.89 104.389C690.89 111.879 690.98 119.369 690.85 126.849C690.79 130.239 692.14 131.699 695.56 131.629C702.88 131.479 710.23 131.789 717.53 131.379C729.07 130.739 739.03 121.459 740.48 110.509C742.39 96.0892 736.39 84.9792 724.75 80.3992C714.55 76.3892 704.04 78.2092 693.63 77.9992C690.8 77.9392 690.9 80.4092 690.89 82.4192C690.86 89.7392 690.89 97.0592 690.89 104.379V104.389Z" fill="black"/>
<path d="M114.58 249.57C85.2101 251.36 59.8201 226.81 56.9801 200.19C56.6201 196.82 55.3501 195.07 51.5101 194.5C27.6501 190.95 12.9401 176.9 4.23013 154.7C-6.38987 127.64 11.4001 90.5101 41.1801 81.1901C44.8401 80.0501 48.0601 79.9101 49.5901 83.7501C51.2601 87.9501 48.0301 89.8301 44.7201 90.9501C31.7101 95.3501 22.6301 104.01 16.3701 116.07C7.47013 133.21 12.2101 158.76 26.5401 171.69C33.5301 177.99 41.3301 182.35 50.5501 184.15C54.1901 184.86 56.7201 184.55 57.5001 179.71C59.1801 169.32 64.0301 160.27 71.0601 152.42C73.4601 149.74 76.0601 146.7 79.8001 149.96C83.3401 153.05 81.3601 156.31 78.9301 159.11C66.9401 172.92 63.7001 188.71 68.5701 206.13C76.3901 234.11 110.94 248.32 136.36 234.48C147.92 228.18 155.74 219.09 160.15 206.84C161.28 203.71 162.91 200.59 166.89 201.82C171.13 203.13 170.59 206.63 169.67 210.1C164.43 229.81 141.08 251.42 114.59 249.57H114.58Z" fill="black"/>
<path d="M295.11 134.271C295.11 115.971 295.09 97.6706 295.11 79.3706C295.12 73.2906 295.68 72.6806 301.59 72.6706C325.06 72.6306 348.54 72.6306 372.01 72.6706C377.09 72.6706 381.98 79.7806 380.34 84.6206C379.72 86.4406 378.31 86.2806 377.12 85.5206C366.46 78.6806 354.08 79.6906 342.34 78.1506C334.64 77.1406 326.71 77.9706 318.89 77.8406C315.42 77.7806 314.18 79.3806 314.2 82.6806C314.27 97.6506 314.29 112.621 314.2 127.591C314.18 131.391 316.05 132.431 319.48 132.411C332.13 132.331 344.78 132.381 357.44 132.391C358.77 132.391 360.11 132.311 361.43 132.421C363.46 132.591 366.5 131.901 366.36 135.051C366.23 138.071 363.21 137.291 361.18 137.471C359.86 137.591 358.52 137.501 357.19 137.501C344.7 137.501 332.22 137.611 319.73 137.441C315.68 137.391 314.1 138.751 314.15 142.911C314.32 157.381 314.23 171.851 314.21 186.331C314.21 189.011 314.38 191.391 318.02 191.411C334.99 191.491 351.98 191.931 368.77 188.711C373.9 187.731 378.66 185.851 383.16 183.241C384.12 182.681 385.12 181.591 386.28 182.611C387.37 183.571 386.65 184.791 386.25 185.851C385.35 188.181 384.26 190.441 383.49 192.801C382.65 195.401 381.02 196.561 378.33 196.561C352.19 196.541 326.06 196.531 299.92 196.581C295.29 196.581 295.09 193.571 295.1 190.161C295.12 171.531 295.11 152.901 295.1 134.271H295.11Z" fill="black"/>
<path d="M830.47 157.64C830.73 120.8 855.9 103.08 884.87 106.07C896.62 107.29 907.35 110.95 915.52 119.89C929.29 134.96 931.41 152.54 924.48 170.98C917.93 188.39 904.19 196.87 885.85 198.65C872.66 199.93 860.21 198.14 849.25 190.43C836.13 181.2 830.66 167.94 830.48 157.64H830.47ZM848.63 141.61C848.33 148.22 849.77 154.77 851.92 161.04C855.53 171.56 860.76 181.29 870.47 187.48C887.88 198.59 905.73 193.15 909.68 172.39C912.11 159.62 908.71 147.64 903.52 136.12C899.9 128.09 894.53 121.29 887.03 116.52C874.63 108.64 853.37 109.07 849.49 131.55C848.92 134.85 848.46 138.11 848.63 141.6V141.61Z" fill="black"/>
<path d="M1037.75 149.75C1039.83 174.129 1022.08 196.04 999.15 198.57C962.2 202.65 942.83 182.25 940.62 156.51C938.26 129.06 957.1 107.53 985.67 105.74C1012.37 104.07 1036.96 120.129 1037.75 149.75ZM958.51 143.029C957.81 149.209 960.17 156.59 962.95 163.64C968.29 177.21 976.19 188.56 991.66 192.28C1003.88 195.21 1014.36 189.48 1018.29 177.5C1020.63 170.37 1020.58 163.11 1019.42 155.85C1016.76 139.21 1010.76 124.329 995.22 115.589C982.54 108.459 964.75 110.379 959.7 129.519C958.66 133.459 958.63 137.39 958.51 143.04V143.029Z" fill="black"/>
<path d="M538.9 141.729C530.08 141.729 521.26 141.779 512.44 141.699C509.36 141.669 507.54 142.729 507.98 146.039C510.12 162.259 515.74 176.659 530.01 186.149C542.28 194.309 558.97 192.259 569.36 181.679C574.05 176.909 578.5 171.999 580.68 165.479C580.99 164.539 581.4 163.289 582.56 163.539C584.29 163.909 583.55 165.379 583.3 166.409C580.63 177.359 573.84 185.319 564.71 191.419C547.52 202.909 521.32 200.989 506.14 188.759C490.12 175.849 484.62 150.329 494.03 131.059C506.48 105.549 538.35 98.3193 560.24 116.099C565.48 120.359 569.44 125.689 572.03 131.939C574.49 137.869 572.28 141.489 565.87 141.629C556.89 141.829 547.89 141.679 538.91 141.679V141.709L538.9 141.729ZM532.01 136.559V136.619C538.5 136.619 545 136.629 551.49 136.619C552.94 136.619 554.89 136.989 554.21 134.449C552.35 127.539 543.9 114.719 535.21 112.679C522.09 109.599 511.36 116.999 508.43 131.269C507.67 134.969 508.64 136.639 512.53 136.589C519.02 136.499 525.52 136.569 532.01 136.569V136.559Z" fill="black"/>
<path d="M810.66 130.75C810.66 150.38 810.68 170.02 810.66 189.65C810.66 196.02 810.13 196.62 803.89 196.54C792.71 196.4 792.6 199.46 792.62 185.45C792.67 150.68 792.76 115.9 792.5 81.1304C792.46 75.3404 794.24 72.0904 799.51 69.5304C811.47 63.7404 810.68 62.8404 810.67 76.3404C810.67 94.4804 810.67 112.61 810.67 130.75H810.66Z" fill="black"/>
<path d="M405.9 107.549C413.16 104.849 415.43 111.089 418.05 116.779C425.97 133.989 433.87 151.209 441.8 168.409C442.47 169.869 442.77 172.129 444.61 172.139C446.49 172.159 446.75 169.829 447.43 168.399C453.47 155.819 459.33 143.149 465.46 130.609C468.42 124.559 468.81 118.439 466.51 112.269C465.08 108.429 466.51 107.479 469.98 107.509C484.53 107.609 482.86 106.979 477.41 118.439C465.71 143.059 453.77 167.559 441.9 192.089C440.91 194.129 440.19 196.659 437.1 196.349C434.2 196.059 433.69 193.539 432.74 191.459C421.11 166.079 409.52 140.689 397.83 115.329C394.25 107.559 394.18 107.539 402.71 107.539C403.38 107.539 404.04 107.539 405.89 107.539L405.9 107.549Z" fill="black"/>
<path d="M612.62 123.859C617.25 117.369 621.9 111.979 628.02 108.109C634.17 104.219 640.71 102.549 648 104.379C653.7 105.819 656.28 109.789 654.84 115.499C653.54 120.649 647.79 123.669 642.65 121.919C639.58 120.869 637.19 118.739 634.78 116.729C631.94 114.349 629.15 114.389 626.02 115.979C620.85 118.599 617.06 122.809 613.17 126.909C611.5 128.669 611.9 130.959 611.89 133.089C611.87 151.869 611.89 170.649 611.87 189.439C611.87 196.149 611.45 196.529 604.86 196.589C597.52 196.649 593.85 192.932 593.85 185.439C593.85 163.669 594.02 141.889 593.74 120.119C593.67 114.459 595.36 111.239 600.54 108.369C613.88 100.979 611.79 103.239 611.91 115.069C611.94 117.679 611.47 120.339 612.62 123.869V123.859Z" fill="black"/>
<path d="M1077.05 117.45C1078.47 113.75 1081.5 111.46 1084.84 109.89C1097.9 103.72 1111.09 104.12 1123.67 110.93C1133.88 116.46 1137.99 126.34 1139.35 137.32C1141.61 155.52 1140.25 173.83 1140.58 192.08C1140.64 195.26 1139.14 196.56 1136.05 196.57C1120.62 196.61 1123.42 197.66 1123.16 184.49C1122.88 170.05 1123.95 155.57 1122.21 141.17C1121.65 136.58 1120.76 131.96 1119.43 127.53C1116.55 117.91 1109.5 112.86 1099.49 112.55C1092.41 112.33 1085.48 112.55 1079.64 117.38C1079.03 117.88 1078.21 118.27 1077.06 117.45H1077.05Z" fill="black"/>
<path d="M1075.6 149.971C1075.6 163.591 1075.47 177.201 1075.67 190.821C1075.73 195.161 1074.15 196.701 1069.87 196.651C1056.4 196.471 1057.55 197.651 1057.54 184.761C1057.51 162.681 1057.62 140.591 1057.46 118.511C1057.43 113.951 1058.75 110.931 1063.13 109.181C1065.73 108.141 1068.03 106.391 1070.55 105.111C1074.58 103.061 1075.54 103.591 1075.58 108.141C1075.67 118.101 1075.62 128.071 1075.62 138.031C1075.62 142.021 1075.62 146.001 1075.62 149.991L1075.6 149.971Z" fill="black"/>
</svg>
