<?xml version="1.0" encoding="UTF-8"?>
<svg id="MANOAHR" xmlns="http://www.w3.org/2000/svg" viewBox="0 0 1202.64 533.28">
  <defs>
    <style>
      .cls-1 {
        stroke-width: 0px;
      }
    </style>
  </defs>
  <path class="cls-1" d="m227.56,459.85c4.33-10.71,4.72-22.23,6.79-33.4,3.58-19.25,6.7-38.58,9.82-57.91.51-3.14,1.65-4.61,4.85-4.2.23.03.46,0,.69,0,7.14.12,15.85-2.19,20.98,1.08,4.72,3.01,5.68,12,8.15,18.41,4.05,10.52,7.97,21.1,11.96,31.65.24.64.6,1.24.94,1.93,2.03-1.02,2.03-3.13,2.67-4.83,3.74-9.9,7.43-19.83,11.12-29.75,7.63-20.48,7.63-20.41,29.85-18.57,2.9.24,3.98,1.23,4.44,3.97,5.27,31.58,10.54,63.16,16.07,94.7.71,4.05-.99,4.13-3.89,4.09-5.77-.08-11.57-.3-17.32.07-4.4.28-5.35-1.8-5.87-5.57-2.01-14.61-4.27-29.18-6.59-43.74-.26-1.61.72-4.38-1.64-4.67-2.73-.34-2.64,2.73-3.36,4.46-6.11,14.66-12.25,29.31-18.05,44.09-1.58,4.02-3.61,5.5-8.05,5.53-4.39.03-5.9-1.81-7.28-5.48-5.52-14.64-11.36-29.17-17.06-43.74-.82-2.1-1.32-4.38-4.06-6.81-2.08,13.55-4.19,26.25-5.94,39-2.31,16.82-2.18,16.85-18.84,16.82-3.46,0-6.92-.15-10.38-.22,0-2.31,0-4.62,0-6.93Z"/>
  <path class="cls-1" d="m507.73,533.28c.08-1.71-1.48-1.38-2.36-1.81-1.46-.71-2.18-1.47-1.25-3.16.85-1.53,1.67-1.73,3.18-.76,1.12.72,2.53,1.28,3.85,1.36,2.64.15,6.78,1.15,7.12-2.04.35-3.3-3.84-1.67-5.98-2.26-3.84-1.05-9.19-.43-8.75-6.48.46-6.26,5.79-6.33,10.39-6.44,2.23-.05,4.51.79,6.72,1.4,1,.28,2.98,1.29,2.15,1.95-5.23,4.14.46,6.88.94,10.26.5,3.52-1.72,5.46-4.79,6.64-1.4.54-3.34-.62-4.29,1.35h-6.93Zm14.58-13.08c-5.16-4.85-9.04-6.2-14.73-2.69,4.6,2.89,8.78,2.44,14.73,2.69Z"/>
  <path class="cls-1" d="m564.6,533.28c-1.51-6.26-7.19-8.86-11.91-14.61,0,4.43.06,7.1-.02,9.77-.05,1.67.81,3.98-2.12,4.14-2.94.15-2.4-2.1-2.42-3.84-.04-4.15-.1-8.3.03-12.44.04-1.44-1.06-3.54,1.14-4.15,1.94-.54,3.89-.64,5.58,1.41,3.05,3.71,6.48,7.11,10.95,11.94,0-4.69.15-7.95-.06-11.18-.12-1.92.64-2.47,2.31-2.41,1.21.04,2.45.21,2.24,1.82-.86,6.5,1.62,13.26-1.55,19.56h-4.16Z"/>
  <path class="cls-1" d="m672.78,533.28c-1.09-2.02-6.28-3.28-1.2-6.43,1.6-.99.75-1.92-.12-2.65-3.18-2.67-3.94-5.79-1.26-9.05,2.74-3.33,6.57-4.03,10.69-3.15,4.04.86,6.48,3.37,7.23,7.41,1.24,6.6-1.53,10.48-9.79,13.88h-5.55Zm5.18-11.24c2.12-.06,4.28-.31,4.63-2.91.36-2.63-1.44-3.58-3.73-3.72-2.42-.15-4.87.24-5.05,3.17-.15,2.49,1.87,3.34,4.14,3.46Zm4.61,3.4c-1.29-1.08-2.71-.38-3.92-.05-1.85.5-4.29-1.22-5.53,1.32-.18.36.34,1.4.81,1.68,2.13,1.27,4.45,1.03,6.62.21,1.27-.48,2.24-1.52,2.02-3.15Z"/>
  <path class="cls-1" d="m725.49,533.28c-1-.88-1.98-1.79-3-2.64-4.27-3.56-5.33-8.02-2.99-12.93,2.54-5.32,7.15-6.85,12.71-5.57,5.2,1.2,8.01,4.88,7.95,9.92-.06,5.54-2.58,9.74-8.99,10.12-.52.03-1.01.72-1.52,1.11h-4.16Zm9.81-10.5c-.04-4.19-1.63-7.18-5.88-7.29-4.29-.11-6.19,3.03-6.22,6.81-.02,3.45,1.65,6.43,5.61,6.69,4.34.28,6.13-2.45,6.49-6.21Z"/>
  <path class="cls-1" d="m585.4,533.28c-.66-1.74-2.55-1.78-3.8-2.69-3.25-2.38-4.9-5.52-4.39-9.53.55-4.3,3.17-7.06,7.17-8.5,3.83-1.38,7.76-1.16,11.57,0,1.41.43,4.31,0,3.15,3.12-.86,2.32-2.41,2.21-4.25.97-.74-.5-1.67-.82-2.56-1-3.63-.73-7.01-.22-9.27,2.99-1.59,2.26-1.58,4.95.08,7.15,2.32,3.08,5.67,3.12,9.33,3.09,2.57-.02,5.52-5.88,7-.77.96,3.32-3.99,3.59-7,4.03-.54.08-.99.75-1.49,1.15h-5.55Z"/>
  <path class="cls-1" d="m621.72,521.19c.11,4.98-3.58,1.77-5.43,2.43-1.68.6-4.43-.89-4.29,2.68.14,3.41,2.69,2.39,4.54,2.51,2.06.13,4.24.44,6.18-.06,4.49-1.14,4.88,1.12,4.31,4.53h-19.42c-.08-1.14-.31-2.29-.22-3.42.45-5.85-2.59-13.66,1.28-17.01,3.33-2.88,10.93-.82,16.64-.95.53.3,1.07.6,1.6.9.17,4.84-3.49,2.09-5.42,2.62-1.29.35-2.8-.16-4.12.12-1.89.41-5.32-1.63-5.2,2.31.1,3.24,3.15,1.65,4.93,2,.88.17,1.83-.06,2.75-.11.62.48,1.25.97,1.87,1.45Z"/>
  <path class="cls-1" d="m697.75,533.28c1.15-6.45,7.14-10.49,8.68-16.89-3.31-1.35-6.55-.58-9.7-.66-1.56-.04-3.31.76-3.21-1.96.1-2.65,1.93-1.9,3.43-1.9,3.91.01,7.85.28,11.73-.05,6.1-.52,5.41,2.13,3.1,5.86-2.42,3.9-4.87,7.78-7.2,11.73-.71,1.21-2.39,2.66.11,3.87h-6.93Z"/>
  <path class="cls-1" d="m654.75,533.28c.81-5.2,3.11-10.46-1.2-15.32-1.26-1.42-.88-2.98.9-3.96,1.45-.8,1.89-3.14,4.33-2.49,2.43.64,1.64,2.44,1.65,3.86.03,5.97-.07,11.94-.12,17.91h-5.55Z"/>
  <path class="cls-1" d="m532.7,533.28c.03-5.96.1-11.92.05-17.87-.02-1.89-.46-3.65,2.52-3.57,2.79.07,2.58,1.58,2.58,3.6,0,5.95.24,11.9.39,17.84h-5.55Z"/>
  <path class="cls-1" d="m776.86,153.61c.03,74.53-50.38,137.78-121.13,153.71-4.72,1.06-7.8,3.1-10.08,7.25-6.1,11.08-13.7,20.72-25.42,26.6-5.3,2.66-10.19,3.19-15.88,1.24-15.55-5.34-24.52-16.04-26.68-32.13-.56-4.17-2.29-5.66-5.92-6.99-59.02-21.71-94.85-63.45-105.1-125.42-13.39-80.95,44.25-160.74,125.32-175.28,87.2-15.63,168.4,41.19,183.09,128.23,1.38,8.18,2.31,16.46,1.81,22.79Zm-77.74,110.3c2.46-.19,3.79-1.56,5.18-2.73,40.38-33.94,57.79-76.91,49.03-129.14-12.68-75.57-87.85-124.97-162.36-107.49-70.96,16.66-115.24,83.83-102.4,155.92,4.21,23.63,14.65,44.53,30.31,62.82,3.09,3.6,4.67,3.94,7.06-.79,5.13-10.15,12.15-19.08,19.99-27.27,3.14-3.28,4.11-5.4.08-8.71-3.46-2.84-3.73-6.7,1.66-7.13,9.92-.79,9.99-10.28,14.82-15.49,1.36-1.46-.59-2.28-1.77-2.91-9.05-4.89-13.33-13.22-15.68-22.62-8.01-32.03-1.95-62.06,15.59-89.32,23.66-36.77,64.82-40.55,100.56-17.01,3.69,2.43,6.23,3.25,10.44,1.79,12.57-4.35,25.91,2.91,28.68,15.31,1.17,5.23.88,10.63,0,15.85-1.42,8.38-2.97,16.68.07,25.57-5.88-1.04-7.85-4.84-9.37-9-1.94-5.33-1.45-10.92-1.65-16.44-.19-5.31-1.58-10.09-7.19-12.29-1.5-.59-3.21-1.3-4.54.05-1.22,1.23.03,2.58.49,3.79,4.53,11.76,5.02,23.84,2.66,36.06-.88,4.56-2.56,8.59,3.24,11.57,2.94,1.51,3.04,5.52,2.53,8.84-.53,3.45-1.95,6.59-3.62,9.65-3.69,6.77-.87,12.08,6.49,12.41,20.16.92,33.7,18.29,29.54,38.18-.84,4.02-.63,6.28,4.25,5.83,2.08-.19,4.28.04,5.02,2.62.59,2.08-.55,3.51-1.95,4.83-9.69,9.17-17.96,21.03-34.13,17.93-.18-.04-.41.18-1.13.52,3.6,12.68,5.67,25.8,8.08,38.81Zm-43.44,34.84c3.18.94,5.91-.77,8.66-1.63,72.35-22.61,115.28-92.88,102.65-167.91-12.87-76.46-88.69-131.76-165.39-120.63-67.21,9.75-117.27,59.56-127.45,126.8-10.17,67.16,30.09,134.94,94.39,158.52,2.81,1.03,7.3,5.74,9.29.47,1.99-5.28-4.45-4.75-7.3-5.82-62.66-23.52-101.46-90.24-90.23-155.55C494.21,52,570.63.01,651.28,16.66c73.68,15.21,124.62,90.73,109.72,164-11.23,55.23-44.17,92.15-97.69,110.43-3.97,1.35-7.15,2.93-7.63,7.66Zm4.21-103.43c-.07.9-.15,1.31-.12,1.71.18,3,3.52,7.25.09,8.68-4.37,1.82-3.37-4.25-5.5-6.22-.33-.3-.52-.75-.77-1.15-1.98-3.2-5.15-4.37-8.37-3.17-3.47,1.3.22,3.88-.2,5.9-.35,1.67,1.03,4.1-1.15,4.9-3.16,1.17-2.94-2.04-3.71-3.69-2.53-5.36-6.25-8.54-12.58-7.19-2.45.52-4.36,1.93-4.72,4.45-.42,2.91,2.31,2.17,3.83,2.76,2.29.89,4.51,2.31,4.08,4.88-.39,2.28-3.04,1.52-4.76,1.67-12.84,1.08-21.33,7.25-25.37,19.87-7.25,22.69-12.16,45.9-15.12,69.44-2.48,19.72,5.73,32.07,22.22,37.15,3.64,1.12,5.38.4,6.98-2.96,4.05-8.46,6.27-17.39,6.61-26.66.93-24.72-1.19-49.33-3.65-73.88-.58-5.77.45-7.62,6.56-7.54,11.52.14,23.12.94,34.57-1.24,7.1-1.35,12.19-7.04,12.44-13.77.24-6.63-3.93-11.93-11.37-13.95Zm-85.23-90.53c-7.23,2.82-12.28.97-16.88-2.58-2.3-1.78-3.49-1.54-4.29,1.41-5.36,19.56-6.42,39.05.87,58.39,1.83,4.84,4.71,9.01,9.22,11.78,2.21,1.36,4.34,2.58,6.27-.77,2.32-4.04,5.35-5.27,8.38-.61,1.42,2.17,2.96,1.76,4.7.81,17.63-9.7,33.7-21.1,42.48-40.1,1.93-4.18,3.05-8.71,2.35-13.43-.5-3.37-1.38-5.38-5.82-3.86-6.24,2.15-12.65,1.57-18.91-1-2.34-.96-4.4-4.99-6.74-2.75-1.8,1.73-1.79,5.54-2.15,8.48-.14,1.18.91,2.49,1.39,3.75,2.09,5.48-.46,9.37-6.34,8.82-4.55-.42-9.06-1.66-13.49-2.88-5.69-1.58-7.79-5.39-5.93-11.1,1.41-4.33,2.92-8.63,4.88-14.38Zm74.86-27.81c-.13-2.07-.14-4.16-.4-6.22-1.72-13.97-9.22-22.69-22.04-24.82-23.95-3.97-42.94,4.58-57.66,23.47-2.64,3.39-2.29,4.85,2.27,5.58,4.86.78,8.8,3.81,12.72,6.73,3.71,2.76,4.64,5.59,2.64,10.04-3.41,7.55-6.38,15.32-9.14,23.14-1.02,2.89-4.87,7.08-.6,9.02,4.76,2.17,5.54-3.29,6.87-6.49,3.54-8.51,7.12-17.02,10.34-25.65,1.23-3.28,2.95-4.64,6.48-4.9,11.4-.82,22.02,1.26,31.87,7.21,8.82,5.32,11.52,4.21,15.1-5.53,1.39-3.79,1.56-7.65,1.54-11.58Zm42.87,122.16c4.15,0,8.3-.12,12.44.04,2.98.12,4.64-1.03,5.66-3.85,3.15-8.71,2.24-16.75-3.73-23.94-6.43-7.73-14.96-9.94-24.32-7.5-8.65,2.26-14.17,8.37-16.39,17.07-.6,2.35-1.69,5.81.42,7.23,6.58,4.41,10.48,14.17,21.09,11.02,1.48-.44,3.21-.06,4.82-.07Zm-85.34,0c3.92.83,7.95.11,9.92-5.44.55-1.55,2.39-2.75,3.81-3.88,6.69-5.32,5.67-15.76-1.91-19.54-4.15-2.07-8.52-2.15-12.82-1.14-8.11,1.91-14.03,10.67-13.04,18.79,1.06,8.66,4.01,11.2,14.03,11.21Zm-39.75,76.6c-.16,5.96,5.69,5.14,9.23,6.55,4.26,1.7,4.1-2.45,4.54-4.87,2.99-16.49,6.48-32.86,11.52-48.87.41-1.31,2.17-3.61-.21-3.93-3.58-.48-7.87-2.05-10.36,2.71-7.86,15.04-12.1,31.17-14.71,48.4Zm76.85,25.55c4.34-5.79,7.16-10.44,5.26-17.22-4.39-15.63-4.31-31.27,2.14-46.48,2.37-5.6.08-6.88-5.09-6.02-1.35.23-2.78.29-4.14.13-4.82-.58-5.79,1.54-5.25,6.03,2.48,20.8,4.67,41.63,7.08,63.57Zm-.57-114.51c11.22.13,11.31.14,11.37-13.39.04-9.91,1.69-8.2-15.03-8.64-7.24-.19-6.8-.09-7.54,14.96-.54,10.96,7.46,5.53,11.2,7.07Zm19.9-19.28c2.69-2.42,4.62-4.4,6.8-6.06,6.19-4.72,6.67-8.5,1.63-14.43-7.3-8.58-21.09-6.19-25.6,4.36-1.79,4.19-1.46,6.73,3.92,6.27,6.99-.6,11.61,2.16,13.25,9.86Zm-122.91,94.94c2.85-14.3,9.56-26.77,17.23-38.81,1.15-1.8,2.36-3.45.26-5.46-2.19-2.1-3.7-.79-5.21.8-8.76,9.24-16.38,19.3-22.16,30.7-1.32,2.61-1.27,4.8,1.22,6.67,2.71,2.04,4.74,5.04,8.65,6.1Zm77.39-152.69c2.74-.29,5.53-.35,8.2-.95,2.5-.56,4.92-1.78,5.24-4.77.29-2.68-2.22-3.27-3.91-4.2-7.17-3.97-14.85-5.94-23.12-5.75-3.12.07-5.15.73-5.97,4.17-.82,3.41-.23,5.63,3.02,7.37,5.2,2.78,10.63,4.28,16.54,4.14Zm-12.87,97.29h-46.68c4.44,5.96,8.95,10.47,17.05,9.38,4.52-.61,9.27-.65,13.77.01,7.67,1.12,11.65-3.2,15.85-9.39Zm77.85,20.79c-3.61,19.12-11.05,36.51-19.01,54.24,14.43-2.67,26.62-38.39,19.01-54.24Zm-106.81-128.39c3.78-.38,3.13-6.28,4.5-10.09,1.15-3.21-9.24-9.02-14.92-8.68-3.27.2-8.4,7.4-8.15,11.45.2,3.26,9.44,7.55,18.57,7.31Zm138.04,107.02c-11.01,0-21.06.2-31.1-.09-4.63-.13-4.25,2.65-4.65,5.69-.58,4.33,2,4.3,4.96,4.25,3.9-.07,7.87-.48,11.69.08,8.32,1.22,14.03-2.33,19.1-9.94Zm-139.66-7.21c3.45-.86,8.58,1.84,10.2-1.35,1.51-2.99-2.9-6.21-4.83-9.22-5.51-8.58-5.69-8.59-11.18.15-1.89,3-6.35,6.2-4.61,9.23,1.67,2.91,6.81.46,10.43,1.18Zm105.72-70.38c-5.39-2.39-9.06-1.42-12.25,1.64-1.21,1.16-3.04,2.7-1.1,4.55,1.37,1.3,2.99.75,4.16-.65,2.13-2.53,5.26-3.45,9.18-5.54Z"/>
  <path class="cls-1" d="m505.28,406.85c0,17.92-.19,35.84.12,53.75.09,5.08-1.11,7.06-6.44,6.52-4.8-.48-9.72-.47-14.53,0-5.14.5-5.97-1.6-5.94-6.23.2-30.21.23-60.43-.02-90.64-.04-4.99,1.64-5.48,6.16-6.12,15.09-2.16,25.12,3.14,33.63,16.05,10.49,15.91,23.36,30.27,35.24,45.36,2.27-1.43,1.2-3.45,1.21-5.04.1-17.07.17-34.14-.02-51.2-.05-3.93,1.1-5.25,5.06-5.02,6.87.41,15.86-2.21,20.09,1.22,4.43,3.6,1.34,12.94,1.39,19.76.17,25.37-.04,50.74.17,76.11.04,4.49-1.36,5.2-5.69,5.88-15.41,2.41-25.57-3.22-34.21-16.25-10.4-15.68-23.06-29.86-34.74-44.69-.49.18-.99.37-1.48.55Z"/>
  <path class="cls-1" d="m649.55,469.87c-25.64.03-45.97-13.35-53.97-35.5-7.75-21.47-1.2-45.81,16.19-60.13,32.66-26.9,84.37-10.33,93.45,29.93,7.86,34.86-18.23,65.66-55.67,65.7Zm-.11-82.19c-16.11-.01-29.04,12.53-28.99,28.13.05,15.61,13.13,28.38,28.99,28.31,16.06-.08,28.9-12.66,28.89-28.31,0-15.8-12.65-28.11-28.89-28.12Z"/>
  <path class="cls-1" d="m809.95,416.04c0,15.22-.16,30.45.1,45.67.07,4.34-1.27,5.64-5.48,5.38-6.89-.43-15.9,2.18-20.13-1.26-4.45-3.62-.99-12.98-1.46-19.81-.47-6.82,2.87-15.62-1.41-19.92-3.99-4.01-12.74-1.12-19.37-1.08-5.67.03-12.96-2.59-16.6,1.18-3.3,3.41-.82,10.54-.95,16.03-.16,6.69-.2,13.38.03,20.06.12,3.59-1.04,4.94-4.7,4.77-7.13-.33-16.15,2.23-20.88-1.21-4.61-3.36-1.41-12.9-1.46-19.71-.19-25.14.07-50.28-.2-75.42-.06-5.2,1.33-6.97,6.56-6.48,5.04.46,10.17.35,15.23.02,4.23-.27,5.63,1.1,5.49,5.41-.3,9.68.11,19.38-.18,29.06-.13,4.29,1.26,5.56,5.49,5.43,9-.29,18.02-.38,27.01.02,5.16.23,6.17-1.87,6.03-6.44-.28-9.45.07-18.91-.16-28.37-.09-3.87,1.06-5.33,5.08-5.1,5.52.31,11.1.34,16.62,0,4.28-.27,5.52,1.14,5.45,5.42-.25,15.45-.1,30.91-.1,46.36Z"/>
  <path class="cls-1" d="m1020.89,467.01c-11.21,0-20.65-.16-30.08.08-3.57.09-4.69-2.22-6.19-4.53-6.96-10.79-13.96-21.55-22.34-32.12,0,10.17-.25,20.35.11,30.5.17,4.85-1.31,6.65-6.18,6.12-6.79-.73-15.65,2.88-19.89-1.55-3.89-4.06-1.03-12.75-1.06-19.39-.11-25.13.11-50.27-.17-75.4-.06-5.2,1.33-6.68,6.54-6.51,12.45.4,24.94-.14,37.39.22,23.23.67,36.94,19.59,30.7,41.94-2.33,8.36-5.89,11.77-20.42,19.42,10.2,13.31,20.36,26.57,31.58,41.21Zm-58.59-69.82c0,3.21,0,6.42,0,9.62,0,1.66.05,3.32,2.37,3.34,5.06.04,10.25.32,14.45-3.16,4.9-4.06,5.6-9.28,3.06-14.87-2.24-4.94-11.37-8.84-17.35-6.92-5.3,1.7-1.36,6.66-2.51,9.94-.21.61-.03,1.36-.02,2.05Z"/>
  <path class="cls-1" d="m872.9,364.35q14.18,0,19.38,13.62c10.44,27.3,20.8,54.64,31.41,81.88,2.05,5.26,2.26,8.27-4.72,7.2-1.35-.21-2.79-.19-4.15,0-11.55,1.61-20.93.05-22.14-14.36-.22-2.63-2.17-3.59-4.95-3.55-10.16.14-20.33.24-30.49-.03-4.31-.11-4.62,2.84-5.59,5.61q-4.32,12.3-17.34,12.3-15.63,0-10.16-14.3c10.18-26.67,20.56-53.26,30.37-80.06,2.31-6.31,5.07-9.8,12.16-8.37,2,.4,4.15.06,6.22.06Zm-.36,30.77c-3.95,11.17-7.13,20.47-10.55,29.67-1.4,3.76.19,4.39,3.44,4.3,4.62-.13,9.25-.16,13.86,0,3.6.13,5.18-.55,3.62-4.66-3.42-9.02-6.46-18.19-10.37-29.32Z"/>
  <path class="cls-1" d="m362.8,467.02c11.37-29.86,22.23-58.42,33.12-86.98q5.98-15.69,22.88-15.68,12.41,0,16.76,11.46c10.8,28.38,21.46,56.82,32.53,85.1,2.15,5.5,1.03,6.87-4.42,6.14-1.59-.21-3.25-.22-4.84,0-11.55,1.61-20.87.02-22.09-14.35-.27-3.14-2.79-3.6-5.65-3.56-9.23.14-18.48.32-27.7-.06-4.5-.18-6.47,1.43-7.85,5.57-4.13,12.43-4.29,12.38-17.22,12.38h-15.52Zm53.75-71.85c-3.92,11.13-7.25,20.83-10.78,30.46-1.18,3.21.42,3.47,2.87,3.45,5.29-.05,10.58-.12,15.86.03,2.88.08,3.75-.86,2.77-3.6-3.42-9.59-6.79-19.19-10.73-30.33Z"/>
  <path class="cls-1" d="m621.72,521.19c-.62-.48-1.25-.97-1.87-1.45.66-.8,1.49-1.07,2.18-.24.24.29-.19,1.11-.31,1.69Z"/>
  <path class="cls-1" d="m626.89,512.8c-.53-.3-1.07-.6-1.6-.9.33-.21.67-.43,1-.64.2.51.4,1.03.6,1.54Z"/>
  <path class="cls-1" d="m701.05,135.3c14.16-2.39,28.49-2.33,42.78-2.85,2.07-.07,4.57-.84,4.75,2.25.17,3.01-2.52,2.12-4.09,2.11-14.47-.06-28.99,1.08-43.44-1.52Z"/>
  <path class="cls-1" d="m700.51,146.1c15.11-1.9,30.3-2.17,45.5-2.17,1.75,0,4.15-.43,3.91,2.44-.2,2.35-2.39,1.71-3.85,1.72-15.2.08-30.41.12-45.55-1.99Z"/>
  <path class="cls-1" d="m707.45,125.59c11.54-3.86,23.48-3.44,35.26-4.66,1.73-.18,3.37.23,3.41,2.41.05,2.43-1.94,2.22-3.46,2.23-11.74.05-23.47.02-35.21.02Z"/>
  <path class="cls-1" d="m532.07,161.46c-11.74,0-23.48.04-35.22-.04-2.12-.01-5.41.73-5.12-2.78.24-2.97,3.26-1.82,5.11-1.74,11.68.51,23.35,1.17,35.02,1.78.07.93.14,1.85.21,2.78Z"/>
  <path class="cls-1" d="m538.7,184.26c-13.56,0-27.11,0-40.67,0-1.68,0-3.59-.14-3.66-2.22-.1-3.13,2.59-1.98,4.09-1.97,13.5.1,27,.42,40.24,4.19Z"/>
  <path class="cls-1" d="m533.09,172.92c-12.34,0-24.04.04-35.74-.04-1.84-.01-4.77.79-4.57-2.45.17-2.75,2.81-1.72,4.41-1.65,10.3.47,20.6,1.1,30.9,1.62,1.67.09,3.11.5,5,2.51Z"/>
  <path class="cls-1" d="m530.72,147.06c-11.9,3.5-24.06,2.17-36.12,2.52-1.43.04-2.93-.27-2.78-2.14.19-2.28,2.05-2.08,3.64-2.01,11.75.53,23.5,1.08,35.25,1.63Z"/>
  <path class="cls-1" d="m535.75,196.18c-11.39,0-22.79-.02-34.18.02-2.05,0-4.03-.46-4.09-2.71-.08-2.99,2.56-1.97,4.05-1.82,11.39,1.13,22.97-.05,34.22,4.51Z"/>
  <path class="cls-1" d="m531.41,136.47c-12.71,1.31-23.27,2.1-33.88,1.76-1.64-.05-4.26.91-4.41-1.82-.14-2.63,2.31-2.3,4.11-2.29,10.81.08,21.61.26,34.17,2.35Z"/>
  <path class="cls-1" d="m528.79,112.49c-9.26,2.88-18.59,2.34-27.88,2.39-1.1,0-2.49-.08-2.07-1.81.35-1.46,1.27-2.39,2.95-2.28,9,.58,18,1.14,27,1.71Z"/>
  <path class="cls-1" d="m527.07,126.83c-8.95,0-17.9.07-26.85-.06-1.78-.02-4.77,1.07-4.7-2.24.07-3.11,2.89-2.47,4.79-2.24,8.81,1.11,17.87-.01,26.76,4.53Z"/>
  <path class="cls-1" d="m534.1,205.56c-10.33,1.8-19.28,2.1-28.26,2.06-1.97,0-4.2-.18-4.12-2.49.1-2.79,2.74-1.52,4.25-1.57,8.95-.27,17.8.81,28.13,1.99Z"/>
  <path class="cls-1" d="m535.12,101.64c-9.85,2.11-18.55,2.06-27.23,1.95-1.56-.02-4.29.91-4.06-2.05.19-2.46,2.61-2,4.4-2.02,8.49-.1,16.9.83,26.9,2.13Z"/>
  <path class="cls-1" d="m715.73,112.84c7.71-3.02,15.88-1.71,23.74-3.06,1.54-.27,2.77.58,2.76,2.28,0,2-1.83,1.81-3.05,1.97-7.85,1.05-15.61-.92-23.46-1.19Z"/>
  <path class="cls-1" d="m725.06,156.6c7.32-.48,14.64-.99,21.96-1.43,1.3-.08,2.91-.34,3.2,1.62.2,1.32-.41,2.34-1.78,2.35-7.83.06-15.67.03-23.5.03.04-.86.08-1.72.12-2.58Z"/>
  <path class="cls-1" d="m725.94,167.92c7.63-.56,14.01-1.06,20.38-1.46,1.5-.09,3.52-.49,3.39,2.06-.11,2.2-1.74,2.36-3.48,2.16-6.29-.71-12.81.48-20.3-2.76Z"/>
  <path class="cls-1" d="m712.2,102.57c7.11-3.45,14.69-3.3,22.1-4.11,1.7-.19,3.52.25,3.44,2.35-.09,2.47-2.34,1.69-3.72,1.71-7.27.1-14.55.05-21.83.05Z"/>
  <path class="cls-1" d="m534.96,90.55c-8.34.58-16.77,2.57-25.22-.33,8.31-4.19,16.75-.4,25.22.33Z"/>
  <path class="cls-1" d="m540.36,79.23c-7.45,2.64-13.92,2.04-20.33,2.08-1.25,0-3.23.46-3.27-1.44-.04-1.91,1.72-2.56,3.47-2.41,6.19.5,12.37,1.08,20.13,1.77Z"/>
  <path class="cls-1" d="m545.75,69.61c-6.27,2.76-12.01,1.88-17.63,2.06-1.21.04-3.16.54-3.3-1.32-.15-1.97,1.61-2.62,3.3-2.47,5.59.48,11.16,1.09,17.62,1.74Z"/>
  <path class="cls-1" d="m525.05,218.98c-4.74,0-9.49-.02-14.23.01-1.8.01-3.57-.56-3.62-2.39-.07-2.75,2.31-1.56,3.61-1.45,4.75.41,9.47,1.05,14.21,1.6,0,.74.02,1.48.03,2.22Z"/>
  <path class="cls-1" d="m552.3,60.12c-6.52,2.5-12.5,1.94-18.78,1.74q3.1-3.65,18.78-1.74Z"/>
  <path class="cls-1" d="m710.23,90.95c7.32-2.03,12.8-2.58,18.34-2.58,1.55,0,3.66-.2,3.4,2.18-.19,1.73-2.09,1.57-3.39,1.51-5.53-.26-11.05-.66-18.34-1.11Z"/>
  <path class="cls-1" d="m731.02,180.89c4.7-2.87,9.38-2.13,13.87-2.44,1.39-.1,2.9.07,2.62,2.1-.2,1.45-1.43,1.72-2.59,1.62-4.34-.35-8.67-.79-13.91-1.28Z"/>
  <path class="cls-1" d="m705.4,237.29c5.86-.49,10.56-2.65,15.86-1.4q-3.6,3.87-15.86,1.4Z"/>
  <path class="cls-1" d="m711.86,79.43c3.65-.52,7.01-1.03,10.38-1.46,1.47-.18,2.94.24,2.92,1.93-.02,1.46-1.55,1.35-2.65,1.35-3.57.01-7.08-.33-10.66-1.82Z"/>
  <path class="cls-1" d="m544.81,51.93c4.59-3.23,8.31-3.25,14.76.24-2.97.15-5.28.41-7.58.34-2.35-.08-4.82.74-7.18-.58Z"/>
  <path class="cls-1" d="m712.67,226.9c6.71-2.22,11.47-3.28,18.59-1.9-6.55,3.64-11.64,1.78-18.59,1.9Z"/>
  <path class="cls-1" d="m732.24,191.88c4.31-.86,6.96-1.48,9.63-1.89,1.23-.19,3.03-.56,2.99,1.53-.03,1.77-1.54,2.07-2.99,1.87-2.68-.36-5.34-.83-9.63-1.5Z"/>
  <path class="cls-1" d="m514.02,227.54c3.97-.92,7.19,1.01,12.52,1.41-5.66,1.84-9.56,4.6-12.52-1.41Z"/>
  <path class="cls-1" d="m558.85,42.72c6.05-4.44,10.61-1.38,15.2,0h-15.2Z"/>
  <path class="cls-1" d="m649.62,32.53c5.3-1.32,9.45-1.49,15.12,2.11-5.98-.31-10.17.19-15.12-2.11Z"/>
  <path class="cls-1" d="m577.05,34.72c5.03-2.95,8.37-3.55,12.85-.69-4.32.23-7.66.41-12.85.69Z"/>
  <path class="cls-1" d="m576.54,154.94c-10.89-.2-20.81-12.94-19.09-23.1.49-2.91,1.79-3.68,4.12-1.87,9.58,7.45,20.82,9.18,32.46,9.52,3.91.11,4.61,1.96,2.31,4.67-5.42,6.4-12.45,9.96-19.81,10.78Zm7.24-11.67c-6.31-1.79-11.75-3.33-18.3-5.18,5.52,7.68,10.41,8.91,18.3,5.18Z"/>
  <path class="cls-1" d="m560.65,153.13c5.25,4.06,10.38,5.83,16.36,6.65-3.26,4.44-7.36,4.41-11.28,2.97-3.6-1.32-6-4.07-5.08-9.63Z"/>
  <path class="cls-1" d="m613.4,80.58c-10.19-.99-19.98-4.06-29.18-9.12-2.44-1.34-4.37-3.13-2.89-6.03,1.63-3.18,4.21-1.91,6.5-.63,8.36,4.68,17.41,7.17,26.84,8.39,2.89.38,5.98.53,5.56,4.41-.45,4.18-3.98,2.76-6.82,2.98Z"/>
  <path class="cls-1" d="m617.21,69.06c-8.68-1.05-17.13-2.93-24.92-7.12-2.3-1.24-3.62-3.08-2.41-5.61,1.26-2.62,3.47-2.52,5.82-1.28,6.77,3.57,13.97,5.63,21.64,6.13,2.68.18,5.27,1.31,4.96,4.48-.25,2.61-2.39,3.75-5.09,3.4Z"/>
  <path class="cls-1" d="m689.63,172.09c-1.17,2.34-2.47,4.73-4.88,4.54-1.89-.14-3.86-2.24-3.89-4.25-.03-2.04,1.98-4.09,3.84-4.32,2.51-.31,3.5,2.4,4.92,4.03Z"/>
  <path class="cls-1" d="m701.86,176.14c2.12.59,3.85,1.95,4.27,3.96.5,2.37-1.61,4.2-3.41,4.44-2.27.3-4.64-1.4-4.72-3.9-.07-2.04,1.91-3.46,3.86-4.5Z"/>
  <path class="cls-1" d="m689.18,185.53c2.29.97,4.21,2.11,4.44,4.23.25,2.27-1.66,4.17-3.56,4.27-2.25.12-4.48-1.67-4.5-4.14-.02-2.09,2.13-3.2,3.62-4.36Z"/>
</svg>