<?xml version="1.0" encoding="UTF-8"?>
<svg id="Layer_21" data-name="Layer 21" xmlns="http://www.w3.org/2000/svg" viewBox="0 0 1202.64 533.28">
  <defs>
    <style>
      .cls-1, .cls-2 {
        stroke-width: 0px;
      }

      .cls-2 {
        fill: #fff;
      }
    </style>
  </defs>
  <path class="cls-1" d="m669.29,146.68c-4.01-2.58-5.03-6.32-5.03-10.69,0-6.1,6.07-4.45,9.03-7.24-.89-.49-1.63-.9-2.68-1.48,3.68-5.51,5.59-11.17,2.13-17.63-2.51-4.69-3.58-5.25-8.22-2.91-5.42,2.73-8.98,7.06-11.39,12.51-2.39,5.39-4.95,10.7-7.27,16.12-5.33,12.44-13.21,23.05-22.75,32.54-3.59,3.57-6.98,7.33-10.66,11.2-3.78-9.76-6.07-19.97-5.31-30.78-.48,0-.96.01-1.45.02,0,4.37-.58,8.83.14,13.08,1.09,6.46,2.18,13.18,4.85,19.07,7.15,15.77,4.84,30.45-3.43,44.78-2.74,4.74-5.39,9.75-9.11,13.67-9.23,9.71-9.91,21.05-6.02,32.53,3.13,9.23,8.27,17.81,12.77,26.54,1.69,3.27,4.15,6.14,6.15,9.26,2.09,3.28,1.31,4.84-2.61,4.85-4.17,0-8.28.08-11.73-3.41-1.17-1.18-4.15-.8-6.29-.73-2.3.07-2.89-.92-3.44-3-.7-2.64-2.27-5.04-3.32-7.6-.54-1.31-1.32-2.88-1.03-4.11,1.99-8.54-1.15-16.18-3.66-24-1.32-4.13-2.18-8.4-3.22-12.61-.13-.53.05-1.22-.23-1.61-4.22-5.77-1.48-11.43.75-16.72,2.75-6.55,1.66-12.1-2.11-17.77-6.29-9.45-12.31-19.08-18.48-28.69-1.94,1.74-.81,4.59-.25,7.24,1.63,7.65,3.63,15.22,5.02,22.91,1.94,10.72,2.21,21.42-2.98,32.71-.1-6.57.54-12.24-1.88-17.37-.37.03-.73.07-1.1.1,0,3.06-.01,6.11,0,9.17.07,14.5-4.54,26.98-16.08,36.28-3.83,3.09-8.24,5.17-13.35,5.42,5.07-3.7,11.55-6,12.56-13.64-12.23,2.36-24.56,9.73-24.75,15.48-2.11-4.38-2.19-8.07.08-11.41,2.31-3.38,4.99-6.54,7.77-9.57,4.97-5.43,9.2-11.3,11.41-18.39.61-1.95.58-4.11.28-6.35-4.17,12.1-10.18,22.6-22.16,28.63.77-.95,1.52-1.91,2.3-2.85.88-1.06,1.77-2.11,2.67-3.14,5.98-6.89,8.18-15.04,8.1-23.99-.07-7.53-.45-15.1.14-22.59.32-4.12,2.37-8.1,3.63-12.15.76-2.43,1.51-4.87,1.61-7.78-2,1.76-4.01,3.52-6.01,5.27l-.42-.4c3.17-3.18,6.34-6.35,10.29-10.31-1.18-.58-2.22-1.1-3.54-1.75.89-.46,1.24-.6,1.54-.8,4.83-3.36,9.64-6.77,14.49-10.1,2.7-1.86,5.51-3.58,8.21-5.44.87-.6,1.64-1.4,2.32-2.22,4.52-5.46,8.61-11.35,13.6-16.33,8.19-8.16,16.84-15.84,22.02-26.45,7.45-15.25,7.15-31.13,3.02-47.04-2.23-8.6-5.08-17.09-8.44-25.32-7.45-18.24-2.62-35.4,13.67-46.64.42-.29.8-.64,2.03-1.64-1.65-.96-3.02-1.76-5.26-3.06,7.55-1.14,16.24,4.56,18.82-6.93,1.13,1.5,2.15,2.86,3.17,4.21.3,0,.59-.01.89-.02V0c.46.23,2.27.59,2.44,1.32,2.46,10.69,12.47,14.3,19.34,20.8,4.09,3.87,8.58,7.31,12.73,11.11,2.62,2.4,2.4,8.33-.14,11.25-2.46,2.81-6.91,2.63-10.39.64-2.25-1.28-5.64-2.15-7.95-1.43-4.8,1.5-9.11,1.58-14.52-1.66.53,2.67.51,4.54,1.26,6.04,5.15,10.36,11.17,20.1,22.83,24.2,7.21,2.53,9.97,8.09,11.46,14.77.18.82-.39,1.99-.93,2.77-1.74,2.51-3.64,4.91-4.77,7.88,2.51-2.62,4.89-5.38,7.56-7.83,3.64-3.34,7.62-6.3,11.22-9.68,6.14-5.76,16.21-.46,16.61,7.8.33,6.75,3.52,13.42,5.86,19.98,1.15,3.22,1.38,6.06-.24,9.04-2.93,5.42-5.29,11.27-8.93,16.17-3.65,4.9-8.57,8.85-13.23,13.52Zm-90.37,98.24c10.29-7.76,19.93-20.82,24.52-32.2,2.96-7.32,3.31-14.63.67-22.07-1.28-3.61-2.54-7.24-3.94-10.81-4.75-12.07-6.92-24.5-5.48-37.46.38-3.38.77-6.76,1.28-11.2-2.62,4.35-4.41,7.9-6.74,11.05-5.62,7.61-11.49,15.03-17.26,22.53-10.06,13.09-10.74,23.78-2.33,37.97,2.52,4.24,5.34,8.3,7.87,12.54,5.71,9.56,8.78,19.3,1.39,29.64Zm39.7-80.99c.65-.68,1.32-1.34,1.94-2.04,10.96-12.49,16.28-27.43,18.83-43.56,1.51-9.55,3.78-18.84,9.37-26.95,3.62-5.25,2.75-9.86-2.79-13.31-2.45-1.52-5.13-2.69-7.45-4.38-10.42-7.59-19.83-15.98-22.03-30.01-2.83,3.72-3.35,7.95-3.11,12.33.44,8.07,3.91,15.06,8.17,21.69,4.06,6.33,7.23,13.09,7.63,20.61.53,10.13.66,20.31.44,30.45-.28,12.66-5.13,23.97-10.99,35.15Zm-68.07,23.03c-8.18,2.71-14.62,9.84-18.64,19.79-5.71,14.15-4.4,29.28-6.23,44.03,1.13-1.86,2.09-3.81,2.38-5.85.94-6.78,1.81-13.59,2.4-20.41,1.13-12.89,5.52-24.24,15.09-33.26,1.42-1.34,2.97-2.56,5-4.3Zm-2.7,65.6c.27-.04.54-.09.82-.13-.45-6.93-.79-13.87-1.37-20.79-1.2-14.4-3.97-28.97,6.27-42.85-4.99,3.11-7.63,6.79-8.2,11.12-.96,7.29-1.73,14.75-1.29,22.06.63,10.24,2.45,20.4,3.76,30.6Zm133.85-135.13c3.35-1.78,3.45-7.46.66-11.17-.22,3.63-.42,7.13-.66,11.17Z"/>
  <path class="cls-1" d="m319.45,453.63c3.75-6.28,7.09-11.89,10.67-17.89,1.69.93,3.17,1.75,4.75,2.61-.49,1.39-.89,2.52-1.42,4.04,10.63,7.49,22.31,11.24,35.23,9.76,4.91-.56,9.86-2.3,14.36-4.43,4.33-2.05,6.83-6.11,5.93-11.21-.95-5.37-5.37-7.13-9.97-7.83-4.74-.72-9.59-.58-14.38-1-7.38-.65-14.87-.83-22.07-2.34-11.49-2.4-17.19-8.97-18.01-19.06-.74-9.06,5.14-17.92,15.05-21.94,15.78-6.41,31.64-5.79,47.45.05,1.29.48,2.61.91,3.8,1.58,2.4,1.34,4.55,1.72,6.08-1.18,1.68.88,3.11,1.62,4.75,2.47-3.41,6.13-6.72,12.07-10.08,18.11-1.72-.95-3.14-1.74-4.86-2.7,2.66-3.94.16-5.29-2.99-6.55-11.84-4.74-23.88-6.5-36.14-2.02-2.97,1.08-5.94,3.07-8.04,5.41-4.02,4.5-2.52,10.62,3.13,12.76,3.64,1.38,7.69,1.95,11.61,2.28,8.9.74,17.85.86,26.73,1.7,10.72,1.01,18.38,7.21,20.4,15.81,2.37,10.1-1.87,19.96-11.25,25.77-10.61,6.58-22.37,6.86-34.29,5.9-9.07-.74-17.26-4.26-25.29-8.22-1.92-.95-3.56-2.45-5.89-.24-.59.56-3.13-.93-5.26-1.65Z"/>
  <path class="cls-1" d="m714.67,385.03v-4.8h23.07c.79,3.01.8,5.59-3.86,6.56,8.6,19.87,17.04,39.36,25.87,59.75,8.91-20.4,17.42-39.9,25.93-59.39-.49.07-.98.13-1.47.2-.97-2.15-1.94-4.29-3.22-7.14h23.01v4.81c-.22-.16-.44-.32-.65-.48-1.73,2.08-4.03,3.91-5.11,6.29-9.35,20.61-18.5,41.31-27.67,62-.6,1.35-.95,2.8-1.42,4.21.4-.1.81-.2,1.21-.3.93,2.14,1.86,4.28,3.08,7.1h-26.92c-.05-2.11-1.77-4.52,1.77-5.99.52-.22.54-2.97,0-4.21-5.27-12.37-10.7-24.67-16.1-36.98-3.64-8.29-7.15-16.64-11.04-24.81-1.3-2.73-3.61-4.98-5.46-7.44-.34.21-.68.41-1.02.62Z"/>
  <path class="cls-1" d="m511.65,463.89h-21.46c.06-2.49-1.25-5.08,2.38-6.13.7-.2,1.31-2.01,1.32-3.09.11-8.52.13-17.04,0-25.56-.02-1.23-.73-2.62-1.51-3.64-8.79-11.61-17.57-23.22-26.56-34.68-1.85-2.35-4.52-4.05-7.59-5.43v-5.13h24.6c-.52,2.26-1,4.38-1.48,6.5-.58.07-1.15.14-1.73.21,6.96,9.56,13.93,19.11,21.2,29.09,7.11-10.04,13.89-19.63,20-28.27-.91-2.95-1.54-5.02-2.33-7.57h23.41v4.96c-.26-.23-.52-.46-.78-.69-3.01,2.83-6.48,5.32-8.94,8.56-8.13,10.73-15.92,21.7-23.74,32.66-.8,1.12-1.17,2.77-1.19,4.17-.11,8.11-.16,16.22.05,24.32.04,1.4,1.57,2.71,2.22,4.14.76,1.67,1.32,3.44,2.12,5.56Z"/>
  <path class="cls-1" d="m673.85,448v19.48c-2.5.49-4.87,1.66-6.28-2.04-.33-.87-2.82-1.27-4.32-1.28-19.8-.08-39.6-.05-59.4-.05-1.49,0-2.98,0-4.78,0-.1-2.77-1.27-5.36,2.45-6.56.62-.2.97-2.13.97-3.27.06-21.59.06-43.17,0-64.76,0-1.1-.49-2.97-1.14-3.15-3.67-1.06-2.16-3.74-2.46-6.2h20.48c.25,2.62,1.23,5.23-2.47,6.34-.51.15-.88,1.62-.88,2.48-.03,20.76,0,41.52.04,62.28,0,.25.19.49.42,1.08,1.19.05,2.52.16,3.85.16,14.3,0,28.6,0,42.9,0,2.19,0,4.24.28,5.25-2.71.33-.98,3.13-1.11,5.36-1.81Z"/>
  <path class="cls-1" d="m550.72,55.68c7.51-.74,15.02-1.47,22.52-2.21-.03-.6-.06-1.2-.09-1.8-5.01-.73-10.63,4.09-15.17-1.42.95-.74,2.44-1.4,3.09-2.55.68-1.18,1.15-3.11.65-4.23-2.47-5.49-2.39-10.06,2.52-14,4.71-3.77,10.43-6.34,15.87-9.14,2.14-1.1,4.72-1.37,6.42-1.83.75-1.6,1.28-2.75,1.88-4.03-.23-.17-.84-.62-1.81-1.34,3.21-.29,5.99-.54,8.89-.81-.28.38-.46.79-.77,1-14.27,9.63-18.33,23.17-14.27,39.25,2.1,8.34,5.22,16.45,8.28,24.51,3.39,8.93,5.19,18.06,5.17,26.71-2.11-1.66-4.24-3.88-6.82-5.25-6.8-3.62-12.42-8.47-17.28-14.82,3.26-1.7,8,1.05,10.06-4.23-4.96-1.48-10.01-2.98-15.06-4.49.08-.54.16-1.08.25-1.62,2.27-.23,4.54-.47,6.81-.7.04-.27.08-.54.13-.81-4.49-1.47-8.98-2.95-13.47-4.42.07-.19.13-.38.2-.57,3.13.29,6.25.57,9.38.86.13-.41.27-.83.4-1.24-5.84-3.3-10.07-9.38-17.78-9.42,0-.47-.01-.94-.02-1.4Z"/>
  <path class="cls-1" d="m883.19,463.93h-20.87c-.19-2.5-1.43-5.04,2.29-6.29.63-.21.98-2.12.98-3.24.06-21.58.08-43.16-.05-64.75,0-1.29-1.43-2.52-2.03-3.86-.74-1.66-1.31-3.39-2.16-5.61h21.16c.1,2.56,1.17,5.16-2.48,6.38-.63.21-.95,2.15-.96,3.29-.06,21.44-.09,42.89.06,64.33,0,1.39,1.64,2.7,2.26,4.16.71,1.67,1.12,3.46,1.79,5.58Z"/>
  <path class="cls-1" d="m565.38,504.94c-1.58,5.35-3.07,10.73-4.82,16.03-.33,1-1.65,2.29-2.54,2.3-.83.02-2.15-1.34-2.45-2.34-2.1-7.09-4-14.23-6.02-21.56,2.47-1.18,3.35-.04,3.9,2.2,1.39,5.7,2.9,11.36,4.69,18.31,1.97-6.8,3.51-12.43,5.29-17.98.37-1.16,1.65-2.02,2.52-3.02.85,1,2.13,1.87,2.48,3.03,1.68,5.43,3.11,10.94,5.39,16.43.94-3.61,1.52-7.37,2.94-10.77,1.25-2.98-.44-7.96,5.62-9.01-2.38,8.26-4.51,15.85-6.83,23.38-.21.68-1.75,1.55-2.38,1.36-.91-.28-1.94-1.32-2.23-2.26-1.68-5.32-3.16-10.7-4.7-16.06-.29-.02-.58-.04-.87-.05Z"/>
  <path class="cls-1" d="m775.71,498.31c0,8.36.05,15.62-.07,22.87-.01.75-1.01,1.48-1.54,2.22-.46-.82-1.29-1.64-1.32-2.47-.13-4.71-.06-9.42-.87-14.31-2.12,4.79-4.19,9.6-6.42,14.34-.45.96-1.5,1.65-2.27,2.47-.77-.84-1.8-1.55-2.26-2.53-2.17-4.64-4.19-9.35-7.1-13.87,0,4.59.1,9.18-.08,13.76-.04,1.02-1.1,2-1.69,3l-1.17-.57v-25.29c1.86,1.46,3.55,2.14,4.15,3.35,2.76,5.63,5.21,11.41,8.17,18.05,1.93-4.3,3.27-8.07,5.25-11.47,1.83-3.16,1.52-8.1,7.23-9.53Z"/>
  <path class="cls-1" d="m649.12,509.57h12.06c.49-3.57.96-7.06,1.54-10.55.02-.1,1.2-.01,2.03-.01v24.02q-1.73.08-3.5-10.37h-11.8c-.29,3.67-.54,7.15-.93,10.62,0,.09-1.46.01-2.4.01v-23.95q2.98-.16,2.99,3.65c0,2.04,0,4.08,0,6.58Z"/>
  <path class="cls-1" d="m397.2,498.88c2.79,0,4.85,0,6.91,0,5.36.02,8.25,1.61,9.28,5.13,1.12,3.84-.29,6.53-5.21,9.67,1.77,3.04,3.55,6.09,5.33,9.13-.22.34-.44.68-.66,1.02-1.28-.79-2.85-1.33-3.77-2.43-1.31-1.55-1.9-3.71-3.24-5.22-1.2-1.36-2.98-2.21-4.5-3.29-.33.33-.66.65-.99.98v8.97c-.36.26-.72.53-1.07.79-.68-.72-1.95-1.44-1.96-2.17-.15-7.39-.09-14.78-.09-22.58Zm2.53,12.18c4.27-.15,8.06,1.08,10-2.66.72-1.39.25-4.84-.73-5.37-2.2-1.18-5.07-1.11-7.66-1.55-.5,3.01-1.01,6.03-1.6,9.57Z"/>
  <path class="cls-1" d="m448.27,523.95c-1.02-.99-2.46-1.8-2.96-3-.84-2.01-1.73-3.18-4.15-2.95-3.8.36-8.54-1.63-9.69,4.55-.1.52-1.94.72-3.62,1.29,2.99-8.24,5.65-15.71,8.46-23.12.29-.78,1.51-1.77,2.2-1.7.96.1,2.32.93,2.64,1.77,2.8,7.39,5.42,14.86,8.08,22.31l-.96.85Zm-5.12-8.72c-1.5-4.12-2.84-7.82-4.52-12.42-1.64,4.75-2.91,8.42-4.3,12.42h8.82Z"/>
  <path class="cls-1" d="m485.85,506.62c-1.39-.75-3.02-1.26-4.13-2.31-3.69-3.47-9.5-3.61-12.94-.11-3.66,3.74-3.62,10.49.08,14.19,3.6,3.59,9.08,3.41,12.91-.22,1.11-1.05,2.72-1.59,4.98-2.85-2.72,6.63-7.72,9.15-14.14,8.07-5.28-.89-9.31-5.59-9.69-11.29-.4-6.05,3.06-11.01,8.87-12.73,5.86-1.74,11.39.63,14.06,7.26Z"/>
  <path class="cls-1" d="m805.1,501.08c-3.17.15-6.33.29-9.7.45v8.22c2.37,0,4.77-.08,7.16.06.57.03,1.1.83,1.65,1.27-.55.44-1.08,1.22-1.65,1.26-2.29.15-4.6.06-7.15.06v8.6h9.83c-1.19,2.77-2.48,2.95-12.91,2.27v-23.76h12.85c-.03.52-.05,1.04-.08,1.56Z"/>
  <path class="cls-1" d="m502.59,499.28c7.9-1.1,11.51-.7,13.13,1.95h-10.06v8.16c2.93.25,5.89.5,8.85.75.04.6.07,1.2.11,1.81-2.86.25-5.71.5-8.89.77v7.82c3.12,1.63,7.14-1.11,10.77,2.65h-13.92v-23.91Z"/>
  <path class="cls-1" d="m621.28,501.55c-2.7-.21-4.67-.37-6.85-.54,1.99-2.98,14.93-2.94,16.81.05-2.19.15-4.16.28-6.62.44v21.43c-3.1,1.23-3.39-.2-3.37-2.32.07-6.27.02-12.53.02-19.05Z"/>
  <path class="cls-1" d="m706.77,523.32c0-5.77-.24-11.4.08-16.99.23-3.89-.86-5.69-4.94-5.06-.62.1-1.3-.2-2.02-.33,1.49-2.68,14.04-3.04,17.35-.08-2.69.28-4.84.51-7.15.76-.33,7.35-.66,14.52-1.07,21.69,0,.04-1.25,0-2.27,0Z"/>
  <path class="cls-1" d="m598.34,523.85c-.58-.93-1.65-1.84-1.68-2.79-.15-6.59-.16-13.19,0-19.79.02-.93,1.15-1.84,1.76-2.76.37.21.73.42,1.1.62v23.78c-.39.31-.78.62-1.18.93Z"/>
  <path class="cls-1" d="m731.3,524.33c0-8.55-.06-15.92.08-23.29.02-.84,1.12-1.67,1.72-2.5.41.17.82.34,1.23.52,0,7.63.05,15.25-.1,22.87-.01.6-1.39,1.18-2.93,2.4Z"/>
  <path class="cls-2" d="m578.92,244.92c7.39-10.35,4.32-20.09-1.39-29.64-2.53-4.24-5.36-8.29-7.87-12.54-8.42-14.19-7.73-24.88,2.33-37.97,5.76-7.5,11.64-14.92,17.26-22.53,2.33-3.16,4.12-6.71,6.74-11.05-.51,4.44-.91,7.82-1.28,11.2-1.44,12.96.73,25.39,5.48,37.46,1.4,3.57,2.66,7.2,3.94,10.81,2.64,7.44,2.28,14.75-.67,22.07-4.59,11.37-14.23,24.43-24.52,32.2Z"/>
  <path class="cls-2" d="m618.62,163.93c5.86-11.19,10.71-22.49,10.99-35.15.22-10.15.09-20.32-.44-30.45-.39-7.53-3.56-14.29-7.63-20.61-4.26-6.64-7.72-13.62-8.17-21.69-.24-4.39.28-8.61,3.11-12.33,2.21,14.03,11.61,22.42,22.03,30.01,2.32,1.69,5,2.86,7.45,4.38,5.55,3.45,6.41,8.06,2.79,13.31-5.59,8.1-7.86,17.4-9.37,26.95-2.55,16.12-7.87,31.06-18.83,43.56-.62.7-1.29,1.36-1.94,2.04Z"/>
  <path class="cls-2" d="m550.55,186.96c-2.03,1.74-3.57,2.95-5,4.3-9.57,9.02-13.96,20.37-15.09,33.26-.6,6.82-1.46,13.63-2.4,20.41-.28,2.04-1.25,3.99-2.38,5.85,1.83-14.75.52-29.88,6.23-44.03,4.01-9.94,10.45-17.08,18.64-19.79Z"/>
  <path class="cls-2" d="m547.84,252.55c-1.31-10.2-3.13-20.36-3.76-30.6-.45-7.31.33-14.76,1.29-22.06.57-4.33,3.2-8.01,8.2-11.12-10.23,13.89-7.46,28.46-6.27,42.85.58,6.92.92,13.86,1.37,20.79-.27.04-.54.09-.82.13Z"/>
  <path class="cls-2" d="m681.69,117.42c.24-4.04.45-7.53.66-11.17,2.79,3.71,2.69,9.39-.66,11.17Z"/>
</svg>