<svg width="414" height="559" viewBox="0 0 414 559" fill="none" xmlns="http://www.w3.org/2000/svg">
<path d="M32.7409 191.58C35.4709 183.45 37.1909 174.79 41.1109 167.29C53.3109 143.95 73.521 131.79 99.461 131.58C125.211 131.37 144.971 143.59 158.171 165.96C158.781 166.99 159.361 168.05 160.061 169.27C162.271 160.72 161.771 158.06 156.851 151.82C128.661 116.04 72.2409 115.68 43.2809 151.06C42.1209 152.47 40.591 153.57 38.601 155.4C38.591 147.55 52.6609 134.05 67.1909 128.03C102.991 113.21 133.971 121.08 160.551 149.36C162.081 143.17 160.591 138.86 155.731 134.8C125.351 109.4 85.3709 106.87 52.3409 128.57C50.7409 129.62 49.021 130.48 46.891 131.69C47.511 121.17 78.141 109.76 102.961 110.1C125.001 110.41 143.751 119.33 160.351 133.61C162.391 127.75 160.411 124.35 155.981 121.28C126.601 101 95.3709 97.9896 62.3009 110.66C60.2309 111.46 58.021 111.9 54.881 112.79C60.081 103.96 88.231 97.3796 108.771 99.3996C127.721 101.27 144.921 107.95 160.401 119.75C161.791 114.6 161.131 111.38 156.561 108.58C130.291 92.5296 102.321 88.5196 72.5609 95.6996C70.5409 96.1896 68.471 96.4196 66.211 95.7496C75.441 88.8896 86.4609 88.5996 97.0009 88.7296C108.161 88.8696 119.591 90.0996 130.361 92.9396C140.891 95.7096 150.741 101.1 160.821 105.32C162.451 100.51 159.971 97.6596 155.321 95.2896C132.741 83.7896 109.081 78.8896 83.831 82.6096C81.791 82.9096 79.671 82.6496 77.591 82.6496C77.451 81.9496 77.3109 81.2596 77.1709 80.5596C80.1909 79.5696 83.211 78.5796 86.631 77.4596C87.091 74.9996 87.6409 72.0796 88.1909 69.1696L90.651 69.0596C90.861 71.7196 91.071 74.3796 91.321 77.5196C95.321 78.7396 97.961 78.3696 98.511 72.5496C99.011 67.2896 100.961 62.1596 102.271 56.9696C103.261 57.1696 104.261 57.3596 105.251 57.5596C104.071 64.0096 102.901 70.4496 101.601 77.5596C103.891 77.7196 105.821 77.8496 108.171 78.0096C110.501 66.9696 112.651 56.1296 118.701 46.8596C119.401 47.0896 120.101 47.3196 120.811 47.5396C117.871 57.3996 114.931 67.2696 111.851 77.5696C114.821 78.1396 116.581 78.4796 118.901 78.9296C122.011 63.8196 126.861 49.4296 136.991 37.5096C137.621 37.7096 138.251 37.9096 138.881 38.1096C138.331 39.8196 137.921 41.5896 137.211 43.2296C132.991 52.9796 128.611 62.6496 124.521 72.4496C123.631 74.5996 123.731 77.1596 123.321 79.8996C125.761 80.2496 127.521 80.4996 129.151 80.7296C131.311 73.8296 132.761 66.9596 135.621 60.7396C138.591 54.2696 142.481 48.0896 146.791 42.4196C150.701 37.2696 154.851 31.7796 162.231 30.5396C147.061 44.5996 136.561 60.8896 133.701 81.9696C135.731 82.7296 137.571 83.4196 140.021 84.3396C143.241 63.6896 152.821 47.0096 170.171 35.4396C181.561 27.8396 194.341 23.9096 208.011 24.4696C237.951 25.6996 263.281 45.4596 270.761 72.3496C278.761 101.11 268.481 133.57 235.971 151.64C242.311 152.86 247.421 153.14 252.441 149.12C288.441 120.27 289.701 65.9396 254.961 35.6296C253.491 34.3496 252.111 32.9696 250.681 31.6396C251.071 30.9596 251.461 30.2796 251.851 29.5896C253.771 30.6496 255.951 31.4096 257.571 32.8096C287.701 58.9196 293.021 102.61 269.941 135.92C266.041 141.54 261.011 146.38 256.241 151.89C261.501 153 265.431 152.47 269.261 148.01C295.331 117.69 298.371 77.6596 276.841 44.0796C275.711 42.3196 275.071 40.2496 275.311 37.9196C289.821 54.3096 295.601 73.6696 294.841 95.2896C294.091 116.89 285.511 135.31 271.541 151.6C277.531 153.88 281.021 151.51 283.961 147.14C303.611 117.91 307.321 86.9396 294.361 54.0696C293.541 51.9896 292.971 49.8196 293.461 47.2996C301.191 57.2996 304.911 69.0096 305.051 81.2996C305.181 93.5196 304.911 106.18 301.891 117.89C298.831 129.75 292.201 140.69 287.081 152.16C290.761 153.35 293.821 152.09 296.551 147.66C313.001 120.94 316.121 92.3996 308.931 62.2996C308.611 60.9696 308.521 59.5896 308.441 58.2196C308.431 57.9796 309.021 57.7096 309.331 57.4596C315.081 62.0896 318.381 89.0196 315.881 105.18C313.311 121.79 307.741 137.2 298.901 151.53C304.171 153.76 306.971 151.75 309.221 147.55C321.341 124.89 325.481 100.81 322.461 75.3896C322.311 74.1596 321.871 72.9296 321.961 71.7396C322.031 70.8896 322.771 70.0996 323.211 69.2896C324.051 69.9296 325.371 70.4196 325.631 71.2396C326.231 73.1596 326.331 75.2496 326.641 77.3396C329.811 78.4196 333.011 79.5096 336.221 80.5996C336.111 81.1596 336.001 81.7196 335.891 82.2796H327.781C327.641 84.6796 327.541 86.5796 327.421 88.5896C334.451 90.3496 341.091 91.9996 347.741 93.6596C347.521 94.6696 347.311 95.6796 347.091 96.6896C340.791 95.5696 334.491 94.4496 327.761 93.2596V99.8396C338.241 102.44 349.041 104.27 358.301 110.1L357.631 112.41C347.581 109.42 337.531 106.43 327.411 103.42C325.291 108.45 326.301 110.16 331.131 111.87C342.241 115.8 352.961 120.86 363.731 125.7C365.291 126.4 366.241 128.45 366.791 130.76C353.801 123.31 340.851 116.64 325.501 114.9C324.881 116.79 324.271 118.62 323.491 120.98C345.401 125.08 363.271 134.8 376.001 152.53C375.631 153.18 375.261 153.83 374.891 154.48C373.681 153.88 372.181 153.56 371.321 152.64C354.411 134.69 346.671 130.2 322.791 124.97C322.171 127.15 321.541 129.36 320.891 131.65C358.791 137.57 378.931 166.66 380.401 195.56C381.891 224.82 361.381 253.88 333.991 261.87C300.931 271.52 271.401 258.93 252.461 225.85C252.541 233.34 251.491 238.71 255.901 244.2C285.091 280.49 340.341 281.27 370.101 245.56C371.331 244.08 372.701 242.72 374.011 241.31C374.581 241.64 375.151 241.97 375.711 242.3C374.951 244 374.521 245.97 373.401 247.37C343.791 284.2 287.481 285.47 255.931 250.08C255.131 249.19 254.301 248.33 252.971 246.92C251.591 252.99 252.321 257.12 257.121 261.21C288.121 287.57 328.621 290.03 362.411 267.25C363.831 266.29 365.631 265.89 368.301 264.8C363.541 274.97 334.141 287.92 310.311 286.73C293.301 285.88 282.561 282.19 252.801 263.4C250.951 268.9 253.121 272.38 257.791 275.55C287.651 295.78 319.121 299.03 352.401 285.22C354.151 284.49 356.041 284.08 358.501 283.33C355.171 292.11 322.401 299.37 305.031 297.25C285.871 294.91 268.561 288.5 252.831 276.79C251.821 281.75 252.051 285 256.761 287.87C282.201 303.4 309.261 308.08 338.291 301.34C341.481 300.6 344.701 299.96 349.021 299.04C345.171 305.05 339.711 307.08 316.821 307.92C305.921 308.32 294.611 306.77 284.041 303.99C273.281 301.16 263.211 295.72 252.671 291.35C251.301 295.49 252.731 298.3 257.371 300.77C279.841 312.71 303.551 317.37 328.801 314.14C331.451 313.8 334.151 313.87 336.831 313.76C336.961 314.54 337.091 315.32 337.221 316.1C333.791 317.05 330.351 318.01 327.001 318.94C326.161 322.23 325.321 325.55 324.471 328.86C323.781 328.75 323.091 328.64 322.411 328.53V319.34C317.791 317.75 315.471 318.83 314.821 324.31C314.181 329.71 312.251 334.96 310.881 340.28C309.861 340.05 308.841 339.82 307.811 339.59C309.121 332.95 310.441 326.31 311.851 319.17H305.981C302.341 330.05 298.821 340.58 295.301 351.11L292.201 350.37C292.501 348.64 292.611 346.85 293.141 345.2C295.881 336.7 298.741 328.24 301.721 319.24C298.671 318.55 296.941 318.16 294.581 317.63C291.141 333.36 286.061 348.19 275.461 360.16C274.511 359.73 273.571 359.3 272.621 358.87C281.101 346 288.591 332.77 289.891 316.81C287.721 316.46 285.941 316.17 283.671 315.8C279.831 338.01 269.381 355.81 251.331 368.6C250.561 368 249.791 367.41 249.021 366.81C253.671 362.13 258.801 357.84 262.831 352.68C267.091 347.23 270.911 341.24 273.801 334.97C276.681 328.72 278.181 321.82 280.411 314.8C277.761 313.8 275.941 313.12 273.881 312.34C265.031 349.87 243.311 371.99 203.421 371.76C177.751 371.61 152.791 353.06 144.171 328.77C138.371 312.43 138.431 296.17 144.961 280.05C151.361 264.26 162.681 252.88 178.251 244.65C169.111 242.41 162.831 245.19 156.881 250.88C123.861 282.44 125.251 332.72 160.141 362.31C161.701 363.63 162.811 365.49 163.671 367.47C151.021 364.46 129.671 337.09 129.131 308.39C128.651 282.73 138.451 261.8 158.021 244.69C151.581 242.85 147.391 244.51 143.451 249.09C117.741 279.07 115.241 320.88 137.421 353.66C138.501 355.26 139.421 356.97 140.421 358.63C139.911 359.13 139.401 359.63 138.891 360.13C137.361 358.75 135.521 357.59 134.341 355.95C111.921 324.86 113.361 279.97 137.631 250.25C139.021 248.54 140.341 246.77 141.901 244.76C136.241 242.65 132.761 244.55 129.731 249.02C109.501 278.83 105.801 310.32 119.641 343.74C120.481 345.76 120.941 347.93 121.881 351.04C112.721 346.08 106.601 320.08 107.991 297.38C109.181 277.91 116.531 260.8 127.921 244.8C123.071 243.01 119.931 243.89 117.121 248.43C100.371 275.49 97.0109 304.37 104.731 334.89C105.031 336.06 105.271 337.25 105.421 338.45C105.461 338.78 105.091 339.17 104.151 341.03C102.741 338.42 101.361 336.71 100.851 334.78C92.5409 303.58 96.7809 274.19 113.751 246.69C114.061 246.19 114.171 245.57 114.501 244.65C109.581 242.78 106.581 244.37 104.201 248.88C92.011 271.97 87.611 296.39 91.151 322.27C91.431 324.28 91.1909 326.37 91.1909 328.42C90.4409 328.54 89.6809 328.67 88.9309 328.79C88.0709 325.59 87.2209 322.39 86.3109 318.98C83.1009 318.05 79.6009 317.04 76.1009 316.03C76.2009 315.42 76.301 314.82 76.401 314.21H85.6909V308.17C78.6109 306.21 71.6109 304.28 64.6209 302.35C64.8509 301.37 65.081 300.4 65.321 299.42C71.841 300.72 78.361 302.01 85.511 303.43C85.721 301.23 85.9009 299.3 86.1109 297.13C75.3209 293.75 63.8109 292.71 54.6909 285.78C54.9009 285.11 55.1009 284.44 55.3109 283.78C65.5109 286.98 75.711 290.18 86.771 293.65C86.921 290.33 87.0109 288.2 87.1109 285.85C71.3009 282.9 57.0209 277.69 45.2209 267.26C45.4509 266.64 45.6809 266.03 45.9109 265.41C47.5209 265.93 49.181 266.33 50.731 267C61.371 271.64 71.9909 276.34 82.6209 281C87.6309 283.2 89.3009 280.79 89.3709 276.03C82.5609 273.81 75.5309 272.23 69.1609 269.25C62.5409 266.15 56.3309 262.02 50.3409 257.76C44.8209 253.83 39.8409 249.13 37.5809 242.66C38.1209 242.23 38.6509 241.8 39.1909 241.37C40.3109 242.42 41.5709 243.35 42.5209 244.54C53.2209 257.87 67.231 265.94 83.531 270.31C90.091 272.07 91.3709 271.2 92.0409 264.83C77.3809 262.46 64.2909 256.78 53.4909 246.18C43.3409 236.22 37.0109 224.32 34.1509 210.47C33.7809 208.67 33.2009 206.91 32.7109 205.13C32.7109 200.6 32.7109 196.07 32.7109 191.54L32.7409 191.58ZM252.561 303.27C252.491 304.33 252.411 305.34 252.361 306.36C251.491 326.9 238.721 343.44 219.301 349.17C200.991 354.58 180.431 347.4 169.691 331.85C157.761 314.58 158.131 294.08 170.681 277.26C180.901 263.56 200.661 256.49 216.851 260.88C218.061 261.21 218.971 262.69 220.011 263.63C218.631 263.94 217.271 264.34 215.871 264.51C215.081 264.6 214.251 264.3 213.431 264.19C182.581 259.91 157.901 287.69 166.731 316.76C173.121 337.8 191.711 349.46 213.821 346.28C233.621 343.44 247.901 326.34 248.081 305.1C248.191 292.96 248.261 280.81 248.071 268.67C247.621 240.53 246.981 212.39 246.491 184.25C246.481 183.67 247.331 183.08 247.781 182.49C248.461 182.43 249.151 182.37 249.831 182.31C250.661 187.3 251.751 192.27 252.261 197.29C252.881 203.39 251.981 209.8 253.511 215.61C260.661 242.78 287.171 262.31 316.971 261.1C345.251 259.94 372.901 235.49 375.801 207.38C379.401 172.44 359.751 144.74 325.781 136.53C320.661 135.29 317.541 136.06 316.881 141.8C351.921 149.94 369.771 169.48 369.541 199.32C369.341 224.55 350.351 247.92 325.901 253C299.331 258.53 274.011 245.66 262.431 220.99C257.331 210.13 254.971 186.8 262.941 182.37C262.791 184.35 262.601 185.74 262.591 187.13C262.531 194.51 261.211 202.18 262.721 209.23C269.361 240.17 301.321 257.61 331.191 247.28C353.401 239.6 368.251 215.77 365.371 192.45C362.371 168.19 342.371 148.41 319.211 146.61C315.101 146.29 312.331 147.13 311.851 151.7C337.151 158.27 338.371 158.87 345.211 165.44C354.621 174.49 359.231 185.74 359.381 198.51C359.621 219.09 344.011 238.26 324.041 242.86C303.461 247.59 282.351 237.66 272.861 218.76C266.571 206.25 266.161 189.92 273.051 184.1C272.871 187.03 272.991 189.13 272.591 191.13C267.831 214.61 286.551 238.34 310.391 239.98C334.101 241.61 357.231 222.04 355.101 194.34C353.701 176.19 336.651 157.06 318.561 157.02C276.871 156.93 235.191 157.76 193.501 158.17C192.641 158.17 191.781 157.64 190.921 157.35C192.971 155.05 195.231 153.72 197.601 153.49C203.711 152.88 209.891 152.86 216.021 152.39C219.471 152.13 223.051 151.94 226.301 150.88C251.861 142.56 269.211 118.77 269.641 91.7896C270.281 51.3996 231.511 20.6296 192.061 30.2096C165.501 36.6596 145.001 60.7396 144.831 86.0196C146.711 86.8096 148.701 87.6496 150.821 88.5496C153.241 58.1696 175.251 36.8196 204.571 35.2596C228.991 33.9596 252.631 49.5096 260.001 74.8296C267.861 101.83 256.281 128.88 232.071 141.24C217.721 148.57 196.371 149.47 190.361 141.95C193.901 142.26 196.581 142.39 199.251 142.74C233.361 147.18 262.221 119.38 258.571 85.5896C255.891 60.7696 233.751 40.4696 210.041 39.3896C182.271 38.1196 159.091 57.1896 154.921 85.1596C154.091 90.7496 154.661 91.3996 161.111 93.1096C161.111 91.6196 161.051 90.1796 161.111 88.7496C162.301 65.6196 182.491 44.7196 208.391 45.7596C232.071 46.7096 251.781 66.4296 252.451 90.2796C253.131 114.72 231.071 141.97 198.241 135.91C196.521 135.59 194.981 134.23 193.361 133.36C195.061 133.01 196.831 132.17 198.461 132.4C216.691 134.97 231.381 128.92 241.761 113.8C251.211 100.02 250.141 79.2796 240.131 66.2296C229.081 51.8196 210.211 46.0196 193.291 51.8296C176.211 57.6896 165.581 72.3896 165.401 90.6496C165.271 104.44 165.151 118.24 165.361 132.03C165.761 158.53 166.411 185.02 166.881 211.52C166.891 212.29 166.021 213.07 165.561 213.85C164.921 213.89 164.271 213.93 163.631 213.97C162.781 209.37 161.571 204.81 161.171 200.17C160.681 194.45 161.831 188.46 160.621 182.95C153.791 151.88 119.961 130.12 88.701 136.23C58.361 142.16 37.0609 168.06 37.1809 198.89C37.2909 228.97 58.851 254.48 88.631 260.27C93.671 261.25 95.9009 259.84 96.6009 254.98C96.0109 254.77 95.461 254.51 94.881 254.37C93.281 254 91.6609 253.71 90.0609 253.36C66.3109 248.23 50.851 233.95 45.381 210.34C40.161 187.82 47.511 168.57 65.461 154.45C84.331 139.59 105.311 138.1 126.661 149.3C148.251 160.62 159.761 186.01 154.531 209.79C154.191 211.33 152.861 212.65 151.991 214.07C151.471 213.84 150.951 213.62 150.441 213.39C150.571 212.1 150.791 210.8 150.801 209.51C150.881 202.13 152.381 194.39 150.691 187.43C143.131 156.26 114.851 140.7 86.9909 148.13C55.7409 156.46 40.561 186.7 51.231 216.73C57.661 234.83 77.181 249.52 94.891 249.92C99.131 250.01 101.401 248.79 101.511 244.33C71.721 243.55 55.2109 222.51 54.1609 200.02C53.2409 180.17 65.4709 160.29 88.7209 153.96C109.301 148.36 132.021 159.32 141.131 178.91C146.981 191.49 147.061 207.31 140.841 211.66C140.641 210.33 140.331 209.24 140.331 208.14C140.301 201.84 141.261 195.39 140.211 189.28C136.391 167.03 112.501 152.12 90.391 157.61C68.191 163.12 53.401 184.61 59.581 208.69C64.631 228.41 80.3209 239.87 100.811 240.03C116.641 240.15 132.481 240.28 148.301 239.99C172.301 239.55 196.301 238.74 220.301 238.16C221.101 238.14 221.921 238.88 222.731 239.27C222.791 239.84 222.861 240.41 222.921 240.98C219.781 241.79 216.681 243.01 213.491 243.31C205.741 244.03 197.661 243.15 190.221 244.98C156.891 253.17 136.571 289.5 146.301 322.42C160.131 369.21 217.701 383.8 251.831 348.96C262.131 338.44 268.381 325.74 268.841 310.78C267.371 310.09 266.461 309.59 265.501 309.24C264.621 308.92 263.681 308.76 262.561 308.48C262.401 309.66 262.281 310.46 262.181 311.26C259.331 334.25 246.901 350.37 225.411 357.92C203.191 365.72 182.581 360.96 166.161 343.62C149.131 325.63 146.141 300.13 157.461 279.01C168.781 257.87 191.661 246.45 215.921 249.99C218.291 250.34 220.511 251.73 222.801 252.63C222.561 253.35 222.331 254.07 222.091 254.79C220.131 254.67 218.171 254.45 216.221 254.44C209.721 254.41 203.021 253.45 196.751 254.65C175.891 258.65 162.241 271.42 156.761 291.86C150.981 313.4 157.111 332.03 174.431 345.85C206.401 371.36 252.271 352.53 258.531 311.81C259.271 307 257.901 303.95 252.601 303.29L252.561 303.27Z" fill="black"/>
<path d="M46.6269 434.08C43.4969 431.13 37.4869 435.79 35.0469 428.76C48.7169 428.76 61.3769 428.72 74.0369 428.78C79.3569 428.81 84.8169 428.36 89.9869 429.33C103.457 431.86 112.127 443.73 110.937 457.03C109.747 470.24 99.0369 480.42 85.4769 480.9C78.3469 481.15 71.2069 480.94 63.7369 480.94V512.65C66.5869 512.65 69.3769 512.49 72.1369 512.75C73.0069 512.83 73.7669 514.04 74.5869 514.73C73.8069 515.47 73.0269 516.83 72.2369 516.84C60.9469 516.98 49.6569 516.99 38.3669 516.84C37.5069 516.83 36.6669 515.51 35.8169 514.8C36.8169 514.07 37.7469 512.85 38.8169 512.7C41.2269 512.38 43.6969 512.6 46.6369 512.6V434.08H46.6269ZM63.8769 433.11V476.66C71.5069 476.66 78.6669 476.9 85.8069 476.58C91.4969 476.33 94.5869 472.75 94.6569 466.96C94.7569 458.94 94.7769 450.92 94.6569 442.91C94.5669 437.13 91.3569 433.44 85.7669 433.19C78.6269 432.87 71.4569 433.11 63.8769 433.11Z" fill="black"/>
<path d="M198.45 514.72C197.12 515.47 195.85 516.76 194.46 516.9C177.39 518.65 160.75 517.15 158.78 513.16C162.61 512.94 166.16 512.75 170.16 512.52V433.63H143.86C145.71 435.02 146.94 435.78 147.96 436.76C150.95 439.6 152.5 443.37 149.6 446.53C147.6 448.71 143.79 450.44 140.9 450.3C136.84 450.1 134.89 446.65 135.03 442.3C135.27 434.79 142.81 428.85 152.73 428.81C174.11 428.73 195.49 428.78 216.87 428.78C217.49 428.78 218.19 428.6 218.7 428.83C220 429.41 221.21 430.19 222.46 430.88C221.22 431.6 219.99 432.91 218.74 432.94C210.52 433.13 202.3 433.04 194.07 433.05C191.85 433.05 189.63 433.05 187.12 433.05V512.47C190.7 512.7 194.26 512.94 197.81 513.17C198.02 513.7 198.24 514.22 198.45 514.75V514.72Z" fill="black"/>
<path d="M225.547 512.54C229.577 512.77 232.717 512.94 236.297 513.15C233.907 517.09 224.557 518.34 211.927 516.97C210.487 516.81 209.168 515.49 207.188 514.36C208.747 513.37 209.108 512.94 209.388 512.99C218.108 514.44 222.077 510.38 225.297 502.26C234.597 478.79 245.028 455.77 255.018 432.58C255.828 430.71 256.697 428.86 258.037 425.9C260.767 431.98 263.188 437.18 265.458 442.45C274.628 463.74 283.938 484.98 292.768 506.41C294.808 511.36 297.178 513.71 302.628 512.93C304.198 512.71 305.997 514.07 307.688 514.71C306.067 515.47 304.468 516.86 302.828 516.9C292.758 517.1 282.677 517.09 272.607 516.89C271.277 516.86 269.967 515.32 268.657 514.48C269.997 513.92 271.287 513.12 272.677 512.86C274.417 512.53 276.247 512.63 278.857 512.5C270.007 491.84 261.408 471.77 252.138 450.12C246.398 463.45 241.277 475.31 235.997 487.58C243.567 489.38 251.247 486.55 257.938 489.35C257.847 490.23 257.757 491.11 257.667 492C252.627 492 247.527 492.47 242.557 491.88C235.937 491.1 232.257 493.51 230.487 499.89C229.347 503.99 227.418 507.87 225.578 512.54H225.547Z" fill="black"/>
<path d="M325.979 512.8V433.02C323.649 433.02 321.249 433.25 318.919 432.93C317.589 432.75 316.379 431.66 315.119 430.98C316.279 430.24 317.429 428.9 318.609 428.87C326.179 428.68 333.759 428.77 342.069 428.77V512.06H368.919C366.479 510.22 364.729 509.59 364.419 508.54C363.499 505.44 361.889 501.63 362.949 499.12C363.889 496.92 368.439 494.56 370.739 495.09C373.419 495.72 376.589 499.07 377.399 501.86C379.159 507.93 373.769 515.21 367.049 516.25C361.819 517.06 356.419 516.92 351.089 516.97C340.409 517.07 329.719 517.1 319.039 516.92C317.689 516.9 316.379 515.38 315.039 514.56C316.349 513.97 317.609 513.06 318.969 512.88C321.139 512.6 323.369 512.8 325.969 512.8H325.979Z" fill="black"/>
<path d="M146.469 491.97C134.989 491.97 125.069 492 115.149 491.9C114.439 491.9 113.739 490.85 113.039 490.29C113.619 489.62 114.199 488.38 114.789 488.37C124.559 488.32 134.329 488.41 144.109 488.58C144.529 488.58 144.929 489.7 146.469 491.96V491.97Z" fill="black"/>
<path d="M284.61 185.23C284.36 187.37 284.26 189.54 283.83 191.64C281.25 204.1 284.85 214.57 294.72 222.33C304.83 230.27 316.24 231.37 327.66 225.39C338.26 219.84 343.38 210.87 344.11 198.56C345.07 182.48 329.01 167.3 313.38 167.65C278.66 168.43 243.91 167.81 209.17 167.99C204.36 168.01 199.55 169.36 194.73 169.99C193.66 170.13 192.54 169.85 191.44 169.76C191.23 169.18 191.03 168.59 190.82 168.01C193.52 166.87 196.13 165.08 198.93 164.73C205.22 163.94 211.59 163.57 217.93 163.55C249.17 163.45 280.42 163.47 311.66 163.54C330.03 163.58 343.76 174.36 347.37 191.35C350.73 207.12 342.55 223.24 327.8 229.94C312.85 236.73 295.28 231.96 285.52 218.5C279.34 209.98 277.96 200.46 279.88 190.37C280.26 188.38 281.54 186.56 282.4 184.66L284.58 185.23H284.61Z" fill="black"/>
<path d="M222.728 229.75C217.128 230.85 211.538 232.85 205.928 232.9C170.388 233.19 134.828 233.34 99.2877 232.93C80.2077 232.71 65.2577 217.14 64.9877 198.61C64.7277 180.44 79.6677 164.11 98.6977 163.66C122.468 163.11 138.898 184.43 133.198 207.33C132.808 208.9 131.678 210.28 130.888 211.75L129.108 211.29C129.258 209.28 129.158 207.21 129.598 205.26C133.228 189.03 123.858 172.18 107.658 168.51C91.0777 164.76 75.6777 171.78 70.5177 189.73C64.0977 212.07 81.4677 228.72 98.3677 228.75C134.738 228.81 171.108 228.81 207.478 228.69C210.898 228.68 214.318 227.59 217.748 227.03C219.158 226.8 220.578 226.67 221.998 226.5C222.248 227.58 222.498 228.66 222.748 229.74L222.728 229.75Z" fill="black"/>
<path d="M193.592 120.37C195.362 120.61 197.152 120.75 198.892 121.12C212.852 124.04 225.842 118.69 232.972 107.04C239.622 96.1696 238.392 81.4796 229.992 71.3496C222.252 62.0196 208.722 58.2496 197.072 62.1796C184.902 66.2896 176.492 76.6896 176.412 89.2996C176.182 125.94 176.302 162.58 176.442 199.22C176.452 202.44 177.712 205.64 178.112 208.88C178.302 210.4 177.812 212.01 177.632 213.58C176.562 212.34 174.932 211.26 174.542 209.84C173.482 205.92 172.322 201.85 172.302 197.84C172.122 161.82 172.042 125.79 172.242 89.7696C172.342 72.2596 187.122 57.6996 204.962 56.8096C222.642 55.9196 238.982 69.2696 241.052 86.2896C243.322 104.93 231.552 121.77 213.602 124.77C208.502 125.62 203.102 124.98 197.862 124.62C196.192 124.51 194.612 123.1 192.992 122.29C193.192 121.65 193.392 121.02 193.592 120.38V120.37Z" fill="black"/>
<path d="M219.929 276.23C217.379 275.89 214.819 275.58 212.269 275.21C198.999 273.31 188.349 277.6 180.909 288.89C174.209 299.06 174.719 312.87 181.859 323.17C189.089 333.61 202.489 338.3 215.029 334.78C227.669 331.24 236.899 320.48 236.999 307.45C237.289 271.02 237.189 234.59 236.979 198.16C236.949 193.34 235.379 188.52 235.419 182.45C236.549 183.58 238.389 184.54 238.699 185.86C239.829 190.62 241.119 195.5 241.149 200.34C241.349 235.53 241.369 270.73 241.219 305.92C241.139 326.22 224.159 341.13 203.189 339.71C184.229 338.43 169.869 319.97 172.389 300.1C174.739 281.55 194.289 267.53 212.969 271.17C215.539 271.67 217.949 273.02 220.439 273.98C220.269 274.72 220.099 275.47 219.919 276.21L219.929 276.23Z" fill="black"/>
<path d="M194.149 106.13C195.759 106.71 197.389 107.23 198.969 107.86C207.479 111.28 215.479 109.48 221.219 102.81C226.529 96.6299 227.199 87.5199 222.859 80.4499C218.539 73.4199 210.259 69.9999 202.099 71.8799C194.079 73.7299 187.989 80.7499 187.839 89.7799C187.499 109.31 187.669 128.85 187.639 148.38C187.619 162.98 187.229 177.59 187.779 192.17C188.039 199.07 190.129 205.91 191.509 213.42C190.619 212.9 188.459 212.39 188.029 211.24C186.249 206.51 183.799 201.6 183.749 196.74C183.389 161.17 183.449 125.59 183.619 90.0199C183.679 77.3999 194.999 66.8899 207.309 67.3599C220.129 67.8499 230.669 79.2699 229.879 91.8199C229.089 104.37 217.879 114.48 205.369 113.47C200.779 113.1 195.869 112.39 193.079 108.09C193.439 107.44 193.789 106.78 194.149 106.13Z" fill="black"/>
<path d="M220.843 181.6C223.013 183.35 225.233 184.25 225.773 185.76C227.483 190.52 229.663 195.5 229.703 200.41C230.033 235.58 229.943 270.75 229.843 305.92C229.813 317.2 221.463 327.02 211.053 328.65C199.193 330.51 188.533 324.24 184.833 313.23C181.313 302.76 185.783 291.22 195.673 285.83C202.403 282.16 209.453 282.16 216.413 285.17C217.993 285.85 219.203 287.4 220.583 288.55L219.623 290.32C218.093 289.85 216.503 289.51 215.023 288.89C206.273 285.24 198.053 286.99 192.163 293.82C186.743 300.12 186.243 309.4 190.933 316.75C195.063 323.22 204.043 326.69 211.443 324.67C219.993 322.33 225.623 315.49 225.673 306.01C225.863 270.84 225.983 235.67 225.583 200.5C225.513 194.67 222.733 188.88 220.823 181.6H220.843Z" fill="black"/>
<path d="M298.602 185.31C297.922 187.35 297.312 189.41 296.562 191.42C292.902 201.17 297.462 211.93 307.022 215.97C316.292 219.9 327.182 215.79 331.562 206.71C337.612 194.18 328.852 179.29 314.932 179.21C278.972 179 243.012 179.03 207.052 179.29C203.172 179.32 199.312 181.46 195.452 182.65C194.122 183.06 192.812 183.57 191.502 184.04C191.162 183.5 190.832 182.97 190.492 182.43C191.652 181.29 192.622 179.64 194.012 179.12C198.182 177.56 202.502 175.35 206.782 175.31C242.942 175.02 279.112 175.03 315.272 175.25C326.312 175.32 335.702 184.22 337.272 195C338.822 205.59 332.552 216.02 322.292 219.92C313.452 223.29 303.632 220.73 297.102 213.36C290.902 206.37 289.472 196.12 293.702 188.08C294.412 186.73 295.612 185.64 296.582 184.43C297.262 184.72 297.932 185.01 298.612 185.3L298.602 185.31Z" fill="black"/>
<path d="M223.506 212.89C219.606 219.38 214.566 221.03 209.266 221.05C171.846 221.21 134.426 221.24 96.9964 221.07C87.4464 221.03 78.8864 213.21 76.5664 203.42C74.2364 193.59 78.8664 183.28 87.8864 178.28C97.1964 173.11 107.476 174.45 115.116 181.82C122.306 188.77 124.316 200.03 119.666 208.47C118.896 209.86 117.246 210.76 115.996 211.89C115.526 211.52 115.056 211.14 114.596 210.77C115.256 209.2 115.906 207.64 116.566 206.07C121.176 195.27 115.776 183.63 104.416 179.91C94.7264 176.74 82.9764 183.25 80.7564 193.01C78.0364 204.97 84.7464 215.5 96.3664 217.21C99.3964 217.66 102.516 217.55 105.596 217.56C138.286 217.59 170.986 217.78 203.666 217.4C208.896 217.34 214.096 214.68 219.326 213.27C220.176 213.04 221.106 213.09 223.506 212.88V212.89Z" fill="black"/>
<path d="M218.63 305.05C218.78 311.15 213.33 316.93 207.13 317.25C200.89 317.58 194.76 311.76 194.65 305.4C194.54 299.36 200.04 293.53 206.16 293.19C212.4 292.84 218.47 298.62 218.63 305.05Z" fill="black"/>
<path d="M206.466 79.4797C212.936 79.3797 218.626 85.0998 218.546 91.6298C218.476 97.7398 212.806 103.43 206.716 103.52C200.686 103.61 194.886 98.0198 194.626 91.8798C194.356 85.5298 200.056 79.5697 206.466 79.4697V79.4797Z" fill="black"/>
<path d="M218.707 198.08C218.757 204.37 213.427 209.82 207.057 210.01C200.437 210.2 194.717 204.76 194.657 198.2C194.597 192.07 200.097 186.42 206.317 186.21C212.767 185.99 218.647 191.63 218.697 198.08H218.707Z" fill="black"/>
<path d="M99.6285 210.39C93.1485 210.37 87.8785 205.11 87.8285 198.62C87.7785 192.17 93.0285 186.82 99.4885 186.73C106.268 186.63 111.738 192.08 111.598 198.78C111.458 205.21 106.098 210.42 99.6285 210.4V210.39Z" fill="black"/>
<path d="M313.379 186.73C319.869 186.57 325.319 191.69 325.549 198.13C325.779 204.63 320.749 210.13 314.289 210.42C307.539 210.73 301.899 205.44 301.829 198.72C301.759 192.22 306.909 186.88 313.379 186.72V186.73Z" fill="black"/>
</svg>
