<svg width="610" height="591" viewBox="0 0 610 591" fill="none" xmlns="http://www.w3.org/2000/svg">
<path d="M544.691 293.109C547.081 302.829 549.661 312.5 551.811 322.27C553.641 330.55 555.111 338.919 556.401 347.299C556.601 348.569 554.921 350.129 554.111 351.549C552.881 350.379 551.081 349.43 550.541 348.01C549.321 344.78 548.771 341.31 547.871 337.95C547.251 335.63 546.501 333.35 545.491 330.01C544.721 331.65 544.341 332.189 544.201 332.799C540.361 349.259 536.521 365.72 532.741 382.2C532.331 384 531.781 386.019 532.191 387.719C534.771 398.409 531.041 408.01 527.391 417.64C526.521 419.93 525.741 422.529 524.091 424.169C522.351 425.899 519.641 426.65 517.351 427.84C516.681 426.1 515.451 424.359 515.441 422.609C515.381 412.219 519.721 403.14 524.201 394.06C526.741 388.92 528.711 383.48 530.641 378.07C532.271 373.52 533.481 368.82 535.171 363.2C533.611 364.05 532.901 364.18 532.711 364.57C529.791 370.51 526.921 376.47 524.091 382.45C523.231 384.26 522.651 386.21 521.751 388C518.381 394.69 514.791 401.27 511.551 408.02C509.301 412.7 507.491 417.59 505.491 422.38C502.451 429.65 504.801 436.96 505.531 444.21C505.661 445.49 507.841 446.459 508.371 447.849C508.981 449.439 509.451 451.64 508.781 452.99C508.311 453.95 505.551 454.68 504.381 454.18C503.081 453.62 501.861 451.65 501.631 450.13C501.321 448.06 502.101 445.85 502.181 443.69C502.301 440.47 502.211 437.25 502.211 434.03C501.551 433.9 500.891 433.77 500.231 433.64C498.591 438.1 496.911 442.54 495.341 447.02C494.921 448.22 494.661 449.54 494.611 450.81C494.291 458.4 487.251 461.88 484.201 467.89C478.591 478.95 467.721 485.07 458.731 492.92C454.061 497.01 449.231 500.93 444.351 504.77C433.811 513.06 421.351 515.78 408.361 516.87C408.131 516.89 407.871 516.609 406.691 515.959C407.911 514.569 408.751 512.859 410.101 512.209C414.631 510.009 419.291 508.06 423.991 506.25C428.421 504.54 432.961 503.109 437.451 501.569C438.121 501.339 439.131 500.75 439.441 501C444.381 505.01 446.511 499.69 449.521 497.87C451.731 496.54 453.481 494.44 455.431 492.68C455.151 492.22 454.871 491.76 454.591 491.29C452.441 492.01 450.311 492.809 448.131 493.439C440.541 495.639 432.981 498.01 425.311 499.89C417.051 501.91 408.581 503.129 400.381 505.339C396.981 506.249 393.871 508.59 390.881 510.66C384.951 514.75 379.161 519.039 373.391 523.359C369.581 526.219 365.491 528.879 362.271 532.329C355.491 539.579 346.791 543.329 337.891 546.839C336.371 547.439 334.631 547.499 331.521 548.089C332.941 545.599 333.371 543.7 334.521 543.02C339.191 540.29 344.091 537.929 348.901 535.439C354.341 532.619 360.021 530.16 365.171 526.87C371.131 523.07 376.621 518.549 382.301 514.319C382.971 513.819 383.551 513.219 384.011 511.719C382.791 511.779 381.461 511.549 380.361 511.949C374.321 514.139 368.341 516.49 362.321 518.74C361.671 518.98 360.901 518.92 360.181 519.01C353.611 519.87 346.931 520.29 340.501 521.77C337.031 522.57 333.921 525.069 330.741 526.969C328.891 528.069 327.331 529.68 325.461 530.74C322.241 532.55 320.721 535.06 320.591 538.81C320.341 545.92 320.081 546.02 312.901 545.4C312.901 547.12 313.211 548.91 312.801 550.51C312.471 551.83 311.421 553.72 310.431 553.91C309.351 554.11 307.241 552.86 306.891 551.81C306.461 550.53 307.121 548.65 307.831 547.31C308.361 546.32 309.731 545.769 311.291 544.599C308.731 543.819 306.751 543.749 305.651 542.729C304.481 541.649 304.131 539.659 303.421 538.069C304.751 537.629 306.141 536.679 307.391 536.849C312.401 537.539 315.991 535.13 319.401 532.03C322.441 529.26 325.501 526.53 328.541 523.77C329.021 523.33 329.411 522.8 329.531 521.68C321.661 525.95 313.971 530.479 304.671 531.079C305.117 528.386 309.284 524.246 317.171 518.66C314.261 518.43 312.031 517.99 309.851 518.13C301.791 518.64 293.741 519.27 285.711 520.04C284.421 520.16 283.001 521.029 282.031 521.959C273.091 530.529 263.661 538.31 251.481 541.87C249.891 542.34 248.211 542.529 246.581 542.849L245.761 541.92C246.561 540.59 247.041 538.72 248.211 538.04C252.761 535.37 257.521 533.06 262.211 530.65C268.131 527.62 274.871 526.05 280.321 520.74C270.561 519.81 261.301 519.91 252.551 517.87C238.361 514.56 225.001 519.21 211.341 520.62C205.441 521.23 199.831 524.319 193.971 525.829C189.531 526.979 184.921 527.549 180.361 528.079C179.211 528.209 177.921 527.17 176.701 526.67C177.501 525.42 178.031 523.47 179.151 523.03C183.691 521.25 188.321 519.399 193.081 518.599C198.691 517.669 204.501 518 210.191 517.42C215.251 516.9 220.251 515.889 225.281 515.099C225.311 514.719 225.351 514.349 225.381 513.969C221.121 513.219 216.891 512.05 212.611 511.78C200.401 511.03 189.461 506.169 178.271 501.969C174.691 500.629 170.751 499.83 166.931 499.64C163.121 499.45 160.861 501.89 160.621 505.88C160.571 506.74 160.581 507.73 160.171 508.41C159.491 509.53 158.541 510.53 157.541 511.38C157.401 511.5 155.771 510.5 155.771 510.02C155.771 508.57 155.921 506.929 156.621 505.719C157.441 504.289 158.911 503.23 160.091 502C159.841 501.61 159.591 501.219 159.341 500.829C157.721 501.149 156.091 501.43 154.481 501.81C153.371 502.07 152.241 502.849 151.211 502.719C149.641 502.519 148.141 501.729 146.611 501.189C147.431 499.919 147.981 498.19 149.141 497.52C150.351 496.82 152.861 496.45 153.571 497.16C157.211 500.79 160.621 498.56 164.331 496.89C159.621 494.94 155.011 492.709 150.191 491.109C140.061 487.749 132.741 480.669 125.411 473.439C117.611 465.749 109.581 458.3 101.621 450.77C101.121 450.3 100.371 449.82 99.7306 449.81C89.5106 449.65 83.0906 442.23 75.4806 437.13C72.6106 435.2 69.8306 433.09 67.2706 430.78C66.2906 429.9 66.0406 428.22 65.4606 426.9C67.0606 426.59 69.0506 425.51 70.1906 426.09C74.5406 428.31 78.7706 430.829 82.7406 433.669C86.9606 436.689 90.7606 440.29 94.9106 443.43C96.2506 444.45 98.0806 444.809 100.111 444.669C97.4006 440.389 94.3706 436.27 92.0606 431.77C89.7206 427.21 88.1806 422.24 86.1206 417.53C84.9106 414.76 83.1606 412.209 82.0306 409.419C80.1706 404.819 78.7006 400.079 76.8706 395.469C76.4906 394.499 75.3106 393.85 74.5106 393.07C74.1906 391.36 73.8106 389.31 73.4306 387.26L72.1606 387.44V390.65C72.4306 390.38 72.7106 390.11 72.9806 389.84C68.8906 385.18 64.8206 380.51 60.6906 375.89C59.2606 374.29 57.9706 374.26 56.3806 376.07C55.4406 377.15 53.2106 378.42 52.4006 377.99C51.0006 377.26 49.6806 375.399 49.3206 373.799C48.3806 369.619 46.4206 368.68 42.7706 370.77C41.5706 371.46 39.0206 371.77 38.4106 371.08C37.1106 369.62 35.7406 367.2 36.0906 365.52C36.6806 362.64 38.8406 363.009 41.0806 364.609C42.5706 365.679 44.5306 366.079 46.2806 366.789C46.6406 366.219 47.0006 365.65 47.3706 365.08C45.9906 363.62 44.6006 362.16 43.2306 360.69C40.4006 357.66 40.2006 355.12 42.6406 353.53C45.8606 351.44 47.4906 351.91 49.0006 355.44C49.4506 356.5 50.2006 357.66 50.0906 358.7C49.2906 366.35 54.9006 368.709 60.9806 371.049C59.7206 368.139 58.3406 365.28 57.2206 362.32C51.3506 346.76 45.4306 331.209 39.8406 315.549C39.0506 313.319 39.9606 310.49 40.0806 307.94C40.7506 307.74 41.4206 307.549 42.0906 307.349C43.3106 309.209 44.9306 310.92 45.6806 312.95C49.8906 324.48 53.8706 336.09 58.0006 347.65C58.6006 349.32 59.5506 350.86 61.1806 352.13C60.1306 346.23 59.2406 340.29 57.9906 334.43C54.9506 320.16 51.9806 305.869 48.4806 291.719C47.0606 285.969 44.0806 280.89 38.1106 278.08C36.7306 277.43 35.8706 274.67 35.7506 272.82C35.7006 272.08 38.6306 270.199 39.5906 270.549C41.1206 271.089 42.4606 272.899 43.2906 274.479C44.4406 276.679 45.0406 279.16 45.8806 281.53C46.6706 281.28 47.4706 281.039 48.2606 280.789C45.8906 271.109 43.4306 261.44 41.1606 251.74C39.4206 244.3 37.6406 236.839 36.4706 229.299C36.1206 227.049 37.3706 222.65 38.5606 222.4C42.6406 221.52 42.4306 225.75 43.2006 228.27C44.6606 233.04 45.7306 237.93 46.9706 242.77C47.3306 242.76 47.7006 242.739 48.0606 242.729C48.3306 241.729 48.6306 240.729 48.8606 239.719C52.6006 223.829 56.4106 207.96 59.9906 192.03C60.5606 189.48 60.0406 186.7 60.1706 184.03C60.4106 179.29 60.0206 174.349 61.2306 169.859C63.1006 162.929 65.8106 156.169 68.7806 149.609C69.5806 147.829 72.5006 146.839 74.6506 145.979C75.1706 145.769 77.3506 147.619 77.2706 148.359C76.5906 154.429 76.6406 160.9 74.4206 166.43C69.1406 179.53 62.3306 192.03 58.9806 205.89C58.6906 207.11 58.6406 208.38 58.4506 209.87C59.2206 209.72 59.8306 209.759 59.9306 209.549C62.9106 203.489 65.8506 197.41 68.7606 191.31C69.6906 189.37 70.4706 187.349 71.4306 185.419C74.7906 178.719 78.3306 172.1 81.5706 165.34C83.6206 161.05 85.1606 156.52 87.1306 152.19C90.5506 144.66 88.0906 137.07 87.4206 129.52C87.3206 128.35 85.3706 127.45 84.9006 126.19C84.2606 124.45 83.6406 122.32 84.1506 120.71C84.4206 119.85 87.5206 118.93 88.5306 119.49C89.9006 120.26 91.2606 122.42 91.2706 123.99C91.3006 129.19 90.7206 134.399 90.3806 139.609C91.1506 139.779 91.9106 139.95 92.6806 140.12C94.2806 135.7 95.9106 131.28 97.4506 126.84C97.8706 125.63 98.2106 124.319 98.2506 123.049C98.4706 115.579 105.391 112.19 108.351 106.32C114.011 95.0995 124.941 88.8395 134.101 80.9495C138.701 76.9895 143.431 73.1795 148.081 69.2795C156.361 62.3295 166.341 59.6095 176.661 57.7695C179.461 57.2695 182.301 56.9895 185.121 56.6095C185.421 56.9595 185.721 57.3195 186.031 57.6695C185.171 58.8395 184.551 60.5195 183.391 61.0795C178.471 63.4395 173.431 65.5895 168.341 67.5495C164.981 68.8395 161.371 69.4695 158.031 70.7895C155.551 71.7695 153.381 73.9495 150.731 71.2595C150.581 71.0995 150.171 71.1495 149.891 71.1695C147.571 71.3695 139.121 79.2095 138.051 82.6895C140.401 81.8095 142.261 80.8995 144.221 80.4095C160.301 76.3995 176.381 72.4295 192.491 68.5295C196.361 67.5895 199.421 65.8595 202.441 63.0295C206.921 58.8295 212.501 55.8195 217.371 51.9995C223.951 46.8395 229.921 40.8295 236.851 36.2395C242.921 32.2195 249.931 29.6195 256.581 26.4995C257.531 26.0595 258.761 26.2295 260.791 26.0195C260.041 27.8695 259.911 29.5295 259.031 30.1495C255.281 32.7895 251.601 36.2495 247.361 37.3495C232.211 41.2795 221.421 51.9795 209.261 60.5695C209.001 60.7495 209.011 61.3195 208.651 62.5495C210.851 62.0295 212.551 61.6495 214.241 61.2295C224.021 58.7895 233.741 56.0495 243.611 54.0295C247.901 53.1495 252.551 54.1095 256.941 53.5295C260.391 53.0695 263.781 51.7295 267.061 50.4295C272.941 48.0995 278.701 45.4595 284.571 43.0895C285.651 42.6495 286.991 42.8395 288.901 42.6895C286.651 49.2895 281.091 51.2095 275.631 54.9095C278.591 55.2895 280.631 55.8795 282.631 55.7695C291.991 55.2395 301.341 54.6295 310.671 53.7695C312.021 53.6495 314.231 52.0895 314.291 51.0995C314.411 49.0495 313.401 46.9095 312.711 44.8495C312.561 44.4195 311.841 44.0995 311.321 43.8795C309.061 42.9595 305.171 42.9295 306.691 39.3295C307.251 37.9995 311.251 38.1195 314.441 37.4095C314.251 36.3895 313.521 34.1095 313.481 31.8095C313.451 30.2995 314.301 28.7095 315.041 27.3095C315.161 27.0695 317.451 27.4495 317.551 27.8295C317.911 29.2995 318.011 30.9195 317.781 32.4195C317.481 34.3895 316.781 36.2995 316.071 38.8795C319.801 38.3395 322.811 35.4295 325.121 39.1495C325.671 40.0395 326.061 42.1195 325.941 42.1695C323.801 42.9995 321.571 43.6095 319.031 44.3595C317.881 49.9095 321.601 54.4695 327.671 54.8495C335.581 55.3395 343.471 56.8595 351.371 56.8895C358.081 56.9095 364.791 54.9095 371.521 54.7195C383.661 54.3895 394.271 48.3895 405.871 46.2095C408.141 45.7895 410.471 45.5195 412.771 45.5295C413.901 45.5295 415.031 46.3495 416.171 46.7995C415.461 48.0995 415.051 50.1495 413.981 50.5795C409.331 52.4695 404.581 54.4795 399.681 55.3195C394.051 56.2895 388.191 55.8795 382.471 56.4195C377.521 56.8795 372.621 57.8195 367.691 58.5495C367.651 58.9595 367.611 59.3595 367.581 59.7695C371.241 60.3895 374.881 61.2995 378.571 61.5895C391.371 62.6195 403.111 67.1495 414.851 71.8695C418.141 73.1895 421.801 73.9495 425.341 74.2095C429.281 74.4895 431.911 72.4095 432.221 68.0995C432.291 67.1095 432.441 66.0095 432.931 65.1795C433.581 64.0595 434.581 63.1595 435.441 62.1595C436.131 62.8095 437.361 63.4195 437.401 64.0995C437.471 65.3795 437.151 66.8995 436.451 67.9395C435.561 69.2595 434.121 70.1995 432.921 71.2995C433.091 71.7495 433.271 72.1895 433.441 72.6395C435.111 72.3895 436.801 72.2095 438.461 71.8695C439.561 71.6395 440.671 70.7995 441.691 70.9195C443.291 71.1195 444.811 71.9095 446.371 72.4495C445.461 73.8095 444.841 75.6595 443.571 76.3895C442.421 77.0495 439.991 77.1395 439.131 76.3695C435.551 73.1495 432.321 75.0595 428.741 76.9295C433.601 78.8995 438.381 81.0795 443.321 82.7895C453.401 86.2795 460.651 93.4495 467.961 100.719C475.641 108.349 483.641 115.65 491.521 123.07C491.931 123.45 492.491 123.859 493.011 123.909C507.201 125.059 515.481 136.32 526.191 143.39C527.001 143.93 527.111 145.54 527.541 146.65C526.121 147.07 524.411 148.2 523.321 147.77C519.991 146.45 516.651 144.88 513.761 142.77C508.391 138.86 503.401 134.43 498.121 130.38C496.841 129.4 495.071 129.05 492.821 128.13C497.131 135.63 501.121 141.94 504.481 148.57C508.171 155.86 512.131 163.21 514.271 171C515.301 174.76 516.041 178.49 517.981 181.9C520.571 186.45 524.081 190.16 528.261 193.32C529.801 194.49 530.841 196.309 532.151 197.789C533.741 199.579 535.051 199.75 536.631 197.5C537.361 196.46 539.641 195.25 540.241 195.63C541.751 196.59 543.381 198.28 543.741 199.94C544.631 204.07 546.561 205.069 550.171 202.979C551.361 202.289 553.871 201.929 554.491 202.599C555.811 204.039 557.221 206.43 556.911 208.12C556.381 210.97 554.141 210.73 551.911 209.15C550.411 208.09 548.591 207.5 546.911 206.69C546.461 207.29 546.021 207.9 545.571 208.5C546.991 210.04 548.421 211.58 549.841 213.13C552.911 216.47 552.701 218.77 549.521 220.78C547.101 222.31 545.621 221.249 544.521 219.359C543.661 217.889 542.651 216.08 542.791 214.52C543.271 208.92 540.211 205.99 535.701 203.83C534.701 203.35 533.811 202.63 532.171 201.57C532.461 203.2 532.481 204.14 532.801 204.95C539.211 221.22 545.751 237.45 552.021 253.78C553.481 257.58 555.201 261.74 551.261 266.51C549.971 264.81 548.341 263.449 547.711 261.729C543.451 250.059 539.421 238.299 535.241 226.599C534.601 224.809 533.531 223.18 531.741 221.84C534.281 235.4 536.701 248.99 539.411 262.51C540.491 267.89 541.831 273.269 543.711 278.409C545.511 283.339 548.051 288.01 550.541 292.65C551.131 293.75 553.061 294.059 553.921 295.099C555.341 296.799 556.391 298.81 557.591 300.68C556.111 301.62 553.911 303.67 553.301 303.27C551.661 302.2 550.521 300.189 549.531 298.359C548.511 296.479 547.911 294.369 547.131 292.359C546.331 292.599 545.521 292.84 544.721 293.07L544.691 293.109ZM515.581 189.94C515.131 190.12 514.681 190.299 514.231 190.479C514.111 190.999 513.911 191.519 513.881 192.049C513.661 196.659 513.611 201.29 513.171 205.88C513.061 206.97 511.651 207.93 510.841 208.95C509.891 208.02 508.341 207.23 508.101 206.15C507.581 203.79 507.541 201.28 507.641 198.84C507.941 191.93 509.421 184.9 508.601 178.14C507.181 166.36 502.221 155.489 496.841 144.979C494.081 139.589 490.651 134.51 487.211 129.51C485.531 127.07 483.121 125.129 480.881 122.789C478.021 127.319 478.211 132.329 480.191 134.359C481.731 135.929 482.951 138.04 483.581 140.13C483.771 140.76 481.341 143.139 480.441 142.969C478.221 142.559 476.141 141.22 474.111 140.07C473.231 139.57 472.591 138.63 471.841 137.89C471.341 139.08 470.981 140.35 470.321 141.44C469.661 142.53 468.691 144.229 467.861 144.229C466.801 144.229 465.251 143 464.791 141.93C463.561 139.06 465.551 137.81 467.941 136.89C469.631 136.24 471.391 135.53 472.811 134.45C474.451 133.19 477.931 132.33 475.991 129.49C475.301 128.49 471.961 129.4 469.851 129.24C467.941 129.09 466.031 128.77 464.181 128.28C463.921 128.21 464.001 126.8 463.931 126.01C465.961 125.85 468.001 125.619 470.031 125.539C471.681 125.479 474.121 126.269 474.811 125.469C475.801 124.309 476.061 121.96 475.701 120.31C474.411 114.26 470.851 109.53 465.961 105.88C458.841 100.57 451.771 95.1595 444.341 90.3195C439.991 87.4895 434.981 85.6695 429.431 82.9995C429.901 84.6295 429.901 85.0995 430.131 85.3895C434.001 90.4095 438.041 95.3195 441.711 100.49C442.621 101.77 442.351 103.9 442.621 105.63C440.861 105.45 438.521 105.91 437.451 104.96C434.601 102.42 431.341 99.6595 429.971 96.2795C425.921 86.2795 418.531 80.0595 409.381 75.1595C395.741 67.8495 380.831 65.1295 365.881 62.4195C364.941 62.2495 363.941 62.3995 362.971 62.3995C366.371 65.3395 369.931 67.2695 373.261 69.5495C374.431 70.3495 375.021 72.0095 375.881 73.2795C374.181 73.6695 372.231 74.7895 370.841 74.2995C366.501 72.7795 362.171 70.9895 358.211 68.6695C354.141 66.2795 350.881 61.9895 346.591 60.5895C340.551 58.6095 333.911 58.1095 327.491 57.7395C318.261 57.2095 308.991 57.3495 299.741 57.2395C295.371 57.1895 291.001 57.2395 286.631 57.2395C291.971 61.8095 297.441 65.1595 302.751 68.7395C303.741 69.4095 304.121 70.9895 304.781 72.1495C303.471 72.3595 302.031 73.0295 300.861 72.7195C293.931 70.9095 288.041 67.3495 283.371 61.7995C282.611 60.8995 281.321 60.2695 280.151 59.9195C270.601 57.1095 260.921 55.5695 250.391 58.0895C253.201 59.5895 255.941 60.7495 258.291 62.4495C259.301 63.1795 259.951 65.0595 259.881 66.3695C259.841 67.2495 258.311 68.6095 257.331 68.7295C256.381 68.8395 254.781 67.8795 254.321 66.9595C250.341 58.9695 244.661 56.3795 236.251 58.9295C235.291 59.2195 234.251 59.2295 233.261 59.4495C225.671 61.0795 217.661 61.6995 210.561 64.5795C192.701 71.8295 173.551 73.6895 155.301 79.0895C148.971 80.9595 142.821 83.5495 136.751 86.2095C133.481 87.6395 130.741 90.2995 127.451 91.7095C121.001 94.4695 117.641 100.43 112.881 104.94C112.491 105.31 112.561 106.15 112.201 107.76C115.231 106.02 117.371 104.6 119.661 103.51C126.151 100.42 132.581 97.1595 139.291 94.6195C141.651 93.7195 145.711 93.1195 146.491 96.8995C146.701 97.9295 142.831 100.119 140.571 101.289C130.711 106.409 120.511 110.91 110.971 116.56C107.091 118.86 104.581 123.479 101.441 127.039C101.701 127.369 101.961 127.709 102.221 128.039C106.461 127.619 110.801 127.59 114.901 126.59C116.651 126.16 118.301 123.89 119.281 122.07C120.461 119.86 122.161 118.43 123.931 120C125.601 121.47 126.151 124.21 127.191 126.39C126.291 126.65 125.391 127.13 124.501 127.09C123.691 127.06 122.881 126.14 122.111 126.2C121.131 126.27 120.181 126.92 119.221 127.32C119.841 127.99 120.341 128.96 121.101 129.26C123.111 130.04 125.311 130.37 127.311 131.18C130.161 132.34 132.581 132.72 135.351 130.5C136.511 129.57 139.211 129.76 140.751 130.46C141.501 130.8 141.691 134.72 141.261 134.89C139.471 135.62 137.241 136.079 135.391 135.659C129.631 134.369 123.971 132.61 118.251 131.12C117.831 131.01 117.221 131.609 116.031 132.229C118.361 133.009 120.341 133.15 121.461 134.2C122.581 135.25 123.301 137.21 123.331 138.78C123.351 139.84 121.851 140.93 121.031 142C119.911 141.07 118.661 140.26 117.721 139.18C116.991 138.34 116.661 137.15 116.131 136.12C113.411 130.79 104.541 128.409 100.561 132.729C96.0706 137.609 94.2906 144.09 93.1906 152.03C99.4406 147.79 104.611 144.27 109.791 140.76C110.231 141.16 110.681 141.55 111.121 141.95C110.621 143.46 110.471 145.229 109.561 146.419C107.091 149.599 104.481 152.74 101.581 155.53C95.5506 161.32 88.2106 166.08 83.4006 172.71C76.8206 181.78 71.6306 191.969 66.7206 202.099C62.8406 210.099 59.3606 218.529 57.3706 227.159C55.3106 236.069 55.1406 245.429 54.4106 254.609C54.1306 258.049 54.5406 261.55 54.7106 265.03C54.8806 268.45 55.1506 271.87 55.3806 275.28C58.3306 256.52 64.0206 239.05 74.5506 223.14C75.5806 225.23 76.0606 227.279 75.4906 228.979C73.5306 234.859 71.2006 240.62 69.0106 246.43C65.9106 254.64 61.7706 262.619 59.9606 271.099C57.9806 280.359 58.1206 290.079 57.4206 299.609C57.3306 300.789 57.8306 302 58.0506 303.2L59.2406 303.599C61.5106 299.909 63.6006 296.069 66.1606 292.599C67.1206 291.299 69.1906 290.829 70.7606 289.979C71.1406 291.759 72.1706 293.73 71.7006 295.25C71.3006 296.52 69.2006 297.31 67.7806 298.21C66.7406 298.87 65.0106 299.089 64.6006 299.979C62.6906 304.129 59.8706 308.39 59.7306 312.69C59.4506 321.41 59.7806 330.37 61.5206 338.89C63.9506 350.74 67.6606 362.35 71.3606 373.89C72.5106 377.48 75.3906 380.509 77.4806 383.789C78.7206 382.639 78.9406 381.99 78.9806 381.32C79.2206 377.13 79.2206 372.92 79.7206 368.77C79.8906 367.36 81.2506 366.08 82.0706 364.75C83.0906 365.99 84.6606 367.1 85.0106 368.51C85.5506 370.7 85.3606 373.09 85.3106 375.4C85.1606 383.16 84.0406 391.029 84.9406 398.659C86.3206 410.349 92.0406 420.77 97.2706 431.15C99.9906 436.55 103.541 441.56 107.051 446.5C108.321 448.29 110.601 449.37 112.541 450.88C114.841 445.92 114.361 441.28 112.421 439.31C110.971 437.84 109.801 435.81 109.321 433.83C109.151 433.1 111.441 430.859 112.421 430.969C114.521 431.209 116.581 432.38 118.491 433.46C119.541 434.06 120.251 435.269 121.831 436.969C122.191 434.699 122.151 433.54 122.591 432.59C123.121 431.42 123.861 430.12 124.891 429.49C125.371 429.2 127.321 430.15 127.571 430.88C128.011 432.22 128.101 434.01 127.531 435.24C127.111 436.16 125.401 436.459 124.301 437.099C121.961 438.449 119.531 439.7 117.381 441.31C116.721 441.8 116.531 443.44 116.771 444.39C116.911 444.94 118.341 445.42 119.201 445.45C120.321 445.49 121.461 444.819 122.581 444.849C124.621 444.909 126.671 445.159 128.651 445.589C128.881 445.639 128.761 447.33 128.791 448.26C126.721 448.24 124.561 448.609 122.611 448.109C118.111 446.959 116.101 448.49 117.041 453.12C118.301 459.36 121.911 464.249 126.931 467.969C133.471 472.819 140.071 477.62 146.901 482.06C151.851 485.28 157.211 487.88 162.391 490.76C162.661 490.37 162.931 489.989 163.201 489.599C162.881 489.059 162.611 488.479 162.231 487.979C158.461 483.049 154.541 478.23 150.981 473.16C150.151 471.97 150.511 469.94 150.331 468.29C151.951 468.4 154.161 467.869 155.081 468.729C158.081 471.509 161.681 474.379 163.131 477.979C167.131 487.919 174.621 493.819 183.551 498.699C194.121 504.479 205.661 507.149 217.261 509.689C221.421 510.599 225.661 511.129 229.861 511.829C229.931 511.439 230.011 511.06 230.081 510.67C226.161 508.28 222.201 505.939 218.341 503.439C217.651 502.989 216.811 501.6 217.041 501.16C217.481 500.32 218.561 499.52 219.511 499.31C220.561 499.07 221.881 499.239 222.881 499.689C227.101 501.559 231.401 503.33 235.381 505.66C239.321 507.97 242.571 511.89 246.731 513.3C252.211 515.16 258.261 515.68 264.111 516.01C274.051 516.57 284.021 516.549 293.971 516.719C298.091 516.789 302.221 516.729 306.351 516.729V515.349C300.211 510.869 292.271 508.84 287.861 501.52C290.391 501.17 293.111 500.779 295.041 501.839C300.361 504.769 306.491 506.74 309.821 512.51C310.191 513.15 311.201 513.56 311.991 513.79C321.811 516.68 331.761 517.9 342.251 516.04C339.681 514.5 337.121 513.27 334.961 511.54C333.871 510.66 332.721 508.62 333.051 507.56C333.401 506.45 335.761 504.96 336.771 505.26C340.131 506.26 343.691 507.44 346.381 509.55C349.891 512.31 353.611 514.409 357.851 513.819C366.231 512.669 374.611 511.159 382.811 509.089C389.931 507.289 396.691 504.08 403.811 502.28C415.291 499.38 426.911 497.03 438.511 494.66C447.931 492.74 456.091 488.11 463.821 482.81C469.341 479.03 474.271 474.38 479.351 470C480.011 469.43 480.031 468.13 480.711 466.05C477.421 467.96 475.231 469.31 472.971 470.53C465.901 474.34 459.431 479.749 450.761 479.349C449.141 479.279 447.581 477.92 445.991 477.15C447.191 475.86 448.351 474.52 449.621 473.31C450.001 472.95 450.731 473.01 451.251 472.76C461.471 467.74 471.951 463.139 481.781 457.439C485.751 455.139 488.301 450.4 491.491 446.77C491.201 446.45 490.921 446.13 490.631 445.8C488.221 446.04 485.801 446.42 483.381 446.5C478.751 446.65 474.311 446.75 472.891 452.64C472.721 453.34 469.111 454.19 468.651 453.65C467.221 451.96 466.541 449.649 465.571 447.569C466.941 447.439 468.311 447.269 469.691 447.209C471.001 447.149 472.321 447.199 473.641 447.199C473.661 446.539 473.681 445.879 473.701 445.219C468.161 444.619 463.361 439.03 456.921 443.69C455.861 444.46 453.261 444.01 451.951 443.2C451.191 442.73 450.961 439.57 451.611 439.07C452.871 438.1 455.051 437.559 456.601 437.909C462.081 439.149 467.451 440.88 472.891 442.34C473.831 442.59 474.861 442.489 475.851 442.549C475.931 442.169 476.011 441.789 476.081 441.409C474.531 440.889 472.931 440.48 471.441 439.81C468.921 438.68 468.271 434.01 470.551 432.51C474.461 429.93 475.071 434.04 475.891 435.9C477.901 440.47 480.541 443.21 485.971 443C491.701 442.78 494.501 439.74 496.001 434.64C496.851 431.73 498.151 428.96 499.071 426.06C499.371 425.12 499.121 423.999 499.121 422.099C493.291 426.069 488.181 429.55 483.081 433.03C482.611 432.66 482.151 432.289 481.681 431.919C482.151 430.459 482.231 428.639 483.171 427.609C487.551 422.849 492.141 418.27 496.721 413.69C501.191 409.22 506.611 405.4 510.051 400.25C516.051 391.26 521.301 381.68 526.031 371.94C529.861 364.06 533.551 355.799 535.301 347.299C537.411 337.069 537.631 326.42 538.201 315.93C538.511 310.29 537.851 304.589 537.611 298.409C535.071 308.069 533.091 317.1 530.291 325.87C527.501 334.6 525.021 343.62 518.111 350.59C517.411 348.25 516.871 345.889 517.521 343.919C519.371 338.299 521.731 332.85 523.831 327.31C527.611 317.38 532.981 307.96 533.951 297.12C534.621 289.63 534.951 282.1 535.341 274.58C535.411 273.29 535.031 271.969 534.861 270.669C534.421 270.559 533.981 270.44 533.551 270.33C531.261 274.04 529.131 277.869 526.591 281.409C525.701 282.639 523.801 283.149 522.371 283.979C521.801 282.379 520.451 280.52 520.871 279.25C521.351 277.79 523.361 276.8 524.791 275.7C526.171 274.63 528.341 274 528.951 272.64C530.791 268.48 533.301 264.05 533.281 259.74C533.221 249.98 532.571 240.08 530.701 230.52C528.771 220.63 525.391 210.969 522.071 201.419C520.651 197.339 517.741 193.78 515.511 189.99L515.581 189.94Z" fill="black"/>
<path d="M138.528 274.52C141.118 277.53 147.498 272.45 148.008 280.01C149.348 279 150.458 278.28 151.438 277.41C159.038 270.62 161.078 270.82 166.768 279.28C168.048 278.07 169.288 276.92 170.518 275.75C172.878 273.49 175.128 271.46 178.878 273.33C182.748 275.26 184.628 277.4 184.258 282.34C183.568 291.52 184.058 300.79 184.058 309.61C185.518 311.11 188.488 312.78 188.428 314.34C188.278 318.37 184.378 316.73 181.938 317.2C180.958 317.39 179.868 317.53 178.918 317.3C177.488 316.95 176.148 316.26 174.768 315.72C175.488 314.36 176.198 312.98 176.938 311.63C177.528 310.55 178.708 309.47 178.688 308.42C178.448 298.55 178.008 288.69 177.598 278.83C177.578 278.28 177.248 277.75 176.978 276.95C169.868 280.69 166.218 286.44 165.818 294.21C165.628 297.97 165.818 301.74 165.758 305.5C165.718 308.15 165.598 310.64 168.498 312.22C169.308 312.66 170.088 314.95 169.708 315.4C168.918 316.34 167.378 316.96 166.078 317.08C163.958 317.28 161.758 317.17 159.658 316.8C158.658 316.63 157.288 315.72 157.048 314.87C156.798 314.02 157.648 312.77 158.198 311.8C158.708 310.9 159.998 310.15 160.028 309.31C160.308 300.21 160.508 291.1 160.468 281.99C160.468 280.47 159.218 278.96 158.548 277.44C157.048 278.18 154.938 278.53 154.168 279.73C151.738 283.54 148.818 287.47 147.938 291.74C146.828 297.13 147.548 302.9 147.458 308.5C147.428 310.62 147.878 312.16 150.538 312.21C151.208 312.22 152.348 313.37 152.378 314.04C152.408 314.76 151.488 316.09 150.828 316.19C147.278 316.72 143.688 317.14 140.098 317.17C139.288 317.17 137.908 315.58 137.808 314.61C137.718 313.78 138.938 312.18 139.818 311.98C142.828 311.29 142.938 309.71 142.838 306.93C142.598 300.01 142.978 293.06 143.238 286.12C143.338 283.37 143.478 281.07 139.828 280.32C136.438 279.62 137.638 277.01 138.508 274.51L138.528 274.52Z" fill="black"/>
<path d="M419.311 278.75C419.771 280.12 420.131 281.18 420.771 283.06C418.421 283.71 416.051 285.06 413.941 284.73C412.031 284.43 409.571 282.61 408.931 280.87C408.471 279.63 410.201 276.52 411.691 275.83C415.681 273.98 419.991 272.31 424.301 271.85C428.511 271.4 432.951 272.23 437.181 273.03C442.691 274.07 445.521 277.29 445.701 282.94C445.911 289.58 445.701 296.24 445.391 302.88C445.001 311.04 444.861 311.05 452.771 313.14C454.121 313.5 455.521 313.66 456.901 313.92C457.101 314.36 457.291 314.8 457.491 315.24C455.731 316.12 454.061 317.46 452.201 317.81C446.051 318.97 442.161 316.53 441.811 308.87C433.851 316.42 424.941 317.87 415.651 317.38C413.371 317.26 410.691 315.95 409.051 314.32C405.071 310.34 404.851 305.02 406.461 300.09C408.101 295.04 412.851 293.11 417.731 292.48C423.601 291.72 429.581 291.79 435.451 291.01C441.091 290.26 442.541 287.5 440.331 282.17C439.751 280.78 438.251 279.24 436.851 278.81C431.251 277.08 425.531 276.6 419.291 278.77L419.311 278.75ZM424.311 296.77C424.291 296.65 424.271 296.53 424.251 296.41C423.241 296.34 422.231 296.24 421.221 296.19C414.711 295.86 410.421 299.03 410.461 304.15C410.511 311.02 414.601 314.62 421.661 313.88C423.231 313.72 424.981 313.58 426.281 312.8C430.721 310.14 435.441 307.67 439.121 304.14C440.491 302.83 439.491 298.78 439.041 296.07C438.961 295.62 436.131 295.36 434.611 295.48C431.171 295.76 427.751 296.32 424.321 296.77H424.311Z" fill="black"/>
<path d="M210.441 279.82C209.431 281.35 208.761 283.53 207.341 284.28C204.131 285.98 200.791 284.97 199.101 281.89C198.451 280.7 199.521 277.23 200.741 276.6C204.751 274.52 209.091 272.42 213.491 271.91C218.111 271.37 223.011 272.33 227.661 273.24C232.701 274.22 235.401 277.58 235.521 282.74C235.671 289.39 235.581 296.06 235.251 302.7C234.851 310.73 234.691 310.74 242.411 313.02C243.761 313.42 245.161 313.62 246.541 313.92C245.511 318.27 236.251 319.71 233.631 315.85C232.511 314.19 232.221 311.97 231.301 309.23C223.611 316.43 214.731 317.86 205.451 317.4C203.271 317.29 200.601 316.17 199.131 314.61C192.101 307.13 195.311 295.75 205.181 293.07C208.621 292.14 212.331 292.15 215.931 291.81C218.951 291.52 222.051 291.64 225.001 291.04C227.601 290.51 231.091 290.7 231.031 286.33C230.961 281.39 229.601 278.97 225.021 278.38C219.971 277.72 214.831 277.77 209.721 277.52C209.961 278.29 210.201 279.07 210.441 279.84V279.82ZM228.731 295.43C221.471 295.77 214.311 295.88 207.191 296.51C202.551 296.92 199.871 300.42 200.581 304.99C201.621 311.68 203.771 313.96 208.401 314.05C215.441 314.18 220.731 310.93 225.821 306.56C230.881 302.22 231.261 301.59 228.731 295.43Z" fill="black"/>
<path d="M334.057 272.51C337.447 274.26 339.877 282.44 337.647 284.87C337.117 285.45 334.647 285.2 333.897 284.47C326.997 277.79 318.657 277.06 309.997 278.92C307.877 279.37 306.307 282.35 304.477 284.17C306.577 285.99 308.417 288.79 310.837 289.43C315.537 290.68 320.607 290.45 325.427 291.36C328.637 291.97 331.867 293.13 334.747 294.68C337.967 296.41 341.077 298.94 340.087 303.22C338.957 308.1 337.987 313.83 332.087 315.07C326.057 316.34 319.767 316.94 313.617 316.79C310.477 316.71 307.387 314.33 303.647 312.71C302.857 313.37 301.537 314.71 299.987 315.69C299.017 316.31 297.697 316.39 296.537 316.71C296.377 315.54 295.867 314.29 296.127 313.22C296.597 311.27 297.957 309.48 298.147 307.54C298.387 305.21 297.707 302.8 297.617 300.42C297.567 299.16 297.897 297.89 298.057 296.63C299.447 297.09 301.047 297.28 302.147 298.12C302.867 298.67 303.117 300.17 303.137 301.25C303.217 306.67 306.087 309.82 311.037 311.38C317.947 313.55 324.497 312.34 330.747 309.07C334.237 307.25 334.247 303.69 333.567 300.66C333.157 298.82 331.247 296.55 329.497 295.93C326.027 294.7 322.207 294.34 318.507 293.86C314.787 293.38 310.987 293.44 307.297 292.8C302.217 291.91 299.797 288.8 299.347 283.4C299.027 279.52 301.497 275.66 305.837 274.24C312.367 272.1 319.157 272.09 325.547 274.38C329.247 275.71 331.867 275.77 334.067 272.51H334.057Z" fill="black"/>
<path d="M360.661 284.75C363.241 282.46 365.011 280.85 366.821 279.29C371.511 275.25 376.431 272.7 383.071 274.59C387.361 275.81 389.241 278.3 389.271 282.28C389.321 291.24 389.351 300.21 388.851 309.15C388.631 313.04 390.051 313.79 393.271 313.3C394.561 313.1 395.871 312.57 397.111 312.71C398.161 312.83 399.141 313.69 400.141 314.23C399.371 315.07 398.681 316.55 397.831 316.65C393.541 317.15 389.211 317.34 384.891 317.53C382.871 317.62 380.801 317.66 378.831 317.29C377.981 317.13 377.331 315.9 376.591 315.15C377.321 314.59 377.971 313.74 378.791 313.52C381.101 312.89 384.501 313.26 385.541 311.83C386.651 310.31 385.521 307.18 385.411 304.75C385.081 297.67 385.071 290.56 384.371 283.52C383.751 277.25 379.671 275.15 374.261 278.26C366.021 282.99 359.431 288.96 360.541 299.84C360.861 302.99 360.691 306.22 360.561 309.4C360.441 312.08 361.541 313.02 364.171 312.83C366.481 312.67 369.221 311.97 370.501 316.43C362.611 316.83 355.101 317.21 347.641 317.59C346.701 314.263 349.661 312.967 356.521 313.7C356.241 307.78 355.831 301.96 355.731 296.14C355.611 288.95 355.661 281.76 355.811 274.57C355.901 270.41 356.481 266.25 356.491 262.1C356.491 261.29 355.001 260.12 353.981 259.77C353.001 259.44 351.711 259.87 350.601 260.15C348.251 260.73 345.861 260.69 345.541 257.94C345.451 257.19 348.461 255.6 350.221 255.25C352.431 254.81 355.191 254.56 357.021 255.54C358.701 256.44 360.371 259.03 360.441 260.94C360.651 266.56 359.981 272.21 359.831 277.86C359.781 279.79 360.271 281.73 360.661 284.77V284.75Z" fill="black"/>
<path d="M249.823 314.78C251.183 312.53 252.132 310.95 252.912 309.65C256.992 309.84 260.822 310.26 264.622 310.03C265.582 309.97 267.163 307.92 267.213 306.73C267.543 299.22 267.443 291.7 267.633 284.18C267.773 278.93 266.923 278.01 261.653 278.89C259.383 279.27 257.192 280.32 254.922 280.49C253.562 280.59 252.113 279.59 250.713 279.08C251.643 277.36 252.453 274.24 253.513 274.15C259.703 273.66 265.952 273.68 272.162 274.05C273.172 274.11 274.823 276.73 274.833 278.17C274.873 286.1 274.492 294.02 274.232 301.95C274.212 302.52 273.993 303.08 273.903 303.65C272.903 309.95 274.013 311.1 280.403 310.44C282.993 310.17 285.612 309.64 288.162 309.88C289.442 310 291.733 312.11 291.583 312.45C290.823 314.2 289.453 316.98 288.213 317.02C277.503 317.36 266.783 317.3 256.062 317.08C254.192 317.04 252.352 315.74 249.812 314.76L249.823 314.78Z" fill="black"/>
<path d="M271.338 254.09C274.848 254.21 277.728 256.98 277.798 260.31C277.848 262.71 274.018 266.47 271.578 265.54C268.648 264.42 265.258 262.49 263.868 259.93C262.568 257.56 267.528 253.96 271.348 254.09H271.338Z" fill="black"/>
</svg>
