<svg width="1104" height="481" viewBox="0 0 1104 481" fill="none" xmlns="http://www.w3.org/2000/svg">
<path d="M563.253 42.71C570.403 43.88 577.603 44.7799 584.693 46.2499C647.953 59.3799 696.563 111.6 705.033 175.38C715.863 256.94 663.243 331.24 582.043 347.12C496.873 363.78 418.513 307.93 402.333 227.85C385.193 143.04 437.833 63.69 522.523 45.83C529.033 44.46 535.683 43.73 542.263 42.71C549.263 42.71 556.263 42.71 563.263 42.71H563.253ZM528.343 116.3C527.943 115.83 527.563 115.43 527.233 114.99C518.983 103.84 507.643 99.7799 495.523 103.66C483.623 107.47 476.533 117.79 476.493 131.44C476.463 142.07 476.493 152.7 476.493 163.33C476.493 192.02 476.443 220.7 476.623 249.39C476.633 251.02 478.343 253.8 479.633 254.03C482.563 254.56 482.813 251.88 482.783 249.56C482.763 248.25 482.783 246.94 482.783 245.63C482.783 207.33 482.793 169.04 482.783 130.74C482.783 125.29 484.233 120.33 487.823 116.22C493.353 109.92 500.313 107.31 508.613 109.19C515.863 110.83 520.853 115.19 523.693 122.21C507.323 126.84 500.593 138.63 500.813 153.86C501.363 191.71 500.973 229.58 501.033 267.43C501.033 269.96 499.793 273.9 503.873 274.03C508.253 274.17 507.253 270.13 507.263 267.4C507.303 228.38 507.313 189.35 507.273 150.33C507.273 141.26 511.403 134.77 519.283 130.61C520.933 129.74 522.943 129.54 525.303 128.89C525.303 131.44 525.303 133.17 525.303 134.9C525.303 172.47 525.283 210.04 525.353 247.6C525.353 250.08 524.033 254.04 528.263 254.1C532.773 254.16 531.543 250.06 531.543 247.42C531.613 209.71 531.593 171.99 531.593 134.28V129.17C541.973 130.29 549.383 138.92 549.393 149.55C549.433 192.94 549.413 236.33 549.393 279.73C549.393 280.98 549.173 282.24 549.013 284.06H527.703C527.236 288.487 529.023 290.703 533.063 290.71C546.333 290.71 559.593 290.71 572.863 290.71C578.673 290.71 578.863 290.42 577.443 283.77H556.293C556.203 281.89 556.093 280.6 556.093 279.3C556.093 236.2 556.093 193.1 556.093 150C556.093 148.69 556.183 147.38 556.283 146.08C556.793 139.36 564.793 128.83 573.903 129.55C573.903 131.25 573.903 132.97 573.903 134.7C573.903 172.12 573.903 209.54 573.903 246.97C573.903 248.57 573.653 250.31 574.213 251.71C574.643 252.78 576.183 254.08 577.203 254.06C578.183 254.04 579.543 252.62 579.983 251.51C580.483 250.24 580.183 248.64 580.183 247.19C580.183 209.62 580.183 172.05 580.183 134.49C580.183 132.81 580.183 131.12 580.183 128.61C582.873 129.51 584.873 129.88 586.563 130.8C594.233 135 598.223 141.4 598.213 150.3C598.163 189.32 598.193 228.35 598.203 267.37C598.203 268.82 597.923 270.46 598.493 271.67C599.003 272.76 600.533 274.05 601.583 274.02C602.563 273.99 603.733 272.48 604.363 271.37C604.803 270.59 604.483 269.38 604.483 268.36C604.483 228.75 604.493 189.15 604.483 149.54C604.483 137.58 597.273 127.58 585.963 123.65C584.633 123.19 583.293 122.73 581.953 122.27C585.673 112.54 595.203 107.13 605.023 108.98C616.033 111.05 622.663 119.39 622.683 131.56C622.733 170.15 622.703 208.73 622.703 247.32C622.703 248.63 622.333 250.13 622.843 251.2C623.423 252.42 624.833 254.08 625.833 254.05C626.903 254.01 628.193 252.38 628.853 251.15C629.343 250.24 628.993 248.87 628.993 247.71C628.993 231.4 628.993 215.09 628.993 198.78C628.993 175.92 629.103 153.06 628.953 130.2C628.843 111.89 613.183 99.2699 595.373 102.97C587.383 104.63 581.633 109.56 577.263 116.36C564.433 97.0499 539.913 98.2099 528.333 116.3H528.343Z" fill="black"/>
<path d="M167.671 450.22H153.121C157.541 448.5 157.561 444.87 157.461 441.03C157.331 435.7 157.431 430.36 157.431 424.56C147.911 424.56 138.921 424.49 129.941 424.68C129.121 424.7 127.681 426.38 127.641 427.33C127.421 432.85 127.211 438.41 127.701 443.89C127.891 446.06 129.911 448.06 131.051 450.07H117.281C121.351 448.76 121.831 445.63 121.791 441.93C121.671 430.73 121.681 419.53 121.791 408.33C121.821 404.8 121.181 401.95 117.301 400.55H133.601C127.281 402.04 127.371 406.03 127.491 410.13C127.611 414.18 127.521 418.24 127.521 422.72H157.331C157.331 416.96 157.611 411.04 157.151 405.17C157.021 403.51 154.751 402.01 153.461 400.43H167.351C162.101 402.31 163.321 406.82 163.301 410.8C163.271 421.42 163.371 432.04 163.241 442.65C163.201 446.11 164.051 448.66 167.671 450.21V450.22Z" fill="black"/>
<path d="M288.823 400.42H302.932C298.052 401.68 298.592 404.82 299.862 408.61C303.492 419.48 306.893 430.43 311.283 441.45C315.383 427.43 319.482 413.4 323.582 399.38C324.002 399.34 324.433 399.3 324.853 399.26C329.603 413.12 334.353 426.97 339.103 440.83C339.403 440.83 339.703 440.83 340.003 440.83C341.733 434.96 343.472 429.09 345.182 423.22C346.562 418.48 347.893 413.72 349.253 408.97C351.063 402.62 350.883 402.26 344.263 400.38H357.973C353.053 401.63 351.812 405.58 350.622 409.72C347.112 422.01 343.502 434.28 339.902 446.55C339.422 448.2 338.803 449.8 338.253 451.43L337.062 451.65C332.273 437.97 327.483 424.3 322.703 410.62C322.403 410.58 322.103 410.54 321.793 410.49C317.783 424.18 313.782 437.87 309.772 451.55C309.382 451.55 309.002 451.55 308.612 451.55C308.062 450.14 307.452 448.74 306.962 447.31C302.612 434.67 298.402 421.98 293.862 409.42C292.682 406.15 290.442 403.25 288.812 400.41L288.823 400.42Z" fill="black"/>
<path d="M688.419 410.42C684.419 424.12 680.419 437.82 676.429 451.53L675.339 451.56C674.849 450.46 674.259 449.39 673.879 448.25C669.369 435.05 665.009 421.81 660.309 408.68C659.229 405.66 657.019 403.05 655.469 400.49H669.649C664.829 401.4 665.099 404.35 666.329 408.06C670.009 419.19 673.499 430.38 677.879 441.55C681.999 427.47 686.119 413.39 690.239 399.31C690.669 399.31 691.089 399.33 691.519 399.34C696.279 413.23 701.029 427.13 705.789 441.02C706.089 441 706.389 440.98 706.689 440.95C710.029 429.27 713.459 417.6 716.679 405.89C717.889 401.48 714.319 401.42 711.469 400.54H724.389C718.679 401.92 718.129 406.97 716.799 411.54C713.399 423.26 709.949 434.96 706.499 446.67C706.019 448.3 705.399 449.89 704.849 451.5C704.459 451.55 704.069 451.6 703.689 451.65C698.889 437.95 694.089 424.25 689.289 410.55C688.999 410.51 688.709 410.47 688.409 410.43L688.419 410.42Z" fill="black"/>
<path d="M1040.8 400.36H1053.71C1048.64 401.9 1047.74 406.33 1046.5 410.6C1042.94 422.87 1039.31 435.12 1035.69 447.38C1035.29 448.73 1034.81 450.06 1033.18 451.67C1028.39 438.04 1023.61 424.41 1018.82 410.78C1018.49 410.76 1018.16 410.73 1017.83 410.71C1013.84 424.33 1009.85 437.95 1005.86 451.56C1005.44 451.56 1005.02 451.56 1004.6 451.56C1002.48 445.48 1000.34 439.42 998.247 433.33C995.367 424.95 992.707 416.49 989.577 408.21C988.487 405.33 986.267 402.89 984.727 400.49H999.487C994.587 401.9 994.667 404.63 995.877 408.22C999.307 418.4 1002.46 428.68 1005.73 438.91C1005.98 439.69 1006.37 440.42 1007.16 442.24C1011.51 427.32 1015.57 413.4 1019.63 399.49C1020.07 399.42 1020.52 399.35 1020.96 399.28C1025.68 413.06 1030.4 426.83 1035.13 440.61L1036.12 440.7C1036.63 438.99 1037.16 437.29 1037.65 435.58C1040.25 426.66 1042.86 417.73 1045.44 408.8C1047.17 402.8 1046.91 402.32 1040.82 400.34L1040.8 400.36Z" fill="black"/>
<path d="M431.883 450.22H417.333C421.813 448.71 421.963 445.23 421.873 441.45C421.743 436.08 421.843 430.71 421.843 424.94H392.333C392.333 431.79 392.063 438.58 392.523 445.32C392.643 447.03 395.053 448.59 396.393 450.2H381.523C385.923 448.79 386.433 445.48 386.393 441.6C386.283 430.69 386.303 419.77 386.383 408.86C386.413 405.1 385.993 401.79 381.563 400.49H397.683C391.423 402.36 391.933 406.79 391.943 411C391.943 414.89 391.943 418.78 391.943 422.9H421.703C421.703 416.84 421.983 410.92 421.523 405.05C421.393 403.42 419.063 401.96 417.773 400.45H432.363C427.563 401.79 427.543 405.53 427.583 409.48C427.673 420.39 427.663 431.31 427.583 442.22C427.553 445.74 428.273 448.61 431.893 450.23L431.883 450.22Z" fill="black"/>
<path d="M960.597 425.8C960.257 441.48 950.347 451.07 934.837 450.74C920.127 450.42 910.537 439.83 910.917 424.32C911.287 408.96 921.427 399.55 937.187 399.95C951.557 400.31 960.927 410.66 960.597 425.81V425.8ZM916.017 425.19C917.997 430.96 919.027 436.85 921.877 441.64C928.297 452.43 943.757 452.19 950.057 441.3C956.177 430.71 956.177 419.55 949.907 409C943.577 398.35 928.477 398.12 921.977 408.73C919.067 413.48 918.037 419.39 916.017 425.18V425.19Z" fill="black"/>
<path d="M219.692 429.69C215.712 422.26 208.972 424.77 202.722 424.53V448.25C213.022 451.49 219.212 449.15 226.732 439.2C226.822 439.43 227.002 439.66 226.962 439.85C225.709 446.916 221.519 450.45 214.392 450.45C206.852 450.45 199.322 450.45 191.782 450.45C196.472 448.68 196.762 444.97 196.732 440.9C196.642 430.29 196.652 419.67 196.732 409.05C196.762 405.15 196.192 401.79 191.742 400.43H224.382V410.31C220.432 399.4 211.452 401.46 202.792 401.72V422.77C208.732 422.76 215.102 424.68 219.692 417.14V429.67V429.69Z" fill="black"/>
<path d="M586.118 430.69C582.248 422.39 575.618 424.65 569.328 424.58V448.72C579.128 449.63 588.528 450.43 593.648 439.33C593.018 442.88 592.388 446.42 591.718 450.19H558.978C563.098 448.24 563.368 444.72 563.318 440.83C563.198 430.07 563.218 419.31 563.318 408.55C563.348 404.85 562.558 401.89 558.508 400.54H591.078V409.36C588.478 407.15 585.748 403.43 582.138 402.13C578.428 400.8 573.878 401.83 569.378 401.83V422.25C576.678 424.31 581.688 423.09 586.138 417.71V430.68L586.118 430.69Z" fill="black"/>
<path d="M522.78 450.28C521.54 450.34 520.29 450.44 519.05 450.44C515.18 450.46 511.3 450.44 507.17 450.04C511.57 448.73 512.05 445.64 512.01 441.89C511.87 428.67 511.95 415.44 511.95 402.31C501.92 399.59 498.73 401.28 491.93 413.34C492.35 408.31 492.67 404.41 493 400.43H536.95C537.31 404.4 537.65 408.2 538.1 413.21C530.88 398.92 528.61 401.49 517.91 402.01C517.91 404.84 517.91 407.71 517.91 410.57C517.91 420.9 517.98 431.24 517.88 441.57C517.84 445.43 518.19 448.85 522.78 450.26V450.28Z" fill="black"/>
<path d="M50.5178 412.96C50.9478 408.36 51.2978 404.56 51.6778 400.5H95.6078C95.9878 404.54 96.3578 408.45 96.7178 412.36C93.5978 402.29 86.5778 399.98 76.6678 402.07C76.6678 406.39 76.6678 410.85 76.6678 415.32C76.6678 424.48 76.7378 433.65 76.6278 442.81C76.5878 446.26 77.4078 448.86 81.1678 450.07H66.4078C70.3078 448.55 70.7878 445.44 70.7478 441.75C70.6178 429.97 70.7078 418.18 70.6878 406.4C70.6878 404.98 70.5578 403.56 70.4978 402.21C60.6478 399.89 58.4278 401.05 50.5078 412.95L50.5178 412.96Z" fill="black"/>
<path d="M884.359 438.25C883.709 442.14 883.049 446.04 882.359 450.16H849.349C853.209 448.58 853.829 445.64 853.789 441.99C853.649 430.78 853.669 419.57 853.789 408.36C853.829 404.65 853.109 401.71 848.969 400.5H864.859C859.839 402.04 859.619 405.39 859.659 409.17C859.799 422.25 859.709 435.33 859.709 448.64C869.969 449.62 879.979 451.08 883.219 436.98C883.599 437.4 883.979 437.83 884.369 438.25H884.359Z" fill="black"/>
<path d="M787.708 400.29H802.548C798.088 401.99 797.778 405.56 797.828 409.64C797.988 420.99 797.878 432.34 797.878 443.69V449.26C803.268 448.98 808.608 449.89 812.818 448.12C816.688 446.5 819.348 441.99 822.568 438.73C822.048 441.84 821.538 445.48 820.738 449.04C820.598 449.65 819.208 450.38 818.388 450.38C808.078 450.47 797.778 450.44 787.078 450.06C791.858 448.8 791.988 445.38 791.958 441.63C791.848 430.57 791.848 419.51 791.958 408.45C791.998 404.85 791.648 401.75 787.708 400.29Z" fill="black"/>
<path d="M763.452 450.17H748.142C752.432 448.81 753.032 445.6 752.982 441.7C752.852 430.79 752.942 419.88 752.932 408.97C752.932 403.4 752.742 403.09 747.922 400.36H763.282C759.092 401.69 758.812 404.94 758.852 408.65C758.982 419.85 758.972 431.05 758.852 442.25C758.812 445.88 759.312 448.89 763.442 450.16L763.452 450.17Z" fill="black"/>
<path d="M471.307 450.17H456.747C461.567 448.34 461.057 444.25 461.037 440.25C460.967 429.63 460.957 419.01 461.047 408.39C461.077 404.92 460.607 401.96 456.727 400.51H471.097C466.997 401.93 466.787 405.21 466.827 408.9C466.957 419.81 466.947 430.72 466.827 441.63C466.787 445.32 467.037 448.61 471.297 450.16L471.307 450.17Z" fill="black"/>
<path d="M528.341 116.3C539.921 98.2103 564.441 97.0503 577.271 116.36C581.631 109.56 587.391 104.63 595.381 102.97C613.191 99.2702 628.851 111.89 628.961 130.2C629.101 153.06 629.001 175.92 629.001 198.78C629.001 215.09 629.001 231.4 629.001 247.71C629.001 248.87 629.351 250.24 628.861 251.15C628.201 252.37 626.911 254.01 625.841 254.05C624.841 254.08 623.441 252.42 622.851 251.2C622.341 250.13 622.711 248.63 622.711 247.32C622.711 208.73 622.741 170.15 622.691 131.56C622.671 119.39 616.041 111.05 605.031 108.98C595.221 107.13 585.691 112.54 581.961 122.27C583.301 122.73 584.641 123.18 585.971 123.65C597.291 127.57 604.491 137.58 604.491 149.54C604.511 189.15 604.491 228.75 604.491 268.36C604.491 269.38 604.811 270.59 604.371 271.37C603.741 272.49 602.571 273.99 601.591 274.02C600.551 274.05 599.021 272.76 598.501 271.67C597.931 270.46 598.211 268.82 598.211 267.37C598.211 228.35 598.181 189.32 598.221 150.3C598.231 141.41 594.241 135 586.571 130.8C584.881 129.87 582.871 129.51 580.191 128.61C580.191 131.13 580.191 132.81 580.191 134.49C580.191 172.06 580.191 209.63 580.191 247.19C580.191 248.64 580.491 250.24 579.991 251.51C579.551 252.61 578.191 254.04 577.211 254.06C576.191 254.08 574.651 252.79 574.221 251.71C573.661 250.31 573.911 248.57 573.911 246.97C573.901 209.55 573.911 172.13 573.911 134.7C573.911 132.97 573.911 131.25 573.911 129.55C564.801 128.82 556.801 139.35 556.291 146.08C556.191 147.38 556.101 148.69 556.101 150C556.101 193.1 556.101 236.2 556.101 279.3C556.101 280.59 556.211 281.89 556.301 283.77H577.451C578.871 290.42 578.671 290.7 572.871 290.71C559.601 290.71 546.341 290.71 533.071 290.71C529.038 290.71 527.251 288.494 527.711 284.06H549.021C549.191 282.24 549.401 280.98 549.401 279.73C549.421 236.34 549.441 192.95 549.401 149.55C549.391 138.92 541.981 130.29 531.601 129.17V134.28C531.601 171.99 531.621 209.71 531.551 247.42C531.551 250.06 532.771 254.16 528.271 254.1C524.041 254.04 525.361 250.08 525.361 247.6C525.281 210.03 525.311 172.46 525.311 134.9C525.311 133.17 525.311 131.44 525.311 128.89C522.951 129.54 520.941 129.74 519.291 130.61C511.411 134.77 507.271 141.26 507.281 150.33C507.321 189.35 507.311 228.38 507.271 267.4C507.271 270.13 508.261 274.17 503.881 274.03C499.801 273.9 501.051 269.96 501.041 267.43C500.981 229.57 501.371 191.71 500.821 153.86C500.601 138.63 507.331 126.84 523.701 122.21C520.861 115.2 515.881 110.84 508.621 109.19C500.321 107.31 493.351 109.92 487.831 116.22C484.231 120.32 482.781 125.29 482.791 130.74C482.811 169.04 482.791 207.33 482.791 245.63C482.791 246.94 482.771 248.25 482.791 249.56C482.821 251.88 482.571 254.56 479.641 254.03C478.361 253.8 476.641 251.02 476.631 249.39C476.451 220.71 476.501 192.02 476.501 163.33C476.501 152.7 476.481 142.07 476.501 131.44C476.541 117.79 483.631 107.47 495.531 103.66C507.651 99.7802 518.991 103.84 527.241 114.99C527.571 115.43 527.951 115.83 528.351 116.3H528.341ZM572.011 122.52C569.801 114.22 561.241 108.36 552.231 108.58C543.461 108.8 535.251 114.82 533.601 122.48C541.791 124.38 548.141 129.08 552.781 136.53C557.441 128.88 563.691 124.46 572.001 122.51L572.011 122.52Z" fill="white"/>
<path d="M572.009 122.521C563.699 124.471 557.459 128.89 552.789 136.54C548.139 129.09 541.789 124.38 533.609 122.49C535.249 114.83 543.469 108.811 552.239 108.591C561.239 108.361 569.809 114.231 572.019 122.531L572.009 122.521Z" fill="black"/>
</svg>
