<svg width="838" height="481" viewBox="0 0 838 481" fill="none" xmlns="http://www.w3.org/2000/svg">
<path d="M45.1219 331.54C45.0819 321.36 45.0219 311.18 44.9919 301C44.9219 275.36 44.8719 249.73 44.8019 224.09C44.7519 204.47 44.6519 184.85 44.6219 165.24C44.5719 135.07 44.5719 104.89 44.5219 74.7203C44.5219 73.9603 44.9119 73.0903 44.1719 72.4203V56.3604C45.1319 56.3804 46.0919 56.4304 47.0519 56.4304C136.612 56.4304 226.162 56.4304 315.722 56.4304C318.942 56.4304 318.592 56.0204 318.592 59.2604C318.592 95.2404 318.592 131.21 318.592 167.19C318.592 168.01 318.552 168.82 318.532 169.64C316.882 170.04 315.882 171.17 315.202 172.64C308.032 188.2 290.602 196.78 273.412 194.24C254.042 191.38 240.842 173.6 244.082 154.3C248.092 130.45 272.142 122.54 289.662 132.05C299.852 137.58 303.902 149.72 298.962 159.83C293.842 170.33 279.672 174.4 270.552 168C266.312 165.02 264.722 160.36 266.682 156.69C268.542 153.21 273.272 150.6 278.332 153.38C279.222 153.87 280.232 154.13 281.342 153.88C283.912 153.3 285.582 151.61 285.942 149.09C286.262 146.82 284.802 144.58 282.202 143.35C274.312 139.6 264.882 141.73 259.282 148.53C253.952 154.99 253.612 164.2 258.802 171.13C265.842 180.53 275.662 183.21 286.682 181.08C298.392 178.82 306.572 171.77 310.212 160.28C313.982 148.39 311.282 137.64 302.672 128.72C290.152 115.74 267.422 113.72 251.812 123.86C231.852 136.83 226.792 165.79 240.852 185.78C253.662 203.97 276.602 209.62 296.872 202.52C305.452 199.52 312.592 194.35 318.502 187.48C318.532 188.22 318.582 188.96 318.582 189.7C318.582 225.65 318.582 261.61 318.582 297.56C318.582 298.45 318.502 299.34 318.462 300.22C318.232 301 317.982 301.77 317.762 302.55C312.412 322.04 303.442 339.44 288.522 353.44C276.052 365.15 261.372 372.7 244.762 376.58C241.422 377.36 238.012 377.85 234.632 378.48C239.972 378.65 245.262 378.53 250.552 378C262.802 376.78 274.462 373.55 285.552 368.22C298.362 362.06 309.392 353.61 318.502 342.69C318.592 351.67 318.742 360.64 318.432 369.61C307.532 375.42 296.292 380.51 284.752 384.9C260.352 394.19 235.262 400.59 209.112 401.93C192.822 402.77 176.672 401.42 160.912 396.79C151.392 393.99 142.312 390.28 134.792 383.6C126.832 376.52 122.442 367.93 124.502 356.96C126.492 346.4 136.932 333.61 153.532 339.12C161.162 341.65 165.012 347.31 164.302 355.36C163.842 360.54 161.882 365.04 158.282 368.91C165.402 368.19 173.932 363.45 178.692 356.93C187.942 344.26 188.322 326.58 172.192 316.41C161.602 309.73 149.802 307.28 137.572 306.67C121.392 305.86 105.772 309.17 90.4119 313.91C85.7119 315.36 81.0919 317.03 76.1119 318.71C77.8019 316.04 79.2819 313.65 80.7919 311.29C113.802 260 146.822 208.72 179.842 157.43C181.182 155.35 181.172 155.35 182.562 157.52C194.732 176.45 206.892 195.38 219.062 214.3C220.512 216.56 221.992 218.8 223.742 221.49C224.042 219.32 224.252 217.73 224.472 216.14C225.402 209.45 225.792 202.71 226.002 195.98C226.092 193.24 226.432 190.55 224.682 187.86C210.512 166.08 196.482 144.21 182.472 122.33C181.372 120.61 181.002 120.53 179.872 122.3C166.102 143.8 152.262 165.26 138.442 186.73C112.882 226.45 87.3419 266.17 61.7719 305.88C56.2519 314.46 50.6619 322.99 45.1019 331.55L45.1219 331.54ZM275.242 256.68C275.392 258.48 275.452 259.59 275.572 260.69C276.312 267.33 276.672 274.01 276.612 280.67C276.562 286.21 276.292 291.78 275.382 297.28C274.252 304.17 272.652 310.9 269.122 317.01C267.392 320 265.392 322.79 262.002 324.71C262.272 323.93 262.412 323.46 262.592 323C270.342 304.09 271.682 284.71 266.952 264.87C262.282 245.28 252.742 228.18 240.112 212.67C239.082 211.41 238.012 210.17 236.902 208.97C235.852 207.84 234.992 206.5 233.452 205.58C235.492 213.18 235.322 220.6 234.032 228.04C231.972 239.93 227.202 250.76 221.082 261.05C211.362 277.4 207.002 294.79 210.642 313.77C213.002 326.05 218.212 337.03 225.852 346.9C226.712 348.01 227.402 348.12 228.532 347.3C231.642 345.06 234.302 342.4 236.372 339.18C242.852 329.11 244.932 317.76 245.892 306.1C246.232 301.92 246.412 297.74 246.532 293.57C254.852 320.13 250.792 344.77 234.712 367.64C235.262 367.64 235.632 367.68 235.992 367.64C237.902 367.37 239.812 367.13 241.712 366.79C258.402 363.8 272.742 356.52 283.512 343.19C292.372 332.22 297.392 319.72 297.242 305.4C297.132 294.96 294.142 285.33 289.342 276.17C285.692 269.19 281.142 262.86 275.232 256.68H275.242Z" fill="black"/>
<path d="M45.1172 331.54C50.6772 322.99 56.2672 314.45 61.7872 305.87C87.3572 266.16 112.897 226.44 138.457 186.72C152.277 165.25 166.117 143.79 179.887 122.29C181.027 120.52 181.397 120.6 182.487 122.32C196.497 144.21 210.517 166.08 224.697 187.85C226.447 190.54 226.097 193.24 226.017 195.97C225.807 202.71 225.417 209.44 224.487 216.13C224.267 217.72 224.057 219.3 223.757 221.48C221.997 218.79 220.527 216.54 219.077 214.29C206.907 195.36 194.737 176.44 182.577 157.51C181.187 155.34 181.197 155.34 179.857 157.42C146.837 208.71 113.827 259.99 80.8072 311.28C79.2872 313.64 77.8072 316.02 76.1272 318.7C81.1072 317.02 85.7272 315.35 90.4272 313.9C105.787 309.16 121.407 305.85 137.587 306.66C149.817 307.27 161.617 309.73 172.207 316.4C188.337 326.57 187.967 344.25 178.707 356.92C173.947 363.44 165.417 368.18 158.297 368.9C161.897 365.03 163.857 360.53 164.317 355.35C165.027 347.3 161.177 341.64 153.547 339.11C136.947 333.6 126.507 346.38 124.517 356.95C122.447 367.92 126.837 376.51 134.807 383.59C142.327 390.27 151.397 393.98 160.927 396.78C176.687 401.41 192.837 402.76 209.127 401.92C235.287 400.58 260.377 394.17 284.767 384.89C296.307 380.5 307.547 375.41 318.447 369.6C318.767 376.86 318.597 384.11 318.537 391.37C317.597 391.96 316.677 392.58 315.717 393.14C282.357 412.75 246.137 422 207.617 422.75C198.267 422.93 188.927 422.38 179.627 421.25C170.587 420.15 161.567 418.91 152.837 416.26C135.317 410.94 120.377 401.78 109.987 386.33C99.4572 370.68 98.1472 354.5 108.037 337.95C110.597 333.67 113.797 329.9 117.477 326.3C117.027 326.27 116.807 326.2 116.617 326.25C100.027 330.6 83.7672 335.96 67.9472 342.6C60.1772 345.86 52.7072 349.73 45.1372 353.42C45.1372 346.13 45.1372 338.83 45.1372 331.54H45.1172Z" fill="white"/>
<path d="M426.308 219.3C427.808 219.98 429.438 220.64 430.998 221.42C443.548 227.68 450.628 241.52 448.838 255.45C446.858 270.88 438.368 281.14 424.288 286.94C410.518 292.61 396.158 293.87 381.658 290.77C363.268 286.83 352.288 274.98 347.688 256.98C346.448 252.14 345.948 247.2 345.948 242.2C345.958 218.5 345.978 194.79 345.898 171.09C345.898 169.01 346.628 168.27 348.528 167.85C366.028 163.96 383.718 162.21 401.628 163.48C409.438 164.04 417.038 165.69 424.178 169.11C439.728 176.57 445.048 192.87 436.808 208.04C434.428 212.41 431.388 216.21 426.778 218.47C426.518 218.6 426.238 218.73 426.298 219.29L426.308 219.3ZM383.378 245.33C383.378 248.52 383.348 251.71 383.378 254.9C383.408 257.89 384.028 260.77 385.128 263.56C389.248 273.93 402.548 273.24 407.508 268.14C411.058 264.5 412.178 260.08 412.628 255.23C413.398 246.85 409.278 238.99 401.788 235.17C396.438 232.44 390.758 231.98 384.888 232.8C383.658 232.97 383.328 233.45 383.348 234.64C383.418 238.2 383.378 241.76 383.378 245.32V245.33ZM383.378 198.21V208.91C383.378 212.697 385.255 214.33 389.008 213.81C398.168 212.53 404.098 207.08 405.058 198.51C405.908 190.9 403.238 183.76 394.028 181.84C391.168 181.25 388.258 181.44 385.368 181.78C383.888 181.95 383.278 182.5 383.328 184.17C383.478 188.85 383.378 193.53 383.378 198.21Z" fill="black"/>
<path d="M662.112 315.03C670.842 315.05 680.353 315.85 689.533 319.04C694.413 320.74 698.992 323 702.792 326.57C711.672 334.91 713.543 348.06 707.513 359.52C705.153 364 702.152 367.9 697.552 370.32C697.182 370.52 696.603 370.61 696.773 371.19C696.943 371.79 697.613 371.73 698.073 371.91C707.563 375.71 714.213 382.32 717.653 391.98C722.213 404.77 719.182 425.76 700.232 436.32C692.512 440.62 684.172 442.83 675.472 443.78C666.462 444.76 657.492 444.6 648.742 441.99C631.362 436.81 621.642 424.66 617.732 407.4C616.732 402.97 616.362 398.46 616.362 393.92C616.382 370.37 616.403 346.82 616.312 323.26C616.312 321.11 617.003 320.35 619.023 319.87C630.983 317.02 645.202 315.33 662.102 315.04L662.112 315.03ZM653.792 398.3C653.982 402.23 653.413 406.92 654.312 411.56C655.612 418.28 659.733 422.68 665.562 423.47C672.733 424.45 678.192 421.94 680.932 415.95C683.852 409.58 684.032 402.96 681.182 396.52C676.492 385.91 664.492 383.29 654.912 384.87C653.752 385.06 653.782 385.78 653.792 386.63C653.812 390.27 653.792 393.91 653.792 398.3ZM653.792 350.17C653.792 353.81 653.792 357.45 653.792 361.09C653.792 364.744 655.589 366.337 659.182 365.87C668.492 364.67 674.633 358.98 675.513 350.11C676.313 342.13 673.033 335.78 664.713 333.89C661.623 333.19 658.522 333.36 655.412 333.84C654.152 334.04 653.733 334.6 653.763 335.91C653.843 340.66 653.792 345.42 653.792 350.17Z" fill="black"/>
<path d="M458.361 380.61C458.361 361.51 458.391 342.4 458.311 323.3C458.311 321.54 458.881 320.85 460.511 320.44C470.991 317.8 481.621 316.29 492.431 315.84C502.581 315.42 512.651 315.67 522.451 318.65C533.161 321.91 542.351 327.37 547.941 337.49C558.061 355.79 549.721 381.1 530.621 390.15C528.721 391.05 528.571 391.79 529.421 393.56C535.751 406.64 545.581 416.21 558.601 422.47C560.941 423.59 561.321 424.89 560.781 427.15C558.321 437.55 550.251 444.11 539.561 444.48C524.671 444.99 514.881 437.46 508.381 424.82C503.801 415.91 501.761 406.28 500.751 396.39C500.541 394.27 498.051 392.92 496.211 394.02C495.401 394.5 495.781 395.37 495.781 396.06C495.761 409.81 495.761 423.56 495.761 437.31C495.761 439.41 494.711 440.46 492.611 440.46C482.051 440.46 471.481 440.41 460.921 440.5C458.921 440.52 458.281 440.05 458.281 437.93C458.371 418.83 458.331 399.72 458.331 380.62L458.361 380.61ZM495.791 355.11C495.791 361.5 495.831 367.89 495.761 374.28C495.741 375.81 496.091 376.37 497.741 376.2C502.761 375.68 507.161 373.83 510.441 370.01C516.611 362.8 518.161 354.43 515.551 345.42C513.211 337.37 505.741 332.89 497.441 334C496.091 334.18 495.761 334.64 495.771 335.94C495.831 342.33 495.801 348.72 495.801 355.11H495.791Z" fill="black"/>
<path d="M615.469 213.11C615.469 198.54 615.499 183.97 615.429 169.4C615.429 167.51 615.829 166.82 617.879 166.84C629.259 166.94 640.639 166.93 652.019 166.84C653.849 166.83 654.419 167.3 654.409 169.19C654.269 195.35 654.389 221.51 654.049 247.67C653.809 265.91 645.079 279.3 628.439 286.62C608.149 295.55 588.069 294.49 569.479 281.87C557.809 273.95 552.279 262.25 552.129 248.2C551.959 232.37 552.109 216.54 551.989 200.71C551.949 195.88 551.349 191.09 549.489 186.54C548.049 183.01 545.699 180.4 542.189 178.81C539.489 177.59 539.199 176.72 540.839 174.22C544.919 167.97 551.029 164.58 558.159 163.57C571.879 161.64 584.639 169.25 588.429 182.19C589.229 184.91 589.599 187.69 589.599 190.54C589.589 212.32 589.569 234.1 589.609 255.88C589.619 261.73 591.749 266.54 597.369 269.07C606.189 273.03 615.409 266.67 615.459 256.59C615.529 242.1 615.479 227.6 615.479 213.11H615.469Z" fill="black"/>
<path d="M45.1187 353.42C52.6887 349.74 60.1587 345.87 67.9287 342.6C83.7587 335.96 100.009 330.6 116.599 326.25C116.789 326.2 117.019 326.27 117.459 326.3C113.779 329.9 110.569 333.67 108.019 337.95C98.1287 354.5 99.4387 370.67 109.969 386.33C120.359 401.78 135.299 410.94 152.819 416.26C161.549 418.91 170.569 420.14 179.609 421.25C188.909 422.39 198.249 422.94 207.599 422.75C246.119 422 282.339 412.75 315.699 393.14C316.659 392.58 317.579 391.96 318.519 391.37C318.539 401.7 318.529 412.03 318.619 422.36C318.629 423.82 317.779 424.25 316.799 424.8C307.419 430.02 297.499 433.95 287.309 437.24C265.639 444.24 243.369 448.05 220.659 449.37C204.909 450.29 189.149 450.32 173.449 448.81C149.979 446.55 128.269 439.42 109.629 424.51C92.5487 410.84 80.8687 393.47 74.7287 372.45C74.2487 370.81 73.7287 370.74 72.3487 371.33C64.0087 374.85 55.6187 378.27 47.2887 381.81C45.5887 382.53 45.0587 382.46 45.0787 380.4C45.1687 371.41 45.1087 362.42 45.1087 353.43L45.1187 353.42Z" fill="black"/>
<path d="M664.644 209.46C664.644 196.01 664.684 182.55 664.604 169.1C664.594 167.14 665.194 166.55 667.144 166.56C693.254 166.61 719.364 166.62 745.474 166.55C747.674 166.55 748.464 167.41 748.874 169.38C751.864 183.71 743.854 195.16 729.304 197.32C721.344 198.51 713.444 197.9 705.574 196.56C702.774 196.08 702.794 196.04 702.774 198.9C702.724 204.77 702.694 210.64 702.554 216.5C702.524 217.99 702.994 218.37 704.444 218.36C712.474 218.29 720.514 218.4 728.544 218.28C730.364 218.25 730.854 218.94 730.874 220.52C731.054 230.62 725.804 237.14 715.454 237.08C711.664 237.06 707.864 237.08 704.074 237.08C703.254 237.08 702.404 236.95 702.424 238.24C702.494 242.7 702.184 247.19 702.634 251.61C703.374 258.86 708.784 263.84 716.884 265.05C727.154 266.58 736.824 264.58 745.904 259.61C747.054 258.98 748.184 257.89 749.574 258.72C751.034 259.59 750.834 261.2 750.664 262.57C749.924 268.33 746.924 273.04 743.154 277.21C732.554 288.96 719.044 293.24 703.584 292.06C693.024 291.26 683.824 287.28 676.614 279.39C668.534 270.55 664.834 259.87 664.614 248.06C664.374 235.2 664.564 222.34 664.564 209.48C664.584 209.48 664.614 209.48 664.634 209.48L664.644 209.46Z" fill="black"/>
<path d="M768.001 318.61C780.941 318.61 793.881 318.67 806.821 318.56C809.161 318.54 810.101 319.32 810.541 321.56C813.351 336.15 805.331 347.37 790.541 349.38C782.351 350.5 774.221 349.84 766.151 348.37C764.741 348.11 764.341 348.29 764.341 349.77C764.341 355.93 764.301 362.1 764.141 368.26C764.101 369.9 764.501 370.4 766.211 370.38C774.241 370.28 782.271 370.39 790.311 370.29C791.991 370.27 792.611 370.8 792.481 372.39C792.341 374.16 792.391 375.97 792.041 377.71C790.681 384.51 785.781 388.72 778.761 389.04C774.681 389.23 770.581 389.27 766.491 389.09C764.311 389 763.881 389.78 763.991 391.72C764.141 394.39 764.021 397.07 764.031 399.74C764.051 409.98 769.341 415.97 779.561 417.17C789.621 418.36 799.051 416.36 807.861 411.38C808.901 410.79 809.981 410.04 811.181 410.68C812.411 411.33 812.301 412.64 812.311 413.85C812.321 416.45 811.461 418.83 810.271 421.06C803.521 433.76 792.751 440.95 778.791 443.45C768.511 445.29 758.451 444.41 749.061 439.53C736.371 432.93 729.801 421.9 727.081 408.25C726.381 404.75 726.131 401.2 726.141 397.62C726.191 372.28 726.201 346.93 726.221 321.59C726.221 319.603 727.201 318.607 729.161 318.6C742.101 318.6 755.041 318.6 767.981 318.6L768.001 318.61Z" fill="black"/>
<path d="M376.556 314.44C389.366 314.65 399.406 315.93 409.486 316.64C421.866 317.51 434.256 318.15 446.676 317.81C447.496 317.79 448.316 317.81 449.126 317.78C450.336 317.73 451.046 318.21 451.346 319.46C452.716 325.35 453.116 331.24 451.016 337.02C448.146 344.92 441.906 348.38 433.976 349.36C428.416 350.05 422.846 349.71 417.306 349.04C415.826 348.86 415.376 349.17 415.406 350.7C415.746 366.22 416.026 381.73 416.306 397.25C416.416 403.19 416.146 409.14 417.276 415.02C418.376 420.77 420.406 425.89 426.196 428.55C427.566 429.18 427.686 430.24 427.096 431.52C426.556 432.68 425.866 433.72 425.016 434.67C416.926 443.76 402.286 446.55 391.486 441.01C384.366 437.36 380.886 431.13 379.346 423.57C378.216 418.04 378.786 412.47 378.856 406.91C379.026 392.13 379.296 377.35 379.536 362.58C379.616 357.83 379.636 353.07 379.836 348.33C379.906 346.76 379.346 346.51 377.966 346.5C368.576 346.43 359.246 346.98 350.016 348.7C348.466 348.99 347.786 348.52 347.376 347.18C343.866 335.73 346.446 323.87 359.656 317.85C365.896 315.01 372.476 314.24 376.556 314.44Z" fill="black"/>
<path d="M460.664 240.79C460.664 226 460.684 211.21 460.654 196.42C460.654 192.52 459.854 188.75 458.374 185.14C457.094 182 454.974 179.62 451.914 178.06C449.454 176.8 449.194 175.82 450.804 173.52C453.994 168.94 458.664 166.34 463.764 164.52C471.804 161.65 479.764 161.92 487.184 166.29C495.544 171.21 498.244 179.33 498.504 188.44C498.694 195.2 498.544 201.96 498.544 208.73C498.544 225.67 498.574 242.62 498.504 259.56C498.504 261.34 498.834 261.99 500.774 261.94C509.094 261.73 517.414 261.64 525.574 259.72C528.634 259 531.594 258.01 534.034 255.94C535.104 255.03 535.874 255.36 536.704 256.21C539.044 258.6 540.154 261.51 540.494 264.79C542.214 281.4 531.724 289.42 518.914 291.87C511.154 293.35 503.524 292.31 495.864 291.23C485.044 289.69 474.184 288.55 463.244 288.58C461.314 288.58 460.584 288.24 460.604 286.04C460.724 270.96 460.664 255.87 460.664 240.78V240.79Z" fill="black"/>
<path d="M606.36 389.98C606.36 405.81 606.36 421.63 606.36 437.46C606.36 439.447 605.337 440.44 603.29 440.44C592.66 440.44 582.02 440.44 571.39 440.44C569.364 440.44 568.35 439.454 568.35 437.48C568.35 407.83 568.35 378.18 568.35 348.54C568.35 344.86 567.7 341.3 566.41 337.86C565.12 334.39 562.98 331.69 559.56 330.02C557.13 328.84 556.91 327.93 558.46 325.65C561.55 321.08 566.12 318.43 571.16 316.68C581.45 313.09 591.11 313.95 599.32 321.78C603.83 326.09 605.7 331.76 606.07 337.84C606.77 349.19 606.25 360.57 606.36 371.93C606.42 377.95 606.37 383.97 606.37 389.99L606.36 389.98Z" fill="black"/>
<path d="M318.507 187.46C312.587 194.33 305.447 199.5 296.877 202.5C276.607 209.6 253.667 203.95 240.857 185.76C226.787 165.77 231.857 136.81 251.817 123.84C267.427 113.7 290.157 115.72 302.677 128.7C311.287 137.63 313.987 148.37 310.217 160.26C306.577 171.75 298.397 178.8 286.687 181.06C275.677 183.19 265.847 180.51 258.807 171.11C253.617 164.18 253.957 154.97 259.287 148.51C264.887 141.71 274.317 139.58 282.207 143.33C284.807 144.57 286.267 146.8 285.947 149.07C285.587 151.59 283.917 153.29 281.347 153.86C280.237 154.11 279.227 153.85 278.337 153.36C273.267 150.58 268.547 153.19 266.687 156.67C264.727 160.34 266.317 165 270.557 167.98C279.677 174.38 293.847 170.31 298.967 159.81C303.897 149.71 299.847 137.56 289.667 132.03C272.137 122.52 248.097 130.43 244.087 154.28C240.847 173.58 254.047 191.35 273.417 194.22C290.607 196.76 308.047 188.18 315.207 172.62C315.887 171.15 316.887 170.02 318.537 169.62C318.537 175.56 318.527 181.51 318.517 187.45L318.507 187.46Z" fill="white"/>
<path d="M318.511 342.67C309.401 353.59 298.371 362.04 285.561 368.2C274.471 373.53 262.811 376.76 250.561 377.98C245.271 378.51 239.991 378.63 234.641 378.46C238.021 377.83 241.431 377.34 244.771 376.56C261.381 372.68 276.051 365.13 288.531 353.42C303.451 339.42 312.421 322.02 317.771 302.53C317.981 301.75 318.231 300.98 318.471 300.2C318.511 304.13 318.591 308.05 318.591 311.98C318.591 322.21 318.541 332.44 318.511 342.67Z" fill="white"/>
<path d="M275.24 256.68C281.15 262.86 285.7 269.19 289.35 276.17C294.14 285.33 297.14 294.96 297.25 305.4C297.4 319.72 292.38 332.22 283.52 343.19C272.75 356.53 258.4 363.8 241.72 366.79C239.82 367.13 237.91 367.37 236 367.64C235.65 367.69 235.28 367.64 234.72 367.64C250.8 344.77 254.86 320.13 246.54 293.57C246.42 297.74 246.24 301.93 245.9 306.1C244.94 317.76 242.86 329.11 236.38 339.18C234.31 342.4 231.64 345.05 228.54 347.3C227.41 348.11 226.72 348.01 225.86 346.9C218.22 337.03 213.01 326.06 210.65 313.77C207.01 294.79 211.37 277.4 221.09 261.05C227.21 250.76 231.98 239.92 234.04 228.04C235.33 220.6 235.5 213.19 233.46 205.58C235 206.5 235.86 207.84 236.91 208.97C238.02 210.17 239.08 211.41 240.12 212.67C252.75 228.18 262.29 245.28 266.96 264.87C271.69 284.71 270.35 304.09 262.6 323C262.41 323.46 262.27 323.94 262.01 324.71C265.4 322.79 267.4 320 269.13 317.01C272.66 310.9 274.26 304.16 275.39 297.28C276.3 291.78 276.57 286.21 276.62 280.67C276.68 274.01 276.32 267.33 275.58 260.69C275.46 259.59 275.4 258.48 275.25 256.68H275.24Z" fill="white"/>
</svg>
