<svg width="532" height="142" viewBox="0 0 532 142" fill="none" xmlns="http://www.w3.org/2000/svg">
<path d="M406.003 99.4298C398.903 102.75 392.373 102.27 387.253 95.5798C384.833 92.4198 382.433 94.9998 380.433 95.7598C365.033 101.7 349.053 104.07 332.643 104.19C331.573 104.19 330.493 104.26 329.433 104.13C323.373 103.42 317.183 102.48 314.243 96.2498C311.343 90.1098 315.543 85.4298 319.033 81.2698C329.663 68.5998 342.403 58.5898 358.253 53.2898C367.843 50.0898 375.403 55.5098 375.053 64.7198C375.003 65.9198 375.373 67.5398 373.673 67.8498C371.953 68.1698 371.773 66.5798 371.313 65.4298C367.673 56.3498 365.343 55.3298 356.583 59.1898C343.443 64.9798 332.053 73.1298 323.073 84.4398C320.823 87.2698 317.823 90.1798 319.483 94.1198C321.203 98.2198 325.513 98.6998 329.323 98.9798C342.923 99.9598 356.203 97.7598 369.293 94.2498C372.803 93.3098 376.303 92.2898 379.733 91.0798C384.743 89.2998 388.923 87.3398 393.243 93.5998C396.673 98.5598 403.823 96.7298 406.653 90.9398C408.023 88.1298 410.663 87.6698 411.353 89.4598C413.033 93.8098 414.333 91.2098 415.963 89.8898C418.903 87.5298 422.433 85.4498 425.973 86.3298C437.463 89.1798 449.173 81.0098 460.473 87.2798C469.193 84.0798 466.163 88.8698 464.363 92.9498C463.493 94.9398 462.733 97.1598 464.803 98.8398C466.813 100.47 468.973 99.5698 470.723 98.2798C474.153 95.7398 477.423 92.9698 480.773 90.3198C483.253 88.3598 485.483 87.7598 486.043 91.8798C486.223 93.1798 485.953 94.6498 487.513 94.9598C489.463 95.3398 490.903 93.8998 491.603 92.4298C492.393 90.7598 492.353 88.7198 492.893 86.8998C493.573 84.5798 495.313 82.9898 497.653 83.5698C501.383 84.4798 498.043 86.3098 497.903 87.7698C497.503 91.9698 500.583 94.7798 502.173 98.1998C503.513 101.08 506.853 104.1 502.363 107.05C499.313 109.06 489.663 107.01 489.723 104.07C489.853 98.1298 484.633 101.64 482.973 99.2098C479.463 94.0598 478.073 100.17 475.693 100.88C473.693 101.47 472.033 103.13 470.053 103.85C462.953 106.43 457.833 102.83 458.673 95.3598C459.083 91.7198 457.873 90.7198 454.903 90.3798C448.003 89.5998 441.163 89.3498 435.103 93.5998C433.523 94.7098 431.873 96.1298 432.613 98.3498C433.263 100.32 435.303 100.2 436.973 100.35C440.883 100.7 444.653 99.9998 448.293 98.5398C449.733 97.9598 451.283 97.3398 451.963 99.4298C452.443 100.92 451.383 101.8 450.183 102.42C444.213 105.51 437.983 106.45 431.553 104.19C426.933 102.57 425.923 98.9198 427.813 94.8698C429.933 90.3598 427.353 90.5598 424.513 91.1398C419.023 92.2598 415.893 96.3298 413.073 100.77C411.983 102.48 411.323 105.3 408.733 104.92C405.943 104.51 407.703 101.08 405.983 99.4098L406.003 99.4298Z" fill="black"/>
<path d="M147.741 68.15C139.231 71.15 134.201 77.24 132.141 85.56C130.271 93.08 133.441 97.07 141.181 97.64C150.051 98.3 158.161 95.84 165.551 91.1C168.251 89.37 170.011 88.58 173.851 89.71C180.701 91.72 188.261 91.23 195.461 89.48C196.681 89.18 198.731 88.37 199.011 88.76C202.881 94.33 205.451 89.01 208.401 87.73C213.221 85.64 217.991 85.67 222.701 87.88C223.921 88.45 225.781 89.05 224.961 91.07C224.401 92.45 222.941 92.83 221.691 92.33C211.421 88.22 206.131 94.32 201.511 101.98C200.661 103.39 199.781 105.43 197.741 104.85C195.721 104.27 195.811 102.08 196.071 100.45C196.931 95.06 194.191 94.46 189.761 94.99C186.181 95.42 182.501 95.08 179.001 95.08C178.741 95.94 178.461 96.37 178.541 96.72C179.121 99.39 182.251 102.62 178.051 104.43C174.581 105.93 170.581 104.3 169.271 101C167.051 95.45 164.331 97.27 160.521 98.78C150.411 102.77 140.071 106.05 130.121 98.33C127.711 96.47 126.681 98.72 125.171 99.48C117.591 103.3 109.441 100.92 106.021 93.83C105.281 92.29 104.131 90.65 106.101 89.3C108.111 87.93 109.161 89.45 110.161 90.97C112.021 93.79 114.581 95.67 117.961 96.1C122.921 96.74 126.251 93.72 126.791 88.56C127.961 77.24 133.771 68.97 143.831 63.83C146.871 62.28 150.581 61.16 153.341 64.28C156.021 67.31 153.911 70.33 152.201 73.07C149.101 78.03 145.121 82.21 140.411 85.65C139.091 86.61 137.381 88.11 135.861 86.45C134.001 84.42 136.491 83.51 137.551 82.47C141.791 78.31 145.721 73.95 147.741 68.17V68.15Z" fill="black"/>
<path d="M262.461 85.4604C261.521 86.8804 261.101 87.6404 260.561 88.3204C258.241 91.2904 253.761 93.9704 255.231 97.9004C256.721 101.89 261.611 99.7204 265.031 100.11C266.641 100.29 268.971 99.6704 269.061 102.05C269.141 104.19 266.901 104.53 265.241 104.66C259.811 105.08 253.421 107.25 249.881 101.54C246.461 96.0204 250.531 90.9904 254.211 87.3504C259.711 81.9104 263.691 76.2604 264.231 68.2504C264.471 64.7104 266.361 61.2504 269.041 58.6404C271.811 55.9404 275.011 54.2804 278.791 56.8104C282.681 59.4204 282.101 63.0104 280.401 66.4904C278.211 70.9804 274.711 74.5604 271.011 77.7904C267.891 80.5104 267.551 83.2804 269.061 86.8804C272.371 94.8204 277.061 101.49 285.001 105.44C286.601 106.24 289.441 106.77 288.301 109.22C286.961 112.08 284.531 109.96 282.771 109.21C274.901 105.83 271.071 101.34 262.451 85.4804L262.461 85.4604ZM269.261 72.5904C272.491 68.9604 275.321 66.4504 276.001 62.5604C276.151 61.7204 274.871 61.2704 274.121 61.7804C270.811 64.0404 269.291 67.2804 269.261 72.5904Z" fill="black"/>
<path d="M100.778 50.5205C106.338 50.5205 111.898 50.4404 117.448 50.5704C118.988 50.6104 121.348 50.3904 121.128 52.9204C120.968 54.7404 119.048 54.8104 117.568 54.8604C113.508 54.9904 109.448 55.0104 105.388 55.1104C79.7379 55.7704 54.1379 56.9304 28.8379 61.6704C27.7879 61.8704 26.7179 61.9804 25.6579 62.0404C24.3679 62.1104 22.9179 62.1504 22.6879 60.4504C22.4779 58.8904 23.6879 58.1604 24.9879 57.8904C29.1679 57.0204 33.3479 56.1004 37.5679 55.4904C58.5279 52.4804 79.5879 50.5705 100.778 50.5205Z" fill="black"/>
<path d="M84.8435 96.14C88.2535 96.79 90.6535 95.37 92.8935 93.83C94.3835 92.81 95.9135 91.65 97.4535 92.99C98.9935 94.33 98.8735 96.51 98.4535 98.39C97.9435 100.66 96.3535 100.46 94.4635 99.94C91.2435 99.05 88.3035 100.96 85.1735 101.2C82.9735 101.37 80.7135 101.13 79.4735 99.14C78.3535 97.34 79.3135 95.47 80.2635 93.73C83.6935 87.44 91.7535 83.24 97.8735 84.6C100.313 85.14 102.833 86.22 102.263 89.03C101.653 92.08 99.2134 90.73 97.1134 90.22C91.6534 88.91 87.9035 91.46 84.8435 96.15V96.14Z" fill="black"/>
<path d="M71.3388 71.0003C70.5988 81.6803 68.4588 92.1203 66.1088 102.53C65.7188 104.26 65.0788 106.52 63.3088 106.28C60.4788 105.9 61.7588 103.29 61.9788 101.59C63.4388 90.6003 64.9588 79.6103 66.5788 68.6403C66.9188 66.3303 66.2688 62.4503 69.9588 63.0203C72.9788 63.4803 71.1488 66.9503 71.4288 69.0803C71.5088 69.7003 71.3788 70.3603 71.3488 71.0003H71.3388Z" fill="black"/>
<path d="M119.91 72.5205C119.71 74.3805 118.46 75.1205 116.88 75.2505C114.85 75.4205 113.62 74.3305 113.55 72.3105C113.49 70.6405 114.24 69.3405 116.2 69.6305C117.93 69.8805 119.46 70.5905 119.9 72.5205H119.91Z" fill="black"/>
<path d="M397.129 75.28C395.099 75.4 393.939 74.37 393.779 72.36C393.669 70.98 394.219 69.65 395.769 69.62C397.779 69.59 399.789 70.34 400.119 72.56C400.389 74.37 398.689 74.93 397.119 75.29L397.129 75.28Z" fill="black"/>
</svg>
