<svg width="705" height="441" viewBox="0 0 705 441" fill="none" xmlns="http://www.w3.org/2000/svg">
<path d="M285.77 202.62C291.32 193.19 296.11 185.3 304.01 180.28C314.81 173.41 328.09 174.28 334.46 182.24C341.16 190.61 338.4 204.46 328.33 213.2C320.64 219.87 310.91 221.39 298.25 224.53C316.27 236.6 327.14 253.69 344.99 262.79C364.45 272.71 381.64 266.37 397.96 254.09C391.79 272.1 364.53 280.59 342.95 271.54C331.2 266.61 321.53 258.8 312.81 249.67C308.65 245.32 304.71 240.69 300.14 236.82C295.37 232.78 291.29 224.91 284.72 226.85C279.21 228.47 282.66 236.74 280.89 241.88C279.24 246.7 279.32 251.54 272.32 252.29C264.16 253.16 256.2 254.04 251.08 246.2C248.14 241.7 246.54 236.33 244 230.61C238.21 238.43 233.23 246.87 224.33 251.53C210.87 258.57 198.66 253.11 195.82 238.6C191.69 217.5 203.76 191.08 222.01 179.6C233.2 172.56 244.67 173.64 256.63 176.01C261.8 177.03 260.34 180.71 260.02 183.48C258.83 193.57 257.29 203.62 255.73 213.66C254.66 220.57 253.91 227.54 255.49 234.36C256.78 239.93 259.36 245.66 266.35 244.75C273.23 243.86 270.35 237.53 270.87 233.44C274.7 203.14 278.08 172.78 282.19 142.52C283.62 131.97 286.67 121.48 294.67 113.7C300.06 108.46 306.27 104.36 314.56 107.77C322.72 111.13 325.12 118.07 324.95 125.79C324.47 147.43 314.13 164.27 296.24 175.31C285.66 181.84 283.68 189.69 285.78 202.64L285.77 202.62ZM207.01 227.14C206.9 234.58 206.84 241.92 214.03 244.49C220.55 246.83 225.19 241.52 228.94 236.79C238.5 224.72 245.02 211.04 248.26 196.05C249.22 191.59 251.02 185.49 245.15 182.4C240.15 179.77 235.17 181.69 230.88 184.67C215.78 195.12 209.56 210.55 207.01 227.13V227.14ZM287.19 174.6C304.41 160.68 314.26 146.11 315.32 126.47C315.57 121.82 315.61 116.63 310 115.06C304.45 113.5 301.37 118.02 299.18 121.88C290.39 137.36 288.95 154.5 287.19 174.6ZM293.02 216.6C306.43 215.67 316.26 213.54 322.88 204.52C326.3 199.86 328.62 194.54 324.39 189.35C320.07 184.05 314.22 185.75 309.2 188.13C300.51 192.25 295.66 200.22 290.66 208.03C285.98 215.34 289.48 216.75 293.03 216.6H293.02Z" fill="black"/>
<path d="M60.5774 164.499C78.2974 145.429 113.377 138.139 133.437 147.909C148.177 155.089 153.137 165.079 148.877 180.499C147.637 184.989 146.537 187.679 152.137 190.139C181.347 202.949 190.687 236.769 184.717 265.649C178.217 297.069 151.657 323.949 121.927 329.059C110.357 331.049 98.7074 331.039 87.3574 328.539C50.5774 320.439 37.3774 279.329 63.6574 252.269C71.9974 243.679 74.8674 235.279 75.0774 224.259C75.3874 208.049 76.2974 191.839 77.2774 175.649C78.2774 159.099 78.4574 159.109 60.5874 164.499H60.5774ZM130.067 235.829C126.107 240.599 122.267 238.209 118.867 238.269C105.677 238.489 92.9374 240.569 81.8774 248.229C67.3074 258.329 60.3774 272.669 62.7274 290.119C64.7674 305.269 74.7274 314.559 89.3174 319.009C116.137 327.189 146.547 315.229 162.797 289.969C179.127 264.579 178.367 227.539 160.837 207.959C152.067 198.159 143.277 190.709 129.287 201.739C122.207 207.329 112.157 209.659 103.137 203.779C98.5074 200.759 98.5874 195.529 101.067 191.349C106.777 181.739 116.597 182.959 125.857 182.939C130.497 182.929 136.457 187.189 139.307 180.369C141.927 174.099 141.217 167.609 137.097 161.869C129.057 150.659 100.277 147.089 89.4774 155.789C87.3774 157.479 87.0574 159.489 86.8774 161.809C84.9474 186.639 84.1374 211.489 84.4674 237.139C99.9974 233.629 114.417 229.919 130.077 235.829H130.067Z" fill="black"/>
<path d="M543.795 258.07C531.065 262.62 520.665 257.6 511.205 251.05C504.555 246.44 500.475 244.88 494.745 252.71C489.635 259.69 481.325 262.6 472.315 259.68C465.695 257.54 461.325 253.07 460.165 245.95C458.055 232.99 467.295 223.23 480.495 224.86C485.415 225.47 490.215 227.12 496.635 228.67C495.295 218.71 489.835 212.53 483.025 207C477.405 202.44 473.705 202.91 470.255 209.87C464.925 220.63 459.175 231.25 451.325 240.49C444.275 248.8 435.445 255.07 424.685 250.01C413.595 244.8 415.715 234.11 418.225 224.34C419.945 217.63 421.955 210.99 423.425 204.22C424.085 201.18 424.815 196.92 420.695 195.98C415.805 194.86 416.465 199.58 415.835 202.44C412.555 217.25 406.455 230.59 394.985 240.83C386.325 248.56 376.405 253.23 364.465 249.19C352.615 245.18 346.965 235.97 345.145 224.24C342.765 208.92 345.675 194.49 355.525 182.38C361.235 175.35 369.185 170.25 378.745 174.25C388.905 178.5 390.745 187.72 389.365 197.59C387.375 211.77 379.835 222.38 367.735 229.95C365.595 231.29 361.565 231.34 362.015 235.01C362.445 238.54 365.765 240.39 368.725 241.39C377.815 244.46 385.115 240.36 391.195 234.19C400.265 224.98 404.345 213.17 407.255 200.86C408.715 194.68 406.025 191.66 400.475 189.3C395.365 187.13 392.725 182.49 394.465 176.77C395.775 172.46 399.125 169.98 403.835 169.76C409.865 169.48 414.125 172.9 415.165 178.08C416.605 185.26 420.045 188.73 426.865 191.45C434.265 194.4 433.325 202.04 431.595 208.46C429.185 217.41 426.405 226.25 426.195 235.61C426.115 238.89 426.505 242.22 429.765 244.11C433.755 246.43 437.075 244.31 439.775 241.78C451.875 230.44 458.305 215.42 465.625 201.02C467.585 197.17 464.145 194.09 463.195 190.64C461.535 184.61 461.155 178.43 466.865 174.2C470.435 171.55 475.065 171.38 478.675 173.9C484.175 177.75 483.975 183.81 481.355 188.9C478.115 195.18 482.075 197.01 486.045 199.63C497.455 207.17 504.145 217.14 505.535 231.43C506.945 245.91 521.205 248 531.225 253.74C535.005 255.91 539.595 256.67 543.805 258.07H543.795ZM379.895 196.98C380.055 189.96 379.235 184.88 373.625 182.71C367.795 180.45 363.885 184.28 360.865 188.37C353.235 198.73 352.725 210.49 355.435 222.53C356.195 225.9 359.095 226.47 361.895 224.6C372.375 217.61 378.825 208.07 379.895 196.98ZM483.155 233.23C476.535 232.56 471.625 234.69 470.435 241.13C469.315 247.24 473.255 250.87 478.965 250.89C485.815 250.91 492.425 247.21 493.605 240.76C494.785 234.29 487.095 234.94 483.145 233.22L483.155 233.23Z" fill="black"/>
<path d="M503.798 396.809C484.268 414.059 461.058 416.789 436.608 411.839C416.698 407.809 398.698 397.129 377.978 395.069C369.228 394.199 372.178 387.579 375.928 382.669C389.718 364.619 403.548 346.599 417.338 328.549C418.678 326.789 419.888 324.919 422.988 320.479C412.368 321.699 402.958 316.169 399.068 329.669C397.738 334.299 393.338 337.179 388.268 336.749C384.338 336.419 381.488 333.549 380.608 329.609C379.448 324.499 381.828 320.669 385.928 317.759C389.328 315.359 395.698 315.029 392.778 308.179C390.748 303.429 388.618 298.709 382.338 298.429C376.308 298.159 373.188 301.779 370.668 306.629C367.128 313.439 365.798 319.109 370.738 326.829C380.758 342.479 378.768 366.099 368.218 379.369C355.598 395.229 333.978 393.569 324.358 376.009C309.588 349.049 323.988 318.789 354.038 314.919C360.098 314.139 360.008 310.249 361.718 306.919C366.268 298.069 372.468 291.999 383.298 292.289C394.178 292.579 399.048 299.669 401.158 308.709C403.798 320.009 412.308 313.359 418.018 315.029C422.588 316.369 429.108 312.399 431.708 318.489C433.848 323.519 428.358 326.699 425.778 330.229C412.488 348.419 398.858 366.369 384.138 386.019C402.468 387.499 416.148 395.569 430.658 401.229C455.738 411.019 479.638 406.559 503.818 396.819L503.798 396.809ZM329.498 357.109C329.648 358.159 329.928 362.799 331.058 367.219C332.988 374.749 336.808 381.159 345.308 382.329C354.008 383.519 358.968 377.769 362.658 371.069C367.708 361.879 369.118 351.809 367.398 341.549C366.238 334.649 365.878 325.339 354.568 333.809C351.818 335.869 346.788 335.819 344.158 332.919C336.138 324.119 334.368 331.259 331.838 337.229C329.618 342.469 329.478 347.999 329.508 357.099L329.498 357.109Z" fill="black"/>
<path d="M519.297 333.029C521.797 329.029 523.277 326.129 525.257 323.619C529.127 318.709 533.637 315.029 540.647 316.689C548.177 318.479 551.147 324.099 552.067 330.789C553.137 338.579 553.317 346.489 553.827 354.349C555.217 375.749 564.477 391.829 585.717 398.489C607.937 405.449 627.747 400.529 644.587 384.119C652.257 376.649 656.197 366.689 662.567 356.779C660.257 384.919 631.497 409.419 602.657 409.219C569.497 408.999 546.277 388.319 543.697 356.569C543.247 351.029 543.847 345.379 543.067 339.909C542.337 334.799 543.557 327.489 536.037 326.639C529.357 325.879 526.877 332.059 524.487 337.009C519.827 346.679 517.917 357.169 515.567 367.559C514.337 373.019 515.577 383.629 509.777 382.599C500.787 380.999 507.287 371.659 507.777 366.089C508.867 353.839 511.487 341.739 509.477 328.189C501.647 330.839 502.177 337.299 500.727 341.969C497.397 352.609 494.447 363.339 487.417 372.289C478.987 383.029 468.147 388.659 454.547 384.629C441.417 380.739 435.827 370.249 434.597 357.299C433.197 342.519 434.977 328.439 446.397 317.529C453.697 310.549 462.747 307.369 471.617 313.309C479.637 318.679 481.367 327.599 478.657 336.909C475.267 348.559 467.457 356.899 458.047 364.109C455.517 366.049 449.717 366.509 452.117 371.679C454.407 376.609 459.007 379.299 464.687 378.369C473.147 376.979 479.037 371.729 482.317 364.129C486.697 353.969 490.087 343.389 494.367 333.189C497.027 326.849 499.697 319.149 507.517 318.369C516.267 317.489 514.847 327.359 519.287 333.059L519.297 333.029ZM446.697 362.659C458.977 354.529 467.507 345.219 468.667 330.729C469.057 325.819 467.887 321.289 462.677 319.619C458.097 318.149 454.727 321.139 452.147 324.379C443.227 335.589 440.937 347.879 446.707 362.669L446.697 362.659Z" fill="black"/>
<path d="M177.048 75.2197C181.828 79.6297 179.118 83.3697 179.398 86.7897C179.708 90.5397 177.218 95.6798 184.198 96.0098C190.018 96.2898 194.038 94.6997 194.488 87.9197C195.068 79.1297 196.298 70.4197 199.818 62.2197C204.538 51.2097 211.958 43.0497 224.728 43.4297C235.748 43.7597 242.638 50.7297 245.018 61.2497C247.798 73.5897 242.138 82.8298 232.408 89.8198C225.918 94.4798 218.418 97.1197 210.608 98.4097C200.838 100.02 196.788 104.78 200.358 114.71C204.798 115.53 204.718 110.81 207.068 109.05C213.848 103.96 217.198 106.28 218.038 113.9C218.598 118.95 218.288 124.12 219.098 129.12C219.548 131.93 219.978 136.29 224.858 134.93C228.668 133.86 227.208 130.96 226.878 128.16C226.278 123.14 225.588 117.92 226.378 113.01C227.688 104.84 232.488 98.4697 241.518 100.92C251.078 103.52 249.758 112.09 247.988 119.43C247.278 122.38 244.608 124.89 242.698 127.5C241.458 129.19 238.188 130.24 240.038 132.91C241.678 135.27 244.698 135.91 247.548 135.39C256.828 133.72 262.478 126.56 269.888 121.79C264.958 131.27 257.918 138.49 246.518 140.05C238.168 141.2 230.218 135.57 221.108 139.59C216.428 141.65 213.718 135.03 212.938 130.43C212.098 125.54 212.238 120.47 211.888 114.52C203.018 118.33 204.668 126.36 202.728 132.34C201.208 137.01 202.088 142.81 194.948 143.62C187.938 144.42 182.068 142.77 178.118 136.56C174.278 130.51 172.148 123.75 173.208 116.7C175.228 103.36 169.548 101.32 157.548 103.05C147.608 104.48 138.358 107.52 126.078 112.47C135.788 101.02 146.408 98.3997 156.478 98.2397C169.058 98.0497 175.568 94.5297 174.448 81.1597C174.318 79.6097 175.818 77.9198 177.058 75.2098L177.048 75.2197ZM201.018 84.8597C201.588 87.5997 197.788 91.9997 204.618 92.7997C216.158 94.1397 234.708 81.8097 237.978 70.1197C240.388 61.4997 238.278 54.3098 230.558 49.8198C222.038 44.8698 215.318 49.1697 210.268 55.9697C204.028 64.3697 201.878 74.3397 201.018 84.8597ZM194.648 136.14C194.028 123.84 193.588 115.64 193.218 107.44C193.068 104.01 192.678 100.84 188.028 101.4C184.608 101.82 179.628 100.64 179.298 105.71C178.618 116.18 178.028 126.9 185.478 135.75C187.208 137.8 189.378 139.96 192.468 138.99C196.088 137.85 194.788 134.59 194.648 136.14ZM235.878 128C241.468 121 245.908 114.85 241.048 106.55C240.018 104.79 237.958 104.25 236.458 105.87C230.478 112.34 229.848 119.32 235.878 127.99V128Z" fill="black"/>
<path d="M209.688 298.17C235.688 282.02 283.957 290.39 300.927 312.87C317.877 335.33 310.288 370.45 285.258 385.3C277.208 390.08 268.397 392.7 259.287 394.52C230.847 400.18 225.967 396.37 225.777 367.95C225.657 349.9 225.718 331.85 225.698 313.8C225.684 303.833 220.347 298.623 209.688 298.17ZM234.997 340.49C234.997 352.08 234.947 363.67 235.027 375.27C235.057 379.33 234.257 383.85 240.467 384.58C264.827 387.44 302.908 371.96 299.148 335.86C296.728 312.63 279.277 299.5 249.117 298.08C238.737 297.59 233.528 299.45 234.788 311.3C235.808 320.93 234.998 330.75 235.008 340.49H234.997Z" fill="black"/>
</svg>
