<svg width="751" height="278" viewBox="0 0 751 278" fill="none" xmlns="http://www.w3.org/2000/svg">
<path d="M140.693 216.79C126.203 216.83 111.713 216.99 97.2231 216.89C73.8831 216.73 54.7731 198.51 54.1631 175.07C53.6331 155.1 53.2731 135.06 54.2731 115.12C55.3931 92.8799 66.8531 76.5599 87.7631 68.4899C109.033 60.2799 128.283 64.9399 144.653 80.9099C145.833 82.0599 146.823 83.4099 148.113 84.9199C161.583 68.6799 178.733 63.1099 198.743 65.0299C206.603 67.1899 214.223 69.8199 220.843 74.8399C225.503 78.3699 229.073 82.9599 233.273 86.9299C233.613 87.8399 233.813 88.8399 234.323 89.6499C239.633 98.0399 242.143 107.21 242.163 117.1C242.183 131.75 242.213 146.41 242.163 161.06C242.133 168.7 237.663 173.81 231.173 173.89C224.553 173.97 219.873 168.63 219.853 160.84C219.823 146.19 219.993 131.53 219.803 116.88C219.593 100.47 205.853 87.1199 189.573 87.1799C172.933 87.2399 159.623 100.8 159.683 117.53C159.733 132.02 159.823 146.51 159.653 160.99C159.563 168.73 154.543 174.03 148.043 173.91C141.363 173.79 136.893 168.51 136.883 160.64C136.863 146.32 136.913 132 136.863 117.67C136.803 100.72 123.663 87.3199 107.043 87.1699C90.5631 87.0199 76.8931 100.3 76.6631 117.21C76.4131 135.86 76.5031 154.51 76.6431 173.16C76.7231 183.97 83.1831 191.57 93.8231 194.02C94.5031 194.75 95.2831 194.94 96.1931 194.47C98.9931 194.5 101.803 194.54 104.603 194.57C108.633 197.33 110.943 201.75 114.743 204.83C122.433 211.07 131.513 214.01 140.723 216.79H140.693Z" fill="black"/>
<path d="M140.686 216.79C131.476 214.01 122.406 211.07 114.706 204.83C110.906 201.75 108.596 197.33 104.566 194.57C104.286 193.81 104.116 192.99 103.706 192.31C98.2064 183.27 95.5464 173.51 95.6764 162.89C95.8364 148.91 95.7064 134.92 95.7264 120.94C95.7264 118.96 95.5964 116.97 96.4664 115.06C98.6764 110.2 103.786 107.27 108.556 108.23C114.266 109.38 117.796 113.45 117.836 119.55C117.946 134.37 117.926 149.18 117.856 164C117.826 169.67 119.316 174.9 122.166 179.68C129.286 191.68 143.226 197.14 156.646 193.37C169.316 189.82 178.426 177.85 178.516 164.36C178.606 149.88 178.486 135.39 178.546 120.91C178.586 112.85 183.116 107.78 189.886 107.95C196.526 108.12 200.736 113.09 200.756 120.88C200.776 135.36 200.716 149.85 200.786 164.33C200.826 172.9 203.856 180.39 210.166 186.17C219.456 194.69 230.406 197.05 242.116 192.41C254.466 187.51 260.966 177.66 261.286 164.52C261.726 145.88 261.716 127.22 261.306 108.59C261.016 95.2803 252.076 87.2103 238.746 87.0703C236.916 87.0503 235.086 86.9703 233.256 86.9203C229.056 82.9503 225.476 78.3703 220.826 74.8303C214.206 69.8003 206.586 67.1703 198.726 65.0203C213.696 65.0003 228.686 64.5403 243.636 65.0603C264.336 65.7803 282.046 82.7403 283.226 104.83C284.426 127.21 285.306 149.82 282.676 172.14C280.186 193.22 267.406 207.4 247.516 214.11C228.366 220.58 210.706 216.5 195.536 202.98C189.556 197.65 189.766 197.51 183.976 202.84C171.696 214.14 157.026 218.1 140.676 216.78L140.686 216.79Z" fill="black"/>
<path d="M325.313 88.5403C337.553 79.7003 344.293 79.9203 354.253 88.8603C355.823 90.2703 356.443 90.0403 357.743 88.6503C362.503 83.5703 368.583 81.7203 375.383 82.1303C384.823 82.7003 390.903 87.8203 392.863 97.0503C394.853 106.41 393.573 115.87 393.933 125.82C389.003 123.58 384.623 123.5 379.733 125.83C379.733 120.21 379.823 115.11 379.693 110.01C379.623 107.36 379.283 104.71 378.873 102.09C378.243 98.0603 376.123 95.3603 371.783 94.9703C367.133 94.5503 363.613 96.2203 361.723 100.63C360.193 104.21 359.943 108.05 359.923 111.89C359.883 121.22 359.773 130.55 359.973 139.87C360.043 143.16 359.033 144.09 355.763 144.08C345.723 144.08 345.723 144.21 345.723 134.27C345.723 126.28 345.693 118.28 345.733 110.29C345.743 107.44 345.503 104.62 344.693 101.89C343.523 97.9203 341.373 95.0103 336.743 94.9103C331.993 94.8103 328.773 97.0203 327.173 101.41C325.843 105.05 325.653 108.9 325.653 112.74C325.653 121.73 325.553 130.73 325.703 139.72C325.753 142.8 325.123 144.1 321.623 144.09C311.613 144.07 311.613 144.25 311.613 134.26C311.613 119.1 311.783 103.94 311.503 88.7903C311.423 84.4703 312.803 83.1703 316.823 83.7503C318.453 83.9803 320.153 83.9003 321.813 83.7603C324.683 83.5203 326.513 84.2303 325.293 88.5303L325.313 88.5403Z" fill="black"/>
<path d="M581.933 89.7598C580.533 83.8298 583.663 83.6398 587.603 83.7298C596.033 83.9198 596.033 83.7898 596.033 92.0098C596.033 101.99 595.943 111.97 596.093 121.95C596.133 124.8 595.683 125.95 592.363 125.91C585.423 125.83 580.863 129.96 579.853 136.94C579.493 139.38 578.493 140.72 576.483 141.95C565.663 148.59 551.103 146.15 542.643 136.13C533.083 124.81 532.313 105.84 540.923 93.7698C550.473 80.4098 565.623 78.6698 581.923 89.7498L581.933 89.7598ZM582.753 113.87C582.713 103.2 576.563 95.5898 567.493 94.9698C558.613 94.3698 551.463 100.09 549.843 109.1C547.883 120.01 552.753 130.03 561.243 132.47C562.033 132.7 562.873 132.8 563.693 132.89C574.933 134.08 582.803 126.23 582.753 113.87Z" fill="black"/>
<path d="M453.104 85.0598C449.874 87.4198 447.304 90.0998 446.384 93.9898C445.934 95.8698 444.254 95.1698 443.024 95.0198C425.764 92.8798 418.634 109.86 424.884 124.07C427.714 130.49 434.324 133.55 442.404 132.91C449.194 132.37 454.854 128.03 456.764 121.61C457.424 119.41 457.944 117.01 457.784 114.75C457.564 111.49 458.004 109.64 461.874 109.27C465.454 108.93 468.034 106.26 470.284 103.35C475.734 116.07 470.554 132.19 458.694 140.15C445.604 148.93 427.704 147.18 417.054 136.07C406.704 125.27 405.244 107.35 413.754 95.5598C422.704 83.1598 439.534 78.5198 453.114 85.0598H453.104Z" fill="black"/>
<path d="M682.24 144.56C664.16 148.25 648.83 139.95 643.39 124.23C638.19 109.21 644.87 92.8495 659.57 85.5095C668.86 80.8695 678.5 81.0595 688.12 84.7695C690.08 85.5295 691.58 86.4495 691.49 89.0295C691.32 93.8095 691.44 98.5995 691.44 104.43C689.3 102.45 687.84 101.05 686.33 99.7095C680.42 94.4595 671.91 93.3595 665.51 96.9795C658.18 101.13 654.81 109.59 656.73 119.01C658.27 126.61 664.02 132.03 671.76 132.84C674.14 133.09 675.63 133.33 676.09 136.28C676.61 139.58 679.19 141.99 682.26 144.56H682.24Z" fill="black"/>
<path d="M508.688 83.04C506.278 85.92 504.418 88.98 504.438 92.77C504.438 94.16 503.598 94.5 502.408 95.08C497.958 97.23 497.758 100.39 502.078 103.12C505.708 105.41 509.748 107.03 513.568 109.03C524.128 114.58 527.308 120.39 525.128 130.05C523.108 138.99 515.128 145.34 505.028 145.66C495.758 145.95 488.678 142.09 484.068 133.86C482.858 131.7 482.648 130.28 485.418 129.41C486.988 128.92 488.578 128.27 489.958 127.38C492.938 125.46 495.238 125.04 497.078 128.92C498.178 131.23 500.368 132.67 503.068 132.89C506.148 133.14 509.268 133.1 510.648 129.61C511.998 126.2 510.898 123.22 507.838 121.41C503.568 118.88 499.018 116.82 494.678 114.4C486.438 109.81 483.678 101.51 487.348 92.71C490.598 84.91 499.908 80.57 508.698 83.04H508.688Z" fill="black"/>
<path d="M352.473 194.99C356.293 185.84 359.553 178.06 362.793 170.27C363.423 168.75 363.763 166.92 365.983 167.03C367.453 167.1 369.343 166.8 370.273 167.59C371.343 168.49 369.913 169.99 369.423 171.17C363.883 184.51 358.293 197.83 352.253 212.27C348.523 202.18 345.163 193.1 341.303 182.68C337.343 193.01 333.863 202.07 329.963 212.25C326.123 202.76 322.653 194.23 319.223 185.68C317.303 180.89 315.393 176.1 313.623 171.26C313.153 169.98 310.873 168.03 313.503 167.26C315.493 166.68 318.493 165.7 319.793 169.22C322.163 175.61 324.713 181.94 327.213 188.29C327.863 189.94 328.073 191.84 330.183 193.32C334.793 184.61 336.853 174.98 341.573 165.47C345.223 175.36 348.583 184.48 352.463 195L352.473 194.99Z" fill="black"/>
<path d="M627.337 113.9C627.337 122.54 627.227 131.18 627.397 139.82C627.457 142.9 626.797 144.15 623.327 144.12C613.437 144.04 613.437 144.22 613.437 134.33C613.437 119.21 613.567 104.09 613.347 88.9796C613.287 85.0696 613.917 83.4696 618.357 83.6596C627.327 84.0496 627.337 83.7596 627.337 92.9696C627.337 99.9496 627.337 106.93 627.337 113.9Z" fill="black"/>
<path d="M513.89 164.09C524.48 175.09 534.07 185.05 543.66 195C544.05 194.88 544.43 194.75 544.82 194.63C544.82 186.75 544.92 178.88 544.77 171C544.71 168.09 545.4 166.68 548.63 166.92C550.84 167.08 551.47 167.98 551.46 170C551.42 183.61 551.44 197.22 551.44 212.26C540.92 201.34 531.25 191.31 520.54 180.19C520.54 189.47 520.55 197.48 520.54 205.49C520.54 207.41 521.08 209.63 517.83 209.64C515.3 209.65 513.82 209.29 513.86 206.16C514 192.69 513.92 179.22 513.92 164.08L513.89 164.09Z" fill="black"/>
<path d="M575.231 188.28C575.231 182.46 575.311 176.64 575.191 170.82C575.141 168.23 575.651 166.81 578.721 166.93C584.371 167.14 590.031 167.11 595.681 166.94C598.361 166.86 599.101 167.93 599.141 170.44C599.181 173.12 597.751 173.37 595.671 173.33C592.181 173.26 588.681 173.46 585.201 173.28C581.091 173.06 581.781 175.89 581.771 178.3C581.761 180.72 581.081 183.54 585.211 183.24C588.021 183.03 590.861 183.13 593.691 183.23C595.801 183.3 598.471 182.25 598.521 186.26C598.571 190.05 596.281 189.6 593.931 189.57C592.101 189.55 590.271 189.55 588.441 189.57C580.941 189.63 581.761 188.86 581.771 196.24C581.781 204.16 580.761 203.21 589.061 203.29C591.221 203.31 593.391 203.4 595.541 203.27C598.021 203.11 599.201 203.87 599.141 206.6C599.081 209.08 598.001 209.69 595.761 209.65C590.111 209.55 584.451 209.49 578.801 209.67C575.801 209.76 575.151 208.38 575.201 205.75C575.311 199.93 575.231 194.11 575.231 188.29V188.28Z" fill="black"/>
<path d="M390.33 187.99C390.33 182.32 390.45 176.66 390.28 171C390.19 168.07 390.95 166.79 394.16 166.93C399.48 167.17 404.82 167.08 410.15 166.96C412.63 166.9 413.78 167.56 413.75 170.3C413.72 172.88 412.46 173.37 410.32 173.33C406.99 173.27 403.65 173.47 400.33 173.28C396.23 173.05 396.86 175.85 396.86 178.29C396.86 180.7 396.14 183.53 400.3 183.25C403.62 183.03 406.97 183.3 410.29 183.19C412.83 183.1 413.37 184.43 413.34 186.6C413.32 188.69 412.5 189.63 410.35 189.58C406.85 189.5 403.35 189.62 399.85 189.56C397.8 189.52 397.02 190.31 396.8 192.45C395.71 203.07 395.85 203.31 406.39 203.31C407.89 203.31 409.39 203.38 410.89 203.3C413.11 203.18 413.78 204.28 413.71 206.34C413.65 208.15 413.59 209.66 411.14 209.64C405.14 209.58 399.14 209.57 393.15 209.64C390.44 209.67 390.31 207.99 390.32 206.01C390.34 200.01 390.32 194.01 390.32 188.01L390.33 187.99Z" fill="black"/>
<path d="M680.744 166.15C684.144 166 687.214 167.52 689.584 170.33C690.484 171.39 692.784 172.6 690.384 174.27C688.894 175.3 687.254 177.15 685.294 174.62C683.694 172.55 681.354 172.31 678.934 172.69C676.574 173.06 674.924 174.28 674.574 176.8C674.254 179.09 675.334 180.66 677.324 181.62C680.324 183.07 683.434 184.29 686.344 185.88C691.764 188.83 694.104 194.02 692.814 199.7C691.424 205.84 686.424 210 679.974 210.39C674.224 210.74 668.494 207.03 666.804 201.65C666.334 200.16 664.614 197.91 667.684 197.26C669.564 196.86 672.104 195.06 672.984 199.14C673.714 202.52 676.374 204.47 680.084 204.09C683.174 203.77 685.404 202.19 686.084 198.99C686.884 195.22 685.404 192.46 682.004 190.79C679.474 189.54 676.764 188.63 674.314 187.25C668.644 184.05 666.574 179.68 668.014 174.52C669.344 169.77 674.704 166.14 680.744 166.15Z" fill="black"/>
<path d="M633.807 166.16C637.217 165.98 640.297 167.5 642.767 170.16C643.737 171.21 645.877 172.51 643.687 174.15C642.287 175.2 640.597 177.18 638.597 174.74C637.087 172.89 635.077 172.34 632.787 172.6C630.247 172.89 628.277 174.05 627.727 176.66C627.197 179.17 628.707 180.76 630.817 181.76C633.367 182.97 636.027 183.96 638.537 185.24C644.677 188.35 647.207 193.27 645.987 199.46C644.777 205.6 640.417 209.52 633.937 210.28C627.907 210.99 622.457 207.78 620.047 201.95C619.347 200.26 617.747 198.03 621.047 197.23C623.107 196.73 625.557 195.37 626.327 199.25C627.047 202.89 629.797 204.33 633.397 204.1C636.647 203.9 638.637 201.84 639.487 199.01C640.537 195.51 638.887 192.8 635.797 191.13C633.167 189.72 630.287 188.78 627.687 187.33C622.037 184.18 619.877 179.76 621.267 174.7C622.627 169.72 627.627 166.21 633.777 166.15L633.807 166.16Z" fill="black"/>
<path d="M435.963 188.13C435.963 182.63 435.943 177.14 435.973 171.65C435.983 169.43 435.253 166.96 439.143 166.9C443.283 166.84 442.613 169.45 442.613 171.88C442.623 180.87 442.763 189.87 442.543 198.85C442.453 202.38 443.643 203.7 447.093 203.32C448.733 203.14 450.423 203.39 452.083 203.27C454.583 203.09 455.233 204.34 455.173 206.59C455.123 208.6 454.543 209.68 452.293 209.63C447.803 209.53 443.303 209.52 438.803 209.63C436.143 209.7 435.903 208.18 435.923 206.11C435.983 200.12 435.943 194.12 435.943 188.13H435.963Z" fill="black"/>
<path d="M475.002 188.19C475.002 182.53 475.012 176.87 475.002 171.21C475.002 169.01 474.682 166.96 478.122 166.9C481.812 166.83 481.562 168.98 481.552 171.42C481.512 180.57 481.682 189.73 481.462 198.88C481.382 202.42 482.592 203.7 486.032 203.33C487.842 203.13 489.692 203.37 491.522 203.28C493.932 203.17 494.152 204.66 494.162 206.51C494.172 208.45 493.722 209.69 491.402 209.63C487.072 209.53 482.742 209.49 478.422 209.65C475.812 209.74 474.912 208.76 474.972 206.17C475.112 200.18 475.012 194.19 475.012 188.19H475.002Z" fill="black"/>
<path d="M620.238 68.1399C615.148 68.0799 611.158 64.0299 611.188 58.9599C611.208 54.0299 615.478 49.8499 620.418 49.8999C625.428 49.9499 629.538 54.1499 629.478 59.1499C629.408 64.2299 625.328 68.1999 620.248 68.1499L620.238 68.1399Z" fill="black"/>
<path d="M592.531 145.67C588.741 145.73 585.561 142.64 585.471 138.81C585.371 134.77 588.101 131.85 592.121 131.7C596.271 131.54 599.561 134.62 599.531 138.65C599.501 142.38 596.281 145.62 592.541 145.68L592.531 145.67Z" fill="black"/>
<path d="M517.231 85.9797C521.041 85.9797 524.241 89.0997 524.301 92.8697C524.371 96.9097 521.081 100.09 516.971 99.9597C513.051 99.8297 510.111 96.7497 510.181 92.8497C510.251 88.9897 513.341 85.9697 517.231 85.9697V85.9797Z" fill="black"/>
<path d="M688.432 125.77C692.152 125.77 695.502 129.02 695.582 132.69C695.662 136.49 692.032 140.09 688.232 139.97C684.502 139.85 681.492 136.6 681.532 132.72C681.572 128.76 684.552 125.76 688.432 125.77Z" fill="black"/>
<path d="M465.936 96.5598C466.036 100.48 463.166 103.6 459.316 103.79C455.386 103.98 451.886 100.64 451.906 96.7198C451.926 92.9198 455.026 89.8698 458.916 89.8298C462.956 89.7798 465.836 92.5398 465.936 96.5598Z" fill="black"/>
<path d="M393.869 136.75C393.939 140.48 390.769 143.84 387.059 143.98C383.139 144.13 379.699 140.73 379.759 136.76C379.809 133.04 383.089 129.8 386.799 129.8C390.539 129.8 393.809 133.01 393.879 136.75H393.869Z" fill="black"/>
</svg>
