<svg width="919" height="334" viewBox="0 0 919 334" fill="none" xmlns="http://www.w3.org/2000/svg">
<path d="M30.0781 206.03C30.4381 203.64 30.6681 201.22 31.1881 198.87C33.2381 189.71 38.0281 182.199 45.3681 176.359C59.2281 165.319 74.9881 158.47 92.4581 155.76C99.0781 154.73 105.828 154.49 112.518 153.89C112.818 153.86 113.118 153.839 113.548 153.799C114.478 149.659 115.418 145.539 116.328 141.409C119.288 127.889 122.458 114.44 127.868 101.63C135.818 82.8095 147.488 66.9595 164.598 55.4195C174.578 48.6895 185.388 43.9995 197.398 42.3695C207.408 41.0095 217.308 41.7795 226.918 44.8795C229.708 45.7795 232.318 47.3895 234.858 48.9095C237.798 50.6795 240.598 52.6895 243.438 54.6295C246.508 56.7195 247.078 59.2195 245.358 62.4795C244.208 64.6595 243.158 66.8895 242.058 69.1295C241.978 69.0895 241.808 69.0595 241.728 68.9595C235.988 61.8495 228.508 57.9295 219.518 56.5495C209.188 54.9595 198.968 55.0795 188.888 58.0995C177.008 61.6595 167.358 68.5995 159.178 77.7495C149.998 88.0095 143.918 100.02 139.338 112.89C134.728 125.85 131.578 139.21 128.528 152.59C128.508 152.68 128.548 152.78 128.578 153.07C129.068 153.1 129.598 153.169 130.128 153.169C143.228 153.169 156.338 153.15 169.438 153.21C170.938 153.21 171.278 152.75 171.268 151.32C171.208 133.07 171.208 114.82 171.198 96.5695C171.198 96.1195 171.198 95.6595 171.198 95.2095C171.288 92.6995 171.978 91.8195 174.378 91.0595C177.308 90.1295 180.298 89.3195 183.158 88.2095C196.138 83.1495 206.448 74.5795 215.008 63.7595C215.668 62.9295 216.338 62.0995 217.068 61.3295C218.358 59.9695 219.988 59.5895 221.798 59.9295C225.148 60.5695 226.068 61.7195 226.058 65.4195C226.038 81.2395 225.988 97.0695 225.988 112.89C225.988 119.97 226.078 127.04 226.178 134.12C226.188 135.12 226.348 136.149 226.638 137.099C227.408 139.629 229.338 140.379 231.578 138.919C232.878 138.079 234.048 136.99 235.138 135.88C237.008 133.97 238.778 131.95 240.658 129.9C242.968 131.3 245.278 132.639 247.498 134.109C247.798 134.309 247.868 135.27 247.688 135.74C245.368 141.78 241.618 146.8 236.548 150.78C234.288 152.55 231.848 154.109 229.388 155.599C226.588 157.299 225.158 159.62 225.178 162.94C225.238 180.43 225.248 197.919 225.278 215.419C225.278 215.819 225.328 216.21 225.378 216.83C227.948 216.83 230.458 216.83 232.978 216.83C234.351 216.83 235.041 217.51 235.048 218.87C235.048 221.39 235.048 223.909 235.048 226.539H160.498V217.15C162.978 217.15 165.428 217.17 167.888 217.15C171.128 217.12 170.618 217.49 170.628 214.43C170.648 199.67 170.618 184.91 170.668 170.14C170.668 168.72 170.358 168.24 168.858 168.25C155.248 168.31 141.638 168.3 128.028 168.25C126.718 168.25 126.248 168.659 125.918 169.909C123.058 180.789 120.348 191.72 117.128 202.5C113.378 215.03 106.718 225.81 96.1481 233.84C89.3381 239.01 81.8981 242.849 73.2881 244.049C55.3381 246.559 34.3781 236.909 30.6981 212.919C30.4681 211.429 30.2981 209.93 30.0981 208.44C30.0981 207.63 30.0981 206.82 30.0981 206.01L30.0781 206.03ZM110.968 168.08C110.228 168.08 109.718 168.03 109.228 168.08C105.078 168.57 100.868 168.82 96.7781 169.63C81.8881 172.57 68.4581 178.69 56.8781 188.63C52.2781 192.58 49.0481 197.43 47.4681 203.33C44.7281 213.54 50.4081 223.86 60.5381 226.63C69.1281 228.99 77.1581 227.68 84.3781 222.26C87.8881 219.62 90.7381 216.35 93.3281 212.84C103.118 199.57 106.808 183.91 110.968 168.07V168.08Z" fill="black"/>
<path d="M633.736 206.47C638.276 204.79 641.426 201.76 643.566 197.58C644.886 194.98 646.386 192.47 647.876 189.78C650.356 191.53 652.716 193.16 655.026 194.85C655.226 195 655.306 195.58 655.196 195.86C651.606 204.37 647.576 212.62 640.986 219.3C632.036 228.37 620.996 231.71 608.506 230.71C605.896 230.5 603.236 230.22 600.736 229.5C592.266 227.06 587.596 221.04 585.716 212.68C585.266 210.68 585.106 208.58 585.096 206.52C585.036 192.37 585.056 178.21 585.036 164.06C585.036 159.5 584.706 154.97 583.326 150.58C581.416 144.5 576.826 141.73 570.576 143.02C568.656 143.42 566.756 143.99 564.926 144.7C556.346 148.03 551.826 154.54 551.676 163.54C551.386 181.18 551.556 198.82 551.546 216.47C551.546 216.71 551.596 216.96 551.636 217.38H561.546V227.04H493.406V216.36H506.706C506.736 215.63 506.786 215.09 506.786 214.56C506.786 189.59 506.806 164.61 506.706 139.64C506.696 136.7 506.186 133.7 505.476 130.84C504.516 126.97 502.336 125.47 498.356 125.29C497.656 125.26 496.966 125.23 496.206 125.2V114.72H552.486V134.44L552.806 134.56C554.306 132.75 555.866 130.99 557.296 129.13C564.516 119.81 574.146 114.91 585.716 113.52C593.566 112.58 601.426 112.43 608.966 115.14C619.256 118.84 626.886 125.46 630.006 136.3C630.776 138.98 631.066 141.87 631.076 144.67C631.176 161.71 631.206 178.74 631.076 195.78C631.046 199.67 632.036 203.13 633.726 206.5L633.736 206.47Z" fill="black"/>
<path d="M469.329 178.15C469.329 186.39 469.289 194.63 469.359 202.87C469.379 204.77 469.699 206.69 470.029 208.57C470.109 209 470.739 209.52 471.209 209.63C471.559 209.71 472.209 209.29 472.439 208.91C474.449 205.58 476.419 202.23 478.329 198.84C478.869 197.89 479.419 197.64 480.379 198.16C481.749 198.91 483.209 199.52 484.529 200.34C486.459 201.54 487.009 202.88 486.199 205C481.439 217.51 472.939 225.78 459.349 227.82C448.689 229.42 439.159 226.28 430.539 220.07C428.779 218.8 427.079 217.44 425.419 216.04C424.629 215.38 423.929 215.28 422.939 215.59C414.899 218.14 406.869 220.71 398.789 223.11C391.649 225.23 384.389 226.76 376.849 226.33C368.699 225.87 360.979 223.84 353.879 219.79C345.659 215.1 341.449 207.93 341.199 198.45C340.869 185.82 347.649 175.06 358.829 171.34C362.959 169.97 367.389 169.38 371.729 168.79C384.939 166.97 398.189 165.43 411.399 163.56C419.319 162.44 423.819 157.38 424.189 149.43C424.369 145.51 424.169 141.56 423.849 137.64C423.619 134.83 421.909 132.69 419.279 131.69C413.509 129.49 407.569 128.1 401.359 129.54C398.139 130.29 398.129 130.45 398.939 133.56C399.669 136.39 400.529 139.2 401.059 142.07C402.459 149.77 399.329 156.38 392.359 159.88C384.599 163.77 376.409 165.42 367.849 162.85C359.409 160.32 353.899 152.82 353.429 143.83C353.049 136.49 355.659 130.4 360.769 125.27C367.099 118.9 374.949 115.55 383.599 113.86C394.659 111.7 405.819 110.68 417.089 111.47C429.219 112.32 440.839 115.14 451.519 121.16C462.509 127.35 468.319 136.97 468.959 149.37C469.449 158.94 469.059 168.56 469.059 178.16C469.159 178.16 469.249 178.16 469.349 178.16L469.329 178.15ZM424.149 173.68C423.539 173.76 423.139 173.77 422.769 173.87C414.469 176.05 406.159 178.17 397.899 180.46C394.949 181.28 392.049 182.37 389.229 183.58C386.639 184.68 384.619 186.54 383.789 189.35C382.119 194.95 386.109 201.76 391.879 202.68C395.389 203.24 399.029 203.39 402.589 203.24C408.929 202.98 414.779 200.98 419.909 197.15C422.299 195.36 424.049 193.19 424.039 189.97C424.039 186.13 424.119 182.3 424.159 178.46C424.179 176.9 424.159 175.35 424.159 173.68H424.149Z" fill="black"/>
<path d="M799.303 132.08C799.703 132.66 799.883 132.95 800.083 133.23C808.953 145.15 802.963 160.24 788.323 162.88C782.573 163.92 776.803 164.47 771.003 163.25C762.433 161.45 756.353 154.29 755.973 145.57C755.443 133.47 762.293 123.01 774.103 118.1C780.253 115.54 786.783 114.36 793.303 113.26C802.213 111.75 811.193 111.24 820.203 112.06C832.133 113.15 843.673 115.74 854.183 121.75C865.133 128.01 870.983 137.55 871.593 150.13C871.903 156.49 871.813 162.86 871.843 169.23C871.883 180.55 871.843 191.88 871.893 203.2C871.893 205.06 872.263 206.91 872.393 208.77C872.453 209.62 872.803 210.22 873.613 210.14C874.113 210.09 874.733 209.65 875.023 209.2C877.033 206.05 878.993 202.86 880.903 199.65C881.483 198.68 882.073 198.38 883.103 198.94C884.563 199.74 886.123 200.37 887.523 201.25C889.183 202.29 889.593 203.43 888.943 205.28C884.253 218.53 874.393 226.86 861.713 228.43C849.753 229.91 839.343 226.04 830.333 218.39C827.403 215.91 824.733 215.46 821.203 216.77C812.023 220.17 802.783 223.42 793.203 225.61C781.313 228.32 769.983 226.92 758.943 221.76C739.263 212.56 740.923 189.88 750.733 179.21C755.633 173.88 761.673 170.88 768.823 169.98C782.363 168.29 795.903 166.6 809.433 164.86C811.733 164.57 814.053 164.24 816.273 163.61C822.023 161.99 825.733 158.21 826.403 152.25C826.923 147.72 826.833 143.09 826.663 138.52C826.573 136.05 825.063 133.95 822.803 132.87C816.893 130.04 810.723 128.52 804.153 130.21C802.563 130.62 801.063 131.38 799.293 132.08H799.303ZM826.573 174.12C825.883 174.28 825.443 174.36 825.003 174.47C817.003 176.59 808.973 178.64 801.013 180.89C797.583 181.86 794.213 183.14 790.933 184.55C788.513 185.59 786.763 187.54 786.363 190.23C785.463 196.41 787.913 202.17 795.203 203.51C804.173 205.16 812.693 203.74 820.603 199.03C824.213 196.88 826.643 194.06 826.583 189.57C826.513 184.48 826.563 179.39 826.563 174.11L826.573 174.12Z" fill="black"/>
<path d="M274.123 129.31H261.843C261.843 127.18 261.843 125.18 261.843 123.19C261.843 120.864 263.006 119.7 265.333 119.7C287.693 119.7 310.053 119.7 332.413 119.7C333.063 119.7 333.713 119.7 334.453 119.7V128.26H322.853C322.773 130.25 322.633 132.1 322.633 133.95C322.643 164.03 322.693 194.1 322.693 224.18C322.693 230.7 322.703 237.23 322.423 243.74C321.733 259.65 314.913 272.34 301.923 281.62C292.243 288.53 281.573 293.09 269.663 294.14C251.083 295.78 235.143 289.87 222.373 276.25C213.713 267.01 213.203 255.06 218.253 244.36C221.313 237.88 226.753 234.59 233.833 234.32C236.983 234.2 240.243 234.39 243.313 235.07C250.753 236.7 254.493 242.06 256.173 249.07C258.503 258.76 255.173 266.11 246.373 270.88C244.123 272.1 241.783 273.15 239.303 274.37C242.883 277.28 246.693 279.29 250.963 280.35C262.183 283.14 271.793 276.66 272.943 265.1C273.723 257.27 274.013 249.36 274.053 241.49C274.203 204.59 274.193 167.69 274.233 130.79C274.233 130.35 274.183 129.9 274.143 129.33L274.123 129.31Z" fill="black"/>
<path d="M713.281 207.59C714.771 206.94 716.281 206.44 717.601 205.64C718.591 205.03 719.601 204.17 720.151 203.17C722.171 199.5 723.991 195.73 725.891 191.99C726.231 191.32 726.561 190.65 726.931 189.92C729.941 190.93 732.841 191.91 735.921 192.95C735.181 194.91 734.501 196.79 733.761 198.65C731.001 205.63 727.741 212.33 722.701 218.02C712.681 229.33 696.291 233.53 683.091 227.81C671.481 222.77 665.121 213.62 663.721 201.12C663.321 197.57 663.501 193.96 663.501 190.37C663.501 169.34 663.531 148.32 663.531 127.29C663.531 122.97 663.501 122.95 659.141 122.95C653.731 122.95 648.321 122.98 642.911 123.05C637.671 123.12 633.691 120.21 631.671 114.75C630.151 110.64 631.671 105.09 635.341 102.32C636.531 101.42 638.141 100.72 639.611 100.62C642.161 100.45 644.781 100.58 647.301 101C651.371 101.68 653.931 104.31 655.091 108.21C655.711 110.28 656.051 112.44 656.541 114.68H663.681C663.681 114.13 663.681 113.59 663.681 113.06C663.681 109.52 663.671 105.98 663.721 102.45C663.771 99.2898 664.701 98.0998 667.651 97.2498C685.521 92.1098 699.001 81.1598 709.191 65.8598C709.541 65.3398 709.921 64.8498 710.291 64.3398C710.431 64.3798 710.581 64.4198 710.721 64.4598V117.28C713.751 116.99 716.491 116.75 719.231 116.47C723.551 116.03 727.881 115.6 732.201 115.09C733.221 114.97 733.521 115.43 733.721 116.27C734.751 120.66 732.141 123.96 727.351 124.08C722.551 124.2 717.741 124.18 712.931 124.1C711.471 124.08 710.981 124.52 710.981 125.96C710.981 134.75 710.881 143.55 710.881 152.34C710.881 168.01 710.981 183.68 710.911 199.35C710.901 202.38 712.001 204.93 713.271 207.6L713.281 207.59Z" fill="black"/>
<path d="M299.457 59.1203C313.227 59.2603 323.997 70.1703 323.827 83.8203C323.657 97.6303 312.737 108.26 298.877 108.11C285.427 107.96 274.637 96.8303 274.767 83.2503C274.897 69.8703 286.037 58.9903 299.457 59.1203Z" fill="black"/>
<path d="M544.099 284.12C544.079 299.86 531.739 311.85 515.559 311.84C499.529 311.83 487.279 299.86 487.289 284.21C487.289 268.55 499.769 256.44 515.859 256.47C531.969 256.5 544.109 268.39 544.099 284.11V284.12ZM515.669 301.02C525.029 301.05 531.899 294.02 531.929 284.38C531.959 274.66 524.959 267.29 515.679 267.28C506.439 267.27 499.479 274.46 499.449 284.05C499.419 293.65 506.449 301 515.669 301.02Z" fill="black"/>
<path d="M479.609 310.87H468.139V289.49H446.239V310.87H434.609V257.56H446.189V278.54H468.059V257.55H479.609V310.87Z" fill="black"/>
<path d="M592.219 310.86H551.789V257.54H591.899V267.81H563.219C563.219 271.36 563.189 274.74 563.279 278.1C563.279 278.36 564.139 278.79 564.599 278.8C568.139 278.86 571.679 278.83 575.219 278.83C579.569 278.83 583.919 278.83 588.399 278.83V289.11C587.809 289.11 587.259 289.11 586.719 289.11C579.379 289.11 572.049 289.14 564.709 289.08C563.499 289.08 563.149 289.43 563.169 290.62C563.239 293.84 563.189 297.07 563.189 300.5H592.209V310.85L592.219 310.86Z" fill="black"/>
<path d="M604.817 294.93C608.287 297.6 611.797 299.88 615.977 300.85C618.817 301.51 621.697 301.68 624.537 300.94C627.607 300.14 629.047 297.93 628.507 295.11C628.187 293.42 627.027 292.43 625.587 291.89C622.807 290.86 619.947 290.02 617.117 289.09C614.287 288.16 611.397 287.38 608.657 286.26C603.387 284.09 600.347 280.14 599.987 274.36C599.597 268.31 601.617 263.34 606.777 259.89C610.817 257.19 615.377 256.54 620.117 256.72C626.897 256.97 632.967 259.13 638.427 263.45C636.427 266.34 634.467 269.19 632.417 272.16C631.397 271.55 630.437 270.94 629.447 270.38C625.747 268.3 621.897 266.64 617.527 267C616.297 267.1 614.987 267.39 613.917 267.97C610.577 269.75 610.497 274.24 613.917 275.85C616.717 277.17 619.827 277.86 622.777 278.88C625.967 279.98 629.237 280.93 632.297 282.32C643.687 287.51 641.527 303.15 633.737 308.13C630.817 310 627.677 311.17 624.257 311.46C614.807 312.26 606.187 310.11 598.797 303.92C598.567 303.73 598.357 303.51 597.977 303.16C600.237 300.44 602.487 297.74 604.817 294.94V294.93Z" fill="black"/>
<path d="M423.897 263.5C421.867 266.42 419.887 269.27 418.017 271.97C415.247 270.62 412.677 269.21 409.987 268.09C407.147 266.9 404.127 266.54 401.077 267.27C398.767 267.82 397.207 269.39 397.037 271.25C396.817 273.71 397.687 275.37 400.227 276.32C403.197 277.43 406.307 278.16 409.317 279.17C412.137 280.11 414.977 281.04 417.677 282.26C429.287 287.49 426.757 302.84 419.817 307.68C416.697 309.86 413.307 311.18 409.577 311.47C400.127 312.22 391.517 310.04 384.167 303.79C383.977 303.63 383.797 303.45 383.477 303.15C385.727 300.44 387.977 297.74 390.287 294.95C391.087 295.53 391.847 296.09 392.627 296.64C397.167 299.85 402.107 301.84 407.787 301.29C409.117 301.16 410.507 300.83 411.687 300.23C414.937 298.57 415.147 294.03 411.897 292.41C408.987 290.97 405.767 290.16 402.677 289.1C399.857 288.14 396.957 287.41 394.217 286.27C389.427 284.27 386.207 280.86 385.627 275.47C384.957 269.26 386.597 263.93 391.887 260.17C396.317 257.02 401.397 256.42 406.647 256.75C412.587 257.13 417.997 259.07 422.817 262.58C423.177 262.84 423.497 263.15 423.907 263.49L423.897 263.5Z" fill="black"/>
<path d="M812.022 297.31C812.962 295.99 813.922 294.65 814.932 293.24C818.312 295.82 821.892 297.46 825.902 295.26C829.352 293.37 829.872 289.79 830.392 286.09C830.012 286.29 829.762 286.35 829.612 286.5C825.872 290.52 818.542 289.48 815.242 287.21C809.722 283.4 809.712 274.34 815.272 270.16C823.262 264.16 834.242 268.55 835.762 278.39C836.522 283.3 836.412 288.17 834.482 292.85C829.932 303.89 817.322 302.69 812.012 297.31H812.022ZM823.322 272.44C820.152 272.44 817.702 274.1 816.942 276.79C816.022 280.03 817.392 282.88 820.422 284.05C824.032 285.44 828.062 284.18 829.532 281.21C831.642 276.93 828.472 272.46 823.322 272.45V272.44Z" fill="black"/>
<path d="M887.83 271.32C886.92 272.65 885.991 274.01 884.981 275.47C881.621 273.04 878.071 271.33 874.181 273.78C870.971 275.8 870.311 279.24 869.991 282.93C870.331 282.8 870.531 282.78 870.641 282.67C873.951 279.64 877.841 279.45 881.871 280.56C885.811 281.64 888.371 284.21 889.021 288.34C889.671 292.44 888.461 295.99 885.171 298.6C877.541 304.67 866.501 300.59 864.641 291.03C863.481 285.05 863.871 279.24 866.941 273.84C871.811 265.27 883.44 266.65 887.82 271.32H887.83ZM876.95 296.43C877.3 296.43 877.661 296.46 878.011 296.43C881.021 296.13 883.09 294.23 883.59 291.34C884.03 288.79 882.761 286.4 880.311 285.32C877.961 284.29 875.591 284.32 873.291 285.48C871.791 286.24 870.761 287.44 870.341 289.12C869.351 293.04 872.41 296.44 876.95 296.43Z" fill="black"/>
<path d="M670.598 295.94C671.708 294.64 672.748 293.42 673.898 292.07C674.418 292.45 674.898 292.79 675.368 293.14C678.268 295.28 681.478 296.51 685.128 296.13C686.198 296.02 687.348 295.71 688.258 295.16C690.858 293.6 690.808 290.18 688.108 288.78C686.518 287.96 684.708 287.55 682.988 286.98C680.978 286.32 678.898 285.84 676.948 285.03C673.328 283.53 671.648 280.71 671.828 276.77C672.008 272.93 673.888 270.2 677.398 268.85C683.598 266.46 689.268 267.88 694.648 271.72C693.628 273.15 692.668 274.49 691.638 275.94C691.098 275.61 690.638 275.33 690.178 275.05C687.578 273.47 684.838 272.43 681.718 272.7C678.568 272.97 676.548 275.45 677.648 277.99C678.048 278.9 679.008 279.81 679.938 280.19C681.928 281.02 684.068 281.5 686.128 282.16C687.618 282.64 689.128 283.08 690.548 283.71C693.658 285.1 695.498 287.43 695.588 290.97C695.688 294.72 694.358 297.72 690.988 299.54C687.068 301.66 682.918 301.51 678.748 300.43C675.678 299.64 672.938 298.2 670.578 295.91L670.598 295.94Z" fill="black"/>
<path d="M841.603 268.29H860.863V273.06H846.353C846.163 275.69 845.973 278.13 845.783 280.76C846.343 280.65 846.763 280.52 847.183 280.51C849.633 280.45 852.153 280.05 854.523 280.47C859.293 281.3 861.883 284.49 862.383 289.37C862.843 293.87 860.403 298.19 856.383 300.01C850.633 302.62 843.193 301.14 838.453 296.33C839.523 295.06 840.623 293.77 841.753 292.43C842.933 293.24 844.013 294.05 845.153 294.77C847.503 296.23 850.053 296.62 852.723 295.87C855.363 295.12 856.853 293.07 856.823 290.38C856.793 287.86 855.173 285.9 852.523 285.21C849.863 284.53 847.313 284.96 844.823 285.96C843.593 286.45 840.623 284.61 840.673 283.32C840.893 278.53 841.163 273.74 841.423 268.95C841.433 268.76 841.533 268.57 841.613 268.3L841.603 268.29Z" fill="black"/>
<path d="M783.037 290.38H764.797C765.127 292.93 766.187 294.8 768.377 295.94C771.417 297.52 774.307 296.97 778.657 293.95C779.647 294.83 780.657 295.72 781.777 296.71C779.667 299.16 777.147 300.61 774.037 301.14C767.667 302.23 761.367 298.55 759.747 292.43C757.947 285.66 760.717 279.19 766.577 276.65C773.747 273.55 781.287 277.75 782.607 285.66C782.857 287.13 782.887 288.64 783.037 290.39V290.38ZM777.327 286.69C777.087 282.72 774.617 280.2 771.087 280.22C767.647 280.24 765.037 282.93 764.847 286.69H777.327Z" fill="black"/>
<path d="M709.773 276.23H715.213V279.55C715.393 279.68 715.583 279.82 715.763 279.95C715.853 279.66 715.873 279.32 716.053 279.1C718.703 275.94 722.423 274.87 726.293 276.21C729.723 277.4 731.393 280.12 731.533 283.49C731.763 289.13 731.593 294.79 731.593 300.56H726.153C726.123 300.05 726.053 299.52 726.053 298.98C726.053 295.29 726.053 291.6 726.053 287.92C726.053 287.36 726.053 286.81 726.023 286.25C725.833 282.61 724.023 280.73 720.753 280.75C717.493 280.78 715.303 283.01 715.253 286.52C715.193 290.61 715.233 294.7 715.233 298.79C715.233 299.34 715.233 299.89 715.233 300.55H709.773V276.22V276.23Z" fill="black"/>
<path d="M756.84 280C755.8 281.13 754.74 282.27 753.57 283.53C751.39 281.3 748.85 279.89 745.81 280.71C744.35 281.1 742.83 282.07 741.82 283.21C739.16 286.23 739.5 291.55 742.26 294.31C745.34 297.39 749.11 297.16 753.81 293.58C754.8 294.66 755.8 295.76 756.83 296.88C754.15 300.66 748.45 302.3 743.22 300.65C737.98 299 734.46 294.21 734.43 288.68C734.4 282.96 737.85 278.08 743.17 276.34C748.2 274.69 754.09 276.24 756.84 280Z" fill="black"/>
<path d="M807.438 268.05V300.58H801.918V273.68C799.888 274.22 798.088 274.7 796.078 275.24C795.668 273.77 795.278 272.34 794.828 270.73C798.998 269.72 802.788 267.37 807.428 268.06L807.438 268.05Z" fill="black"/>
<path d="M656.879 257.86V310.52H653.469V308.55C653.469 292.37 653.469 276.19 653.469 260.02C653.469 258.44 654.279 257.683 655.899 257.75C656.199 257.76 656.489 257.82 656.889 257.86H656.879Z" fill="black"/>
<path d="M699.609 276.24H704.859V300.58H699.609V276.24Z" fill="black"/>
<path d="M705.09 272.23H699.32V267.15H705.09V272.23Z" fill="black"/>
</svg>
