<?xml version="1.0" encoding="UTF-8"?>
<svg id="AROKA" xmlns="http://www.w3.org/2000/svg" viewBox="0 0 1202.64 533.28">
  <defs>
    <style>
      .cls-1 {
        fill: #000;
        stroke-width: 0px;
      }
    </style>
  </defs>
  <path class="cls-1" d="M274.86,204.16c1.71-.08,3.14-.21,4.58-.21,23.89-.01,47.78-.1,71.67.03,10.97.06,21.77,1.5,31.95,5.96,18.6,8.15,28.91,22.34,30.15,42.64.37,5.97-.03,12.14-1.13,18.02-2.87,15.31-12.5,25.64-25.8,32.95-1.29.71-2.61,1.36-3.91,2.05-.12.07-.21.2-.69.67,12.09,17.7,24.24,35.47,36.83,53.9-2.04.11-3.16.21-4.27.21-14.01.01-28.02-.09-42.03.08-2.92.04-4.49-1-6.03-3.36-8.94-13.7-18.1-27.27-27.06-40.96-1.53-2.33-3.11-3.5-6.04-3.33-4.69.28-9.42.07-14.57.07-.65,4.12-.27,8.08-.34,11.99-.06,3.83-.01,7.67-.01,11.5v11.95c0,3.81,0,7.63,0,11.75h-43.3v-155.91ZM318.44,242.03v36.78c.83.15,1.39.33,1.96.33,9.71-.01,19.42.01,29.13-.12,2.18-.03,4.4-.45,6.52-1.01,8.89-2.38,13.93-9.14,13.7-18.14-.24-9.1-5.04-14.86-14.28-17.07-1.29-.31-2.59-.72-3.89-.73-10.87-.06-21.75-.03-33.13-.03Z"/>
  <path class="cls-1" d="M598.64,200.81c28.39.45,51.16,10.14,68.17,31.53,30.73,38.63,20.28,102.19-33.53,124.59-30.5,12.69-70.71,7.77-96-19.24-16.53-17.65-23.55-38.74-21.51-62.86,3.38-39.84,34.9-68.15,70.55-72.94,4.52-.61,9.09-.8,12.32-1.08ZM560.11,277.35c-.2,12.43,1.61,20.42,6.08,27.61,8.53,13.74,20.95,20.45,37.14,19.15,15.12-1.21,25.89-9.21,32.08-22.94,5.61-12.46,5.57-25.24-.05-37.7-10.8-23.96-41.02-31.15-60.86-14.54-10.04,8.4-14.18,19.59-14.38,28.42Z"/>
  <path class="cls-1" d="M942.24,360.39c-2.48,0-3.78,0-5.09,0-14.3,0-28.61-.09-42.91.07-3.19.04-5.01-1.03-6.76-3.66-11.11-16.69-22.41-33.25-33.65-49.85-.89-1.32-1.85-2.59-3.1-4.33-2.18,2.4-4.15,4.53-6.07,6.7-3.12,3.53-7.36,6.65-8.96,10.78-1.6,4.12-.6,9.28-.63,13.98-.05,7.08-.01,14.16-.01,21.23v4.9c-14.55.36-28.75.09-43.26.19v-156.17h43c.53,5.02.19,10.12.25,15.19.06,5.16.01,10.32.01,15.48v30.75c.31.1.61.2.92.31,1.03-1.17,2.07-2.34,3.08-3.53,15.55-18.33,31.12-36.63,46.58-55.03,2.06-2.45,4.11-3.62,7.45-3.57,14,.21,28.01.09,42.02.09h4.62c-3.05,4.62-6.54,7.93-9.63,11.56-3.25,3.82-6.61,7.54-9.92,11.3-3.21,3.65-6.43,7.31-9.64,10.96-3.21,3.65-6.43,7.31-9.64,10.96-3.31,3.76-6.63,7.53-9.93,11.29-3.2,3.64-6.39,7.29-9.86,11.25,20.23,29.49,40.36,58.85,61.14,89.13Z"/>
  <path class="cls-1" d="M56.65,332.53c-3.75,9.28-7.43,18.4-11.15,27.63H0c.68-1.76,1.23-3.34,1.88-4.88,19.28-45.61,38.58-91.22,57.87-136.83,1.84-4.34,3.73-8.66,5.51-13.03.62-1.52,1.42-2.4,3.22-2.39,13.11.05,26.22.03,39.66.03,22.13,52.31,44.21,104.5,66.46,157.12h-46.58c-3.76-9.13-7.56-18.35-11.38-27.65h-59.99ZM69.51,298.47h34.46c-2.89-7.43-5.57-14.53-8.4-21.58-2.79-6.96-5.2-14.09-8.84-21.82-5.94,14.97-11.44,28.85-17.22,43.4Z"/>
  <path class="cls-1" d="M1084.69,332.56c-3.73,9.25-7.42,18.39-11.15,27.63h-44.71c-.12-.17-.21-.27-.27-.39-.06-.13-.15-.29-.12-.41.19-.7.36-1.43.65-2.1,21.68-51.29,43.38-102.58,65.13-154h42.06c22.01,52.04,44.07,104.19,66.35,156.85h-46.57c-3.74-9.06-7.55-18.28-11.38-27.58h-60ZM1132.08,298.49c-5.76-14.69-11.28-28.76-17.17-43.76-5.99,15.1-11.6,29.25-17.35,43.76h34.52Z"/>
  <path class="cls-1" d="M149.74,138.32v34.36H25.45c-.95-2.92-1.22-28.07-.3-34.36h124.59Z"/>
</svg>