<?xml version="1.0" encoding="UTF-8"?>
<svg id="ATHLOS" xmlns="http://www.w3.org/2000/svg" viewBox="0 0 1202.64 533.28">
  <defs>
    <style>
      .cls-1 {
        fill: #000;
      }

      .cls-1, .cls-2 {
        stroke-width: 0px;
      }

      .cls-2 {
        fill: #fff;
      }
    </style>
  </defs>
  <g>
    <path class="cls-1" d="M1131.65,273.39c-12.99,22.73-30.41,26.96-57.67,13.81.12-8.77,3.56-13,13.11-10.4,4.34,1.18,9.39,2.83,13.34,1.65,5.09-1.51,9.4-5.64,14.05-8.64-4.23-2.79-8.15-7.19-12.75-8.09-18.86-3.7-29.21-12.66-27.83-25.7,1.34-12.7,14.77-21.87,32.36-21.18,6.91.27,13.75,2.36,21.88,3.86-.99,5.29-1.77,9.44-2.66,14.23-12.5-.53-26.08-9.46-37.95,7.33,16.23,8.5,40.55,5.81,44.13,30.07v3.05Z"/>
    <path class="cls-1" d="M1028.89,254.92c-.25,22.23-17.57,39.71-39.43,39.8-22.15.09-40.53-18.89-39.86-41.15.67-22.02,18.45-38.99,40.52-38.69,22.23.3,39.02,17.64,38.77,40.04ZM965.8,253.72c-.49,13.67,9.74,24.77,23.07,25.03,12.58.24,23.31-9.78,24.1-22.5.85-13.73-8.9-24.91-22.36-25.62-13.58-.72-24.31,9.27-24.81,23.09Z"/>
    <path class="cls-1" d="M779.65,292.39v-34.1h-31.48v34.21c-5.77.57-10.04.99-15.43,1.53v-77.66c3.9-.33,8.13-.69,14.02-1.2.51,8.73.97,16.59,1.51,25.77h30.8c.46-8.01.91-15.9,1.38-24.19,9.17-2.79,14.8-2.24,14.51,9.38-.46,18.77-.44,37.56.01,56.33.23,9.69-3.42,13.16-15.32,9.92Z"/>
    <path class="cls-1" d="M574.57,297.7c-5.25-4.28-12.86-7.53-15.24-13.04-4.68-10.85-12.25-11.09-21.86-11.43-9.25-.33-14.29,3.05-16.65,11.48-2.73,9.76-8.69,13.02-20.11,8.48,12.53-27.37,25.01-54.63,38.9-84.99,14.02,30.23,26.64,57.43,39.25,84.62-1.43,1.63-2.86,3.25-4.29,4.88Z"/>
    <path class="cls-1" d="M637.59,231.02h-25.39v-15.03h66.85c.21,4.76.4,8.97.64,14.14-8.86.65-16.73,1.22-26.03,1.9v60.66c-5.66.42-9.91.74-16.07,1.2v-62.87Z"/>
    <path class="cls-1" d="M857.84,216.09h14.41v62.51h37.4c3.23,10.76,1.4,15.79-9.71,15.37-13.63-.51-27.29-.12-42.11-.12v-77.76Z"/>
    <polygon class="cls-2" points="538.64 237.39 530.82 252.95 547.06 252.95 538.64 237.39"/>
  </g>
  <g>
    <path class="cls-1" d="M243.46,74.41c8.77,0,17.53,0,26.3,0,2.16.7,4.27,1.77,6.49,2.05,75.94,9.68,128.98,50.08,158.1,120.45,7.69,18.58,9.96,39.39,14.72,59.18v21.52c-.85,5.34-1.82,10.67-2.52,16.03-13.36,102.7-109.5,176.65-212.99,163.77-88.79-11.05-155.28-77.35-167.6-165.2-12.04-85.85,37.55-171.75,119.08-203.08,18.61-7.15,38.91-9.93,58.43-14.71ZM258.5,316.04c19.56,0,37.53.98,55.3-.44,8.2-.66,16.99-4.65,23.85-9.49,19.22-13.54,26.18-39.24,18.51-63.09-7.14-22.22-26.86-35.83-53-37.21-8.89-.47-15.59,1.31-21.66,8.88-18.15,22.67-37.98,44.03-55.59,67.08-10.58,13.85-21.84,21.61-39.85,18.76-8.93-1.42-18.31.32-27.42-.35-11.66-.87-16.21,6.41-21.29,16.08,24.53,0,47.6.48,70.63-.36,5.39-.2,12.08-3.56,15.67-7.66,22.81-26.03,44.85-52.73,67.37-79.01,2.63-3.07,6.47-6.61,10.1-7.06,20.67-2.56,39.89,13.83,42.19,35.12,2.36,21.85-12.09,41.12-33.24,43.31-9.46.98-19.17,1.25-28.61.27-11.47-1.19-17.52,4.4-22.95,15.16ZM186.35,269.85c18.17-3.72,38.61,8.29,50.19-16.76-17.91,2.93-37.9-8.56-50.19,16.76ZM276.05,206.81c-27.05-2.88-29.95-1.82-37.81,14.11,14.52.42,30.05,5.55,37.81-14.11Z"/>
    <path class="cls-2" d="M258.5,316.04c5.43-10.76,11.49-16.35,22.95-15.16,9.43.98,19.15.71,28.61-.27,21.14-2.19,35.59-21.46,33.24-43.31-2.3-21.29-21.52-37.68-42.19-35.12-3.63.45-7.47,3.99-10.1,7.06-22.52,26.28-44.56,52.99-67.37,79.01-3.59,4.1-10.28,7.46-15.67,7.66-23.03.84-46.1.36-70.63.36,5.08-9.67,9.63-16.95,21.29-16.08,9.11.68,18.49-1.06,27.42.35,18.01,2.85,29.27-4.91,39.85-18.76,17.62-23.06,37.45-44.41,55.59-67.08,6.07-7.58,12.77-9.35,21.66-8.88,26.14,1.37,45.86,14.99,53,37.21,7.67,23.85.71,49.56-18.51,63.09-6.86,4.83-15.65,8.83-23.85,9.49-17.77,1.42-35.74.44-55.3.44Z"/>
    <path class="cls-2" d="M186.35,269.85c12.29-25.32,32.28-13.83,50.19-16.76-11.58,25.05-32.02,13.04-50.19,16.76Z"/>
    <path class="cls-2" d="M276.05,206.81c-7.75,19.65-23.28,14.53-37.81,14.11,7.85-15.93,10.76-16.99,37.81-14.11Z"/>
  </g>
</svg>