<?xml version="1.0" encoding="UTF-8"?>
<svg id="ZAVYA" xmlns="http://www.w3.org/2000/svg" viewBox="0 0 1202.64 533.28">
  <defs>
    <style>
      .cls-1 {
        fill: #333132;
      }

      .cls-1, .cls-2 {
        stroke-width: 0px;
      }

      .cls-2 {
        fill: #2a2627;
      }
    </style>
  </defs>
  <path class="cls-1" d="M604.68,423.42c189.94,0,379.89.13,569.83-.23,16.43-.03,29.89-.69,26.57,22.4-1.42,9.9-3.18,16.24-14.77,15.07-5.25-.53-10.6-.08-15.91-.08-377.77,0-755.53.1-1133.29-.53-10.14-.02-27.12,10.34-30.83-10.71-3.53-20.05,3.81-26.58,25.39-26.47,191,.95,382.01.55,573.01.55Z"/>
  <path class="cls-2" d="M405.61,342.18c-29.4,38.62-67.04,40.99-105.7,38.72-35.8-2.1-63.02-27.42-68.98-62.43-4.97-29.25,14.21-60.95,45.56-74.49,27.24-11.77,56.65-14.13,85.41-19.56,21.61-4.08,47.28-7.42,45.39-38.01-1.86-30.1-24.71-39.7-50.87-42.21-36.04-3.45-56.56,8.57-69.65,44.58-7.52,20.7-22.58,13.24-33.9,11.58-16.46-2.42-5.25-15.91-3.68-22.77,7.31-31.9,29.2-51,60.03-59.11,21.56-5.67,43.55-7.11,66.1-2.88,46.98,8.83,67.93,30.97,69.37,79.13,1.17,39.18-.28,78.44.58,117.63.32,14.67-4.21,33.67,21.01,34.94,11.45.58,6.75,11.02,7.45,17.54.93,8.72-2.84,13.51-12.29,14.62-26.55,3.13-45.84-5.38-55.83-37.29ZM406.96,239.21c-34.09,17.6-70.14,16.58-102.57,29.38-20.11,7.94-29.51,22.91-28.74,44.22.83,23.01,16,33.87,36.02,37.56,12.08,2.22,25.42,1.89,37.46-.7,45.16-9.74,61.06-39.71,57.84-110.46Z"/>
  <path class="cls-2" d="M14.06,42.33c143.3-.33,286.6-.97,429.91-.92,249.47.08,498.94.59,748.41.92,4.22,27.6-14.71,24.62-32.01,24.62-384.28-.15-768.56-.2-1152.83-.26.08-4.25.16-8.51.24-12.76,4.77-2.41,6.09-6.7,6.29-11.59Z"/>
  <path class="cls-2" d="M1133.25,344.08c-26.34,33.02-60.62,39.39-97.69,38.02-36.96-1.38-67.45-24.35-72.85-54.91-7.58-42.95,8.92-72.36,50.54-86.65,24-8.24,49.16-11.82,74.41-15.32,22.33-3.1,48.34-6.03,47.88-38.81-.34-23.91-19.8-40.02-50.53-42.42-36.88-2.88-58.95,9.7-69.49,44.9-6.7,22.37-22.63,12.07-33.04,11.15-14.81-1.31-7.01-15.36-4.99-22.78,8.51-31.18,29.5-51.01,60.71-58.91,22.77-5.76,45.83-6.77,69.31-2.11,43.52,8.64,64.88,31.58,66.04,76.08,1.08,41.32.03,82.69.42,124.03.13,13.46-1.71,29.03,18.64,30.69,13.65,1.11,9.33,11.67,9.56,19.28.35,11.61-7.98,12.81-17.11,13.73-26.17,2.63-41.58-11.26-51.8-35.98ZM1134,242.12c-34.65,9.27-69.64,16.73-103.23,28.26-25.12,8.63-32.78,31.63-22.99,54.49,8.28,19.34,23.56,33.66,50.24,27.93,69.04-14.83,83.53-34.38,75.98-110.69Z"/>
  <path class="cls-2" d="M198.61,377c-56.18.35-112.35,1.06-168.52.71-9.46-.06-23.59,7.17-27.97-5.95-4.24-12.69-2.29-26.26,7.38-38.64,38.49-49.26,75.99-99.28,113.85-149.04,6.17-8.11,12.25-16.29,22.17-29.49-40.05,0-74.46.43-108.85-.24-11.98-.23-28.41,7.08-28.81-17.19-.39-23.36,14.55-18.63,27.54-18.68,46.66-.18,93.32-.39,139.97.23,8.54.11,20.45-6.04,25.3,6,4.2,10.44.09,20.28-6.92,29.41-39.99,52.13-79.74,104.44-119.16,157-6.02,8.02-15.02,14.64-16.47,29.44,42.76,0,84.71,1.02,126.56-.43,21.37-.74,26.45,7.13,20.61,25.89-4.91,2.02-6.49,6.07-6.67,10.96Z"/>
  <path class="cls-2" d="M701.19,121.36c-29.45,81.46-58.88,160.77-86.44,240.72-5.92,17.18-16.56,16.12-29.35,16.02-11.5-.09-21.95,1.72-27.31-14.04-27.54-81.08-56.35-161.73-84.7-242.48,32.53-10.77,46.73,1.63,55.27,31.87,16.38,57.93,36.5,114.81,55.08,172.14,13.4-.7,11.19-12.3,13.45-18.81,18.04-51.98,36.99-103.79,51.6-156.77,8.03-29.11,21.95-38.07,52.38-28.64Z"/>
  <path class="cls-2" d="M721.19,119.93c24.05-5.58,38.63,2.48,49.06,26.26,18.67,42.56,40.84,83.59,64.21,130.61,22.97-46.89,45.06-90.22,65.34-134.37,6.87-14.94,15.46-21.02,31.39-18.61,13.37,2.03,18.7,6.34,11.13,20.44-35.54,66.18-70.02,132.93-105.83,198.97-17.8,32.84-47.98,41.94-83.17,37.54-19.69-2.46-20.57-5.05-16.98-41.11,19.68,22.39,38.47,10.62,55.12-1.1,16.81-11.83,23.83-26.91,11.54-48.84-28.91-51.58-55.48-104.46-82.99-156.82.39-4.33.77-8.66,1.16-12.99Z"/>
  <path class="cls-1" d="M7.52,66.68c384.28.07,768.56.12,1152.83.26,17.31,0,36.24,2.99,32.01-24.62,15.61,6.24,8.41,19.42,7.05,28.95-1.74,12.21-13.7,6.94-21.11,6.94-383.98.26-767.96.26-1151.94-.03-7.46,0-21.22,6.28-18.86-11.51Z"/>
  <path class="cls-1" d="M14.06,42.33c-.2,4.89-1.53,9.17-6.29,11.59-1.2-5.65-5.02-12.73,6.29-11.59Z"/>
  <path class="cls-1" d="M198.61,377c.17-4.9,1.76-8.94,6.67-10.96,2.06,6.26,4.01,12.45-6.67,10.96Z"/>
  <path class="cls-1" d="M721.19,119.93c-.39,4.33-.77,8.66-1.16,12.99-1.83-3.38-4.79-6.64-5.18-10.19-.4-3.55,2.82-4.92,6.34-2.8Z"/>
</svg>