<?xml version="1.0" encoding="UTF-8"?>
<svg id="the_whole_truth" data-name="the whole truth" xmlns="http://www.w3.org/2000/svg" viewBox="0 0 1202.64 533.28">
  <defs>
    <style>
      .cls-1 {
        fill: #000;
        stroke-width: 0px;
      }
    </style>
  </defs>
  <path class="cls-1" d="M960.63,241.26h32.66v53.73c9.05-11.77,20.55-16.47,34.58-16.25,16.14.26,26.85,7.8,31.31,23.27,1.59,5.49,2.48,11.38,2.51,17.1.19,39.08-.02,78.16.15,117.24.02,5.1-1.78,6.67-6.55,6.5-6.29-.23-12.63-.37-18.9.06-6.26.43-8.26-1.84-8.14-8.17.61-32.27.84-64.54,1.13-96.82.04-4.28-.18-8.57-.55-12.83-.56-6.59-2.25-12.43-9.89-14.32-7.77-1.92-16.39.14-19.9,7.06-3.07,6.05-5.19,13.26-5.3,20-.54,32.27-.46,64.55-.1,96.82.08,7.3-2.12,10.07-9.41,9.44-5.5-.48-11.1-.35-16.63-.03-5.92.34-7.71-1.89-7.65-7.91.38-41.85.43-83.71.47-125.57.02-21.18-.23-42.36-.32-63.54,0-1.71.3-3.42.52-5.77Z"/>
  <path class="cls-1" d="M253.97,241.38h33.07v54.67c1.52-1.42,2.42-2.08,3.09-2.92,10.32-12.8,26.61-17.69,42.73-12.77,12.83,3.91,21.48,16.13,22.27,32.81.56,11.82.18,23.68.18,35.52,0,28.73-.21,57.46.16,86.18.08,6.5-1.97,8.46-8.13,8.03-6.02-.42-12.1-.37-18.13-.03-5.62.31-7.41-1.82-7.31-7.45.58-32.75.86-65.51,1.19-98.27.04-4.02-.02-8.08-.46-12.07-.74-6.83-2.66-12.9-10.76-14.45-8.43-1.61-16.7,1.01-20.04,8.45-2.7,6-4.4,12.96-4.5,19.52-.45,32-.41,64.01-.06,96.01.08,7.16-1.82,10.2-9.24,9.5-5.24-.49-10.59-.37-15.86-.02-6.35.42-8.68-1.58-8.63-8.49.39-53.17.35-106.34.44-159.51.02-11.3,0-22.61,0-34.71Z"/>
  <path class="cls-1" d="M346.92,188.8c-5.37,6.85-9.85,12.45-14.19,18.14-5.92,7.76-13.96,11.41-23.44,11.91-15.9.84-24.57-4.73-27.96-20.33-3.63-16.68-6.29-33.69-7.78-50.69-1.24-14.21-.88-28.67.13-42.92.78-10.98,8.9-15.36,19.51-12.46,6.17,1.69,9.6,5.52,9.55,11.89-.08,9.82-1.03,19.66-.64,29.45.59,15.06,1.92,30.1,3.12,45.13.19,2.42,1.33,4.76,2.7,9.4,4.43-4.4,8.64-7.25,11-11.2,5.15-8.62,9.34-17.8,13.94-26.75,1.96-3.8,3.63-7.81,6-11.34,6.64-9.88,19.46-9.24,24.13,1.64,3.75,8.74,5.97,18.13,8.82,27.24,1.5,4.8,2.67,9.72,4.42,14.43,3.29,8.83,5.96,9.4,12.41,2.24,15.87-17.64,24.11-38.63,26.97-62.04.98-7.97,3.14-15.79,4.52-23.73,2.04-11.76,17.41-14.59,24.72-8.89,2.56,1.99,4.93,6.2,4.84,9.32-1.17,37.84-12.14,72.33-36.54,101.86-8.26,10-18.71,16.8-31.53,19.53-10.84,2.31-18.04-.82-23.48-10.41-3.68-6.5-6.95-13.23-11.22-21.43Z"/>
  <path class="cls-1" d="M817.72,283.57h33.25c.13,2.6.36,5.02.36,7.43.04,48.38-.06,96.77.19,145.15.03,5.98-1.67,8.26-7.64,7.9-5.77-.35-11.61-.4-17.38.03-6.49.49-9.56-1.69-8.57-8.49.21-1.46-.1-2.99-.21-5.37-1.2.92-2.06,1.28-2.47,1.92-10.07,15.95-33.45,17.2-46.96,11.26-12.57-5.53-16.93-16.8-18.17-29.32-.89-9-.54-18.12-.64-27.19-.32-32.26-.59-64.51-.88-96.77-.02-2.23,0-4.45,0-7.8,10.62,0,20.62-.19,30.59.24,1.28.06,3.39,3.33,3.45,5.17.23,7.04-.34,14.1-.38,21.15-.15,29.24-.23,58.47-.31,87.71,0,2.01,0,4.05.27,6.04.98,7.07,2.99,13.41,11.28,15.06,8.23,1.64,17.17-1.76,20.33-9.48,2.5-6.11,3.95-13.09,3.98-19.69.17-32.76-.29-65.52-.49-98.28-.01-1.98.23-3.95.41-6.66Z"/>
  <path class="cls-1" d="M498.4,101.07c6.39-2.75,11.09-4.78,15.8-6.8,4.6-1.98,9.04-4.72,13.85-5.75,9.23-1.99,17.79,1.75,20.7,11.08,3.78,12.09,7,24.92,7.17,37.47.33,24.92-1.45,49.87-2.73,74.79-.24,4.67-1.63,9.49-3.49,13.82-2.9,6.76-9.73,9.53-17.02,7.89-7.16-1.62-9.84-6.47-9.59-13.33.75-20.91,1.74-41.81,2.26-62.73.23-9.05-.18-18.14-.84-27.17-.49-6.8-3.22-8.44-9.61-5.79-13.86,5.75-22.38,16.35-24.84,31.03-3.04,18.13-5.17,36.41-7.75,54.61-.57,3.98-1.04,8.03-2.16,11.87-2.25,7.73-7.39,11.32-15.09,11.11-7.75-.21-13.24-3.93-13.51-12.38-.39-11.71.64-23.6,2.38-35.22,5.31-35.36,11.33-70.62,16.89-105.95,1.53-9.7,2.28-19.51,3.67-29.23.49-3.45,1.52-6.9,2.81-10.15,3.48-8.77,8.3-11.32,17.14-9.5,8.27,1.7,13.14,6.88,12.12,15.57-1.58,13.47-4.54,26.78-6.75,40.19-.68,4.13-.83,8.35-1.42,14.58Z"/>
  <path class="cls-1" d="M443.37,391.03h27.84c8.85,31.11-14.28,58.02-47.53,55.54-23.64-1.76-36.88-11.33-43.25-34.28-9.22-33.21-9.21-66.92.8-99.93,10.21-33.71,39.04-38.21,63.21-30.87,18.89,5.74,25.27,21.77,26.86,39.25,1.46,15.98.41,32.19.56,48.29.05,6.04-4.27,5.21-7.93,5.15-16.12-.27-32.25-.38-48.35-1.13-7.33-.34-10.33,2.05-9.1,9.42,1.28,7.68,1.71,15.57,3.74,23.03,2.55,9.36,8.83,13.09,18.16,12.42,8.29-.59,12.15-4.75,13.77-15.13.58-3.69.78-7.44,1.22-11.79ZM442.42,352.61c-.99-12.33-1.37-23.6-2.97-34.7-.96-6.65-6.04-9.99-13-10.41-7.02-.42-13.2,1.41-15.08,8.48-3.11,11.72-5.04,23.76-7.66,36.62h38.71Z"/>
  <path class="cls-1" d="M806.96,192.05c3.26,3.26,5.38,6.78,8.47,8.21,10.8,5,22.04,7.07,33.57,1.92,1.83-.82,3.77-1.42,5.66-2.11,6.11-2.24,11.45-1.87,14.87,4.56,3.29,6.17,1.82,13.76-4.28,17.28-16.47,9.5-34.33,12.7-52.33,6.21-35.45-12.8-53.44-49.32-40.65-85.02,10.36-28.93,30.73-44.69,60.71-44.52,14.37.08,26.39,5.81,34.03,17.78,5.47,8.56,9.74,18.24,12.64,27.99,3.75,12.62-2.57,24.01-14.97,28.35-17.56,6.15-35.4,11.5-53.11,17.21-.91.29-1.76.81-4.61,2.14ZM801.27,161.88c11.62-2.58,23.34-4.91,34.89-7.91,3.49-.91,6.78-3.34,9.59-5.74,1.41-1.2,2.38-4,2.14-5.9-.92-7.05-9.33-14.67-16.64-15.67-17.95-2.47-34.36,15.79-29.97,35.21Z"/>
  <path class="cls-1" d="M632.83,89.1c35.14-.53,57.27,20.58,60.26,52.76,2.89,31.1-10.97,52.65-36.6,67.21-25.87,14.7-67.25,2.46-78.65-22.1-5.71-12.32-6.31-25.37-4.39-38.51,2.37-16.24,10.24-29.93,21.32-41.73,11.01-11.71,24.26-18.75,38.05-17.63ZM604.38,158.08c.14,17.31,10.85,28.21,25.53,28.2,13.12,0,27.73-11.35,32.02-24.87,4.42-13.94-.76-30.73-11.93-38.61-8.91-6.29-20.58-6.08-28.63,1-10.93,9.62-16.52,21.91-16.99,34.28Z"/>
  <path class="cls-1" d="M621.31,442.87h-34.65c0-2.86-.01-5.5,0-8.13.27-47.63.55-95.25.8-142.88.06-11.03-.01-11.03-10.61-11.07q-21.69-.08-21.54-22,.08-11.38,11.58-11.36c25.95.01,51.9.24,77.85-.15,6.81-.1,8.93,2.1,8.44,8.6-.45,6.01-.3,12.1-.02,18.13.23,4.85-1.63,6.94-6.52,6.78-5.79-.18-11.61.31-17.38-.1-6.37-.46-8.23,2.14-8.18,8.29.26,34.52.2,69.05.23,103.57.02,16.57,0,33.13,0,50.31Z"/>
  <path class="cls-1" d="M207.03,442.79h-34.83c0-3.04-.01-5.71,0-8.38.28-47.85.59-95.71.84-143.56.05-10.04-.05-10.05-10.09-10.08-5.54-.02-11.15.45-16.59-.3-2.04-.28-5.11-3.26-5.26-5.2-.59-7.51-.15-15.09-.19-22.64-.02-3.81,1.66-5.26,5.52-5.24,28.96.1,57.92.09,86.88,0,3.92-.01,5.39,1.51,5.33,5.34-.13,7.55.35,15.14-.25,22.65-.15,1.9-3.26,4.85-5.27,5.09-5.96.7-12.09.72-18.09.21-6.91-.59-8.52,2.45-8.48,8.76.31,46.85.36,93.7.49,140.54.01,4,0,8,0,12.81Z"/>
  <path class="cls-1" d="M880.18,281.27c0-8.2-.28-15.99.2-23.74.12-1.92,2.62-5.18,4.16-5.27,9.25-.5,18.53-.25,28.7-.25,0,8.37.28,16.08-.1,23.76-.25,5,1.46,6.75,6.4,6.53,6.73-.3,13.49-.07,20.85-.07,0,10.03.21,19.27-.25,28.48-.06,1.26-3.43,3.22-5.36,3.35-5.76.38-11.63-.45-17.35.18-1.98.22-5.2,3.26-5.24,5.08-.65,27.21-1.11,54.42-1.07,81.63.02,10.89,4.43,14.18,15.45,13.1,3.47-.34,6.89-1.23,11.68-2.12,1.18,9.49,2.55,19.03,3.31,28.62.09,1.15-2.97,3.26-4.87,3.74-12.17,3.07-24.53,3.83-36.43-.66-16.67-6.29-21.4-20.56-21.61-36.48-.37-27.97.06-55.94.28-83.91.05-5.8.69-11.44-7.99-10.98-1.05.06-3.04-2.91-3.25-4.64-.5-3.97-.18-8.04-.18-12.08q0-12.12,12.68-14.26Z"/>
  <path class="cls-1" d="M666.23,282h26.04v24.52c.46.12.91.23,1.37.35,1.44-3.52,2.75-7.11,4.36-10.55,6.47-13.86,20.31-19.68,34.63-14.42,1.4.51,3.2,2.71,3.13,4.04-.53,10-1.48,19.97-2.36,30.59-4.67-.33-8.59-.8-12.51-.85-11.27-.13-16.99,4.08-19.27,15.01-1.22,5.86-1.67,11.98-1.67,17.98-.04,28.97-.04,57.94.48,86.9.12,6.83-2.03,8.93-8.55,8.52-7.02-.44-14.13.27-21.13-.37-1.98-.18-5.3-3.29-5.3-5.08-.24-51.38-.14-102.77-.06-154.15,0-.69.45-1.38.83-2.48Z"/>
  <path class="cls-1" d="M757.51,40.09c-2.47,23.29-4.65,46.61-7.46,69.86-4.3,35.49-9.02,70.94-13.59,106.4-1.08,8.35-4.2,15.54-11.79,20.08-10.31,6.17-19.28,2.19-19.24-9.69.03-11.49,2.2-22.99,3.6-34.47,5.51-45.24,11.05-90.47,16.7-135.69.62-4.97,1.7-9.94,3.16-14.73,1-3.31,2.63-6.59,4.65-9.41,4.24-5.92,10.78-10.46,17.34-7.43,4.13,1.9,5.79,9.15,8.56,13.99-.64.36-1.28.73-1.92,1.09Z"/>
  <path class="cls-1" d="M527.75,455.89c-2.55,13.32-5.08,26.65-7.64,39.97-1.85,9.61-6.88,14.28-14.19,13.23-7.28-1.05-12.31-8.37-10.71-17.3,4.87-27.25,10.21-54.42,15.28-81.64,1.05-5.65,4.25-9.13,9.81-10.04,5.95-.97,11.13.88,14.39,6.12,3.32,5.34,6.16,10.97,9.18,16.49,11.47,20.98,23.02,41.92,34.36,62.98,4.78,8.88,3.26,16.17-3.74,20.47-6.5,4-14.56,1.39-19.65-7.12-7.36-12.31-14.22-24.93-21.32-37.39-1.2-2.11-2.55-4.13-3.84-6.19-.65.14-1.29.28-1.94.42Z"/>
</svg>