<?xml version="1.0" encoding="UTF-8"?>
<svg id="Drip_Project" data-name="Drip Project" xmlns="http://www.w3.org/2000/svg" viewBox="0 0 1202.64 533.28">
  <defs>
    <style>
      .cls-1 {
        fill: #fdfdfd;
      }

      .cls-1, .cls-2, .cls-3 {
        stroke-width: 0px;
      }

      .cls-2 {
        fill: #000;
      }

      .cls-3 {
        fill: #fefefe;
      }
    </style>
  </defs>
  <path class="cls-2" d="M306.4.02c177.34,0,354.69,0,532.03-.02,1,0,1.22.22,1.22,1.22-.03,176.94-.03,353.89,0,530.83,0,1-.22,1.22-1.22,1.22-176.94-.03-353.89-.03-530.83,0-1,0-1.22-.22-1.22-1.22.03-177.34.02-354.69.02-532.03ZM573.55,281.04c52.21,0,104.42,0,156.63.03,1.21,0,1.5-.29,1.5-1.5-.03-58.3-.03-116.6,0-174.89,0-1.2-.29-1.5-1.5-1.5-104.42.03-208.84.03-313.27,0-1.2,0-1.5.29-1.5,1.5.03,58.3.03,116.6,0,174.9,0,1.21.3,1.5,1.5,1.5,52.21-.03,104.42-.03,156.63-.03ZM573.28,429.81c52.34,0,104.69,0,157.03.03,1.11,0,1.37-.25,1.36-1.36-.04-12.89-.04-25.77,0-38.66,0-1.11-.26-1.36-1.36-1.36-104.69.03-209.38.03-314.07,0-1.1,0-1.37.25-1.37,1.36.04,12.8.05,25.59,0,38.39,0,1.34.31,1.63,1.64,1.63,52.26-.04,104.51-.03,156.77-.03ZM507.03,379.15c-.59-1.61-1.05-3.09-1.19-4.63-.58-6.29-.16-12.6-.27-18.91-.04-2.44-.13-4.88-.53-7.3-.61-3.66-1.85-7.02-4.62-9.65-1.15-1.09-2.51-1.85-4.07-2.64,5.19-2.52,7.83-6.78,8.54-12.1.87-6.57,1.04-13.22-.21-19.76-1.23-6.46-5.2-10.61-11.64-12.27-2.64-.68-5.33-.96-8.04-.97-6.75-.03-13.5,0-20.25-.03-.92,0-1.06.3-1.06,1.12.02,28.69.02,57.39,0,86.08,0,.87.22,1.1,1.09,1.09,3.86-.05,7.73-.07,11.59.01,1.12.02,1.26-.38,1.25-1.34-.04-6.93-.02-13.86-.02-20.79,0-4.22.04-8.44-.03-12.66-.02-1.02.27-1.29,1.26-1.23,1.51.09,3.02-.01,4.53.05,4.54.19,6.89,2.19,7.87,6.62.38,1.7.44,3.43.44,5.16,0,5.55-.02,11.1.04,16.66.02,2.26.24,4.51.94,6.69.21.64.46.82,1.1.82,4.35-.02,8.7-.01,13.28-.01ZM555.71,335.02c0-7.6-.01-15.19,0-22.79,0-2.18-.14-4.35-.56-6.49-1.52-7.66-5.74-12.94-13.46-15.03-3.6-.97-7.28-1.11-10.96-.62-7,.93-12.35,4.22-15.22,10.9-1.35,3.13-1.95,6.45-1.95,9.85-.03,16.03-.01,32.07-.02,48.1,0,1.78.2,3.55.54,5.29,1.5,7.66,5.68,12.97,13.41,15.07,3.6.98,7.27,1.12,10.96.64,7-.91,12.37-4.17,15.26-10.84,1.43-3.3,1.99-6.8,2-10.38.02-7.91,0-15.81,0-23.72ZM415.44,334.92c0,14.26.02,28.52-.03,42.78,0,1.26.37,1.5,1.53,1.47,3.69-.07,7.38-.08,11.06,0,1.11.02,1.37-.26,1.37-1.37-.05-10.17-.01-20.35-.05-30.52,0-1.02.27-1.27,1.25-1.22,1.86.08,3.73.05,5.6.02,3.03-.05,6.03-.36,8.89-1.42,7.56-2.79,10.68-8.76,11.45-16.29.58-5.67.24-11.36.22-17.05,0-1.99-.29-3.98-.72-5.94-1.48-6.62-5.18-11.27-11.78-13.34-2.77-.87-5.65-1.14-8.54-1.14-6.26,0-12.53.04-18.79-.04-1.28-.02-1.46.4-1.46,1.54.04,14.17.02,28.35.02,42.52ZM642.85,334.94h0c0,7.51.01,15.02,0,22.53,0,2.32.12,4.62.55,6.89,1.18,6.24,4.14,11.21,10.12,13.92,3.76,1.7,7.77,2.16,11.85,1.86,11.15-.8,17.23-6.54,18.63-17.63.65-5.17.16-10.39.29-15.58.02-.86-.58-.61-1-.62-3.64-.01-7.29.03-10.93-.03-.99-.02-1.25.21-1.24,1.22.06,4.22.07,8.44,0,12.66-.07,3.86-1.81,6.31-4.87,7.07-1.49.37-3,.35-4.49.03-2.28-.49-3.73-1.94-4.44-4.14-.47-1.45-.56-2.95-.56-4.47,0-15.55,0-31.1,0-46.66,0-.8-.04-1.61.04-2.4.27-2.59.89-5.03,3.43-6.38,4.64-2.47,9.67-.06,10.71,5.07.18.88.2,1.76.21,2.65,0,2.89.01,5.78,0,8.66,0,.56-.05.99.78.98,3.87-.04,7.73-.03,11.6-.01.55,0,.79-.13.77-.74-.15-4.83.37-9.69-.6-14.49-1.42-7-5.11-12.11-12.13-14.36-3.82-1.22-7.75-1.32-11.73-.93-7.64.74-13.38,5.31-15.68,12.62-.85,2.69-1.27,5.45-1.28,8.25-.03,8,0,16,0,23.99ZM597.27,335c0,14.31,0,28.61,0,42.92,0,.62-.24,1.27.9,1.26,12.04-.04,24.08-.03,36.12,0,.8,0,.93-.26.93-.98-.04-3.47-.06-6.93.01-10.4.02-1.01-.26-1.24-1.24-1.23-7.2.05-14.4,0-21.59.05-.98,0-1.27-.21-1.26-1.23.05-7.78.04-15.55,0-23.33,0-1.02.22-1.33,1.29-1.32,5.55.06,11.11,0,16.66.05.91,0,1.3-.09,1.28-1.18-.09-3.42-.07-6.84,0-10.26.02-.94-.24-1.16-1.17-1.16-5.6.05-11.2,0-16.79.05-.97,0-1.27-.2-1.26-1.22.05-7.42.05-14.84,0-22.26,0-1.07.29-1.31,1.32-1.31,7.2.05,14.4,0,21.59.05.92,0,1.19-.2,1.18-1.16-.06-3.33-.07-6.67,0-10,.02-1.11-.18-1.47-1.41-1.47-11.68.06-23.37.05-35.06,0-1.15,0-1.54.2-1.53,1.47.05,14.22.03,28.44.03,42.65ZM717.25,341.42c0-12.18.01-24.35-.02-36.53,0-1.1.17-1.51,1.41-1.48,4.04.1,8.09.01,12.13.06.83,0,1.03-.22,1.02-1.03-.05-3.51-.05-7.02,0-10.53.01-.81-.18-1.03-1.02-1.03-13.64.03-27.28.03-40.92,0-.88,0-1.11.23-1.1,1.1.05,3.47.05,6.93,0,10.4-.01.88.23,1.11,1.1,1.1,3.95-.05,7.91.03,11.86-.05,1.28-.03,1.69.21,1.69,1.62-.05,24.22-.03,48.43-.07,72.65,0,1.25.36,1.5,1.52,1.48,3.69-.08,7.38-.08,11.06,0,1.11.02,1.37-.26,1.36-1.36-.05-12.13-.03-24.26-.03-36.39ZM587.68,325.73c0-11.19-.02-22.39.03-33.58,0-1.08-.31-1.29-1.31-1.28-3.73.06-7.46.07-11.19,0-1.15-.02-1.45.23-1.44,1.42.04,21.59.03,43.17.03,64.76,0,.71.01,1.42-.02,2.13-.25,4.99-2.61,7.33-7.6,7.49-1.42.04-2.84,0-4.26-.07-.65-.03-.94.07-.93.83.04,3.64.03,7.28,0,10.93,0,.64.18.8.81.85,3.33.28,6.66.37,9.97-.07,7.37-.98,12.42-4.84,14.61-12.1,1-3.3,1.31-6.7,1.31-10.12.01-10.39,0-20.79,0-31.18Z"/>
  <path class="cls-3" d="M573.55,281.04c-52.21,0-104.42,0-156.63.03-1.2,0-1.5-.29-1.5-1.5.03-58.3.03-116.6,0-174.9,0-1.21.3-1.5,1.5-1.5,104.42.03,208.84.03,313.27,0,1.21,0,1.5.29,1.5,1.5-.03,58.3-.03,116.6,0,174.89,0,1.2-.29,1.5-1.5,1.5-52.21-.03-104.42-.03-156.63-.03ZM423.71,191.28c0,25.94,0,51.89-.02,77.83,0,1.02.22,1.31,1.28,1.31,12.26-.04,24.52-.04,36.78-.02,4.05,0,8.07-.24,12.04-1.12,10.14-2.26,17.64-7.83,21.78-17.51,2.55-5.96,3.56-12.25,3.57-18.69.04-27.59.02-55.18.02-82.76,0-4.59-.49-9.12-1.62-13.58-2.51-9.89-7.94-17.43-17.59-21.45-5.1-2.13-10.47-2.99-15.98-3-12.93-.03-25.86,0-38.78-.06-1.2,0-1.51.27-1.5,1.49.04,25.86.03,51.71.03,77.57ZM590.94,270.37c-2.1-4.94-2.6-9.96-2.65-15.03-.09-9.46-.08-18.93-.07-28.39,0-3.96-.18-7.9-.83-11.81-1.61-9.69-5.66-17.71-15.32-21.96,2.97-1.5,5.59-3.31,7.78-5.69,5.03-5.48,7.08-12.19,7.79-19.39.72-7.31.33-14.65.3-21.97-.01-3.74-.49-7.44-1.37-11.07-2.43-10.12-8.27-17.19-18.32-20.5-4.67-1.54-9.5-2.24-14.4-2.26-12.71-.06-25.41-.02-38.12-.07-.96,0-1.14.27-1.14,1.18.02,51.94.03,103.88,0,155.82,0,1.1.38,1.18,1.28,1.17,7.29-.03,14.57-.04,21.86,0,1.12,0,1.46-.19,1.46-1.41-.05-19.73-.03-39.45-.03-59.18,0-.98.04-1.96-.01-2.93-.04-.67.22-.81.83-.8,3.2.04,6.4-.08,9.6.06,7.29.32,11.4,3.77,13.17,10.88.67,2.69.89,5.44.91,8.19.05,10.48,0,20.97.08,31.46.03,4.31.39,8.6,1.82,12.72.19.56.27,1.01,1.09,1.01,8.04-.04,16.08-.02,24.3-.02ZM650.86,191.29c0,25.95,0,51.89-.02,77.84,0,.91.09,1.28,1.18,1.27,7.42-.06,14.84-.05,22.26,0,.98,0,1.13-.3,1.13-1.19-.04-6.35-.02-12.71-.02-19.06,0-12.62.01-25.24-.02-37.85,0-.93.21-1.2,1.16-1.17,2,.08,4,.01,6,.03,5.11.04,10.21.02,15.25-1.04,9.93-2.1,17.5-7.29,21.85-16.67,2.95-6.35,3.97-13.12,4.01-20.06.05-7.73,0-15.46,0-23.19,0-4.55-.5-9.04-1.62-13.44-2.03-7.97-5.96-14.68-13.11-19.14-6.17-3.85-13.04-5.25-20.19-5.31-12.13-.09-24.26-.02-36.39-.08-1.2,0-1.5.29-1.5,1.5.04,25.86.03,51.72.03,77.57ZM628.74,191.32c0-25.9,0-51.81.03-77.71,0-1.11-.26-1.37-1.37-1.36-7.33.06-14.66.05-21.99,0-1.01,0-1.22.25-1.22,1.23.03,51.9.03,103.8,0,155.69,0,1,.24,1.23,1.23,1.23,7.29-.05,14.57-.06,21.86,0,1.22.01,1.5-.31,1.49-1.5-.04-25.86-.03-51.72-.03-77.58Z"/>
  <path class="cls-1" d="M573.28,429.81c-52.26,0-104.51,0-156.77.03-1.33,0-1.65-.29-1.64-1.63.06-12.8.05-25.59,0-38.39,0-1.11.26-1.36,1.37-1.36,104.69.03,209.38.03,314.07,0,1.1,0,1.37.25,1.36,1.36-.04,12.89-.04,25.77,0,38.66,0,1.11-.26,1.36-1.36,1.36-52.34-.03-104.69-.03-157.03-.03ZM511.16,415.08c0-1.6.02-3.2-.01-4.79-.01-.5.29-1.19-.2-1.47-.59-.33-1.18.16-1.71.47-2.67,1.58-5.34,3.15-7.99,4.76-.61.37-1.07.43-1.68.02-1-.66-2.05-1.24-3.08-1.85-1.79-1.06-3.57-2.15-5.38-3.18-1.15-.66-1.45-.46-1.46.84,0,2.84,0,5.68,0,8.52,0,3.13,0,3.11,3.19,3.02.73-.02.91-.26.89-.93-.04-1.55,0-3.11-.03-4.66-.02-.79.24-.84.85-.48,1.52.91,3.08,1.75,4.58,2.71.84.54,1.53.7,2.39.04.77-.59,1.67-1.01,2.52-1.49q3.05-1.73,3.06,1.76c0,3.14,0,3.1,3.15,3.03.81-.02.93-.32.92-1.01-.04-1.77-.01-3.55-.01-5.33ZM585.48,415.04c0,.89,0,1.77,0,2.66,0,.93-.01,1.86,0,2.8,0,.36-.2.88.45.9,1.02.03,2.04.02,3.06,0,.61,0,.52-.48.52-.87,0-1.51.03-3.02-.02-4.53-.03-.85.14-1.06.93-.58,1.55.94,3.18,1.77,4.69,2.77.82.54,1.42.42,2.17-.04,1.51-.93,3.08-1.75,4.57-2.7.9-.57,1.03-.26.99.61-.04.8,0,1.6,0,2.4,0,2.97,0,2.93,2.94,2.98.89.01,1.13-.22,1.12-1.11-.05-3.42-.02-6.83-.02-10.25,0-1.61-.22-1.74-1.66-.89-2.67,1.57-5.35,3.14-7.99,4.76-.72.44-1.26.5-2.03.02-2.67-1.66-5.41-3.22-8.12-4.81-1.34-.78-1.58-.65-1.58.82,0,1.69,0,3.37,0,5.06ZM525.84,408.75c-2.35,0-4.71.04-7.06-.02-.85-.02-1.03.26-1.02,1.05.04,3.55.03,7.11,0,10.66,0,.73.15.99.95.98,4.66-.04,9.33-.06,13.99.01,1.18.02,1.13-.57,1.14-1.38,0-.81-.03-1.3-1.11-1.27-3.29.08-6.58-.04-9.86.06-1.26.04-1.05-.66-1.07-1.4-.02-.75-.11-1.33,1.03-1.3,3.28.08,6.57-.03,9.86.06,1.16.03,1.14-.53,1.16-1.37.02-.86-.14-1.27-1.15-1.25-3.2.07-6.4,0-9.59.05-.88.01-1.33-.05-1.35-1.17-.02-1.18.49-1.24,1.39-1.23,3.24.04,6.49-.03,9.73.04,1.12.02.94-.65.94-1.29,0-.64.23-1.31-.92-1.27-2.35.09-4.71.03-7.06.03ZM656.42,422.07v-10.36c0-3.19,0-3.17-3.2-2.98-.68.04-.81.29-.8.88.03,1.64-.02,3.29.02,4.93.03.92-.3.97-1.01.6-1.76-.93-3.54-1.84-5.31-2.76-2.17-1.12-4.32-2.27-6.52-3.33-.54-.26-1.53-1.02-1.55.48-.04,3.69-.15,7.38.05,11.06.1,1.7,1.74.53,2.63.79.53.15,1.38.37,1.34-.82-.06-1.6.05-3.2-.04-4.8-.07-1.29.32-1.28,1.31-.75,3.8,2.03,7.63,3.99,11.45,5.96.56.29,1.17.5,1.62,1.1ZM580.29,421.42c-2.25-3.35-4.55-6.33-6.34-9.57-1.42-2.57-3.2-3.6-6.03-3.13-.57.09-.95.2-1.29.7-1.6,2.45-3.24,4.87-4.88,7.3-1,1.49-2.01,2.98-3.16,4.68,1.34,0,2.44-.08,3.53.02,1.08.1,1.78-.26,2.18-1.26.29-.73.83-.9,1.59-.89,2.31.05,4.62.06,6.93,0,.89-.03,1.4.28,1.79,1.04.25.48.39,1.12,1.17,1.11,1.41-.02,2.82,0,4.52,0ZM633.2,421.4c-2.83-4.22-5.51-8.22-8.19-12.23-.23-.35-.52-.4-.89-.43-3.93-.32-3.95-.31-6.14,3.06-.29.45-.59.88-.89,1.32-1.81,2.7-3.62,5.4-5.55,8.28,1.37,0,2.52-.07,3.65.02.97.07,1.61-.2,1.96-1.13.28-.75.81-1.04,1.65-1.02,2.39.05,4.79.03,7.18,0,.58,0,1.1.07,1.3.67.45,1.37,1.45,1.57,2.71,1.47.96-.08,1.93-.02,3.2-.02ZM548.72,408.75c-2.48,0-4.97,0-7.45,0-2.01,0-1.96,0-1.95,1.95,0,.81.32.93,1.02.92,1.82-.04,3.64.01,5.45-.03.7-.02.92.19.91.9-.04,1.99-.01,3.99-.01,5.99,0,3.01,0,2.97,2.97,2.96.84,0,1.04-.25,1.02-1.05-.05-2.39.05-4.79-.05-7.18-.05-1.24.21-1.74,1.56-1.63,1.59.13,3.2-.05,4.79.06,1.33.09.99-.79,1.01-1.47.02-.71.27-1.48-1.03-1.44-2.75.1-5.5.03-8.25.03ZM567.59,398.57c0,3.35.01,3.36,3.17,2.95.04,0,.09,0,.13-.01,1.3-.23,1.89-1.59,1.04-2.61-.34-.41-.3-.55-.08-.97.5-.97.04-2.01-1-2.15-1-.14-2.17-.34-3.01.05-.67.31-.13,1.54-.24,2.35-.02.13,0,.27,0,.4ZM572.86,395.71c1.21,1.79,2.95,3.11,2.47,5.41-.07.35.21.42.51.42.54,0,.41-.42.36-.67-.26-1.46.41-2.55,1.32-3.58.4-.46.73-.99,1.19-1.63-1.84-.04-1.86,1.83-2.88,2.37-1.15-.53-1.06-2.47-2.97-2.32Z"/>
  <path class="cls-1" d="M507.03,379.15c-4.58,0-8.93-.01-13.28.01-.63,0-.89-.18-1.1-.82-.71-2.18-.92-4.43-.94-6.69-.06-5.55-.03-11.1-.04-16.66,0-1.73-.07-3.46-.44-5.16-.98-4.44-3.33-6.43-7.87-6.62-1.51-.06-3.02.04-4.53-.05-.99-.06-1.27.22-1.26,1.23.06,4.22.03,8.44.03,12.66,0,6.93-.02,13.86.02,20.79,0,.96-.13,1.36-1.25,1.34-3.86-.08-7.73-.06-11.59-.01-.87.01-1.09-.22-1.09-1.09.02-28.69.02-57.39,0-86.08,0-.82.14-1.13,1.06-1.12,6.75.04,13.5,0,20.25.03,2.71.01,5.4.29,8.04.97,6.45,1.67,10.42,5.82,11.64,12.27,1.24,6.54,1.08,13.19.21,19.76-.71,5.33-3.35,9.58-8.54,12.1,1.56.79,2.93,1.56,4.07,2.64,2.78,2.63,4.02,5.99,4.62,9.65.4,2.41.48,4.85.53,7.3.11,6.3-.32,12.61.27,18.91.14,1.55.6,3.02,1.19,4.63ZM477.59,317.08c0,4.17.02,8.34-.02,12.51,0,.79.14,1.09,1,1.05,1.86-.08,3.73.01,5.59-.05,3.85-.12,6.41-2.06,6.95-5.84.76-5.36.76-10.8-.04-16.17-.49-3.3-2.75-4.98-6.17-5.1-2.08-.07-4.17.02-6.26-.05-.91-.03-1.09.29-1.08,1.13.04,4.17.02,8.34.02,12.51Z"/>
  <path class="cls-1" d="M555.71,335.02c0,7.91.01,15.81,0,23.72,0,3.58-.57,7.08-2,10.38-2.89,6.67-8.25,9.93-15.26,10.84-3.69.48-7.36.33-10.96-.64-7.73-2.1-11.91-7.41-13.41-15.07-.34-1.74-.54-3.51-.54-5.29,0-16.03-.01-32.07.02-48.1,0-3.4.6-6.72,1.95-9.85,2.88-6.67,8.22-9.97,15.22-10.9,3.69-.49,7.37-.35,10.96.62,7.72,2.08,11.94,7.37,13.46,15.03.42,2.14.57,4.3.56,6.49-.02,7.6,0,15.19,0,22.79ZM541.82,335.16h0c0-8.08,0-16.17,0-24.25,0-1.07-.09-2.13-.32-3.17-.73-3.37-3.01-5.23-6.51-5.33-3.86-.11-6.23,1.54-7.16,5.01-.24.9-.4,1.82-.4,2.76,0,16.57,0,33.14,0,49.7,0,1.34.28,2.64.78,3.89,1.1,2.76,3.33,3.8,6.1,3.87,2.91.08,5.36-.8,6.64-3.68.72-1.61.88-3.33.87-5.08-.01-7.91,0-15.81,0-23.72Z"/>
  <path class="cls-3" d="M415.44,334.92c0-14.17.01-28.35-.02-42.52,0-1.14.18-1.55,1.46-1.54,6.26.08,12.53.03,18.79.04,2.9,0,5.77.27,8.54,1.14,6.6,2.07,10.3,6.73,11.78,13.34.44,1.96.72,3.94.72,5.94.02,5.68.36,11.38-.22,17.05-.77,7.53-3.89,13.51-11.45,16.29-2.86,1.05-5.86,1.37-8.89,1.42-1.87.03-3.73.06-5.6-.02-.98-.04-1.25.2-1.25,1.22.04,10.17,0,20.35.05,30.52,0,1.11-.25,1.39-1.37,1.37-3.69-.08-7.38-.08-11.06,0-1.16.02-1.53-.21-1.53-1.47.05-14.26.03-28.52.03-42.78ZM429.34,318.5c0,4.66,0,9.33,0,13.99,0,.51-.17,1.08.73,1.05,2.31-.05,4.63.08,6.93-.08,3.27-.22,5.09-1.97,5.61-5.2.17-1.05.26-2.12.27-3.18.03-4.4.03-8.79,0-13.19,0-.97-.1-1.95-.24-2.91-.51-3.61-2.52-5.41-6.17-5.51-2-.06-4,.04-5.99-.04-.98-.04-1.15.32-1.15,1.21.04,4.62.02,9.24.02,13.86Z"/>
  <path class="cls-1" d="M642.85,334.94c0-8-.02-16,0-23.99,0-2.81.43-5.57,1.28-8.25,2.3-7.31,8.04-11.88,15.68-12.62,3.98-.38,7.91-.29,11.73.93,7.02,2.24,10.71,7.36,12.13,14.36.97,4.8.45,9.66.6,14.49.02.61-.22.74-.77.74-3.87-.02-7.73-.03-11.6.01-.84,0-.79-.42-.78-.98.01-2.89.01-5.78,0-8.66,0-.89-.03-1.77-.21-2.65-1.04-5.13-6.07-7.54-10.71-5.07-2.54,1.35-3.16,3.79-3.43,6.38-.08.79-.04,1.6-.04,2.4,0,15.55,0,31.1,0,46.66,0,1.52.09,3.02.56,4.47.72,2.2,2.16,3.65,4.44,4.14,1.49.32,3,.34,4.49-.03,3.06-.76,4.8-3.21,4.87-7.07.08-4.22.07-8.44,0-12.66-.01-1.01.25-1.24,1.24-1.22,3.64.07,7.29.02,10.93.03.43,0,1.03-.24,1,.62-.13,5.19.36,10.41-.29,15.58-1.4,11.09-7.48,16.83-18.63,17.63-4.07.29-8.09-.16-11.85-1.86-5.98-2.71-8.95-7.68-10.12-13.92-.43-2.28-.56-4.58-.55-6.89.02-7.51,0-15.02,0-22.53h0Z"/>
  <path class="cls-3" d="M597.27,335c0-14.22.02-28.44-.03-42.65,0-1.27.38-1.47,1.53-1.47,11.68.04,23.37.05,35.06,0,1.23,0,1.43.35,1.41,1.47-.07,3.33-.07,6.66,0,10,.02.95-.26,1.16-1.18,1.16-7.2-.04-14.4,0-21.59-.05-1.03,0-1.33.24-1.32,1.31.05,7.42.05,14.84,0,22.26,0,1.03.29,1.23,1.26,1.22,5.6-.05,11.2,0,16.79-.05.93,0,1.18.21,1.17,1.16-.06,3.42-.08,6.84,0,10.26.03,1.09-.37,1.19-1.28,1.18-5.55-.04-11.11.01-16.66-.05-1.07-.01-1.3.3-1.29,1.32.04,7.78.04,15.55,0,23.33,0,1.02.29,1.24,1.26,1.23,7.2-.04,14.4,0,21.59-.05.99,0,1.26.22,1.24,1.23-.07,3.46-.05,6.93-.01,10.4,0,.72-.13.99-.93.98-12.04-.03-24.08-.03-36.12,0-1.14,0-.9-.64-.9-1.26,0-14.31,0-28.61,0-42.92Z"/>
  <path class="cls-3" d="M717.25,341.42c0,12.13-.02,24.26.03,36.39,0,1.11-.25,1.39-1.36,1.36-3.69-.08-7.38-.08-11.06,0-1.17.02-1.52-.22-1.52-1.48.04-24.22.02-48.43.07-72.65,0-1.41-.41-1.65-1.69-1.62-3.95.09-7.91,0-11.86.05-.87.01-1.12-.22-1.1-1.1.05-3.47.05-6.93,0-10.4-.01-.87.22-1.11,1.1-1.1,13.64.03,27.28.03,40.92,0,.83,0,1.03.23,1.02,1.03-.05,3.51-.05,7.02,0,10.53.01.81-.19,1.04-1.02,1.03-4.04-.05-8.09.04-12.13-.06-1.24-.03-1.41.37-1.41,1.48.04,12.18.02,24.35.02,36.53Z"/>
  <path class="cls-3" d="M587.68,325.73c0,10.39,0,20.79,0,31.18,0,3.43-.31,6.82-1.31,10.12-2.19,7.27-7.24,11.12-14.61,12.1-3.31.44-6.64.36-9.97.07-.63-.05-.81-.21-.81-.85.03-3.64.04-7.28,0-10.93,0-.76.28-.86.93-.83,1.42.07,2.84.12,4.26.07,4.99-.16,7.35-2.5,7.6-7.49.04-.71.02-1.42.02-2.13,0-21.59.01-43.17-.03-64.76,0-1.19.3-1.45,1.44-1.42,3.73.08,7.46.07,11.19,0,1-.02,1.32.2,1.31,1.28-.05,11.19-.03,22.39-.03,33.58Z"/>
  <path class="cls-2" d="M423.71,191.28c0-25.86,0-51.71-.03-77.57,0-1.22.31-1.5,1.5-1.49,12.93.05,25.86.03,38.78.06,5.5.01,10.88.88,15.98,3,9.65,4.02,15.08,11.56,17.59,21.45,1.13,4.45,1.62,8.99,1.62,13.58,0,27.59.02,55.18-.02,82.76,0,6.44-1.01,12.73-3.57,18.69-4.15,9.68-11.65,15.25-21.78,17.51-3.96.88-7.98,1.13-12.04,1.12-12.26-.02-24.52-.02-36.78.02-1.06,0-1.28-.29-1.28-1.31.03-25.94.02-51.89.02-77.83ZM448.24,191.26c0,1.33,0,2.67,0,4,0,17.06,0,34.12.01,51.19,0,.55-.4,1.35.82,1.33,4.8-.06,9.6.05,14.39-.07,5.21-.13,8.61-2.85,10.17-7.83.85-2.7.99-5.49.99-8.29,0-26.84,0-53.67,0-80.51,0-2.13-.14-4.26-.51-6.36-1.09-6.28-4.99-9.69-11.33-9.78-4.35-.06-8.71.02-13.06-.05-1.16-.02-1.53.21-1.53,1.47.05,18.31.03,36.61.03,54.92Z"/>
  <path class="cls-2" d="M590.94,270.37c-8.22,0-16.26-.01-24.3.02-.82,0-.9-.45-1.09-1.01-1.43-4.12-1.78-8.42-1.82-12.72-.08-10.48-.03-20.97-.08-31.46-.01-2.75-.24-5.5-.91-8.19-1.77-7.11-5.88-10.56-13.17-10.88-3.19-.14-6.4-.03-9.6-.06-.62,0-.87.13-.83.8.06.97.01,1.95.01,2.93,0,19.73-.01,39.45.03,59.18,0,1.22-.34,1.41-1.46,1.41-7.29-.05-14.57-.04-21.86,0-.9,0-1.28-.08-1.28-1.17.03-51.94.03-103.88,0-155.82,0-.91.18-1.18,1.14-1.18,12.71.04,25.41,0,38.12.07,4.9.02,9.72.73,14.4,2.26,10.05,3.31,15.89,10.39,18.32,20.5.87,3.64,1.35,7.33,1.37,11.07.03,7.33.42,14.67-.3,21.97-.71,7.2-2.76,13.9-7.79,19.39-2.18,2.38-4.8,4.18-7.78,5.69,9.67,4.26,13.71,12.27,15.32,21.96.65,3.91.83,7.85.83,11.81,0,9.46-.02,18.93.07,28.39.05,5.07.55,10.09,2.65,15.03ZM539.15,159.09c0,7.73.01,15.46-.02,23.19,0,.87.12,1.23,1.12,1.2,2.89-.07,5.77,0,8.66-.03,2.32-.03,4.62-.27,6.79-1.14,5.04-2.03,7.03-6.27,7.41-11.24.63-8.19.6-16.42.02-24.62-.56-7.82-4.76-11.55-12.57-11.55-3.42,0-6.84.04-10.26-.02-.94-.02-1.17.24-1.16,1.17.04,7.69.02,15.37.02,23.06Z"/>
  <path class="cls-2" d="M650.86,191.29c0-25.86,0-51.72-.03-77.57,0-1.21.29-1.5,1.5-1.5,12.13.06,24.26-.01,36.39.08,7.15.05,14.02,1.45,20.19,5.31,7.15,4.46,11.08,11.17,13.11,19.14,1.12,4.41,1.62,8.9,1.62,13.44,0,7.73.04,15.46,0,23.19-.04,6.94-1.06,13.71-4.01,20.06-4.35,9.38-11.92,14.58-21.85,16.67-5.04,1.06-10.14,1.08-15.25,1.04-2-.01-4,.05-6-.03-.95-.04-1.16.24-1.16,1.17.03,12.62.02,25.24.02,37.85,0,6.35-.02,12.71.02,19.06,0,.89-.15,1.19-1.13,1.19-7.42-.05-14.84-.05-22.26,0-1.09,0-1.18-.36-1.18-1.27.02-25.95.02-51.89.02-77.84ZM675.39,161.59c0,8.62,0,17.23,0,25.85,0,.55-.19,1.12.79,1.1,4-.07,8,.08,11.99-.1,6.23-.28,9.4-3.25,10.48-9.42.55-3.17.5-6.37.46-9.56-.1-7.86.31-15.72-.24-23.58-.52-7.34-4.34-10.93-11.65-10.99-3.46-.03-6.93.04-10.39-.03-1.11-.02-1.48.17-1.47,1.4.07,8.44.04,16.88.04,25.32Z"/>
  <path class="cls-2" d="M628.74,191.32c0,25.86,0,51.72.03,77.58,0,1.2-.28,1.51-1.49,1.5-7.29-.06-14.57-.05-21.86,0-.99,0-1.23-.23-1.23-1.23.03-51.9.03-103.8,0-155.69,0-.98.21-1.24,1.22-1.23,7.33.05,14.66.05,21.99,0,1.11,0,1.37.25,1.37,1.36-.04,25.9-.03,51.81-.03,77.71Z"/>
  <path class="cls-2" d="M511.16,415.08c0,1.78-.03,3.55.01,5.33.02.7-.11,1-.92,1.01-3.14.07-3.14.1-3.15-3.03q0-3.49-3.06-1.76c-.85.48-1.75.9-2.52,1.49-.87.66-1.55.5-2.39-.04-1.49-.96-3.05-1.8-4.58-2.71-.6-.36-.87-.31-.85.48.04,1.55,0,3.11.03,4.66.02.67-.17.91-.89.93-3.19.09-3.19.12-3.19-3.02,0-2.84,0-5.68,0-8.52,0-1.3.3-1.5,1.46-.84,1.81,1.03,3.59,2.11,5.38,3.18,1.03.61,2.08,1.19,3.08,1.85.61.41,1.07.35,1.68-.02,2.64-1.62,5.32-3.18,7.99-4.76.53-.32,1.12-.81,1.71-.47.49.28.19.97.2,1.47.03,1.6.01,3.2.01,4.79Z"/>
  <path class="cls-2" d="M585.49,415.04c0-1.69,0-3.37,0-5.06,0-1.47.24-1.6,1.58-.82,2.72,1.59,5.45,3.15,8.12,4.81.77.48,1.3.42,2.03-.02,2.64-1.62,5.32-3.19,7.99-4.76,1.44-.85,1.66-.73,1.66.89,0,3.42-.03,6.83.02,10.25.01.89-.23,1.12-1.12,1.11-2.94-.05-2.94,0-2.94-2.98,0-.8-.03-1.6,0-2.4.04-.86-.1-1.18-.99-.61-1.49.95-3.06,1.78-4.57,2.7-.75.46-1.35.58-2.17.04-1.51-1-3.14-1.82-4.69-2.77-.79-.48-.96-.27-.93.58.05,1.51.02,3.02.02,4.53,0,.39.09.86-.52.87-1.02.02-2.04.02-3.06,0-.65-.02-.44-.54-.45-.9-.01-.93,0-1.86,0-2.8,0-.89,0-1.77,0-2.66Z"/>
  <path class="cls-2" d="M525.84,408.75c2.35,0,4.71.07,7.06-.03,1.15-.05.93.63.92,1.27,0,.64.18,1.31-.94,1.29-3.24-.07-6.49,0-9.73-.04-.91-.01-1.41.05-1.39,1.23.02,1.12.47,1.18,1.35,1.17,3.2-.04,6.4.02,9.59-.05,1.01-.02,1.17.38,1.15,1.25-.02.84,0,1.4-1.16,1.37-3.28-.09-6.57.02-9.86-.06-1.14-.03-1.05.55-1.03,1.3.02.74-.19,1.44,1.07,1.4,3.28-.1,6.57.02,9.86-.06,1.08-.03,1.12.46,1.11,1.27,0,.82.04,1.4-1.14,1.38-4.66-.07-9.33-.05-13.99-.01-.8,0-.96-.26-.95-.98.03-3.55.04-7.11,0-10.66,0-.8.17-1.07,1.02-1.05,2.35.06,4.71.02,7.06.02Z"/>
  <path class="cls-2" d="M656.42,422.07c-.44-.6-1.05-.81-1.62-1.1-3.82-1.98-7.65-3.94-11.45-5.96-1-.53-1.38-.54-1.31.75.08,1.59-.03,3.2.04,4.8.05,1.18-.81.97-1.34.82-.9-.26-2.54.91-2.63-.79-.21-3.68-.09-7.37-.05-11.06.02-1.5,1.01-.74,1.55-.48,2.2,1.06,4.35,2.21,6.52,3.33,1.77.92,3.55,1.82,5.31,2.76.71.38,1.04.33,1.01-.6-.05-1.64,0-3.29-.02-4.93,0-.59.12-.84.8-.88,3.2-.18,3.2-.21,3.2,2.98v10.36Z"/>
  <path class="cls-2" d="M580.29,421.42c-1.7,0-3.11-.02-4.52,0-.77.01-.92-.63-1.17-1.11-.39-.76-.89-1.07-1.79-1.04-2.31.07-4.62.05-6.93,0-.76-.01-1.3.16-1.59.89-.4.99-1.09,1.36-2.18,1.26-1.08-.1-2.19-.02-3.53-.02,1.15-1.7,2.16-3.19,3.16-4.68,1.63-2.43,3.27-4.85,4.88-7.3.33-.51.72-.61,1.29-.7,2.83-.47,4.61.56,6.03,3.13,1.79,3.25,4.08,6.22,6.34,9.57ZM569.34,416.69c.77,0,1.48-.02,2.19,0,.66.02.8-.21.45-.78-.55-.91-1.09-1.82-1.63-2.74q-.93-1.58-1.84-.06c-.21.34-.41.68-.6,1.03-.43.8-1.52,1.69-1.13,2.34.37.62,1.71.08,2.56.2Z"/>
  <path class="cls-2" d="M633.2,421.4c-1.27,0-2.24-.07-3.2.02-1.26.11-2.26-.1-2.71-1.47-.2-.6-.72-.67-1.3-.67-2.39.02-4.79.05-7.18,0-.84-.02-1.37.26-1.65,1.02-.35.93-.99,1.21-1.96,1.13-1.13-.09-2.28-.02-3.65-.02,1.93-2.88,3.74-5.58,5.55-8.28.3-.44.6-.88.89-1.32,2.19-3.37,2.21-3.37,6.14-3.06.38.03.66.09.89.43,2.67,4.01,5.36,8.01,8.19,12.23ZM622.26,416.68c.71,0,1.42-.02,2.13,0,.67.03.95-.11.52-.8-.72-1.17-1.43-2.35-2.12-3.54-.35-.62-.61-.49-.91.03-.61,1.03-1.25,2.05-1.84,3.09-.19.33-.67.65-.47,1.03.25.47.8.14,1.22.19.48.05.98.01,1.46.01Z"/>
  <path class="cls-2" d="M548.72,408.75c2.75,0,5.5.07,8.25-.03,1.29-.05,1.04.73,1.03,1.44-.02.69.32,1.56-1.01,1.47-1.59-.1-3.2.08-4.79-.06-1.35-.11-1.61.39-1.56,1.63.1,2.39,0,4.79.05,7.18.02.81-.19,1.05-1.02,1.05-2.97.01-2.97.05-2.97-2.96,0-2-.03-3.99.01-5.99.01-.7-.21-.91-.91-.9-1.82.04-3.64-.01-5.45.03-.7.02-1.01-.1-1.02-.92-.01-1.95-.06-1.95,1.95-1.95,2.48,0,4.97,0,7.45,0Z"/>
  <path class="cls-2" d="M567.59,398.57c0-.13-.02-.27,0-.4.11-.81-.42-2.03.24-2.35.83-.39,2.01-.19,3.01-.05,1.04.14,1.5,1.18,1,2.15-.22.42-.26.57.08.97.85,1.01.26,2.38-1.04,2.61-.04,0-.09,0-.13.01-3.15.41-3.17.4-3.17-2.95ZM569.43,400.79c.89-.04,1.89.18,1.93-.88.05-1.16-.99-.99-1.77-1.03-.61-.02-1.17-.15-1.15.88.02.93.32,1.18.99,1.03ZM569.45,398.11c.74.02,1.59.1,1.65-.77.06-.9-.78-.9-1.46-.88-.58.01-1.21-.23-1.19.84.02.93.49.86,1.01.81Z"/>
  <path class="cls-2" d="M572.86,395.71c1.91-.15,1.82,1.79,2.97,2.32,1.02-.53,1.04-2.41,2.88-2.37-.47.64-.79,1.17-1.19,1.63-.9,1.03-1.58,2.12-1.32,3.58.04.25.17.67-.36.67-.3,0-.58-.08-.51-.42.48-2.31-1.26-3.62-2.47-5.41Z"/>
  <path class="cls-2" d="M477.59,317.08c0-4.17.02-8.34-.02-12.51,0-.84.17-1.16,1.08-1.13,2.08.07,4.17-.02,6.26.05,3.42.12,5.68,1.8,6.17,5.1.79,5.37.8,10.8.04,16.17-.54,3.79-3.1,5.72-6.95,5.84-1.86.06-3.73-.03-5.59.05-.86.04-1.01-.27-1-1.05.04-4.17.02-8.34.02-12.51Z"/>
  <path class="cls-2" d="M541.82,335.16c0,7.91,0,15.81,0,23.72,0,1.75-.16,3.47-.87,5.08-1.28,2.88-3.73,3.76-6.64,3.68-2.77-.07-5-1.11-6.1-3.87-.5-1.25-.78-2.54-.78-3.89,0-16.57,0-33.14,0-49.7,0-.94.16-1.86.4-2.76.92-3.47,3.29-5.12,7.16-5.01,3.5.1,5.78,1.96,6.51,5.33.23,1.04.32,2.1.32,3.17-.01,8.08,0,16.17,0,24.25h0Z"/>
  <path class="cls-2" d="M429.34,318.5c0-4.62.02-9.24-.02-13.86,0-.89.16-1.25,1.15-1.21,2,.08,4-.01,5.99.04,3.65.1,5.65,1.9,6.17,5.51.14.96.23,1.94.24,2.91.03,4.4.03,8.79,0,13.19,0,1.06-.1,2.13-.27,3.18-.52,3.23-2.33,4.98-5.61,5.2-2.3.15-4.62.02-6.93.08-.89.02-.73-.54-.73-1.05,0-4.66,0-9.33,0-13.99Z"/>
  <path class="cls-3" d="M448.24,191.26c0-18.31.02-36.61-.03-54.92,0-1.26.37-1.49,1.53-1.47,4.35.07,8.71-.01,13.06.05,6.34.09,10.24,3.5,11.33,9.78.36,2.11.51,4.23.51,6.36,0,26.84,0,53.67,0,80.51,0,2.8-.15,5.59-.99,8.29-1.56,4.98-4.96,7.7-10.17,7.83-4.8.12-9.6,0-14.39.07-1.23.02-.82-.78-.82-1.33-.02-17.06-.01-34.12-.01-51.19,0-1.33,0-2.67,0-4Z"/>
  <path class="cls-3" d="M539.15,159.09c0-7.69.02-15.37-.02-23.06,0-.93.22-1.18,1.16-1.17,3.42.06,6.84.02,10.26.02,7.81,0,12.02,3.73,12.57,11.55.58,8.2.62,16.43-.02,24.62-.38,4.97-2.37,9.21-7.41,11.24-2.17.87-4.47,1.12-6.79,1.14-2.89.03-5.78-.04-8.66.03-1,.03-1.12-.33-1.12-1.2.03-7.73.02-15.46.02-23.19Z"/>
  <path class="cls-3" d="M675.39,161.59c0-8.44.03-16.88-.04-25.32,0-1.23.36-1.43,1.47-1.4,3.46.07,6.93,0,10.39.03,7.31.06,11.13,3.65,11.65,10.99.56,7.85.14,15.72.24,23.58.04,3.19.09,6.39-.46,9.56-1.08,6.16-4.25,9.13-10.48,9.42-3.99.18-7.99.03-11.99.1-.98.02-.79-.56-.79-1.1,0-8.62,0-17.23,0-25.85Z"/>
  <path class="cls-1" d="M569.34,416.69c-.85-.12-2.19.42-2.56-.2-.39-.65.7-1.54,1.13-2.34.19-.35.39-.69.6-1.03q.91-1.52,1.84.06c.54.92,1.07,1.83,1.63,2.74.34.57.21.8-.45.78-.71-.02-1.42,0-2.19,0Z"/>
  <path class="cls-1" d="M622.26,416.68c-.49,0-.98.04-1.46-.01-.42-.04-.98.28-1.22-.19-.2-.38.28-.7.47-1.03.59-1.04,1.24-2.05,1.84-3.09.31-.52.56-.64.91-.03.69,1.19,1.39,2.37,2.12,3.54.43.69.14.83-.52.8-.71-.03-1.42,0-2.13,0Z"/>
  <path class="cls-1" d="M569.43,400.79c-.67.15-.97-.1-.99-1.03-.02-1.02.54-.9,1.15-.88.78.03,1.82-.13,1.77,1.03-.04,1.06-1.04.84-1.93.88Z"/>
  <path class="cls-1" d="M569.45,398.11c-.52.04-.99.11-1.01-.81-.02-1.07.61-.83,1.19-.84.68-.01,1.52-.02,1.46.88-.05.87-.91.79-1.65.77Z"/>
</svg>