<?xml version="1.0" encoding="UTF-8"?>
<svg id="SWTANTRA" xmlns="http://www.w3.org/2000/svg" viewBox="0 0 1202.64 533.28">
  <defs>
    <style>
      .cls-1 {
        fill: #0c0c0c;
        stroke-width: 0px;
      }
    </style>
  </defs>
  <path class="cls-1" d="M81.86,443.21c-18.36-.09-44.54-9.37-69.35-25.4-16.72-10.8-14.85-20.62-5.06-34.39,9.28-13.07,18.39-22.82,34.73-10.53,20.44,15.38,42.64,23.63,68.73,18.68,15.93-3.02,25.41-11.93,28.47-27.72,3.11-16.03-2.07-29.17-17-35.62-18.65-8.06-38.38-13.59-57.38-20.89-43.47-16.7-59.97-42.93-55.53-87.23,3.76-37.54,34.49-68.7,74.34-74.44,31.12-4.48,60.79-.58,88.96,14.98,16.63,9.18,21.14,18.25,10.63,35.96-10.12,17.05-20.13,20.92-36.82,9.78-14.86-9.92-31.62-14.2-49.69-11.54-15.17,2.23-27.56,8-30.72,24.96-3.21,17.21,5.79,27.23,20.52,33.13,13.24,5.31,26.73,10.02,40.21,14.71,58.85,20.48,78.57,49.75,68.46,101.87-8.82,45.47-49.7,74.97-113.52,73.69Z"/>
  <path class="cls-1" d="M272.76,374.66c7.26-22.04,14.61-44.05,21.72-66.14,3.32-10.32,7.83-18.6,20.72-18.12,11.61.43,15.03,8.4,18.03,17.55,7.25,22.12,14.8,44.14,23.38,69.62,14.04-22.77,16.2-45.27,22.06-66.32,4.3-15.48,11.88-21.25,28.06-20.79,35.75,1.01,71.56-.03,107.33.3,10.23.09,23.64-4.31,23.28,14.83-.32,17.25-12.36,13.91-21.45,12.91-17.71-1.95-23.03,4.76-22.21,22.14,1.3,27.53-.22,55.19.44,82.77.3,12.79-3.14,18.13-17.09,17.95-13.68-.18-17.49-5.1-17.09-18.12.82-26.55.86-53.17-.06-79.71-.32-9.32,6.97-25.69-12.71-24.24-15.34,1.13-36.17-12.35-42.19,17.58-5.8,28.85-16.98,56.6-25.4,84.95-3.35,11.29-6.21,19.9-21.87,19.59-14.89-.29-15.8-9.61-18.87-19.03-7.51-23.08-14.99-46.16-25.21-77.62-10.62,31.53-18.95,55.01-26.32,78.78-3.25,10.48-6.08,17.74-19.97,17.8-13.72.05-16.76-6.64-19.94-17.37-11.03-37.15-23.47-73.89-33.86-111.2-1.65-5.93-14.35-18.16,2.67-21.22,10.85-1.95,25-5.51,29.86,12.11,6.43,23.34,13.84,46.42,20.83,69.61,1.95.47,3.91.93,5.86,1.4Z"/>
  <path class="cls-1" d="M699.97,247.33c-29.08,1.08-54.75-9.15-76.87-26.44-20.5-16.02-36.9-14.41-57.22,1.1-42.22,32.21-104.59,34.13-140.37,6.94-32.31-24.56-29.86-67.47.78-93.26,31.3-26.34,105.03-22.6,142.77,8.15,20.42,16.64,34.31,13.66,53.31.23,31.75-22.44,66.78-34.83,106.66-25.01,40.39,9.94,62.34,33.61,60.49,65.81-1.49,25.89-32.3,54.63-65.15,60.29-8.02,1.38-16.26,1.5-24.4,2.2ZM499.76,146.12c-27.67-.35-45.65,5.84-54.87,25.61-5.09,10.91-6.62,23.98,3.54,33.74,15.9,15.27,32.3,27.22,56.59,14.18,20.61-11.07,57.61-16.27,53.46-38.99-4.04-22.08-36.87-34.95-58.71-34.54ZM698.9,219.11c30.21-.21,49.04-14.77,49.02-36.78-.01-22.19-18.62-35.69-47.8-36.07-22.93-.3-41.61,9.3-58.67,22.99-8.87,7.12-14.12,15.8-1.63,24.57,18.29,12.83,36.1,27.07,59.07,25.29Z"/>
  <path class="cls-1" d="M1059.23,426.68c16.09-40.81,31.66-79.51,46.5-118.48,4.38-11.51,9.3-17.91,23.62-18.13,15.02-.23,19.08,7.72,23.3,18.73,16.38,42.81,33.06,85.51,49.99,129.19-21.19,7.17-36.42,4.13-41.72-19.6-4.52-20.25-20.67-12.43-32.42-12.82-12.06-.4-25.1-4.96-32.55,13.5-11.92,29.52-59.83,31.91-78.43,5.6-1.17-1.66-1.85-3.73-3.19-5.21-9.96-10.98-13.74-35.38-28.3-32.08-16.21,3.68-7.23,25.75-7.59,39.7-.35,13.63-7.43,13.74-17.68,14.12-11.77.44-16.44-3.29-16.29-15.41.51-39.88.28-79.76.3-119.65,0-7.07-1.69-15.37,9.44-15.16,23.38.43,47.33-3.98,69.87,4.88,25.2,9.9,38.19,41.38,19.86,59.94-24.53,24.84-9.38,39.43,4.81,57.34,3.09,3.9,6.09,7.86,10.47,13.51ZM978.28,339.82c2.43,5.42-4.93,19.71,12.59,19.27,13.35-.34,25.15-4.56,26.49-19.64,1.42-15.87-9.47-20.21-23.43-21.46-15.42-1.37-16.53,7.68-15.66,21.83ZM1146.18,377c-5.67-14.59-10.47-26.94-17.38-44.69-6.83,18.66-11.48,31.33-16.21,44.24,11.12,4.41,20.8,3.83,33.58.45Z"/>
  <path class="cls-1" d="M771.17,372.69c0-19.09-.57-38.2.23-57.26.44-10.44-6.75-25.85,15.31-24.97,18.75.75,14.43,13.14,14.49,23.63.21,34.7.69,69.42-.25,104.09-.2,7.5,6.64,19.78-7.79,22.6-11.07,2.16-19.25-2.77-26.16-11.81-18.99-24.84-38.63-49.17-63.64-80.83,0,28.5.26,49.18-.11,69.86-.18,10.24,4.53,22.48-14.61,23.23-19.61.77-14.97-11.59-15.04-21.79-.24-34.72-.52-69.46.24-104.16.17-7.98-6.34-19.79,5.91-23.69,11.83-3.77,21.47,2.26,29.01,12.09,18.5,24.15,37.37,48.01,56.09,71.99,2.12-.99,4.24-1.99,6.35-2.98Z"/>
  <path class="cls-1" d="M517.32,439c18.17-46.28,35.51-89.69,52.13-133.36,4.28-11.25,10.78-15.31,22.76-15.34,10.77-.03,17.02,2.97,20.93,13.22,16.98,44.59,34.43,89.01,52.04,134.35-21.39,6.98-35.64,3.72-40.81-18.46-4.45-19.11-19.78-14.1-32.21-13.99-12.35.11-29.02-5.85-32.88,12.8-4.88,23.55-19.51,25.28-41.95,20.77ZM590.78,335.53c-6.37,14.46-13.06,27.25-14.1,43.19,11.4-.38,25.87,6.25,28.39-3.9,3.15-12.72-5.29-26.38-14.29-39.29Z"/>
  <path class="cls-1" d="M874.32,290.62c14.33.02,28.67.53,42.97-.13,11.93-.56,15.85,4.05,15.86,15.97.01,12.49-7.03,13.45-15.67,12.04-23.91-3.93-29.91,6.77-27.92,29.08,2,22.33.83,44.99.26,67.49-.3,11.84,5.91,27.12-17.59,26.35-24.58-.81-14.63-17.39-15.14-28.17-1.12-23.48-1.5-47.12-.04-70.56,1.17-18.76-4.87-26.46-24.01-24.17-9.68,1.16-20.17,3.14-19.73-14.05.45-17.46,11.74-13.4,21.09-13.74,13.28-.48,26.6-.12,39.9-.1Z"/>
  <path class="cls-1" d="M630.53,84.84c-1.87,23.75-14.35,37.06-38.98,36.4-24.2-.65-40.5-13.31-38.62-37.96,1.85-24.22,17.49-37.12,43.65-34.95,22.8,1.89,35.82,11.67,33.94,36.51Z"/>
</svg>